<svg width="57" height="60" viewBox="0 0 57 60" fill="none" xmlns="http://www.w3.org/2000/svg">
  <path fill-rule="evenodd" clip-rule="evenodd" d="M38.8285 43.139C39.0526 43.7074 38.7823 44.3532 38.2247 44.5816L36.9542 45.1022C36.9538 45.1023 36.9534 45.1025 36.9531 45.1026C36.2762 45.382 35.6907 45.8507 35.264 46.4546C34.837 47.0589 34.5864 47.774 34.5411 48.5173C34.4958 49.2606 34.6577 50.0018 35.008 50.6553C35.3584 51.3088 35.8829 51.8481 36.521 52.2107L39.5285 53.9213C40.1747 54.2928 40.7125 54.8326 41.0869 55.4854C41.4614 56.1382 41.659 56.8806 41.6596 57.6369V58.8135C41.6596 59.426 41.1725 59.9225 40.5716 59.9225C39.9708 59.9225 39.4837 59.426 39.4837 58.8135L39.4837 57.6388C39.4837 57.6386 39.4837 57.6389 39.4837 57.6388C39.4833 57.2756 39.3883 56.9185 39.2085 56.6049C39.0289 56.2919 38.7711 56.0329 38.4615 55.8545C38.4608 55.8541 38.4602 55.8538 38.4596 55.8534L35.4614 54.1481C34.4648 53.5817 33.6456 52.7395 33.0985 51.7189C32.5514 50.6982 32.2986 49.5407 32.3693 48.3798C32.4401 47.2189 32.8315 46.1021 33.4983 45.1583C34.1652 44.2144 35.0803 43.4822 36.138 43.046L36.1404 43.045L37.4133 42.5235C37.9709 42.2951 38.6045 42.5707 38.8285 43.139Z" fill="#814624" />
  <path fill-rule="evenodd" clip-rule="evenodd" d="M40.0819 31.7748C39.7698 31.7748 39.4711 31.9009 39.251 32.1252C39.0306 32.3499 38.9068 32.6544 38.9068 32.9721V49.0204C38.9068 49.6329 38.4197 50.1294 37.8189 50.1294C37.218 50.1294 36.7309 49.6329 36.7309 49.0204V32.9721C36.7309 32.0661 37.0839 31.1973 37.7124 30.5568C38.3411 29.9158 39.1936 29.5566 40.0819 29.5566M40.9185 32.1265C40.6964 31.9013 40.3957 31.7747 40.0819 31.7748H40.0819M40.0819 29.5566C40.9704 29.5566 41.8232 29.915 42.4534 30.5543C43.0834 31.1934 43.4395 32.0606 43.4438 32.9668L43.4438 32.9721H43.4438V42.3438C43.4438 42.9563 42.9567 43.4529 42.3558 43.4529C41.7549 43.4529 41.2678 42.9563 41.2678 42.3438V32.9751C41.2657 32.6565 41.1403 32.3516 40.9185 32.1265" fill="#814624" />
  <path fill-rule="evenodd" clip-rule="evenodd" d="M44.597 36.6876C44.2913 36.6876 43.9979 36.8115 43.7815 37.0321C43.5651 37.2526 43.4437 37.5515 43.4437 37.8633V40.0814C43.4437 40.6939 42.9566 41.1904 42.3557 41.1904C41.7548 41.1904 41.2677 40.6939 41.2677 40.0814V37.8633C41.2677 36.9631 41.6185 36.1001 42.2428 35.4636C42.867 34.8274 43.7138 34.4695 44.597 34.4695C45.4801 34.4695 46.3269 34.8274 46.9511 35.4636C47.5754 36.1001 47.9262 36.9631 47.9262 37.8633V43.7416C47.9262 44.3541 47.4391 44.8506 46.8382 44.8506C46.2373 44.8506 45.7502 44.3541 45.7502 43.7416V37.8633C45.7502 37.5515 45.6288 37.2526 45.4124 37.0321C45.196 36.8115 44.9026 36.6876 44.597 36.6876Z" fill="#814624" />
  <path fill-rule="evenodd" clip-rule="evenodd" d="M49.1884 37.7192C48.8539 37.7192 48.5329 37.8548 48.296 38.0962C48.0593 38.3375 47.9264 38.6647 47.9264 39.0059V40.2032C47.9264 40.8157 47.4393 41.3123 46.8384 41.3123C46.2375 41.3123 45.7504 40.8157 45.7504 40.2032V39.0059C45.7504 38.0764 46.1126 37.185 46.7574 36.5278C47.402 35.8707 48.2764 35.5011 49.1884 35.5011C50.1005 35.5011 50.9749 35.8707 51.6195 36.5278C52.2643 37.185 52.6265 38.0764 52.6265 39.0059V44.6172C52.6265 45.2297 52.1394 45.7263 51.5385 45.7263C50.9376 45.7263 50.4505 45.2297 50.4505 44.6172V39.0059C50.4505 38.6647 50.3176 38.3375 50.0809 38.0962C49.844 37.8548 49.523 37.7192 49.1884 37.7192Z" fill="#814624" />
  <path fill-rule="evenodd" clip-rule="evenodd" d="M53.736 41.3681C53.4477 41.3681 53.1709 41.485 52.9667 41.6931C52.7626 41.9012 52.648 42.1831 52.648 42.4772V43.7747C52.648 44.3872 52.1609 44.8838 51.56 44.8838C50.9592 44.8838 50.472 44.3872 50.472 43.7747V42.4772C50.472 41.5947 50.816 40.7486 51.428 40.1247C52.04 39.5009 52.8702 39.15 53.736 39.15C54.6019 39.15 55.432 39.5009 56.044 40.1247C56.6561 40.7486 57 41.5947 57 42.4772L57 46.9145C56.999 47.9749 56.8437 49.0289 56.5392 50.0427C56.5391 50.0431 56.539 50.0435 56.5389 50.0438L54.9734 55.297C54.9733 55.2973 54.9734 55.2967 54.9734 55.297C54.735 56.1016 54.6149 56.9383 54.6173 57.7787L54.6173 57.7819L54.6173 58.891C54.6173 59.5035 54.1302 60.0001 53.5293 60.0001C52.9284 60.0001 52.4413 59.5035 52.4413 58.891V57.7835C52.4384 56.7239 52.5897 55.6699 52.8904 54.6555L54.4576 49.3967L54.4583 49.3943C54.6999 48.5901 54.8231 47.7541 54.824 46.913V42.4772C54.824 42.1831 54.7094 41.9012 54.5053 41.6931C54.3012 41.485 54.0244 41.3681 53.736 41.3681Z" fill="#814624" />
  <path fill-rule="evenodd" clip-rule="evenodd" d="M6.26683 2.21811C5.18208 2.21811 4.1415 2.6577 3.37417 3.43989C2.60696 4.22194 2.17598 5.2825 2.17598 6.38844V42.3439C2.17598 42.8916 2.28182 43.4341 2.48738 43.94C2.69289 44.4457 2.99415 44.9051 3.37417 45.2925C3.75431 45.68 4.20536 45.9875 4.70133 46.1969C5.19762 46.4064 5.72958 46.5143 6.26683 46.5143H30.3767C30.9776 46.5143 31.4647 47.0108 31.4647 47.6233C31.4647 48.2358 30.9776 48.7324 30.3767 48.7324H6.26683C5.4439 48.7324 4.62897 48.5672 3.86862 48.2462C3.10793 47.925 2.41717 47.4539 1.83551 46.8609C1.25373 46.2679 0.792052 45.5641 0.477036 44.7888C0.162081 44.0137 0 43.1828 0 42.3439V6.38844C0 4.69417 0.660273 3.06944 1.83551 1.87145C3.01062 0.673587 4.60456 0 6.26683 0H49.8735C51.5358 0 53.1297 0.673587 54.3049 1.87145C55.4801 3.06944 56.1404 4.69417 56.1404 6.38844V36.6102C56.1404 37.2227 55.6533 37.7193 55.0524 37.7193C54.4515 37.7193 53.9644 37.2227 53.9644 36.6102V6.38844C53.9644 5.2825 53.5334 4.22194 52.7662 3.43989C51.9989 2.6577 50.9583 2.21811 49.8735 2.21811H6.26683Z" fill="#814624" />
  <path fill-rule="evenodd" clip-rule="evenodd" d="M8.08392 51.5823C8.08392 50.9698 8.57103 50.4733 9.17192 50.4733H30.2898C30.8907 50.4733 31.3778 50.9698 31.3778 51.5823C31.3778 52.1948 30.8907 52.6914 30.2898 52.6914H9.17192C8.57103 52.6914 8.08392 52.1948 8.08392 51.5823Z" fill="#814624" />
  <path fill-rule="evenodd" clip-rule="evenodd" d="M7.7684 39.8372C7.7684 39.2247 8.25551 38.7281 8.85639 38.7281H31.182C31.7829 38.7281 32.27 39.2247 32.27 39.8372C32.27 40.4497 31.7829 40.9463 31.182 40.9463H8.85639C8.25551 40.9463 7.7684 40.4497 7.7684 39.8372Z" fill="#814624" />
  <path fill-rule="evenodd" clip-rule="evenodd" d="M20.0189 29.5562C20.6198 29.5562 21.1069 30.0527 21.1069 30.6652V39.8371C21.1069 40.4496 20.6198 40.9462 20.0189 40.9462C19.418 40.9462 18.9309 40.4496 18.9309 39.8371V30.6652C18.9309 30.0527 19.418 29.5562 20.0189 29.5562Z" fill="#814624" />
  <path fill-rule="evenodd" clip-rule="evenodd" d="M15.8088 32.3624C16.4097 32.3624 16.8968 32.859 16.8968 33.4715V39.8372C16.8968 40.4497 16.4097 40.9462 15.8088 40.9462C15.2079 40.9462 14.7208 40.4497 14.7208 39.8372V33.4715C14.7208 32.859 15.2079 32.3624 15.8088 32.3624Z" fill="#814624" />
  <path fill-rule="evenodd" clip-rule="evenodd" d="M11.5982 34.5139C12.1991 34.5139 12.6862 35.0105 12.6862 35.623V39.8372C12.6862 40.4497 12.1991 40.9462 11.5982 40.9462C10.9973 40.9462 10.5102 40.4497 10.5102 39.8372V35.623C10.5102 35.0105 10.9973 34.5139 11.5982 34.5139Z" fill="#814624" />
  <path fill-rule="evenodd" clip-rule="evenodd" d="M24.2189 32.3624C24.8198 32.3624 25.3069 32.859 25.3069 33.4715V39.8372C25.3069 40.4497 24.8198 40.9462 24.2189 40.9462C23.6181 40.9462 23.131 40.4497 23.131 39.8372V33.4715C23.131 32.859 23.6181 32.3624 24.2189 32.3624Z" fill="#814624" />
  <path fill-rule="evenodd" clip-rule="evenodd" d="M28.4297 34.5139C29.0306 34.5139 29.5177 35.0105 29.5177 35.623V39.8372C29.5177 40.4497 29.0306 40.9462 28.4297 40.9462C27.8288 40.9462 27.3417 40.4497 27.3417 39.8372V35.623C27.3417 35.0105 27.8288 34.5139 28.4297 34.5139Z" fill="#814624" />
  <path fill-rule="evenodd" clip-rule="evenodd" d="M13.3062 8.44035C13.3062 7.82784 13.7933 7.3313 14.3942 7.3313H24.6431C25.2439 7.3313 25.731 7.82784 25.731 8.44035C25.731 9.05287 25.2439 9.54941 24.6431 9.54941H14.3942C13.7933 9.54941 13.3062 9.05287 13.3062 8.44035Z" fill="#814624" />
  <path fill-rule="evenodd" clip-rule="evenodd" d="M7.05014 8.44035C7.05014 7.82784 7.53725 7.3313 8.13813 7.3313H11.2389C11.8398 7.3313 12.3269 7.82784 12.3269 8.44035C12.3269 9.05287 11.8398 9.54941 11.2389 9.54941H8.13813C7.53725 9.54941 7.05014 9.05287 7.05014 8.44035Z" fill="#814624" />
  <path fill-rule="evenodd" clip-rule="evenodd" d="M5.89685 12.9648C5.89685 12.3523 6.38396 11.8557 6.98484 11.8557H24.6429C25.2438 11.8557 25.7309 12.3523 25.7309 12.9648C25.7309 13.5773 25.2438 14.0738 24.6429 14.0738H6.98484C6.38396 14.0738 5.89685 13.5773 5.89685 12.9648Z" fill="#814624" />
  <path fill-rule="evenodd" clip-rule="evenodd" d="M10.151 17.4789C10.151 16.8664 10.6381 16.3699 11.239 16.3699H24.643C25.2439 16.3699 25.731 16.8664 25.731 17.4789C25.731 18.0914 25.2439 18.588 24.643 18.588H11.239C10.6381 18.588 10.151 18.0914 10.151 17.4789Z" fill="#814624" />
  <path fill-rule="evenodd" clip-rule="evenodd" d="M10.151 21.9926C10.151 21.3801 10.6381 20.8835 11.239 20.8835H21.4879C22.0888 20.8835 22.5759 21.3801 22.5759 21.9926C22.5759 22.6051 22.0888 23.1017 21.4879 23.1017H11.239C10.6381 23.1017 10.151 22.6051 10.151 21.9926Z" fill="#814624" />
  <path fill-rule="evenodd" clip-rule="evenodd" d="M40.495 7.71897C36.2949 7.71897 32.8899 11.19 32.8899 15.4715C32.8899 19.753 36.2948 23.2235 40.495 23.2235C44.6952 23.2235 48.1 19.753 48.1 15.4715C48.1 11.19 44.6951 7.71897 40.495 7.71897ZM30.7139 15.4715C30.7139 9.96506 35.093 5.50085 40.495 5.50085C45.8969 5.50085 50.276 9.96506 50.276 15.4715C50.276 20.9781 45.8968 25.4417 40.495 25.4417C35.0931 25.4417 30.7139 20.9781 30.7139 15.4715Z" fill="#814624" />
  <path fill-rule="evenodd" clip-rule="evenodd" d="M44.397 12.6121C44.8224 13.0446 44.8234 13.7469 44.399 14.1806L40.3517 18.3173C40.1478 18.5258 39.8709 18.643 39.5821 18.6432C39.2933 18.6434 39.0162 18.5265 38.812 18.3183L36.4837 15.9448C36.0588 15.5117 36.0589 14.8095 36.4838 14.3764C36.9087 13.9433 37.5975 13.9433 38.0224 14.3764L39.5804 15.9646L42.8583 12.6142C43.2827 12.1805 43.9715 12.1796 44.397 12.6121Z" fill="#814624" />
</svg>