<svg width="59" height="56" viewBox="0 0 59 56" fill="none" xmlns="http://www.w3.org/2000/svg">
  <path d="M42.6109 35.0886C42.4184 34.9758 42.2635 34.8084 42.166 34.6077C42.0684 34.407 42.0324 34.1818 42.0626 33.9607C42.0928 33.7396 42.1879 33.5322 42.3357 33.365C42.4835 33.1978 42.6775 33.0783 42.8933 33.0213C43.109 32.9642 43.3369 32.9725 43.548 33.0447C43.7592 33.1169 43.9442 33.2498 44.0798 33.427C44.2154 33.6043 44.2954 33.8181 44.3099 34.0408C44.3243 34.2635 44.2725 34.4852 44.1609 34.6785C44.0864 34.8076 43.9871 34.9205 43.8687 35.011C43.7504 35.1015 43.6153 35.1682 43.4712 35.2063C43.3271 35.2444 43.177 35.2533 43.0293 35.2332C42.8817 35.213 42.7395 35.164 42.6109 35.0886Z" fill="#814624" />
  <path d="M57.101 39.5087C58.1419 37.6797 58.4201 35.5142 57.8754 33.4814C57.3307 31.4486 56.007 29.7124 54.191 28.6489L44.541 23.0786L29.701 4.16889C29.3953 3.68501 28.9714 3.28683 28.4693 3.01215C27.9671 2.73747 27.4033 2.59502 26.831 2.59858C26.2394 2.60158 25.659 2.76061 25.1482 3.05902C24.6374 3.35744 24.2141 3.78492 23.921 4.29877L19.731 11.5585L15.361 11.2988C15.1502 11.2862 14.9401 11.3328 14.7545 11.4335C14.5689 11.5343 14.4153 11.685 14.311 11.8686L12.031 15.7988C11.9205 15.9794 11.8621 16.1871 11.8621 16.3989C11.8621 16.6106 11.9205 16.8183 12.031 16.999L14.441 20.6489L10.671 27.1889C10.3798 27.6931 10.2225 28.2634 10.2142 28.8456C10.2059 29.4279 10.3468 30.0023 10.6235 30.5146C10.9003 31.0269 11.3035 31.4601 11.795 31.7724C12.2864 32.0847 12.8496 32.2658 13.431 32.2988L35.191 36.5585L33.711 39.1186C33.6361 39.2478 33.5875 39.3905 33.568 39.5385C33.5486 39.6866 33.5587 39.8373 33.5977 39.9814C33.6368 40.1255 33.704 40.2604 33.7956 40.3784C33.8871 40.4963 34.0011 40.5952 34.131 40.6689L37.131 42.3788L33.721 48.2788C33.4229 48.7955 33.2295 49.366 33.1518 49.9575C33.0742 50.549 33.1138 51.1498 33.2684 51.726C33.423 52.3022 33.6896 52.8422 34.0529 53.3154C34.4163 53.7885 34.8692 54.1857 35.386 54.4838C35.9027 54.7819 36.4731 54.975 37.0646 55.0527C37.6561 55.1303 38.2571 55.0911 38.8333 54.9365C39.997 54.6242 40.9889 53.8624 41.591 52.8188L47.311 42.9189C49.082 43.6052 51.0394 43.6389 52.8331 43.0141C54.6267 42.3894 56.1396 41.1468 57.101 39.5087ZM41.321 39.5786L45.251 41.8486L39.571 51.6889C39.2618 52.1936 38.7677 52.5574 38.194 52.7031C37.6204 52.8487 37.0125 52.7647 36.5 52.4687C35.9875 52.1727 35.6108 51.6878 35.4504 51.1181C35.2899 50.5484 35.3583 49.9389 35.641 49.4189L41.321 39.5786ZM36.251 39.2685L37.381 37.2685L39.381 38.3989L38.241 40.3989L36.251 39.2685ZM18.391 13.7788L15.711 18.5087L14.311 16.3886L15.881 13.6689L18.391 13.7788ZM28.161 5.94867L14.161 30.1489C13.9574 30.0989 13.75 30.0653 13.541 30.0488C13.3413 30.05 13.1447 29.9985 12.971 29.8998C12.7973 29.8012 12.6526 29.6589 12.5513 29.4868C12.4501 29.3146 12.3958 29.1186 12.394 28.9189C12.3922 28.7192 12.4429 28.5225 12.541 28.3486L25.851 5.50873C25.9488 5.33064 26.094 5.18307 26.2705 5.08246C26.447 4.98185 26.6479 4.9323 26.851 4.93891C27.0517 4.93253 27.2504 4.97984 27.4263 5.0766C27.6022 5.17336 27.7489 5.31582 27.851 5.48871C27.861 5.50871 27.901 5.56867 28.191 5.94867H28.161ZM42.391 24.0688L36.391 34.5087L16.571 30.6288L29.701 7.87885L42.391 24.0688ZM47.391 40.4687L38.541 35.3588L44.221 25.5185L53.071 30.6288C53.934 31.1306 54.6504 31.8497 55.1487 32.7148C55.6471 33.5798 55.9099 34.5602 55.911 35.5585C55.9164 36.5582 55.658 37.5418 55.1617 38.4096C54.6654 39.2774 53.9488 39.9987 53.0845 40.5009C52.2201 41.0031 51.2384 41.2686 50.2388 41.27C49.2391 41.2713 48.2567 41.0086 47.391 40.5087V40.4687Z" fill="#814624" />
  <path d="M46.1211 35.8187C46.1957 35.6885 46.2953 35.5744 46.4142 35.4828C46.5331 35.3912 46.6689 35.3236 46.8138 35.2846C46.9588 35.2455 47.11 35.2357 47.2588 35.2553C47.4076 35.2748 47.5511 35.3236 47.6811 35.3988L49.6811 36.5385C49.9441 36.6876 50.2553 36.7274 50.5472 36.6488C50.8392 36.5702 51.0885 36.3796 51.2411 36.1185C51.3159 35.9872 51.4159 35.8719 51.5353 35.7792C51.6547 35.6865 51.7912 35.6184 51.937 35.5785C52.0828 35.5386 52.235 35.5279 52.385 35.5468C52.535 35.5657 52.6797 35.614 52.8111 35.6889C52.9424 35.7637 53.0577 35.8634 53.1504 35.9828C53.243 36.1022 53.3113 36.2389 53.3512 36.3847C53.3912 36.5304 53.402 36.6824 53.3831 36.8324C53.3642 36.9824 53.3159 37.1274 53.2411 37.2587C53.0174 37.6457 52.7197 37.9849 52.3649 38.2567C52.01 38.5286 51.6051 38.7275 51.1732 38.8427C50.7413 38.9578 50.2909 38.9872 49.8479 38.9281C49.4048 38.869 48.9777 38.7232 48.5911 38.4989L46.5911 37.3685C46.4579 37.2982 46.3401 37.202 46.2443 37.0858C46.1485 36.9696 46.0766 36.8359 46.0329 36.6918C45.9892 36.5477 45.9745 36.3963 45.9897 36.2465C46.0048 36.0966 46.0495 35.9512 46.1211 35.8187Z" fill="#814624" />
  <path d="M1.69127 5.04883L8.02127 8.56885C8.28502 8.71618 8.47952 8.96231 8.56202 9.25294C8.64452 9.54356 8.60828 9.85473 8.46127 10.1187C8.31206 10.3804 8.06608 10.5735 7.77621 10.6558C7.48635 10.7381 7.17576 10.7029 6.91127 10.5586L0.591267 7.02882C0.459945 6.95659 0.34414 6.85918 0.250454 6.74219C0.156769 6.62521 0.0870404 6.49111 0.045254 6.34717C0.00346763 6.20324 -0.00955808 6.05229 0.00691629 5.90333C0.0233907 5.75436 0.0690429 5.61033 0.14127 5.47901C0.213497 5.34769 0.310884 5.23188 0.427868 5.13819C0.544852 5.0445 0.67914 4.97441 0.823071 4.93262C0.967002 4.89084 1.11775 4.87806 1.26672 4.89454C1.41569 4.91101 1.55995 4.95659 1.69127 5.02882V5.04883Z" fill="#814624" />
  <path d="M2.39122 16.8086L6.78122 15.6387C7.07157 15.5621 7.38042 15.6031 7.64068 15.7529C7.90094 15.9027 8.09159 16.1494 8.17122 16.439C8.21191 16.5828 8.22342 16.733 8.20504 16.8813C8.18667 17.0297 8.1388 17.1727 8.06424 17.3022C7.98969 17.4318 7.88997 17.5453 7.77095 17.6357C7.65192 17.7261 7.51601 17.7916 7.37122 17.8286L2.98121 19.0088C2.69086 19.0854 2.38201 19.0443 2.12175 18.8945C1.86149 18.7447 1.67084 18.4985 1.59121 18.209C1.51433 17.9173 1.55511 17.6071 1.70475 17.3452C1.85439 17.0833 2.10092 16.8904 2.39122 16.8086Z" fill="#814624" />
  <path d="M13.3909 0.918757L14.5709 5.30841C14.6491 5.59882 14.6088 5.90857 14.4588 6.16925C14.3087 6.42992 14.0613 6.6203 13.7709 6.69854C13.4805 6.77678 13.1709 6.73627 12.9102 6.58624C12.6495 6.43621 12.4591 6.18915 12.3809 5.89874L11.1909 1.5086C11.1127 1.21819 11.153 0.908437 11.303 0.647761C11.4531 0.387086 11.7005 0.196703 11.9909 0.118464C12.2813 0.0402256 12.5909 0.08074 12.8516 0.230769C13.1123 0.380798 13.3027 0.628345 13.3809 0.918757H13.3909Z" fill="#814624" />
</svg>