<svg width="100" height="99" viewBox="0 0 100 99" fill="none" xmlns="http://www.w3.org/2000/svg">
<path d="M50 97C23.8 97 2.5 75.4758 2.5 49C2.5 22.5242 23.8 1 50 1C76.2 1 97.5 22.5242 97.5 49C97.4 75.4758 76.1 97 50 97Z" fill="#EB0029"/>
<path d="M50 3.03061C75.6592 3.03061 96.4694 23.8408 96.4694 49.5C96.4694 75.1592 75.6592 95.9694 50 95.9694C24.3408 95.9694 3.53061 75.1592 3.53061 49.5C3.53061 23.8408 24.3408 3.03061 50 3.03061ZM50 0C22.7245 0 0.5 22.2245 0.5 49.5C0.5 76.7755 22.7245 99 50 99C77.2755 99 99.5 76.7755 99.5 49.5C99.399 22.2245 77.2755 0 50 0Z" fill="#F5D38C"/>
<path d="M60.5423 74.8069V73.8125C60.5419 73.3391 60.4158 72.8742 60.1768 72.4655C59.9378 72.0567 59.5945 71.7188 59.1821 71.4862L56.5931 70.0416C55.8884 69.6487 55.3092 69.0645 54.9223 68.3565C54.5354 67.6485 54.3566 66.8455 54.4067 66.0402C54.4567 65.2349 54.7335 64.4602 55.205 63.8055C55.6765 63.1508 56.3236 62.6429 57.0715 62.3403L58.169 61.8992" stroke="#FFE6BB" stroke-width="2" stroke-linecap="round" stroke-linejoin="round"/>
<path d="M58.1719 66.5237V52.95C58.1719 52.4325 58.3774 51.9363 58.7433 51.5704C59.1093 51.2045 59.6055 50.9993 60.123 50.9993C60.6413 50.9993 61.1386 51.2043 61.506 51.57C61.8734 51.9356 62.081 52.4317 62.0835 52.95V60.8767" stroke="#FFE6BB" stroke-width="2" stroke-linecap="round" stroke-linejoin="round"/>
<path d="M62.082 58.9628V57.0867C62.082 56.5742 62.2856 56.0828 62.648 55.7204C63.0104 55.358 63.5019 55.1543 64.0144 55.1543C64.5269 55.1543 65.0184 55.358 65.3808 55.7204C65.7432 56.0828 65.9468 56.5742 65.9468 57.0867V62.0586" stroke="#FFE6BB" stroke-width="2" stroke-linecap="round" stroke-linejoin="round"/>
<path d="M65.9453 59.0661V58.0534C65.9453 57.516 66.1588 57.0007 66.5388 56.6207C66.9187 56.2407 67.4341 56.0271 67.9715 56.0271C68.5089 56.0271 69.0242 56.2407 69.4042 56.6207C69.7842 57.0007 69.9977 57.516 69.9977 58.0534V62.7995" stroke="#FFE6BB" stroke-width="2" stroke-linecap="round" stroke-linejoin="round"/>
<path d="M70.0195 62.0868V60.9894C70.0195 60.4918 70.2172 60.0148 70.569 59.6629C70.9209 59.3111 71.3981 59.1133 71.8956 59.1133C72.3932 59.1133 72.8704 59.3111 73.2222 59.6629C73.5741 60.0148 73.7717 60.4918 73.7717 60.9894V64.7416C73.7709 65.5459 73.6508 66.3455 73.4153 67.1146L72.0645 71.5612C71.832 72.3307 71.715 73.1303 71.7174 73.9342V74.8723" stroke="#FFE6BB" stroke-width="2" stroke-linecap="round" stroke-linejoin="round"/>
<path d="M51.7522 65.342H30.9651C30.3787 65.342 29.7981 65.2266 29.2564 65.0022C28.7146 64.7778 28.2224 64.4485 27.8078 64.0339C27.3932 63.6193 27.0643 63.1273 26.8399 62.5856C26.6155 62.0439 26.5 61.4631 26.5 60.8767V30.4653C26.5 29.2811 26.9704 28.1455 27.8078 27.3081C28.6452 26.4708 29.7809 26 30.9651 26H68.562C69.7462 26 70.8819 26.4708 71.7193 27.3081C72.5566 28.1455 73.027 29.2811 73.027 30.4653V56.0271" stroke="#FFE6BB" stroke-width="2" stroke-linecap="round" stroke-linejoin="round"/>
<path d="M33.4688 68.6907H51.6762" stroke="#FFE6BB" stroke-width="2" stroke-linecap="round" stroke-linejoin="round"/>
<path d="M33.1953 58.7563H52.444" stroke="#FFE6BB" stroke-width="2" stroke-linecap="round" stroke-linejoin="round"/>
<path d="M42.8164 58.7567V50.999" stroke="#FFE6BB" stroke-width="2" stroke-linecap="round" stroke-linejoin="round"/>
<path d="M39.1914 58.7565V53.3723" stroke="#FFE6BB" stroke-width="2" stroke-linecap="round" stroke-linejoin="round"/>
<path d="M35.5625 58.7563V55.1919" stroke="#FFE6BB" stroke-width="2" stroke-linecap="round" stroke-linejoin="round"/>
<path d="M46.4414 58.7565V53.3723" stroke="#FFE6BB" stroke-width="2" stroke-linecap="round" stroke-linejoin="round"/>
<path d="M50.0742 58.7563V55.1919" stroke="#FFE6BB" stroke-width="2" stroke-linecap="round" stroke-linejoin="round"/>
<path d="M37.9766 32.2009H46.8129" stroke="#FFE6BB" stroke-width="2" stroke-linecap="round" stroke-linejoin="round"/>
<path d="M35.2516 32.2009H32.5781" stroke="#FFE6BB" stroke-width="2" stroke-linecap="round" stroke-linejoin="round"/>
<path d="M31.5859 36.0278H46.8104" stroke="#FFE6BB" stroke-width="2" stroke-linecap="round" stroke-linejoin="round"/>
<path d="M35.25 39.8457H46.8067" stroke="#FFE6BB" stroke-width="2" stroke-linecap="round" stroke-linejoin="round"/>
<path d="M35.25 43.6636H44.0864" stroke="#FFE6BB" stroke-width="2" stroke-linecap="round" stroke-linejoin="round"/>
<path d="M60.4794 45.6425C64.6187 45.6425 67.9743 42.2872 67.9743 38.1478C67.9743 34.0084 64.6187 30.6526 60.4794 30.6526C56.34 30.6526 52.9844 34.0084 52.9844 38.1478C52.9844 42.2872 56.34 45.6425 60.4794 45.6425Z" stroke="#FFE6BB" stroke-width="2" stroke-linecap="round" stroke-linejoin="round"/>
<path d="M57.6836 37.8849L59.691 39.8924L63.1805 36.3936" stroke="#FFE6BB" stroke-width="2" stroke-linecap="round" stroke-linejoin="round"/>
</svg>
