<svg width="100" height="100" viewBox="0 0 100 100" fill="none" xmlns="http://www.w3.org/2000/svg">
<g id="5">
<path id="Vector" d="M50 97.5C23.8 97.5 2.5 75.9758 2.5 49.5C2.5 23.0242 23.8 1.5 50 1.5C76.2 1.5 97.5 23.0242 97.5 49.5C97.4 75.9758 76.1 97.5 50 97.5Z" fill="#EB0029"/>
<path id="Vector_2" d="M50 3.53061C75.6592 3.53061 96.4694 24.3408 96.4694 50C96.4694 75.6592 75.6592 96.4694 50 96.4694C24.3408 96.4694 3.53061 75.6592 3.53061 50C3.53061 24.3408 24.3408 3.53061 50 3.53061ZM50 0.5C22.7245 0.5 0.5 22.7245 0.5 50C0.5 77.2755 22.7245 99.5 50 99.5C77.2755 99.5 99.5 77.2755 99.5 50C99.399 22.7245 77.2755 0.5 50 0.5Z" fill="#F5D38C"/>
<g id="100">
<path d="M33.4967 38.0256H38.6278V56.0396H35.2234V41.2463H31.5128L33.4967 38.0256Z" fill="#FFE6BB"/>
<path d="M50.3963 37.5725C51.7107 37.5725 52.8414 37.895 53.7884 38.54C54.7436 39.1849 55.4784 40.1728 55.9927 41.5035C56.5152 42.8261 56.7765 44.6712 56.7765 47.0387C56.7765 49.4308 56.5112 51.2922 55.9805 52.623C55.458 53.9537 54.7518 54.9334 53.8619 55.562C52.972 56.1825 51.8495 56.4927 50.4943 56.4927C49.139 56.4927 48.0001 56.1784 47.0776 55.5498C46.1551 54.9211 45.4325 53.9659 44.91 52.6842C44.3875 51.4024 44.1263 49.5778 44.1263 47.2102C44.1263 43.9037 44.6365 41.5076 45.657 40.0217C46.7919 38.3889 48.3716 37.5725 50.3963 37.5725ZM50.482 40.83C49.9024 40.83 49.388 41.0177 48.939 41.3933C48.49 41.7607 48.1471 42.3975 47.9103 43.3037C47.6736 44.2099 47.5552 45.5365 47.5552 47.2837C47.5552 49.5614 47.8246 51.1371 48.3634 52.0106C48.9104 52.876 49.6166 53.3087 50.482 53.3087C51.3147 53.3087 51.976 52.8964 52.4659 52.0719C53.0618 51.0759 53.3598 49.4104 53.3598 47.0755C53.3598 44.7079 53.0904 43.0751 52.5516 42.177C52.0209 41.279 51.3311 40.83 50.482 40.83Z" fill="#FFE6BB"/>
<path d="M64.4548 37.5725C65.7692 37.5725 66.8999 37.895 67.847 38.54C68.8022 39.1849 69.5369 40.1728 70.0513 41.5035C70.5737 42.8261 70.835 44.6712 70.835 47.0387C70.835 49.4308 70.5697 51.2922 70.039 52.623C69.5165 53.9537 68.8103 54.9334 67.9204 55.562C67.0305 56.1825 65.908 56.4927 64.5528 56.4927C63.1975 56.4927 62.0586 56.1784 61.1361 55.5498C60.2136 54.9211 59.491 53.9659 58.9685 52.6842C58.446 51.4024 58.1848 49.5778 58.1848 47.2102C58.1848 43.9037 58.695 41.5076 59.7156 40.0217C60.8504 38.3889 62.4301 37.5725 64.4548 37.5725ZM64.5405 40.83C63.9609 40.83 63.4465 41.0177 62.9975 41.3933C62.5485 41.7607 62.2056 42.3975 61.9688 43.3037C61.7321 44.2099 61.6137 45.5365 61.6137 47.2837C61.6137 49.5614 61.8831 51.1371 62.4219 52.0106C62.9689 52.876 63.6751 53.3087 64.5405 53.3087C65.3732 53.3087 66.0345 52.8964 66.5244 52.0719C67.1204 51.0759 67.4183 49.4104 67.4183 47.0755C67.4183 44.7079 67.1489 43.0751 66.6101 42.177C66.0794 41.279 65.3896 40.83 64.5405 40.83Z" fill="#FFE6BB"/>
</g>
<g id="&#209;&#130;&#208;&#190;&#208;&#189;/&#208;&#188;&#209;&#150;&#209;&#129;">
<path d="M32.6875 61.3809V60.271H37.2995V61.3809H35.6594V65.3601H34.3143V61.3809H32.6875Z" fill="#FFE6BB"/>
<path d="M40.2723 65.4595C39.7576 65.4595 39.3125 65.3502 38.937 65.1315C38.5638 64.9106 38.2755 64.6036 38.0723 64.2104C37.8691 63.815 37.7675 63.3567 37.7675 62.8354C37.7675 62.3097 37.8691 61.8503 38.0723 61.4571C38.2755 61.0618 38.5638 60.7547 38.937 60.5361C39.3125 60.3152 39.7576 60.2048 40.2723 60.2048C40.7869 60.2048 41.2309 60.3152 41.6042 60.5361C41.9797 60.7547 42.269 61.0618 42.4722 61.4571C42.6754 61.8503 42.777 62.3097 42.777 62.8354C42.777 63.3567 42.6754 63.815 42.4722 64.2104C42.269 64.6036 41.9797 64.9106 41.6042 65.1315C41.2309 65.3502 40.7869 65.4595 40.2723 65.4595ZM40.2789 64.3661C40.513 64.3661 40.7085 64.2999 40.8653 64.1674C41.0222 64.0326 41.1403 63.8493 41.2198 63.6174C41.3016 63.3854 41.3424 63.1215 41.3424 62.8255C41.3424 62.5295 41.3016 62.2656 41.2198 62.0336C41.1403 61.8017 41.0222 61.6184 40.8653 61.4837C40.7085 61.3489 40.513 61.2815 40.2789 61.2815C40.0425 61.2815 39.8438 61.3489 39.6825 61.4837C39.5235 61.6184 39.4031 61.8017 39.3214 62.0336C39.2419 62.2656 39.2021 62.5295 39.2021 62.8255C39.2021 63.1215 39.2419 63.3854 39.3214 63.6174C39.4031 63.8493 39.5235 64.0326 39.6825 64.1674C39.8438 64.2999 40.0425 64.3661 40.2789 64.3661Z" fill="#FFE6BB"/>
<path d="M47.2366 62.2523V63.3622H44.5794V62.2523H47.2366ZM45.0433 60.271V65.3601H43.6948V60.271H45.0433ZM48.1213 60.271V65.3601H46.7827V60.271H48.1213Z" fill="#FFE6BB"/>
<path d="M52.1717 58.2566L49.9849 66.3806H48.769L50.9557 58.2566H52.1717Z" fill="#FFE6BB"/>
<path d="M55.8601 63.7996L57.2384 60.271H58.3119L56.3272 65.3601H55.3896L53.4514 60.271H54.5215L55.8601 63.7996ZM54.2002 60.271V65.3601H52.8517V60.271H54.2002ZM57.5896 65.3601V60.271H58.9215V65.3601H57.5896Z" fill="#FFE6BB"/>
<path d="M60.0132 65.3601V60.271H61.4246V65.3601H60.0132ZM60.7222 59.615C60.5124 59.615 60.3324 59.5454 60.1822 59.4063C60.0342 59.2649 59.9602 59.0959 59.9602 58.8994C59.9602 58.705 60.0342 58.5382 60.1822 58.3991C60.3324 58.2577 60.5124 58.187 60.7222 58.187C60.932 58.187 61.111 58.2577 61.259 58.3991C61.4092 58.5382 61.4843 58.705 61.4843 58.8994C61.4843 59.0959 61.4092 59.2649 61.259 59.4063C61.111 59.5454 60.932 59.615 60.7222 59.615Z" fill="#FFE6BB"/>
<path d="M64.8546 65.4595C64.3333 65.4595 63.8849 65.3491 63.5094 65.1282C63.1362 64.9051 62.849 64.5959 62.648 64.2005C62.4492 63.8051 62.3498 63.3501 62.3498 62.8354C62.3498 62.3142 62.4503 61.8569 62.6513 61.4638C62.8545 61.0684 63.1428 60.7603 63.5161 60.5394C63.8894 60.3163 64.3333 60.2048 64.848 60.2048C65.292 60.2048 65.6807 60.2854 66.0142 60.4466C66.3478 60.6079 66.6117 60.8343 66.8061 61.1258C67.0005 61.4174 67.1076 61.7598 67.1275 62.1529H65.7956C65.758 61.8989 65.6586 61.6946 65.4974 61.54C65.3383 61.3832 65.1296 61.3047 64.8712 61.3047C64.6525 61.3047 64.4614 61.3644 64.298 61.4837C64.1367 61.6007 64.0108 61.7719 63.9203 61.9972C63.8297 62.2225 63.7844 62.4953 63.7844 62.8156C63.7844 63.1403 63.8286 63.4164 63.917 63.6439C64.0075 63.8714 64.1345 64.0448 64.298 64.164C64.4614 64.2833 64.6525 64.343 64.8712 64.343C65.0324 64.343 65.1771 64.3098 65.3052 64.2436C65.4355 64.1773 65.5427 64.0812 65.6266 63.9553C65.7127 63.8272 65.7691 63.6737 65.7956 63.4948H67.1275C67.1054 63.8835 66.9994 64.2259 66.8094 64.5219C66.6217 64.8156 66.3621 65.0454 66.0308 65.211C65.6995 65.3767 65.3074 65.4595 64.8546 65.4595Z" fill="#FFE6BB"/>
</g>
<path id="Vector (Stroke)" fill-rule="evenodd" clip-rule="evenodd" d="M50.2309 23.4602C35.4462 23.4602 23.4609 35.4451 23.4609 50.2297C23.4609 65.0144 35.4463 76.9997 50.2309 76.9997C65.0156 76.9997 77.0009 65.0144 77.0009 50.2297C77.0009 35.4451 65.0156 23.4602 50.2309 23.4602ZM21.4609 50.2297C21.4609 34.3405 34.3417 21.4602 50.2309 21.4602C66.1201 21.4602 79.0009 34.3405 79.0009 50.2297C79.0009 66.1189 66.1202 78.9997 50.2309 78.9997C34.3417 78.9997 21.4609 66.1189 21.4609 50.2297Z" fill="#FFE6BB"/>
</g>
</svg>
