<svg width="60" height="58" viewBox="0 0 60 58" fill="none" xmlns="http://www.w3.org/2000/svg">
  <path d="M44.8334 16.3555C46.204 16.3555 47.3831 16.6773 48.3706 17.321C49.3666 17.9647 50.1328 18.9507 50.6691 20.2788C51.214 21.5988 51.4864 23.4403 51.4864 25.8033C51.4864 28.1907 51.2097 30.0485 50.6564 31.3766C50.1115 32.7048 49.3751 33.6826 48.4472 34.31C47.5193 34.9292 46.3487 35.2389 44.9356 35.2389C43.5224 35.2389 42.3348 34.9252 41.3728 34.2977C40.4109 33.6703 39.6574 32.717 39.1126 31.4377C38.5678 30.1585 38.2953 28.3374 38.2953 25.9744C38.2953 22.6744 38.8274 20.2829 39.8916 18.7999C41.0749 17.1703 42.7222 16.3555 44.8334 16.3555ZM44.9228 19.6066C44.3184 19.6066 43.782 19.794 43.3138 20.1688C42.8456 20.5355 42.4881 21.171 42.2412 22.0755C41.9943 22.9799 41.8709 24.304 41.8709 26.0477C41.8709 28.3211 42.1518 29.8937 42.7136 30.7655C43.284 31.6292 44.0204 32.0611 44.9228 32.0611C45.7911 32.0611 46.4807 31.6496 46.9915 30.8266C47.6129 29.8325 47.9237 28.1703 47.9237 25.8399C47.9237 23.477 47.6427 21.8473 47.0809 20.951C46.5275 20.0547 45.8082 19.6066 44.9228 19.6066Z" fill="#814624" />
  <path d="M30.1739 16.3555C31.5445 16.3555 32.7236 16.6773 33.7111 17.321C34.7071 17.9647 35.4733 18.9507 36.0096 20.2788C36.5545 21.5988 36.8269 23.4403 36.8269 25.8033C36.8269 28.1907 36.5502 30.0485 35.9969 31.3766C35.452 32.7048 34.7156 33.6826 33.7877 34.31C32.8598 34.9292 31.6892 35.2389 30.2761 35.2389C28.8629 35.2389 27.6753 34.9252 26.7133 34.2977C25.7513 33.6703 24.9979 32.717 24.4531 31.4377C23.9083 30.1585 23.6358 28.3374 23.6358 25.9744C23.6358 22.6744 24.1679 20.2829 25.232 18.7999C26.4154 17.1703 28.0626 16.3555 30.1739 16.3555ZM30.2633 19.6066C29.6589 19.6066 29.1225 19.794 28.6543 20.1688C28.1861 20.5355 27.8285 21.171 27.5817 22.0755C27.3348 22.9799 27.2113 24.304 27.2113 26.0477C27.2113 28.3211 27.4923 29.8937 28.0541 30.7655C28.6245 31.6292 29.3609 32.0611 30.2633 32.0611C31.1316 32.0611 31.8212 31.6496 32.332 30.8266C32.9534 29.8325 33.2641 28.1703 33.2641 25.8399C33.2641 23.477 32.9832 21.8473 32.4214 20.951C31.868 20.0547 31.1486 19.6066 30.2633 19.6066Z" fill="#814624" />
  <path d="M12.5517 16.8077H17.9022V34.7867H14.3522V20.0222H10.483L12.5517 16.8077Z" fill="#814624" />
  <path d="M45.2509 44.1881C44.7073 44.1881 44.2398 44.0779 43.8482 43.8575C43.459 43.6348 43.1596 43.3262 42.95 42.9316C42.7427 42.537 42.639 42.0828 42.639 41.5692C42.639 41.0489 42.7438 40.5926 42.9534 40.2002C43.1653 39.8056 43.4659 39.498 43.8551 39.2776C44.2444 39.0549 44.7073 38.9436 45.244 38.9436C45.707 38.9436 46.1123 39.0241 46.4601 39.185C46.8079 39.3459 47.0831 39.5719 47.2858 39.8629C47.4885 40.1539 47.6002 40.4956 47.6209 40.888H46.2321C46.1929 40.6345 46.0893 40.4305 45.9212 40.2762C45.7553 40.1197 45.5377 40.0414 45.2682 40.0414C45.0402 40.0414 44.8409 40.101 44.6705 40.22C44.5024 40.3369 44.3711 40.5077 44.2766 40.7326C44.1822 40.9574 44.135 41.2297 44.135 41.5493C44.135 41.8734 44.1811 42.149 44.2732 42.376C44.3676 42.6031 44.5001 42.7761 44.6705 42.8952C44.8409 43.0142 45.0402 43.0737 45.2682 43.0737C45.4363 43.0737 45.5872 43.0407 45.7208 42.9745C45.8567 42.9084 45.9684 42.8125 46.0559 42.6869C46.1457 42.559 46.2045 42.4058 46.2321 42.2272H47.6209C47.5979 42.6152 47.4874 42.9569 47.2893 43.2523C47.0935 43.5455 46.8229 43.7748 46.4774 43.9401C46.1319 44.1055 45.7231 44.1881 45.2509 44.1881Z" fill="#814624" />
  <path d="M40.2025 44.0889V39.0098H41.6742V44.0889H40.2025ZM40.9418 38.355C40.723 38.355 40.5353 38.2856 40.3787 38.1467C40.2243 38.0056 40.1472 37.837 40.1472 37.6408C40.1472 37.4468 40.2243 37.2803 40.3787 37.1414C40.5353 37.0004 40.723 36.9298 40.9418 36.9298C41.1606 36.9298 41.3472 37.0004 41.5015 37.1414C41.6581 37.2803 41.7364 37.4468 41.7364 37.6408C41.7364 37.837 41.6581 38.0056 41.5015 38.1467C41.3472 38.2856 41.1606 38.355 40.9418 38.355Z" fill="#814624" />
  <path d="M35.8718 42.5315L37.309 39.0098H38.4283L36.3589 44.089H35.3812L33.3601 39.0098H34.476L35.8718 42.5315ZM34.1409 39.0098V44.089H32.7347V39.0098H34.1409ZM37.6752 44.089V39.0098H39.064V44.089H37.6752Z" fill="#814624" />
  <path d="M32.0257 36.9991L29.7455 45.1073H28.4775L30.7577 36.9991H32.0257Z" fill="#814624" />
  <path d="M26.8796 40.9872V42.095H24.1088V40.9872H26.8796ZM24.5925 39.0098V44.089H23.1864V39.0098H24.5925ZM27.8021 39.0098V44.089H26.4063V39.0098H27.8021Z" fill="#814624" />
  <path d="M19.6175 44.1881C19.0808 44.1881 18.6167 44.079 18.2252 43.8608C17.8359 43.6403 17.5354 43.3339 17.3235 42.9415C17.1116 42.5469 17.0056 42.0894 17.0056 41.5692C17.0056 41.0445 17.1116 40.586 17.3235 40.1936C17.5354 39.799 17.8359 39.4925 18.2252 39.2743C18.6167 39.0538 19.0808 38.9436 19.6175 38.9436C20.1541 38.9436 20.6171 39.0538 21.0063 39.2743C21.3979 39.4925 21.6996 39.799 21.9115 40.1936C22.1234 40.586 22.2294 41.0445 22.2294 41.5692C22.2294 42.0894 22.1234 42.5469 21.9115 42.9415C21.6996 43.3339 21.3979 43.6403 21.0063 43.8608C20.6171 44.079 20.1541 44.1881 19.6175 44.1881ZM19.6244 43.0969C19.8685 43.0969 20.0724 43.0308 20.2359 42.8985C20.3994 42.764 20.5227 42.581 20.6056 42.3496C20.6908 42.1181 20.7334 41.8547 20.7334 41.5593C20.7334 41.2638 20.6908 41.0004 20.6056 40.7689C20.5227 40.5375 20.3994 40.3545 20.2359 40.22C20.0724 40.0855 19.8685 40.0183 19.6244 40.0183C19.378 40.0183 19.1707 40.0855 19.0025 40.22C18.8367 40.3545 18.7112 40.5375 18.6259 40.7689C18.543 41.0004 18.5016 41.2638 18.5016 41.5593C18.5016 41.8547 18.543 42.1181 18.6259 42.3496C18.7112 42.581 18.8367 42.764 19.0025 42.8985C19.1707 43.0308 19.378 43.0969 19.6244 43.0969Z" fill="#814624" />
  <path d="M11.7085 40.1175V39.0098H16.5177V40.1175H14.8075V44.089H13.4048V40.1175H11.7085Z" fill="#814624" />
  <path fill-rule="evenodd" clip-rule="evenodd" d="M30 1.99612C14.5832 1.99612 2.08551 13.9578 2.08551 28.7138C2.08551 43.4698 14.5833 55.4319 30 55.4319C45.4168 55.4319 57.9145 43.4698 57.9145 28.7138C57.9145 13.9578 45.4168 1.99612 30 1.99612ZM0 28.7138C0 12.8553 13.4315 0 30 0C46.5685 0 60 12.8553 60 28.7138C60 44.5722 46.5685 57.428 30 57.428C13.4315 57.428 0 44.5722 0 28.7138Z" fill="#814624" />
</svg>