<svg width="59" height="47" viewBox="0 0 59 47" fill="none" xmlns="http://www.w3.org/2000/svg">
  <path d="M35.3409 39.5547H21.4709" stroke="#814624" stroke-width="2" stroke-linecap="round" stroke-linejoin="round" />
  <path d="M3.83051 39.5547H2.93051C2.68935 39.556 2.45032 39.5098 2.22713 39.4185C2.00395 39.3271 1.80103 39.1925 1.63004 39.0225C1.45905 38.8524 1.32336 38.6499 1.23077 38.4272C1.13818 38.2046 1.09051 37.9658 1.09052 37.7246V24.8848L5.86051 13.4849C6.16367 12.7581 6.67458 12.1368 7.32922 11.6992C7.98385 11.2616 8.75308 11.0272 9.54051 11.0249H17.4205V30.0249H54.3305C55.0625 30.0249 55.7645 30.3154 56.2821 30.833C56.7997 31.3506 57.0905 32.0527 57.0905 32.7847V36.835C57.0918 37.1978 57.0214 37.5571 56.8831 37.8926C56.7449 38.228 56.5416 38.533 56.2851 38.7896C56.0285 39.0461 55.7237 39.249 55.3883 39.3872C55.0528 39.5254 54.6933 39.596 54.3305 39.5947H53.2705" stroke="#814624" stroke-width="2" stroke-linecap="round" stroke-linejoin="round" />
  <path d="M44.2907 45.6646C47.4994 45.6646 50.1007 43.0633 50.1007 39.8545C50.1007 36.6457 47.4994 34.0449 44.2907 34.0449C41.0819 34.0449 38.4807 36.6457 38.4807 39.8545C38.4807 43.0633 41.0819 45.6646 44.2907 45.6646Z" stroke="#814624" stroke-width="2" stroke-linecap="round" stroke-linejoin="round" />
  <path d="M12.1105 45.6646C15.3193 45.6646 17.9205 43.0633 17.9205 39.8545C17.9205 36.6457 15.3193 34.0449 12.1105 34.0449C8.90171 34.0449 6.30048 36.6457 6.30048 39.8545C6.30048 43.0633 8.90171 45.6646 12.1105 45.6646Z" stroke="#814624" stroke-width="2" stroke-linecap="round" stroke-linejoin="round" />
  <path d="M12.7307 28.5347V30.1445" stroke="#814624" stroke-width="2" stroke-linecap="round" stroke-linejoin="round" />
  <path d="M9.10042 15.5547H10.6004C11.1653 15.5547 11.7071 15.7793 12.1066 16.1787C12.506 16.5782 12.7304 17.1197 12.7304 17.6846V22.6846C12.7304 23.2495 12.506 23.7915 12.1066 24.1909C11.7071 24.5904 11.1653 24.8149 10.6004 24.8149H5.24042" stroke="#814624" stroke-width="2" stroke-linecap="round" stroke-linejoin="round" />
  <path d="M1.09052 29.605H4.98051C5.48534 29.6076 5.9686 29.8096 6.32463 30.1675C6.68067 30.5254 6.88052 31.0098 6.88052 31.5146C6.88016 31.924 6.74758 32.3224 6.50252 32.6504C6.25746 32.9783 5.91303 33.2186 5.52052 33.335L1.09052 34.6548" stroke="#814624" stroke-width="2" stroke-linecap="round" stroke-linejoin="round" />
  <path d="M21.0305 26.4351L57.0905 26.4351V1.7251L21.0305 1.7251V26.4351Z" stroke="#814624" stroke-width="2" stroke-linecap="round" stroke-linejoin="round" />
</svg>