<svg width="100" height="99" viewBox="0 0 100 99" fill="none" xmlns="http://www.w3.org/2000/svg">
<path d="M50 97C23.8 97 2.5 75.4758 2.5 49C2.5 22.5242 23.8 1 50 1C76.2 1 97.5 22.5242 97.5 49C97.4 75.4758 76.1 97 50 97Z" fill="#EB0029"/>
<path d="M39.9845 56.4481H42.0446V54.3884H28.6447C28.3716 54.3884 28.1096 54.2798 27.9164 54.0866C27.7232 53.8935 27.6147 53.6313 27.6147 53.3581V28.6474C27.6147 28.3742 27.7232 28.112 27.9164 27.9188C28.1096 27.7257 28.3716 27.6175 28.6447 27.6175H63.6942C63.9674 27.6175 64.2294 27.7257 64.4225 27.9188C64.6157 28.112 64.7242 28.3742 64.7242 28.6474V47.2067H66.7842V28.6474C66.7842 27.8279 66.4587 27.0417 65.8792 26.4622C65.2997 25.8827 64.5137 25.5574 63.6942 25.5574H28.6447C27.8252 25.5574 27.0392 25.8827 26.4597 26.4622C25.8802 27.0417 25.5547 27.8279 25.5547 28.6474V53.3966C25.5547 54.2162 25.8802 55.0023 26.4597 55.5818C27.0392 56.1613 27.8252 56.4866 28.6447 56.4866H37.9245V60.607H35.8645V62.6667H44.1142V60.607H39.9845V56.4481Z" fill="#FFE6BB"/>
<path d="M29.6758 49.2284C29.6758 49.635 29.756 50.0378 29.9119 50.4134C30.0678 50.7889 30.2963 51.1298 30.5842 51.4169C30.8722 51.7039 31.214 51.9315 31.59 52.0862C31.966 52.2409 32.3689 52.3197 32.7755 52.3184H34.8355V50.2587H32.7755C32.5023 50.2587 32.2403 50.1501 32.0471 49.957C31.854 49.7638 31.7454 49.5016 31.7454 49.2284V47.1687H29.6758V49.2284Z" fill="#FFE6BB"/>
<path d="M31.7358 43.0386H29.6758V45.0987H31.7358V43.0386Z" fill="#FFE6BB"/>
<path d="M74.7357 70.3583L68.2668 63.8892C68.0705 63.6991 67.8084 63.5921 67.5352 63.5907C67.3996 63.5899 67.2652 63.6162 67.1396 63.6674C67.0141 63.7186 66.8999 63.7938 66.8036 63.8892L66.0912 64.6018L63.9253 62.426C65.77 60.2049 66.6878 57.3585 66.4881 54.4782C66.2884 51.5979 64.9864 48.9056 62.8528 46.9604C60.7193 45.0152 57.9181 43.9669 55.0317 44.0335C52.1453 44.1001 49.3955 45.2766 47.3539 47.3181C45.3124 49.3597 44.136 52.1092 44.0694 54.9957C44.0028 57.8821 45.051 60.6835 46.9962 62.8171C48.9414 64.9507 51.6339 66.2526 54.5142 66.4523C57.3945 66.6521 60.241 65.7339 62.4621 63.8892L64.6376 66.065L63.9253 66.7677C63.7348 66.9636 63.6282 67.2258 63.6282 67.4991C63.6282 67.7723 63.7348 68.0351 63.9253 68.2309L70.4038 74.6996C70.5968 74.8918 70.8582 74.9999 71.1306 74.9999C71.403 74.9999 71.6643 74.8918 71.8574 74.6996L74.7453 71.8117C74.9362 71.6174 75.0424 71.3555 75.0406 71.0831C75.0388 70.8107 74.9292 70.5501 74.7357 70.3583ZM55.3001 64.4189C52.8747 64.4189 50.5486 63.4552 48.8336 61.7402C47.1186 60.0252 46.1551 57.6993 46.1551 55.2739C46.1551 52.8485 47.1186 50.5222 48.8336 48.8072C50.5486 47.0922 52.8747 46.1289 55.3001 46.1289C56.5006 46.1232 57.6902 46.3566 58.7993 46.8161C59.9084 47.2756 60.9147 47.9518 61.7594 48.8048C63.036 50.0843 63.9048 51.7134 64.2562 53.4864C64.6076 55.2593 64.4257 57.0967 63.7335 58.7663C63.0413 60.4359 61.8699 61.863 60.3672 62.8674C58.8645 63.8717 57.0979 64.4081 55.2905 64.4091L55.3001 64.4189ZM71.1258 72.5144L66.1201 67.4991L67.5352 66.0843L72.5505 71.0897L71.1258 72.5144Z" fill="#FFE6BB"/>
<path d="M55.457 48.1985V50.2587C56.8238 50.2612 58.1337 50.8057 59.0993 51.7731C60.0648 52.7405 60.6071 54.0515 60.6071 55.4182H62.6672C62.6646 53.5059 61.9045 51.6724 60.5531 50.3193C59.2018 48.9661 57.3694 48.2036 55.457 48.1985Z" fill="#FFE6BB"/>
<path d="M55.4606 35.8286C56.0713 35.8267 56.6678 35.6438 57.1747 35.3031C57.6816 34.9624 58.0761 34.4794 58.3085 33.9146C58.5409 33.3498 58.6008 32.7286 58.4804 32.1298C58.3601 31.5311 58.0651 30.9812 57.6325 30.5501C57.2 30.1189 56.6494 29.8257 56.0502 29.7073C55.4511 29.5888 54.8303 29.6503 54.2662 29.8845C53.7022 30.1186 53.2201 30.515 52.881 31.0229C52.5419 31.5309 52.3609 32.1278 52.3609 32.7385C52.3619 33.2 52.4707 33.6548 52.6786 34.0669L49.5693 37.1667C49.1552 36.9655 48.7012 36.8599 48.2408 36.8584C47.7792 36.8584 47.3241 36.9673 46.9124 37.1761L43.8031 34.0669C44.0308 33.5958 44.1352 33.0748 44.1065 32.5524C44.0777 32.03 43.9168 31.523 43.6387 31.0798C43.3607 30.6365 42.9747 30.2712 42.5168 30.018C42.059 29.7647 41.5443 29.6321 41.0211 29.6321C40.4978 29.6321 39.9832 29.7647 39.5253 30.018C39.0675 30.2712 38.6815 30.6365 38.4034 31.0798C38.1254 31.523 37.9644 32.03 37.9357 32.5524C37.907 33.0748 38.0113 33.5958 38.2391 34.0669L34.1094 38.1966L35.5726 39.6504L39.7023 35.5207C40.114 35.7236 40.5669 35.829 41.0259 35.829C41.4849 35.829 41.9378 35.7236 42.3495 35.5207L45.4588 38.63C45.2586 39.0409 45.1534 39.4918 45.1508 39.9489C45.1508 40.7684 45.4763 41.5541 46.0558 42.1336C46.6353 42.7131 47.4213 43.0389 48.2408 43.0389C49.0604 43.0389 49.8463 42.7131 50.4258 42.1336C51.0053 41.5541 51.3309 40.7684 51.3309 39.9489C51.3283 39.4918 51.223 39.0409 51.0228 38.63L54.1321 35.5207C54.5462 35.7219 55.0002 35.8271 55.4606 35.8286ZM55.4606 31.7087C55.6639 31.7106 55.8621 31.7725 56.0302 31.8868C56.1983 32.0012 56.3288 32.1624 56.4053 32.3508C56.4818 32.5391 56.5008 32.7462 56.46 32.9454C56.4192 33.1445 56.3203 33.3273 56.1759 33.4704C56.0315 33.6135 55.8479 33.7106 55.6484 33.7496C55.4488 33.7886 55.2422 33.7677 55.0546 33.6894C54.8669 33.6112 54.7066 33.4788 54.5939 33.3096C54.4811 33.1405 54.4209 32.9419 54.4209 32.7385C54.4209 32.6025 54.4479 32.4679 54.5002 32.3423C54.5526 32.2167 54.6293 32.1025 54.726 32.0067C54.8227 31.9109 54.9374 31.8356 55.0634 31.7844C55.1895 31.7332 55.3245 31.7074 55.4606 31.7087ZM39.9911 32.7385C39.9911 32.5348 40.0515 32.3359 40.1647 32.1665C40.2778 31.9971 40.4387 31.8647 40.6269 31.7867C40.8151 31.7088 41.0222 31.6887 41.222 31.7284C41.4218 31.7682 41.6054 31.8659 41.7494 32.01C41.8935 32.154 41.9916 32.3376 42.0313 32.5374C42.071 32.7372 42.0507 32.9447 41.9727 33.1329C41.8947 33.3211 41.7627 33.4818 41.5933 33.5949C41.4239 33.7081 41.2248 33.7684 41.0211 33.7684C40.7479 33.7684 40.4859 33.6603 40.2928 33.4671C40.0996 33.2739 39.9911 33.0117 39.9911 32.7385ZM48.2408 40.9787C48.0371 40.9787 47.838 40.9185 47.6686 40.8053C47.4992 40.6921 47.3672 40.531 47.2892 40.3428C47.2113 40.1546 47.1909 39.9475 47.2306 39.7477C47.2703 39.5479 47.3684 39.3644 47.5125 39.2203C47.6565 39.0763 47.8401 38.9781 48.0399 38.9383C48.2397 38.8986 48.4468 38.9191 48.635 38.9971C48.8232 39.075 48.9841 39.207 49.0972 39.3764C49.2104 39.5458 49.2708 39.7452 49.2708 39.9489C49.2721 40.0845 49.2464 40.2186 49.1951 40.3442C49.1437 40.4697 49.0679 40.5839 48.972 40.6798C48.8761 40.7757 48.7621 40.8518 48.6365 40.9031C48.511 40.9544 48.3764 40.98 48.2408 40.9787Z" fill="#FFE6BB"/>
<path d="M50 3.03061C75.6592 3.03061 96.4694 23.8408 96.4694 49.5C96.4694 75.1592 75.6592 95.9694 50 95.9694C24.3408 95.9694 3.53061 75.1592 3.53061 49.5C3.53061 23.8408 24.3408 3.03061 50 3.03061ZM50 0C22.7245 0 0.5 22.2245 0.5 49.5C0.5 76.7755 22.7245 99 50 99C77.2755 99 99.5 76.7755 99.5 49.5C99.399 22.2245 77.2755 0 50 0Z" fill="#F5D38C"/>
</svg>
