<svg width="100" height="99" viewBox="0 0 100 99" fill="none" xmlns="http://www.w3.org/2000/svg">
<path d="M50 97C23.8 97 2.5 75.4758 2.5 49C2.5 22.5242 23.8 1 50 1C76.2 1 97.5 22.5242 97.5 49C97.4 75.4758 76.1 97 50 97Z" fill="#EB0029"/>
<path d="M62.434 57.5223C62.2562 57.4181 62.1132 57.2634 62.023 57.078C61.9329 56.8926 61.8997 56.6846 61.9276 56.4804C61.9555 56.2761 62.0432 56.0845 62.1798 55.9301C62.3163 55.7756 62.4956 55.6652 62.6949 55.6125C62.8942 55.5598 63.1046 55.5674 63.2997 55.6342C63.4948 55.7009 63.6657 55.8236 63.791 55.9874C63.9162 56.1511 63.9902 56.3486 64.0035 56.5543C64.0168 56.7601 63.9689 56.9649 63.8659 57.1434C63.797 57.2626 63.7053 57.3669 63.596 57.4506C63.4866 57.5342 63.3618 57.5958 63.2288 57.631C63.0957 57.6662 62.9569 57.6744 62.8206 57.6558C62.6842 57.6372 62.5528 57.5919 62.434 57.5223Z" fill="#FFE6BB"/>
<path d="M75.8203 61.6053C76.7818 59.9156 77.0388 57.9152 76.5357 56.0374C76.0325 54.1596 74.8097 52.5558 73.1322 51.5733L64.2179 46.4277L50.5092 28.9597C50.2269 28.5127 49.8353 28.1449 49.3714 27.8911C48.9076 27.6374 48.3868 27.5058 47.8581 27.5091C47.3116 27.5119 46.7755 27.6588 46.3036 27.9344C45.8317 28.2101 45.4407 28.605 45.1699 29.0797L41.2994 35.786L37.2625 35.546C37.0678 35.5344 36.8737 35.5774 36.7023 35.6705C36.5308 35.7636 36.3889 35.9027 36.2926 36.0724L34.1864 39.7029C34.0843 39.8698 34.0303 40.0617 34.0303 40.2573C34.0303 40.4529 34.0843 40.6447 34.1864 40.8116L36.4127 44.1832L32.9301 50.2247C32.6611 50.6905 32.5158 51.2173 32.5081 51.7551C32.5005 52.2929 32.6306 52.8236 32.8863 53.2968C33.1419 53.7701 33.5144 54.1703 33.9684 54.4587C34.4224 54.7472 34.9426 54.9145 35.4797 54.945L55.5807 58.88L54.2135 61.2449C54.1443 61.3642 54.0994 61.496 54.0815 61.6328C54.0635 61.7695 54.0728 61.9087 54.1089 62.0419C54.145 62.175 54.2071 62.2996 54.2917 62.4086C54.3762 62.5176 54.4815 62.6089 54.6015 62.677L57.3728 64.2565L54.2228 69.7066C53.9474 70.184 53.7687 70.711 53.697 71.2574C53.6253 71.8038 53.6619 72.3588 53.8047 72.8911C53.9475 73.4234 54.1938 73.9222 54.5294 74.3593C54.865 74.7964 55.2835 75.1633 55.7608 75.4387C56.2382 75.714 56.7651 75.8924 57.3115 75.9641C57.8579 76.0359 58.4131 75.9996 58.9453 75.8568C60.0203 75.5683 60.9366 74.8646 61.4928 73.9006L66.7767 64.7554C68.4127 65.3894 70.2209 65.4205 71.8778 64.8434C73.5347 64.2663 74.9322 63.1184 75.8203 61.6053ZM61.2434 61.6698L64.8737 63.7667L59.6268 72.8568C59.3411 73.323 58.8847 73.6591 58.3548 73.7937C57.8249 73.9282 57.2633 73.8506 56.7899 73.5772C56.3165 73.3037 55.9685 72.8558 55.8203 72.3295C55.6721 71.8033 55.7353 71.2402 55.9964 70.7599L61.2434 61.6698ZM56.5599 61.3833L57.6037 59.5358L59.4513 60.58L58.3982 62.4275L56.5599 61.3833ZM40.0615 37.8369L37.5858 42.2063L36.2926 40.2478L37.7429 37.7354L40.0615 37.8369ZM49.0867 30.6038L36.154 52.959C35.9659 52.9128 35.7744 52.8818 35.5813 52.8665C35.3968 52.8676 35.2152 52.82 35.0548 52.7289C34.8943 52.6378 34.7606 52.5064 34.6671 52.3473C34.5735 52.1883 34.5234 52.0073 34.5217 51.8228C34.5201 51.6383 34.5669 51.4566 34.6575 51.2959L46.9528 30.1974C47.0431 30.0329 47.1772 29.8966 47.3403 29.8036C47.5033 29.7107 47.6889 29.6649 47.8765 29.671C48.0619 29.6651 48.2455 29.7088 48.408 29.7982C48.5705 29.8876 48.706 30.0192 48.8003 30.1789C48.8095 30.1974 48.8465 30.2528 49.1144 30.6038H49.0867ZM62.2318 47.3424L56.6892 56.9864L38.3803 53.4024L50.5092 32.3868L62.2318 47.3424ZM66.8506 62.492L58.6753 57.7717L63.9223 48.6816L72.0975 53.4024C72.8948 53.8659 73.5566 54.5302 74.0169 55.3293C74.4772 56.1284 74.72 57.034 74.721 57.9562C74.7261 58.8797 74.4873 59.7883 74.0288 60.5899C73.5704 61.3916 72.9085 62.0579 72.11 62.5218C71.3115 62.9857 70.4047 63.231 69.4812 63.2322C68.5578 63.2335 67.6503 62.9908 66.8506 62.529V62.492Z" fill="#FFE6BB"/>
<path d="M65.6775 58.1968C65.7464 58.0765 65.8385 57.9711 65.9483 57.8865C66.0581 57.8018 66.1836 57.7394 66.3175 57.7033C66.4513 57.6673 66.591 57.6582 66.7285 57.6763C66.866 57.6943 66.9986 57.7394 67.1186 57.8089L68.9661 58.8616C69.2091 58.9994 69.4965 59.0362 69.7662 58.9636C70.0359 58.891 70.2662 58.7149 70.4072 58.4737C70.4763 58.3524 70.5687 58.2459 70.679 58.1602C70.7893 58.0746 70.9154 58.0117 71.05 57.9749C71.1847 57.938 71.3253 57.9281 71.4639 57.9455C71.6024 57.963 71.7362 58.0077 71.8575 58.0768C71.9788 58.1459 72.0853 58.238 72.1709 58.3483C72.2565 58.4586 72.3196 58.5849 72.3564 58.7196C72.3933 58.8542 72.4033 58.9946 72.3859 59.1332C72.3684 59.2717 72.3238 59.4056 72.2547 59.5269C72.0481 59.8845 71.7731 60.1978 71.4453 60.4489C71.1175 60.7 70.7434 60.8838 70.3445 60.9902C69.9455 61.0966 69.5295 61.1237 69.1202 61.0691C68.7109 61.0145 68.3164 60.8798 67.9592 60.6726L66.1117 59.6284C65.9887 59.5634 65.8798 59.4746 65.7913 59.3673C65.7028 59.2599 65.6365 59.1364 65.5961 59.0033C65.5557 58.8701 65.5421 58.7303 65.5561 58.5919C65.5701 58.4535 65.6113 58.3192 65.6775 58.1968Z" fill="#FFE6BB"/>
<path d="M24.6326 29.7727L30.48 33.0244C30.7237 33.1605 30.9034 33.3879 30.9796 33.6563C31.0558 33.9248 31.0223 34.2122 30.8865 34.4561C30.7487 34.6979 30.5214 34.8762 30.2537 34.9522C29.9859 35.0282 29.699 34.9958 29.4547 34.8625L23.6165 31.6018C23.4952 31.5351 23.3882 31.4451 23.3017 31.337C23.2151 31.2289 23.1507 31.1051 23.1121 30.9721C23.0735 30.8391 23.0615 30.6997 23.0767 30.5621C23.0919 30.4245 23.1341 30.2914 23.2008 30.1701C23.2675 30.0488 23.3575 29.9418 23.4656 29.8553C23.5736 29.7687 23.6977 29.704 23.8306 29.6654C23.9636 29.6268 24.1029 29.615 24.2405 29.6302C24.3781 29.6454 24.5113 29.6875 24.6326 29.7543V29.7727Z" fill="#FFE6BB"/>
<path d="M25.278 40.6358L29.3333 39.5551C29.6015 39.4843 29.8868 39.5223 30.1273 39.6606C30.3677 39.799 30.5438 40.0269 30.6173 40.2944C30.6549 40.4272 30.6656 40.566 30.6486 40.703C30.6316 40.8401 30.5874 40.9722 30.5185 41.0918C30.4497 41.2115 30.3575 41.3164 30.2476 41.3999C30.1376 41.4834 30.0121 41.5439 29.8783 41.5781L25.823 42.6683C25.5548 42.739 25.2695 42.7011 25.0291 42.5627C24.7887 42.4244 24.6126 42.1969 24.539 41.9295C24.468 41.66 24.5056 41.3734 24.6439 41.1315C24.7821 40.8896 25.0098 40.7114 25.278 40.6358Z" fill="#FFE6BB"/>
<path d="M35.4433 25.9574L36.5334 30.0124C36.6057 30.2807 36.5684 30.5668 36.4298 30.8076C36.2912 31.0484 36.0626 31.2243 35.7944 31.2966C35.5261 31.3688 35.2401 31.3314 34.9993 31.1928C34.7585 31.0542 34.5826 30.826 34.5103 30.5577L33.4111 26.5023C33.3388 26.234 33.3761 25.9479 33.5146 25.7071C33.6532 25.4663 33.8818 25.2904 34.1501 25.2182C34.4183 25.1459 34.7043 25.1833 34.9451 25.3219C35.1859 25.4605 35.3618 25.6892 35.4341 25.9574H35.4433Z" fill="#FFE6BB"/>
<path d="M50 3.03061C75.6592 3.03061 96.4694 23.8408 96.4694 49.5C96.4694 75.1592 75.6592 95.9694 50 95.9694C24.3408 95.9694 3.53061 75.1592 3.53061 49.5C3.53061 23.8408 24.3408 3.03061 50 3.03061ZM50 0C22.7245 0 0.5 22.2245 0.5 49.5C0.5 76.7755 22.7245 99 50 99C77.2755 99 99.5 76.7755 99.5 49.5C99.399 22.2245 77.2755 0 50 0Z" fill="#F5D38C"/>
</svg>
