<svg width="60" height="61" viewBox="0 0 60 61" fill="none" xmlns="http://www.w3.org/2000/svg">
  <path d="M17.4956 37.6575H19.9934V35.158H3.74657C3.41535 35.158 3.09769 35.0262 2.86349 34.7918C2.62928 34.5574 2.49771 34.2392 2.49771 33.9076V3.92059C2.49771 3.58908 2.62928 3.27088 2.86349 3.03647C3.09769 2.80205 3.41535 2.67084 3.74657 2.67084H46.2427C46.5739 2.67084 46.8915 2.80205 47.1257 3.03647C47.36 3.27088 47.4915 3.58908 47.4915 3.92059V26.4428H49.9892V3.92059C49.9892 2.92606 49.5945 1.97203 48.8919 1.2688C48.1893 0.565562 47.2363 0.170776 46.2427 0.170776H3.74657C2.75291 0.170776 1.79996 0.565562 1.09734 1.2688C0.394724 1.97203 0 2.92606 0 3.92059V33.9544C0 34.9489 0.394724 35.903 1.09734 36.6062C1.79996 37.3094 2.75291 37.7042 3.74657 37.7042H14.9979V42.7044H12.5002V45.2038H22.5027V42.7044H17.4956V37.6575Z" fill="#814624" />
  <path d="M4.99573 28.8961C4.99573 29.3895 5.09302 29.8784 5.28203 30.3341C5.47104 30.7898 5.74805 31.2035 6.09719 31.5519C6.44633 31.9002 6.86073 32.1764 7.31664 32.3641C7.77254 32.5519 8.26098 32.6474 8.75397 32.6459H11.2517V30.1464H8.75397C8.42275 30.1464 8.1051 30.0146 7.87089 29.7802C7.63668 29.5458 7.50511 29.2276 7.50511 28.8961V26.3966H4.99573V28.8961Z" fill="#814624" />
  <path d="M7.49344 21.3845H4.99573V23.8846H7.49344V21.3845Z" fill="#814624" />
  <path d="M59.6302 54.5381L51.7869 46.6877C51.549 46.4569 51.2312 46.3271 50.8999 46.3255C50.7355 46.3244 50.5725 46.3563 50.4203 46.4184C50.2681 46.4806 50.1296 46.5718 50.0129 46.6877L49.1492 47.5524L46.5231 44.912C48.7597 42.2167 49.8726 38.7624 49.6304 35.2671C49.3882 31.7718 47.8097 28.5047 45.2228 26.1441C42.6359 23.7836 39.2396 22.5114 35.7399 22.5923C32.2402 22.6731 28.9063 24.1007 26.4309 26.5782C23.9556 29.0557 22.5294 32.3923 22.4486 35.8951C22.3678 39.3979 23.6387 42.7974 25.9972 45.3866C28.3557 47.9757 31.6203 49.5557 35.1125 49.798C38.6048 50.0404 42.056 48.9262 44.749 46.6877L47.3868 49.328L46.5231 50.1808C46.2921 50.4185 46.1628 50.7367 46.1628 51.0683C46.1628 51.3999 46.2921 51.7187 46.5231 51.9564L54.378 59.8063C54.6121 60.0395 54.9289 60.1708 55.2592 60.1708C55.5895 60.1708 55.9064 60.0395 56.1404 59.8063L59.6419 56.3017C59.8734 56.0659 60.0022 55.7482 60 55.4176C59.9978 55.087 59.8648 54.7708 59.6302 54.5381ZM36.0654 47.3305C33.1247 47.3305 30.3044 46.161 28.225 44.0798C26.1456 41.9986 24.9774 39.1761 24.9774 36.2328C24.9774 33.2895 26.1456 30.4665 28.225 28.3852C30.3044 26.304 33.1247 25.1351 36.0654 25.1351C37.5209 25.1281 38.9632 25.4114 40.308 25.969C41.6527 26.5266 42.8728 27.3472 43.897 28.3824C45.4448 29.9351 46.4983 31.912 46.9243 34.0636C47.3503 36.2151 47.1298 38.4447 46.2905 40.4709C45.4513 42.497 44.031 44.2288 42.2091 45.4476C40.3871 46.6664 38.2451 47.3174 36.0537 47.3185L36.0654 47.3305ZM55.2534 57.1545L49.1842 51.0683L50.8999 49.3514L56.9808 55.4256L55.2534 57.1545Z" fill="#814624" />
  <path d="M36.252 27.6464V30.1464C37.9091 30.1495 39.4973 30.8103 40.668 31.9843C41.8387 33.1582 42.4962 34.7491 42.4962 36.4077H44.9939C44.9909 34.087 44.0692 31.8621 42.4308 30.22C40.7923 28.5779 38.5706 27.6525 36.252 27.6464Z" fill="#814624" />
  <path d="M36.2522 12.6352C36.9927 12.6329 37.7159 12.4109 38.3305 11.9975C38.9451 11.584 39.4235 10.9979 39.7053 10.3125C39.9871 9.62712 40.0596 8.87333 39.9137 8.14671C39.7678 7.42008 39.4101 6.75285 38.8857 6.22959C38.3612 5.70633 37.6936 5.35061 36.9672 5.20686C36.2408 5.06312 35.4881 5.13775 34.8041 5.42191C34.1202 5.70606 33.5358 6.18701 33.1246 6.80341C32.7134 7.41982 32.494 8.14422 32.494 8.88537C32.4953 9.44541 32.6272 9.99729 32.8792 10.4973L29.1093 14.2591C28.6073 14.0149 28.0567 13.8867 27.4986 13.8849C26.9389 13.8849 26.3871 14.0171 25.8879 14.2705L22.118 10.4973C22.3941 9.92567 22.5207 9.29349 22.4858 8.65949C22.451 8.0255 22.2558 7.41032 21.9187 6.87243C21.5816 6.33455 21.1136 5.89125 20.5584 5.5839C20.0033 5.27655 19.3793 5.1156 18.7449 5.1156C18.1105 5.1156 17.4865 5.27655 16.9314 5.5839C16.3763 5.89125 15.9082 6.33455 15.5711 6.87243C15.234 7.41032 15.0389 8.0255 15.004 8.65949C14.9692 9.29349 15.0957 9.92567 15.3718 10.4973L10.3647 15.5089L12.1388 17.2731L17.1459 12.2616C17.6451 12.5078 18.1942 12.6358 18.7508 12.6358C19.3073 12.6358 19.8564 12.5078 20.3556 12.2616L24.1255 16.0348C23.8828 16.5335 23.7552 17.0806 23.752 17.6353C23.752 18.6298 24.1467 19.5833 24.8494 20.2865C25.552 20.9898 26.5049 21.3851 27.4986 21.3851C28.4922 21.3851 29.4452 20.9898 30.1478 20.2865C30.8504 19.5833 31.2451 18.6298 31.2451 17.6353C31.242 17.0806 31.1143 16.5335 30.8717 16.0348L34.6416 12.2616C35.1435 12.5058 35.6941 12.6334 36.2522 12.6352ZM36.2522 7.63563C36.4987 7.63793 36.739 7.71307 36.9429 7.85181C37.1467 7.99055 37.3049 8.1862 37.3977 8.41479C37.4904 8.64339 37.5135 8.89466 37.464 9.13635C37.4145 9.37804 37.2946 9.59984 37.1195 9.77349C36.9444 9.94713 36.7219 10.065 36.4799 10.1123C36.238 10.1596 35.9875 10.1342 35.76 10.0393C35.5325 9.94435 35.3381 9.7837 35.2014 9.57841C35.0647 9.37312 34.9917 9.13209 34.9917 8.88537C34.9917 8.72024 35.0244 8.55694 35.0879 8.40453C35.1514 8.25211 35.2444 8.11348 35.3616 7.99726C35.4788 7.88104 35.6179 7.78959 35.7707 7.72746C35.9236 7.66534 36.0873 7.63408 36.2522 7.63563ZM17.4961 8.88537C17.4961 8.63816 17.5693 8.39675 17.7065 8.1912C17.8438 7.98564 18.0388 7.82492 18.267 7.73031C18.4952 7.63571 18.7463 7.61135 18.9886 7.65958C19.2308 7.70781 19.4533 7.82644 19.628 8.00125C19.8027 8.17606 19.9216 8.39878 19.9698 8.64124C20.018 8.88371 19.9932 9.13554 19.8987 9.36394C19.8042 9.59234 19.6441 9.7873 19.4387 9.92464C19.2334 10.062 18.9919 10.1351 18.7449 10.1351C18.4137 10.1351 18.0961 10.0039 17.8618 9.76949C17.6276 9.53508 17.4961 9.21688 17.4961 8.88537ZM27.4986 18.8851C27.2516 18.8851 27.0101 18.8119 26.8048 18.6746C26.5994 18.5372 26.4393 18.3417 26.3448 18.1133C26.2503 17.8849 26.2255 17.6336 26.2737 17.3912C26.3219 17.1487 26.4409 16.926 26.6155 16.7512C26.7902 16.5764 27.0127 16.4572 27.2549 16.4089C27.4972 16.3607 27.7483 16.3856 27.9765 16.4802C28.2047 16.5749 28.3997 16.735 28.537 16.9406C28.6742 17.1461 28.7474 17.3881 28.7474 17.6353C28.749 17.7999 28.7178 17.9627 28.6555 18.115C28.5933 18.2674 28.5014 18.4059 28.3851 18.5223C28.2689 18.6387 28.1306 18.731 27.9783 18.7932C27.8261 18.8555 27.663 18.8866 27.4986 18.8851Z" fill="#814624" />
</svg>