<svg width="100" height="99" viewBox="0 0 100 99" fill="none" xmlns="http://www.w3.org/2000/svg">
<path d="M50 97C23.8 97 2.5 75.4758 2.5 49C2.5 22.5242 23.8 1 50 1C76.2 1 97.5 22.5242 97.5 49C97.4 75.4758 76.1 97 50 97Z" fill="#EB0029"/>
<path d="M50 3.03061C75.6592 3.03061 96.4694 23.8408 96.4694 49.5C96.4694 75.1592 75.6592 95.9694 50 95.9694C24.3408 95.9694 3.53061 75.1592 3.53061 49.5C3.53061 23.8408 24.3408 3.03061 50 3.03061ZM50 0C22.7245 0 0.5 22.2245 0.5 49.5C0.5 76.7755 22.7245 99 50 99C77.2755 99 99.5 76.7755 99.5 49.5C99.399 22.2245 77.2755 0 50 0Z" fill="#F5D38C"/>
<path d="M55.1972 66.1968H42.0234" stroke="#FFE6BB" stroke-width="2" stroke-linecap="round" stroke-linejoin="round"/>
<path d="M25.2704 66.197H24.4156C24.1865 66.1982 23.9595 66.1544 23.7475 66.0676C23.5356 65.9808 23.3428 65.853 23.1804 65.6915C23.018 65.5299 22.8891 65.3376 22.8012 65.1261C22.7132 64.9146 22.668 64.6878 22.668 64.4588V52.2635L27.1985 41.4358C27.4865 40.7456 27.9717 40.1555 28.5935 39.7398C29.2153 39.3242 29.9459 39.1015 30.6938 39.0994H38.1782V57.1456H73.2353C73.9306 57.1456 74.5974 57.4215 75.089 57.9131C75.5806 58.4047 75.8568 59.0715 75.8568 59.7668V63.6138C75.858 63.9584 75.7911 64.2997 75.6598 64.6183C75.5285 64.9369 75.3355 65.2266 75.0918 65.4702C74.8481 65.7139 74.5586 65.9066 74.24 66.0379C73.9214 66.1692 73.5799 66.2363 73.2353 66.235H72.2286" stroke="#FFE6BB" stroke-width="2" stroke-linecap="round" stroke-linejoin="round"/>
<path d="M63.7008 72C66.7485 72 69.2192 69.5293 69.2192 66.4816C69.2192 63.4339 66.7485 60.9636 63.7008 60.9636C60.6531 60.9636 58.1825 63.4339 58.1825 66.4816C58.1825 69.5293 60.6531 72 63.7008 72Z" stroke="#FFE6BB" stroke-width="2" stroke-linecap="round" stroke-linejoin="round"/>
<path d="M33.1331 72C36.1808 72 38.6514 69.5293 38.6514 66.4816C38.6514 63.4339 36.1808 60.9636 33.1331 60.9636C30.0854 60.9636 27.6147 63.4339 27.6147 66.4816C27.6147 69.5293 30.0854 72 33.1331 72Z" stroke="#FFE6BB" stroke-width="2" stroke-linecap="round" stroke-linejoin="round"/>
<path d="M33.7241 55.73V57.259" stroke="#FFE6BB" stroke-width="2" stroke-linecap="round" stroke-linejoin="round"/>
<path d="M30.2705 43.4019H31.6952C32.2317 43.4019 32.7463 43.6152 33.1257 43.9946C33.5051 44.374 33.7183 44.8883 33.7183 45.4248V50.1738C33.7183 50.7104 33.5051 51.2252 33.1257 51.6046C32.7463 51.984 32.2317 52.1972 31.6952 52.1972H26.6042" stroke="#FFE6BB" stroke-width="2" stroke-linecap="round" stroke-linejoin="round"/>
<path d="M22.668 56.7466H26.3627C26.8422 56.7491 27.3012 56.9409 27.6393 57.2808C27.9775 57.6208 28.1673 58.0809 28.1673 58.5604C28.167 58.9492 28.041 59.3276 27.8083 59.6391C27.5755 59.9506 27.2484 60.1788 26.8756 60.2893L22.668 61.5429" stroke="#FFE6BB" stroke-width="2" stroke-linecap="round" stroke-linejoin="round"/>
<path d="M42.8719 52.4695L77.1217 52.4695V29L42.8719 29V52.4695Z" stroke="#FFE6BB" stroke-width="2" stroke-linecap="round" stroke-linejoin="round"/>
</svg>
