<svg xmlns="http://www.w3.org/2000/svg" width="34" height="35" viewBox="0 0 34 35" fill="none">
  <path d="M16.5834 27.6777C16.5834 27.9906 16.792 28.1991 17.1049 28.1991C17.4177 28.1991 17.6263 27.9906 17.6263 27.6777C17.6263 27.3648 17.4177 27.1562 17.1049 27.1562C16.792 27.1562 16.5834 27.3648 16.5834 27.6777Z" fill="#FFE6BB"/>
  <path d="M6.8842 17.0408C6.57134 17.0408 6.36276 17.2493 6.36276 17.5622C6.36276 17.8751 6.57134 18.0837 6.8842 18.0837C7.19707 18.0837 7.40564 17.8751 7.40564 17.5622C7.40564 17.2493 7.19707 17.0408 6.8842 17.0408Z" fill="#FFE6BB"/>
  <path d="M8.8662 19.0217C8.55333 19.0217 8.34476 19.2303 8.34476 19.5432C8.34476 19.856 8.55333 20.0646 8.8662 20.0646C9.17906 20.0646 9.38764 19.856 9.38764 19.5432C9.38764 19.2303 9.17906 19.0217 8.8662 19.0217Z" fill="#FFE6BB"/>
  <path d="M10.2223 10.0532C10.0137 9.84458 9.70082 9.84458 9.49225 10.0532C9.28367 10.2617 9.28367 10.5746 9.49225 10.7832C9.70082 10.9917 10.0137 10.9917 10.2223 10.7832C10.4309 10.4703 10.4309 10.1574 10.2223 10.0532Z" fill="#FFE6BB"/>
  <path d="M17.5239 7.34175C17.5239 7.02889 17.3153 6.82031 17.0025 6.82031C16.6896 6.82031 16.481 7.02889 16.481 7.34175C16.481 7.65462 16.6896 7.86319 17.0025 7.86319C17.3153 7.86319 17.5239 7.65462 17.5239 7.34175Z" fill="#FFE6BB"/>
  <path d="M19.5026 5.35982C19.5026 5.04696 19.2941 4.83838 18.9812 4.83838C18.6683 4.83838 18.4597 5.04696 18.4597 5.35982C18.4597 5.67268 18.6683 5.88126 18.9812 5.88126C19.2941 5.88126 19.5026 5.67268 19.5026 5.35982Z" fill="#FFE6BB"/>
  <path d="M24.6151 10.6784C24.8237 10.4698 24.8237 10.157 24.6151 9.94842C24.4065 9.73985 24.0937 9.73985 23.8851 9.94842C23.6765 10.157 23.6765 10.4698 23.8851 10.6784C24.0937 10.887 24.4065 10.887 24.6151 10.6784Z" fill="#FFE6BB"/>
  <path d="M27.2199 17.9792C27.5328 17.9792 27.7413 17.7706 27.7413 17.4577C27.7413 17.1449 27.5328 16.9363 27.2199 16.9363C26.907 16.9363 26.6985 17.1449 26.6985 17.4577C26.6985 17.7706 26.907 17.9792 27.2199 17.9792Z" fill="#FFE6BB"/>
  <path d="M25.2378 16.1012C25.5507 16.1012 25.7593 15.8927 25.7593 15.5798C25.7593 15.2669 25.5507 15.0583 25.2378 15.0583C24.925 15.0583 24.7164 15.2669 24.7164 15.5798C24.7164 15.7884 24.925 16.1012 25.2378 16.1012Z" fill="#FFE6BB"/>
  <path d="M23.8851 25.0705C24.0937 25.2791 24.4066 25.2791 24.6151 25.0705C24.8237 24.862 24.8237 24.5491 24.6151 24.3405C24.4066 24.1319 24.0937 24.1319 23.8851 24.3405C23.6766 24.5491 23.6766 24.862 23.8851 25.0705Z" fill="#FFE6BB"/>
  <path d="M18.5655 25.6965C18.5655 26.0094 18.7741 26.2179 19.0869 26.2179C19.3998 26.2179 19.6084 26.0094 19.6084 25.6965C19.6084 25.3836 19.3998 25.175 19.0869 25.175C18.7741 25.175 18.5655 25.4879 18.5655 25.6965Z" fill="#FFE6BB"/>
  <path d="M11.5783 30.7025C9.49253 31.3282 7.09392 30.8068 5.42531 29.1382C2.50524 26.2181 0.628052 22.0466 0.628052 17.5622C0.628052 8.48911 7.92823 1.18896 17.0013 1.18896C26.0743 1.18896 33.3745 8.48911 33.3745 17.5622C33.3745 26.6352 26.0743 33.9354 17.0013 33.9354C13.5598 33.9354 10.8483 31.1196 10.8483 27.7824C10.8483 24.3409 13.6641 21.6294 17.0013 21.6294" stroke="#FFE6BB" stroke-width="0.84567" stroke-miterlimit="10" stroke-linecap="round" stroke-linejoin="round"/>
  <path d="M13.6628 15.4763C13.3499 16.1021 13.1413 16.7278 13.1413 17.4578C13.1413 19.6479 14.9142 21.4208 17.1043 21.4208C19.2943 21.4208 21.0672 19.6479 21.0672 17.4578C21.0672 15.2678 19.2943 13.4949 17.1043 13.4949C16.3743 13.4949 15.6442 13.7034 15.1228 14.0163" stroke="#FFE6BB" stroke-width="0.84567" stroke-miterlimit="10" stroke-linecap="round" stroke-linejoin="round"/>
</svg>