<svg xmlns="http://www.w3.org/2000/svg" width="19" height="18" viewBox="0 0 19 18" fill="none">
  <path d="M16.8031 11.6738C15.8031 11.6738 14.8031 11.4738 13.8031 11.1738C13.3031 10.9738 12.8031 11.1738 12.5031 11.4738L10.6031 12.8738C8.40307 11.6738 7.10308 10.3738 5.90308 8.17383L7.30307 6.37384C7.70307 5.97384 7.80307 5.47382 7.60307 4.97382C7.30307 3.97382 7.10307 2.97382 7.10307 1.97382C7.10307 1.27382 6.50307 0.673828 5.80307 0.673828H2.70307C2.00307 0.673828 1.40308 1.27382 1.40308 1.97382C1.40308 10.4738 8.30307 17.3738 16.8031 17.3738C17.5031 17.3738 18.1031 16.7738 18.1031 16.0738V12.9738C18.2031 12.2738 17.6031 11.6738 16.8031 11.6738Z" stroke="#814624" stroke-width="1.2" stroke-miterlimit="10"/>
</svg>