<svg width="27" height="26" viewBox="0 0 27 26" fill="none" xmlns="http://www.w3.org/2000/svg">
<path d="M24.2936 17.1257C22.7378 17.1257 21.1819 16.8144 19.626 16.3473C18.8481 16.0359 18.0702 16.3473 17.6034 16.8143L14.6473 18.994C11.2243 17.1258 9.20171 15.1018 7.33467 11.6766L9.51288 8.87426C10.1352 8.25151 10.2908 7.47303 9.97964 6.69459C9.51288 5.1377 9.20171 3.58082 9.20171 2.02393C9.20171 0.934112 8.26818 0 7.17907 0H2.35588C1.26677 0 0.333252 0.934112 0.333252 2.02393C0.333252 15.2575 11.0688 26 24.2936 26C25.3828 26 26.3163 25.0658 26.3163 23.976V19.1497C26.4719 18.0598 25.5383 17.1257 24.2936 17.1257Z" fill="#814624"/>
</svg>
