<svg xmlns="http://www.w3.org/2000/svg" width="35" height="35" viewBox="0 0 35 35" fill="none">
<path d="M21.2141 33.3402C23.0857 32.8411 24.8325 31.9677 26.5793 30.8448C26.7041 30.72 26.9536 30.72 27.0783 30.72C27.4527 30.72 27.827 30.5952 28.0765 30.3457C28.4508 29.8466 28.8252 29.4723 29.1995 28.9732C30.0729 27.7255 30.9463 26.4778 31.6949 25.1053C32.8178 23.2338 33.4417 21.1127 33.5664 18.8668C33.6912 18.2429 33.0673 17.6191 32.4435 17.7438C32.0692 17.7438 31.8196 17.8686 31.4453 17.9934C31.071 18.1182 30.9463 18.2429 30.9463 18.6172C30.9463 18.8668 31.1958 19.1163 31.5701 18.9915C31.9445 18.9915 32.194 18.8668 32.5683 18.742C32.4435 21.3622 31.071 24.9806 28.9499 27.3512C28.7004 27.1017 28.5756 26.7273 28.3261 26.4778C27.827 25.7292 27.2031 25.7292 26.7041 26.353C26.3297 26.8521 25.9554 27.2264 25.7059 27.7255C25.3316 28.2246 25.3316 28.5989 25.7059 29.098C25.9554 29.3475 26.0802 29.7218 26.3298 29.9714C25.5811 30.4705 24.8325 30.8448 24.0839 31.2191C22.4619 32.0925 20.8398 32.4668 18.9682 32.7163C18.8435 32.7163 17.9701 32.7164 17.5958 32.8411C11.3573 33.2154 3.87097 29.098 1.87464 20.7383L1.62515 19.7402C0.87653 14.4998 2.24901 10.008 5.99213 6.26492C10.2343 2.02271 15.3499 0.775006 21.2141 2.02272C20.9646 3.64474 21.3389 5.14199 22.2123 6.3897L22.8362 7.13831C23.2105 7.38785 23.5848 7.76218 23.8343 8.01172C24.0839 8.13649 24.0839 8.38603 24.0839 8.63558C23.8344 9.3842 23.5848 10.2576 23.3352 11.0062C23.3352 11.0062 23.2105 11.3805 23.3352 11.6301C23.3352 11.7548 23.46 12.0044 23.46 12.0044C23.7096 12.3787 24.0838 12.6282 23.9591 13.0026C23.9591 13.1273 23.8343 13.2521 23.7095 13.3769C23.46 13.7512 23.7095 13.876 23.9591 14.4998L24.0839 14.7493C25.0821 16.8704 26.7041 18.1182 29.0747 18.742C29.1995 18.742 29.449 18.742 29.5738 18.742C29.6985 18.6172 29.8233 18.4925 29.8233 18.3677C29.8233 18.2429 29.5738 17.9934 29.449 17.8686C29.0747 17.7438 28.7004 17.6191 28.3261 17.4943C26.704 16.8704 25.5811 15.6227 24.8325 14.0007C24.8325 13.8759 24.8325 13.7512 24.8325 13.6264C25.082 13.0026 24.9572 12.3787 24.5829 11.8796C24.4582 11.7548 24.4582 11.5053 24.4582 11.3805C24.583 10.6319 24.7077 9.88329 24.9572 9.25943C25.2068 8.51081 25.082 7.88695 24.4582 7.38787C23.46 6.63924 22.8361 5.76583 22.4618 4.64289C22.2123 3.89427 22.0876 3.27042 22.2123 2.52179C22.3371 2.02271 22.0875 1.52362 21.7132 1.27408C21.0894 1.14931 20.5903 1.02454 19.9664 0.899766C19.8416 0.899766 19.8417 0.899766 19.7169 0.899766C17.5958 0.525453 15.4747 0.650239 13.4784 1.14932C7.98847 2.5218 4.12051 5.76584 1.87464 11.0062C1.62509 11.6301 1.37555 12.2539 1.25078 12.8778C1.12601 13.3769 1.00126 14.0007 0.876484 14.4998C0.751714 15.2484 0.751698 15.9971 0.626928 16.7457C0.502157 20.4888 1.62509 23.8576 3.7462 26.9769C5.61776 29.5971 7.98847 31.4686 10.983 32.7163C14.1022 34.0888 17.5958 34.3384 21.2141 33.3402ZM27.2032 29.7219C26.8289 29.2228 26.5793 28.8484 26.3298 28.3494C26.7041 27.8503 27.0783 27.3512 27.4526 26.8521C27.7022 27.2264 27.9518 27.6007 28.2013 28.0998C28.2013 28.0998 28.2013 28.2246 28.2013 28.3494C27.9518 28.8484 27.5775 29.3475 27.2032 29.7219Z" fill="#FFE6BB"/>
<path d="M21.2141 33.3402C23.0857 32.8411 24.8325 31.9677 26.5793 30.8448C26.7041 30.72 26.9536 30.72 27.0783 30.72C27.4527 30.72 27.827 30.5952 28.0765 30.3457C28.4508 29.8466 28.8252 29.4723 29.1995 28.9732C30.0729 27.7255 30.9463 26.4778 31.6949 25.1053C32.8178 23.2338 33.4417 21.1127 33.5664 18.8668C33.6912 18.2429 33.0673 17.6191 32.4435 17.7438C32.0692 17.7438 31.8196 17.8686 31.4453 17.9934C31.071 18.1182 30.9463 18.2429 30.9463 18.6172C30.9463 18.8668 31.1958 19.1163 31.5701 18.9915C31.9445 18.9915 32.194 18.8668 32.5683 18.742C32.4435 21.3622 31.071 24.9806 28.9499 27.3512C28.7004 27.1017 28.5756 26.7273 28.3261 26.4778C27.827 25.7292 27.2031 25.7292 26.7041 26.353C26.3297 26.8521 25.9554 27.2264 25.7059 27.7255C25.3316 28.2246 25.3316 28.5989 25.7059 29.098C25.9554 29.3475 26.0802 29.7218 26.3298 29.9714C25.5811 30.4705 24.8325 30.8448 24.0839 31.2191C22.4619 32.0925 20.8398 32.4668 18.9682 32.7163C18.8435 32.7163 17.9701 32.7164 17.5958 32.8411C11.3573 33.2154 3.87097 29.098 1.87464 20.7384L1.62515 19.7402C0.87653 14.4998 2.24901 10.008 5.99213 6.26492C10.2343 2.02271 15.3499 0.775006 21.2141 2.02272C20.9646 3.64474 21.3389 5.14199 22.2123 6.3897L22.8362 7.13831C23.2105 7.38785 23.5848 7.76218 23.8343 8.01172C24.0839 8.13649 24.0839 8.38603 24.0839 8.63558C23.8344 9.3842 23.5848 10.2576 23.3352 11.0062C23.3352 11.0062 23.2105 11.3805 23.3352 11.6301C23.3352 11.7548 23.46 12.0044 23.46 12.0044C23.7096 12.3787 24.0838 12.6282 23.9591 13.0026C23.9591 13.1273 23.8343 13.2521 23.7095 13.3769C23.46 13.7512 23.7095 13.876 23.9591 14.4998L24.0839 14.7493C25.0821 16.8704 26.7041 18.1182 29.0747 18.742C29.1995 18.742 29.449 18.742 29.5738 18.742C29.6985 18.6172 29.8233 18.4925 29.8233 18.3677C29.8233 18.2429 29.5738 17.9934 29.449 17.8686C29.0747 17.7438 28.7004 17.6191 28.3261 17.4943C26.704 16.8704 25.5811 15.6227 24.8325 14.0007C24.8325 13.8759 24.8325 13.7512 24.8325 13.6264C25.082 13.0026 24.9572 12.3787 24.5829 11.8796C24.4582 11.7548 24.4582 11.5053 24.4582 11.3805C24.583 10.6319 24.7077 9.88329 24.9572 9.25943C25.2068 8.51081 25.082 7.88695 24.4582 7.38787C23.46 6.63924 22.8361 5.76583 22.4618 4.64289C22.2123 3.89427 22.0876 3.27042 22.2123 2.52179C22.3371 2.02271 22.0875 1.52362 21.7132 1.27408C21.0894 1.14931 20.5903 1.02454 19.9664 0.899766C19.8416 0.899766 19.8417 0.899766 19.7169 0.899766C17.5958 0.525453 15.4747 0.650239 13.4784 1.14932C7.98847 2.5218 4.12051 5.76584 1.87464 11.0062C1.62509 11.6301 1.37555 12.2539 1.25078 12.8778C1.12601 13.3769 1.00126 14.0007 0.876484 14.4998C0.751714 15.2484 0.751698 15.9971 0.626928 16.7457C0.502157 20.4888 1.62509 23.8576 3.7462 26.9769C5.61776 29.5971 7.98847 31.4686 10.983 32.7163C14.1022 34.0888 17.5958 34.3384 21.2141 33.3402ZM27.2032 29.7219C26.8289 29.2228 26.5793 28.8484 26.3298 28.3494C26.7041 27.8503 27.0783 27.3512 27.4526 26.8521C27.7022 27.2264 27.9518 27.6007 28.2013 28.0998C28.2013 28.0998 28.2013 28.2246 28.2013 28.3494C27.9518 28.8484 27.5775 29.3475 27.2032 29.7219Z" stroke="#FFE6BB" stroke-width="0.361946" stroke-miterlimit="10"/>
<path d="M29.1939 10.3823C29.8178 10.008 30.5664 9.75844 31.1902 9.38413C31.9388 9.00981 32.5627 9.50889 32.6875 10.2575C32.6875 11.2557 32.6875 12.2539 32.6875 13.252C32.6875 13.7511 32.3131 14.2502 31.8141 14.2502C31.0654 14.375 30.1921 14.375 29.4435 14.4997C28.9444 14.4997 28.4453 14.1254 28.4453 13.6263C28.4453 12.753 28.5701 11.8796 28.5701 11.1309C28.6948 10.7566 28.8196 10.5071 29.1939 10.3823ZM31.6893 13.3768C31.6893 12.3786 31.6893 11.3805 31.6893 10.2575C31.0655 10.6318 30.3169 10.8814 29.693 11.2557C29.693 11.2557 29.5682 11.3805 29.5682 11.5052C29.5682 12.2539 29.4435 12.8777 29.4435 13.6263C30.1921 13.5016 30.9407 13.5016 31.6893 13.3768Z" fill="#FFE6BB"/>
<path d="M29.1939 10.3823C29.8178 10.008 30.5664 9.75844 31.1902 9.38413C31.9388 9.00981 32.5627 9.50889 32.6875 10.2575C32.6875 11.2557 32.6875 12.2539 32.6875 13.252C32.6875 13.7511 32.3131 14.2502 31.8141 14.2502C31.0654 14.375 30.1921 14.375 29.4435 14.4997C28.9444 14.4997 28.4453 14.1254 28.4453 13.6263C28.4453 12.753 28.5701 11.8796 28.5701 11.1309C28.6948 10.7566 28.8196 10.5071 29.1939 10.3823ZM31.6893 13.3768C31.6893 12.3786 31.6893 11.3805 31.6893 10.2575C31.0655 10.6318 30.3169 10.8814 29.693 11.2557C29.693 11.2557 29.5682 11.3805 29.5682 11.5052C29.5682 12.2539 29.4435 12.8777 29.4435 13.6263C30.1921 13.5016 30.9407 13.5016 31.6893 13.3768Z" stroke="#FFE6BB" stroke-width="0.361946" stroke-miterlimit="10"/>
<path d="M24.3305 1.39844C24.8296 1.27367 25.3288 1.27368 25.9526 1.14891C26.5765 1.02414 26.9507 1.39844 27.0755 2.0223C27.2003 2.64615 27.3251 3.14523 27.3251 3.76908C27.4498 4.39294 27.2003 4.76726 26.5765 4.89203C26.3269 5.0168 26.0773 5.14157 25.8278 5.14157C25.2039 5.39111 24.7049 5.14156 24.4553 4.64248C24.2058 4.01862 23.8315 3.39477 23.5819 2.77091C23.4572 2.52137 23.4572 2.27183 23.4572 2.14706C23.7067 1.77275 23.9562 1.52322 24.3305 1.39844ZM25.4535 4.39294C25.8278 4.26817 26.0773 4.14339 26.4516 4.01862C26.3269 3.39477 26.2021 2.77091 26.2021 2.14706C25.703 2.27183 25.2039 2.27184 24.5801 2.39662C24.8296 3.02047 25.0792 3.64431 25.4535 4.39294Z" fill="#FFE6BB"/>
<path d="M24.3305 1.39844C24.8296 1.27367 25.3288 1.27368 25.9526 1.14891C26.5765 1.02414 26.9507 1.39844 27.0755 2.0223C27.2003 2.64615 27.3251 3.14523 27.3251 3.76908C27.4498 4.39294 27.2003 4.76726 26.5765 4.89203C26.3269 5.0168 26.0773 5.14157 25.8278 5.14157C25.2039 5.39111 24.7049 5.14156 24.4553 4.64248C24.2058 4.01862 23.8315 3.39477 23.5819 2.77091C23.4572 2.52137 23.4572 2.27183 23.4572 2.14706C23.7067 1.77275 23.9562 1.52322 24.3305 1.39844ZM25.4535 4.39294C25.8278 4.26817 26.0773 4.14339 26.4516 4.01862C26.3269 3.39477 26.2021 2.77091 26.2021 2.14706C25.703 2.27183 25.2039 2.27184 24.5801 2.39662C24.8296 3.02047 25.0792 3.64431 25.4535 4.39294Z" stroke="#FFE6BB" stroke-width="0.361946" stroke-miterlimit="10"/>
<path d="M33.9367 5.14222C33.4376 5.01745 33.0633 5.01745 32.5643 4.89268C32.4395 4.89268 32.4395 4.7679 32.3147 4.64313C32.1899 4.14404 32.1899 3.5202 32.0651 3.02112C32.5642 3.14589 33.0633 3.14589 33.5624 3.27066C33.6872 3.27066 33.6871 3.39542 33.6871 3.39542C33.8119 3.52019 34.0615 3.64497 34.1863 3.5202C34.4358 3.39543 34.5606 3.27066 34.4358 3.02112C34.311 2.64681 34.1863 2.39726 33.812 2.27249C33.1881 2.14772 32.5642 2.02295 31.8156 2.02295C31.3165 2.02295 30.8175 2.52204 30.9423 3.02112C31.067 3.64497 31.1918 4.39359 31.3165 5.01744C31.4413 5.39176 31.5661 5.64131 31.9404 5.76608C32.5643 5.89085 33.1881 6.01561 33.812 6.01561C34.311 6.01561 34.8101 5.6413 34.6854 5.01744C34.6854 4.7679 34.5605 4.51837 34.311 4.51837C34.0615 4.51837 33.9367 4.51836 33.812 4.76791C34.0615 5.01745 34.0615 5.14222 33.9367 5.14222Z" fill="#FFE6BB"/>
<path d="M33.9367 5.14222C33.4376 5.01745 33.0633 5.01745 32.5643 4.89268C32.4395 4.89268 32.4395 4.7679 32.3147 4.64313C32.1899 4.14404 32.1899 3.5202 32.0651 3.02112C32.5642 3.14589 33.0633 3.14589 33.5624 3.27066C33.6872 3.27066 33.6871 3.39542 33.6871 3.39542C33.8119 3.52019 34.0615 3.64497 34.1863 3.5202C34.4358 3.39543 34.5606 3.27066 34.4358 3.02112C34.311 2.64681 34.1863 2.39726 33.812 2.27249C33.1881 2.14772 32.5642 2.02295 31.8156 2.02295C31.3165 2.02295 30.8175 2.52204 30.9423 3.02112C31.067 3.64497 31.1918 4.39359 31.3165 5.01744C31.4413 5.39176 31.5661 5.64131 31.9404 5.76608C32.5643 5.89085 33.1881 6.01561 33.812 6.01561C34.311 6.01561 34.8101 5.6413 34.6854 5.01744C34.6854 4.7679 34.5605 4.51837 34.311 4.51837C34.0615 4.51837 33.9367 4.51836 33.812 4.76791C34.0615 5.01745 34.0615 5.14222 33.9367 5.14222Z" stroke="#FFE6BB" stroke-width="0.361946" stroke-miterlimit="10"/>
</svg>