<svg width="34" height="22" viewBox="0 0 34 22" fill="none" xmlns="http://www.w3.org/2000/svg">
<path d="M30.4321 0H3.23435C1.60248 0 0.333252 1.20313 0.333252 2.75001V19.2499C0.333252 20.7968 1.60248 22 3.23435 22H30.4321C32.064 22 33.3333 20.7968 33.3333 19.2499V2.75001C33.3333 1.20313 31.8827 0 30.4321 0ZM29.8882 1.89063C28.9816 2.75001 17.9212 13.2343 17.5585 13.7499C17.1959 14.0937 16.4706 14.0937 16.108 13.7499L3.77831 1.89063H29.8882ZM2.32775 18.9062V3.09372L10.6684 11L2.32775 18.9062ZM3.59699 20.1093L11.9376 12.2031L14.6574 14.7812C15.7453 15.8125 17.7398 15.8125 18.8278 14.7812L21.5475 12.2031L29.8882 20.1093H3.59699ZM31.3387 18.9062L22.9981 11L31.3387 3.09372V18.9062Z" fill="#814624"/>
</svg>
