<svg xmlns="http://www.w3.org/2000/svg" width="19" height="13" viewBox="0 0 19 13" fill="none">
  <path d="M16.9586 0.124023H1.95858C1.05858 0.124023 0.358582 0.82403 0.358582 1.72403V11.324C0.358582 12.224 1.05858 12.924 1.95858 12.924H16.9586C17.8586 12.924 18.5586 12.224 18.5586 11.324V1.72403C18.5586 0.82403 17.7586 0.124023 16.9586 0.124023ZM16.6586 1.22403C16.1586 1.72403 10.0586 7.82399 9.85858 8.12399C9.65858 8.32399 9.25859 8.32399 9.05859 8.12399L2.25858 1.22403H16.6586ZM1.45858 11.124V1.92401L6.05859 6.52402L1.45858 11.124ZM2.15858 11.824L6.75858 7.22403L8.25858 8.72403C8.85858 9.32403 9.95859 9.32403 10.5586 8.72403L12.0586 7.22403L16.6586 11.824H2.15858ZM17.4586 11.124L12.8586 6.52402L17.4586 1.92401V11.124Z" fill="#814624"/>
</svg>