<svg width="76" height="105" viewBox="0 0 76 105" fill="none" xmlns="http://www.w3.org/2000/svg">
<g clip-path="url(#clip0_1_2645)">
<path d="M62.2676 41.569C62.0976 41.569 61.9276 41.569 61.7576 41.569L32.0076 41.484C31.5826 41.484 31.0726 41.484 30.6476 41.484H24.8676C24.5276 41.569 24.1026 41.569 23.6776 41.484H15.7726C15.6026 41.484 15.4326 41.484 15.2626 41.484C14.7526 41.484 14.2426 41.654 14.1576 42.164C14.0726 42.759 14.6676 42.844 15.1776 42.844C15.6876 42.844 16.2826 42.844 16.7926 42.844C24.0176 42.844 31.2426 42.844 38.4676 42.844C45.7776 42.844 53.0876 42.844 60.3126 42.844C60.9076 42.844 61.5876 42.844 62.1826 42.759C62.5226 42.759 62.7776 42.589 62.7776 42.164C62.9476 41.909 62.6926 41.654 62.2676 41.569Z" fill="#A84AAF"/>
<path d="M14.6677 77.0141C15.1777 77.1841 15.6877 77.1841 16.2827 77.1841C18.4077 77.1841 20.4477 77.2691 22.5727 77.1841C22.9127 77.1841 23.1677 77.1841 23.5077 77.2691H26.3127C26.4827 77.1841 26.8227 77.2691 27.0777 77.2691C27.5027 77.2691 27.8427 77.2691 28.4377 77.2691C28.9477 77.1841 29.4577 77.1841 29.9677 77.3541H36.0027C37.0227 77.1841 38.0427 77.3541 39.0627 77.3541C39.9127 77.3541 40.7627 77.3541 41.6127 77.3541H41.6977H49.0077C49.3477 77.2691 49.7727 77.2691 50.1977 77.3541H52.9177C53.2577 77.2691 53.5977 77.2691 53.9377 77.2691C56.1477 77.3541 58.4427 77.3541 60.6527 77.2691C61.4177 77.2691 62.6927 77.6941 62.6927 76.5041C62.6927 75.4841 61.4177 75.9091 60.7377 75.9091C53.3427 75.8241 46.0327 75.8241 38.6377 75.8241C31.3277 75.8241 24.1027 75.8241 16.7927 75.8241C16.1127 75.8241 15.4327 75.8241 14.6677 75.9091C14.4127 75.9091 14.2427 76.0791 14.1577 76.3341C14.1577 76.6741 14.4127 77.0141 14.6677 77.0141Z" fill="#A84AAF"/>
<path d="M75.6127 57.4641C75.5277 55.0841 75.6127 52.7041 75.1027 50.3241C72.5527 38.2541 66.0076 29.3291 54.9576 23.7191C54.3626 23.3791 53.4276 22.4441 52.9176 23.2941C52.3226 24.3991 53.6826 24.4841 54.3626 24.8241C58.7826 27.1191 62.7776 30.0091 65.9227 34.0041C73.3177 43.1841 76.1227 53.5541 73.4877 65.1141C70.5977 77.6091 63.0326 86.1941 51.3876 90.8691C50.8776 91.8041 51.1326 92.1441 51.8976 92.1441C66.5176 86.3641 75.9527 72.1691 75.6127 57.4641Z" fill="#A84AAF"/>
<path d="M21.2977 89.0841C17.3027 86.9591 13.6477 84.0691 10.6727 80.4141C3.36266 71.4891 0.727658 61.2041 3.02266 49.8141C4.55266 42.3341 8.20766 35.9591 13.8177 30.7741C16.1977 28.5641 18.8327 26.6091 21.7227 25.1641C22.0627 24.9941 22.4027 24.7391 22.2327 24.2291C22.0627 23.8041 21.6377 23.8041 21.2127 23.9741C20.7877 24.1441 20.3627 24.3991 19.9377 24.6541C16.4527 26.4391 13.4777 28.9891 10.9277 31.8791C2.17266 41.3991 -0.887343 52.7041 1.91766 65.3691C4.38266 76.6741 10.9277 84.9191 20.8727 90.2741C21.8077 90.1891 21.7227 89.5941 21.2977 89.0841Z" fill="#A84AAF"/>
<path d="M41.2727 29.5841L41.6127 32.6441L41.7827 34.1741L41.8677 35.7041L42.0377 38.7641V41.8241C42.0377 41.9941 42.0377 42.0791 42.0377 42.2491H42.8027C42.8027 42.0791 42.8027 41.9091 42.8027 41.8241L42.7177 38.7641L42.5477 35.6191L42.3777 34.0891L42.1227 32.5591L41.6977 29.5841C41.3577 27.5441 40.8477 25.5891 40.4227 23.5491L38.7227 17.5991L38.6377 17.6841L40.1677 23.6341C40.5927 25.5891 41.0177 27.6291 41.2727 29.5841Z" fill="#A84AAF"/>
<path d="M41.3578 29.5841C41.5278 30.6041 41.6128 31.7091 41.8678 32.7291C42.1228 33.7491 42.2078 34.8541 42.3778 35.8741C42.5478 36.8941 42.6328 37.9991 42.7178 39.0191C42.7178 40.1241 42.7178 41.1441 42.7178 42.2491L42.2078 41.8241H42.9728L42.5478 42.2491C42.5478 41.5691 42.5478 40.8891 42.6328 40.2091C42.6328 39.5291 42.7178 38.8491 42.6328 38.1691C42.5478 36.8091 42.4628 35.4491 42.2928 34.0891L41.5278 29.9241L40.5078 25.8441L39.9978 23.8041C39.8278 23.1241 39.5728 22.4441 39.4028 21.7641C38.9778 20.4041 38.6378 19.0441 38.2128 17.6841L39.0628 18.0241L38.9778 18.1091L39.2328 17.5141C39.7428 19.4691 40.1678 21.5091 40.5078 23.4641L40.8478 26.5241C41.0178 27.6291 41.1878 28.5641 41.3578 29.5841ZM41.2728 29.5841C41.1028 28.5641 40.8478 27.5441 40.6778 26.6091L39.9128 23.6341C39.2328 21.6791 38.7228 19.7241 38.2128 17.7691C38.1278 17.5141 38.2128 17.2591 38.4678 17.1741L38.5528 17.0891C38.8078 16.9191 39.1478 17.0041 39.3178 17.2591C39.3178 17.3441 39.4028 17.3441 39.4028 17.4291C39.8278 18.7891 40.1678 20.1491 40.5078 21.5091C40.6778 22.1891 40.8478 22.8691 41.0178 23.5491L41.4428 25.6741C41.6978 27.0341 41.9528 28.4791 42.1228 29.8391C42.2928 31.2841 42.3778 32.6441 42.6328 34.0041C42.7178 35.3641 42.8878 36.7241 43.0578 38.0841C43.1428 38.7641 43.2278 39.4441 43.2278 40.1241C43.3128 40.8041 43.3128 41.4841 43.3978 42.1641C43.3978 42.4191 43.2278 42.5891 42.9728 42.5891H42.2078C41.9528 42.5891 41.7828 42.4191 41.7828 42.1641C41.7828 41.1441 41.6978 40.0391 41.7828 39.0191C41.7828 37.9991 41.6978 36.8941 41.6978 35.8741V34.2591C41.6978 33.7491 41.6128 33.2391 41.6128 32.6441C41.5278 31.7091 41.3578 30.6891 41.2728 29.5841Z" fill="#A84AAF"/>
<path d="M34.3027 39.1891C32.8577 36.6391 31.6677 33.9191 30.7327 31.0291C29.7977 28.2241 29.2027 25.3341 28.9477 22.4441C28.7777 19.4691 28.9477 16.4941 29.6277 13.6041C30.3077 10.7141 31.3277 7.90913 32.6027 5.18913L32.5177 5.10413C30.9877 7.73913 29.8827 10.4591 29.0327 13.4341C28.2677 16.4091 27.9277 19.3841 27.9277 22.4441C27.9277 23.9741 28.0977 25.5041 28.3527 27.0341C28.5227 27.7991 28.6077 28.5641 28.8627 29.2441C29.0327 30.0091 29.2877 30.6891 29.5427 31.4541C30.0527 32.8991 30.7327 34.2591 31.4977 35.6191C32.2627 36.9791 33.1127 38.1691 34.1327 39.2741L34.3027 39.1891Z" fill="#A84AAF"/>
<path d="M34.2177 39.1041C32.6027 36.7241 31.3277 33.9191 30.3077 31.1141C29.3727 28.3091 28.6077 25.3341 28.4377 22.3591C28.3527 19.3841 28.6927 16.3241 29.4577 13.4341C30.1377 10.5441 31.0727 7.73913 32.3477 5.01913L32.4327 5.44413L32.3477 5.35913L32.7727 5.27413C31.4127 7.90913 30.3077 10.7141 29.5427 13.6041C28.7777 16.4941 28.5227 19.4691 28.6077 22.4441C28.6927 25.4191 29.0327 28.3941 30.0527 31.1991C30.9877 34.0891 32.3477 36.8091 34.2177 39.1041C34.2177 39.1891 34.1327 39.1891 34.2177 39.1041ZM34.3027 39.1891L34.2177 39.2741H34.1327C33.0277 38.2541 32.0927 36.9791 31.2427 35.7041C30.3927 34.4291 29.7127 33.0691 29.1177 31.6241L28.3527 29.4141L27.8427 27.2041C27.5877 25.6741 27.4177 24.1441 27.3327 22.6141C27.2477 19.5541 27.6727 16.4091 28.4377 13.4341C29.2877 10.4591 30.5627 7.65413 32.1777 5.01913C32.2627 4.84913 32.4327 4.84913 32.5177 4.93413L32.6027 5.01913C32.7727 5.10413 32.7727 5.27413 32.6877 5.35913C31.3277 7.90913 30.2227 10.7141 29.6277 13.6041C29.0327 16.4941 28.9477 19.4691 29.2027 22.3591C29.5427 25.2491 30.0527 28.1391 30.9027 30.9441C31.9227 33.7491 33.0277 36.3841 34.3027 39.1891Z" fill="#A84AAF"/>
<path d="M24.5276 36.4691C25.0376 37.8291 25.7176 39.1891 26.4826 40.4641C26.8226 41.0591 27.2476 41.6541 27.6726 42.2491H28.1826C27.7576 41.5691 27.3326 40.8891 26.9926 40.1241C26.3126 38.8491 25.5476 37.5741 25.0376 36.2141C24.4426 34.8541 23.9326 33.4941 23.5076 32.0491C23.0826 30.6891 22.7426 29.2441 22.4876 27.7991H22.4026C22.5726 29.2441 22.8276 30.6891 23.1676 32.1341C23.5926 33.6641 24.0176 35.1091 24.5276 36.4691Z" fill="#A84AAF"/>
<path d="M24.6126 36.4691C24.7826 36.9791 25.0376 37.4891 25.2926 37.9991C25.5476 38.5091 25.8876 38.9341 26.1426 39.3591C26.7376 40.2941 27.5026 41.0591 28.0976 41.9941L27.6726 41.8241H28.1826L27.7576 42.5891C27.0776 41.3991 26.6526 40.2091 26.0576 39.0191L24.3576 35.5341C23.7626 34.3441 23.2526 33.1541 22.8276 31.8791C22.4026 30.6041 22.0626 29.3291 21.8076 28.0541L22.7426 28.4791H22.6576L22.9126 27.8841C23.0826 29.3291 23.3376 30.7741 23.5076 32.2191C23.8476 33.5791 24.1026 35.0241 24.6126 36.4691ZM24.5276 36.4691C24.0176 35.1091 23.3376 33.7491 22.8276 32.3041C22.3176 30.8591 22.0626 29.4141 21.8926 27.8841C21.8926 27.6291 21.9776 27.4591 22.1476 27.2891H22.2326C22.4876 27.1191 22.9126 27.2041 23.0826 27.4591C23.1676 27.5441 23.1676 27.6291 23.1676 27.7141C23.3376 28.9891 23.5926 30.2641 23.9326 31.4541C24.2726 32.7291 24.5276 33.9191 24.9526 35.1941C25.3776 36.4691 25.8876 37.5741 26.6526 38.6791C26.9926 39.1891 27.3326 39.7841 27.7576 40.2941C28.0976 40.8041 28.5226 41.3141 28.7776 41.9091C28.9476 42.1641 28.8626 42.4191 28.6076 42.5891C28.5226 42.6741 28.4376 42.6741 28.3526 42.6741H27.8426C27.6726 42.6741 27.5876 42.5891 27.5026 42.5041C27.1626 42.0791 26.9076 41.5691 26.5676 41.0591C26.2276 40.5491 26.0576 40.0391 25.8026 39.5291C25.5476 39.0191 25.3776 38.5091 25.2076 37.9991L24.5276 36.4691Z" fill="#A84AAF"/>
<path d="M35.4077 27.4591C35.0677 25.0791 34.8128 22.7841 34.6428 20.4041C34.4728 18.1091 34.3877 15.7291 34.5577 13.3491C34.7277 10.9691 35.2378 8.67408 36.0878 6.46408C36.9378 4.25408 38.2128 2.21408 39.7428 0.514077L39.6578 0.429077C38.8078 1.27908 38.0428 2.21408 37.2778 3.14908C36.5978 4.16908 36.0028 5.18908 35.4928 6.29408C34.5578 8.50408 33.8778 10.8841 33.5378 13.2641C33.1978 15.6441 33.1128 18.1091 33.3678 20.4891C33.6228 22.8691 34.2177 25.2491 35.1527 27.4591H35.4077Z" fill="#A84AAF"/>
<path d="M35.4076 27.4591C34.9826 24.9941 34.5576 22.7841 34.3026 20.4891C34.0476 18.1091 33.9626 15.7291 34.2176 13.3491C34.4726 10.9691 35.1526 8.67408 36.0876 6.46408C36.9376 4.25408 38.2126 2.21408 39.7426 0.34408V0.68408L39.6576 0.59908L39.9976 0.68408C38.3826 2.38408 37.1076 4.42408 36.1726 6.54908C35.2376 8.75908 34.7276 11.0541 34.3876 13.3491C33.6226 18.0241 33.8776 22.8691 35.4076 27.4591C35.3226 27.4591 35.3226 27.4591 35.4076 27.4591ZM35.4926 27.4591L35.4076 27.5441H35.3226C34.2176 25.3341 33.5376 23.0391 33.1976 20.5741C32.8576 18.1091 32.8576 15.6441 33.1976 13.2641C33.5376 10.7991 34.2176 8.41908 35.2376 6.20908C35.7476 5.10408 36.4276 3.99908 37.1076 3.06408C37.8726 2.04408 38.7226 1.19408 39.5726 0.34408C39.6576 0.17408 39.9126 0.17408 39.9976 0.25908C39.9976 0.25908 39.9976 0.25908 39.9976 0.34408L40.0826 0.42908C40.1676 0.51408 40.1676 0.68408 40.0826 0.76908C38.4676 2.38408 37.1926 4.42408 36.3426 6.63408C35.5776 8.84408 35.1526 11.1391 35.0676 13.4341C34.9826 15.7291 34.9826 18.1091 35.0676 20.4041C35.2376 22.8691 35.4076 25.2491 35.4926 27.4591Z" fill="#A84AAF"/>
<path d="M42.5477 22.784C42.8027 21.339 42.8877 19.894 42.7177 18.449C42.6327 17.004 42.3777 15.559 42.0377 14.199C41.6977 12.839 41.2727 11.394 40.6777 10.119C40.0827 8.75903 39.4027 7.56903 38.5527 6.37903C40.2527 10.799 41.4427 13.689 42.5477 22.784Z" fill="#A84AAF"/>
<path d="M42.5478 22.784C42.4628 21.424 42.5478 19.979 42.2928 18.619C42.1228 17.174 41.8678 15.814 41.6128 14.454C41.3578 13.094 41.1028 11.649 40.5078 10.374C39.9978 9.01404 39.1478 7.82404 38.2978 6.80404L38.8078 6.46404C39.9978 9.01404 41.1028 11.649 41.6978 14.454C42.0378 15.814 42.2078 17.259 42.3778 18.704C42.4628 19.384 42.4628 20.149 42.5478 20.829C42.5478 21.169 42.5478 21.509 42.5478 21.849C42.5478 21.934 42.5478 22.359 42.5478 22.784ZM42.5478 22.869C42.4628 22.529 42.3778 22.274 42.2928 21.849C42.2078 21.424 42.1228 21.084 42.0378 20.744L41.5278 18.704C41.2728 17.344 40.9328 15.984 40.5928 14.624C40.2528 13.264 39.9128 11.904 39.4878 10.629L38.2128 6.63404C38.1278 6.46404 38.2128 6.29404 38.3828 6.20904C38.5528 6.12404 38.6378 6.20904 38.7228 6.29404C39.4878 7.48404 40.1678 8.84404 40.7628 10.119C41.3578 11.394 42.0378 12.754 42.4628 14.199C42.8878 15.559 43.0578 17.089 43.1428 18.534C43.2278 19.979 43.1428 21.424 42.5478 22.869Z" fill="#A84AAF"/>
<path d="M52.4928 42.2491C52.5778 41.8241 52.6628 41.3991 52.7478 40.9741C52.9178 40.2091 52.9178 39.4441 53.0028 38.6791H52.9178C52.8328 39.4441 52.6628 40.2091 52.5778 40.8891C52.4928 41.3141 52.4078 41.7391 52.2378 42.2491H52.4928Z" fill="#A84AAF"/>
<path d="M52.4077 42.249C52.3227 41.824 52.2377 41.484 52.2377 41.229C52.2377 40.974 52.2377 40.719 52.3227 40.464C52.4077 40.209 52.5777 39.954 52.6627 39.614C52.7477 39.359 52.7477 39.019 52.6627 38.679L52.9177 38.934H52.8327L53.0877 38.679C53.0877 39.019 53.1727 39.274 53.1727 39.614C53.1727 39.954 53.1727 40.209 53.0877 40.549C53.0027 41.144 52.6627 41.739 52.3227 42.249L52.1527 41.994C52.2377 42.164 52.3227 42.164 52.4077 42.249ZM52.4927 42.334C52.4077 42.419 52.3227 42.419 52.2377 42.504C52.1527 42.504 52.1527 42.504 52.0677 42.419V42.249C51.9827 41.909 51.9827 41.654 51.9827 41.314C51.9827 41.059 51.9827 40.719 52.0677 40.464C52.1527 40.209 52.2377 39.869 52.3227 39.614C52.4077 39.359 52.5777 39.019 52.6627 38.764L52.7477 38.594C52.7477 38.509 52.9177 38.509 53.0027 38.509H53.0877L53.2577 38.594C53.3427 38.594 53.4277 38.764 53.3427 38.849C53.2577 39.104 53.1727 39.444 53.1727 39.699C53.2577 40.039 53.3427 40.294 53.3427 40.634C53.3427 40.974 53.2577 41.314 53.0877 41.654C52.8327 41.909 52.6627 42.164 52.4927 42.334Z" fill="#A84AAF"/>
<path d="M50.3678 42.249C50.4528 41.994 50.5378 41.654 50.7078 41.399C50.7928 41.059 50.8778 40.719 50.9628 40.464L51.2178 39.444L51.3878 38.424C51.5578 37.744 51.5578 37.064 51.6428 36.469C51.7278 35.789 51.6428 35.109 51.7278 34.514H51.6428C51.5578 35.194 51.4728 35.789 51.3878 36.469C51.3028 37.149 51.2178 37.744 50.9628 38.424L50.7078 39.359L50.3678 40.294C50.2828 40.634 50.1978 40.889 50.0278 41.229C49.8578 41.484 49.7728 41.824 49.6878 42.164C49.6878 42.249 49.6028 42.249 49.6028 42.334L50.3678 42.249Z" fill="#A84AAF"/>
<path d="M50.2827 42.2491L50.3677 41.2291C50.3677 40.8891 50.4527 40.5491 50.5377 40.2941C50.6227 39.9541 50.6227 39.6141 50.7077 39.3591C50.7927 39.0191 50.7927 38.6791 50.8777 38.4241C50.9627 37.8291 51.2177 37.1491 51.3877 36.5541C51.4727 35.8741 51.4727 35.2791 51.3877 34.5991L51.6427 34.8541H51.5577L51.8127 34.5991C51.8127 35.2791 51.8127 35.9591 51.8127 36.6391C51.7277 37.3191 51.6427 37.9991 51.4727 38.6791C51.3027 39.3591 51.0477 39.9541 50.7927 40.6341C50.5377 41.3141 50.1977 41.9091 49.7727 42.4191L49.6027 42.0791L50.2827 42.2491ZM50.3677 42.3341C50.1127 42.4191 49.8577 42.5041 49.5177 42.5041C49.4327 42.5041 49.2627 42.4191 49.2627 42.3341V42.2491V42.1641C49.4327 41.4841 49.6027 40.8891 49.7727 40.2091L50.2827 38.2541L50.7927 36.3841C50.8777 35.7041 51.1327 35.1091 51.3027 34.4291V34.3441C51.3027 34.2591 51.4727 34.1741 51.5577 34.1741H51.6427H51.7277C51.8127 34.1741 51.8977 34.2591 51.8977 34.4291C51.8127 35.1091 51.7277 35.7891 51.8127 36.4691C51.8127 37.1491 51.8977 37.8291 51.8127 38.5091C51.7277 39.1891 51.5577 39.7841 51.3027 40.4641C51.1327 40.8041 51.0477 41.1441 50.8777 41.3991C50.7927 41.7391 50.5377 42.0791 50.3677 42.3341Z" fill="#A84AAF"/>
<path d="M46.7126 42.2491C47.2226 41.6541 47.7326 41.0591 48.0726 40.3791C48.9226 38.9341 49.6026 37.3191 50.0276 35.7041C50.1976 34.8541 50.3676 34.0891 50.4526 33.2391C50.5376 32.8141 50.6226 32.3891 50.6226 31.9641L50.7076 30.6891C50.7076 30.2641 50.7076 29.8391 50.7076 29.4141L50.6226 28.1391C50.5376 27.2891 50.4526 26.5241 50.3676 25.6741H50.2826C50.3676 26.5241 50.3676 27.2891 50.4526 28.1391V29.4141C50.4526 29.8391 50.4526 30.2641 50.3676 30.6891L50.2826 31.8791C50.2826 32.3041 50.1126 32.7291 50.1126 33.0691C49.9426 33.9191 49.7726 34.6841 49.5176 35.4491C49.0076 36.9791 48.3276 38.5091 47.5626 39.9541C47.1376 40.7191 46.7126 41.3991 46.2026 42.0791L46.7126 42.2491Z" fill="#A84AAF"/>
<path d="M46.7127 42.2491C47.4777 41.0591 48.1577 39.7841 48.6677 38.4241C49.1777 37.0641 49.6027 35.7891 49.8577 34.3441C50.1977 32.9841 50.5377 31.5391 50.5377 30.0941C50.5377 29.4141 50.5377 28.6491 50.4527 27.9691C50.3677 27.2891 50.1977 26.5241 50.1127 25.8441L50.5377 26.0141H50.4527L50.6227 25.7591L50.8777 27.9691C50.9627 28.7341 50.9627 29.4141 50.9627 30.1791C50.9627 30.9441 50.8777 31.6241 50.7927 32.3891C50.7077 33.1541 50.5377 33.8341 50.3677 34.5991C50.1127 36.0441 49.4327 37.4891 48.7527 38.7641C48.0727 40.1241 47.1377 41.2291 46.2027 42.3341L46.1177 42.1641L46.7127 42.2491ZM46.7977 42.3341L46.2027 42.4191C46.1177 42.4191 46.1177 42.4191 46.1177 42.3341V42.2491C46.4577 41.5691 46.7977 40.9741 47.1377 40.3791C47.4777 39.7841 47.7327 39.1041 48.0727 38.4241C48.3277 37.7441 48.5827 37.0641 48.8377 36.4691C49.0927 35.7891 49.1777 35.1091 49.3477 34.4291C49.5177 33.7491 49.6877 33.0691 49.7727 32.3891C49.8577 31.7091 49.9427 30.9441 50.0277 30.2641C50.1977 28.9041 50.1127 27.3741 50.1127 25.9291C50.1127 25.8441 50.1977 25.7591 50.2827 25.6741H50.3677C50.5377 25.5891 50.7077 25.6741 50.7077 25.7591V25.8441C50.7927 27.2891 50.8777 28.7341 50.9627 30.1791C51.0477 31.6241 51.0477 33.0691 50.7927 34.5991C50.6227 36.0441 50.1977 37.4891 49.5177 38.8491C48.7527 40.1241 47.9027 41.3141 46.7977 42.3341Z" fill="#A84AAF"/>
<path d="M46.5428 31.1991C47.0528 29.8391 47.3928 28.3091 47.5628 26.7791C47.6478 25.2491 47.5628 23.8041 47.3928 22.2741C47.2228 20.8291 46.9678 19.2991 46.6278 17.8541C46.4578 17.0891 46.2878 16.4091 46.0328 15.7291C45.8628 15.0491 45.6078 14.2841 45.3528 13.6041L45.2678 13.6891C45.4378 14.3691 45.6078 15.1341 45.7778 15.8141C45.9478 16.5791 46.0328 17.2591 46.1178 17.9391C46.3728 19.3841 46.5428 20.8291 46.6278 22.2741C46.7128 23.7191 46.6278 25.1641 46.6278 26.6941C46.7128 28.2241 46.6278 29.6691 46.5428 31.1991Z" fill="#A84AAF"/>
<path d="M46.5427 31.1991C46.7977 29.8391 47.0527 28.3091 47.1377 26.8641C47.1377 25.4191 47.0527 23.9741 46.9677 22.4441C46.7977 20.9991 46.7127 19.4691 46.5427 18.0241C46.3727 17.2591 46.2027 16.5791 45.9477 15.8991C45.6927 15.2191 45.4377 14.5391 45.1827 13.7741L45.6077 13.9441L45.5227 14.0291L45.6927 13.6891C45.8627 14.3691 46.1177 15.1341 46.2877 15.8141C46.4577 16.4941 46.6277 17.2591 46.7127 18.0241C46.8827 19.4691 47.1377 20.9991 47.2227 22.4441C47.2227 23.8891 47.1377 25.4191 47.0527 26.8641C46.9677 28.2241 46.7977 29.7541 46.5427 31.1991C46.5427 31.1141 46.5427 31.1141 46.5427 31.1991ZM46.6277 31.2841H46.5427C46.4577 29.8391 46.3727 28.3091 46.2877 26.8641C46.2027 25.4191 46.1177 23.9741 46.1177 22.5291C45.9477 21.0841 45.8627 19.6391 45.6927 18.1941C45.6077 17.5141 45.5227 16.7491 45.4377 16.0691C45.2677 15.3891 45.1827 14.6241 45.0977 13.9441C45.0977 13.8591 45.1827 13.6891 45.2677 13.6891L45.3527 13.6041C45.5227 13.5191 45.6927 13.6041 45.7777 13.6891V13.7741C45.9477 14.5391 46.1177 15.2191 46.2877 15.9841C46.4577 16.7491 46.6277 17.4291 46.7977 18.1941C47.0527 19.6391 47.4777 21.0841 47.8177 22.6141C48.0727 24.1441 48.0727 25.6741 47.9877 27.2041C47.8177 28.3941 47.3927 29.8391 46.6277 31.2841Z" fill="#A84AAF"/>
<path d="M41.3576 77.864V76.759H40.6776V77.864L40.5076 80.924C40.2526 85.004 39.5726 88.999 38.5526 92.909C38.0426 94.864 37.4476 96.819 36.6826 98.689C36.0026 100.559 35.0676 102.429 33.9626 104.129L34.0476 104.214C35.3226 102.599 36.4276 100.814 37.2776 98.944C38.1276 97.074 38.8926 95.119 39.4876 93.164C40.5926 89.169 41.1876 85.089 41.2726 80.924L41.3576 77.864Z" fill="#A84AAF"/>
<path d="M41.3579 77.8641L41.2729 76.7591L41.3579 76.8441H40.6779L40.7629 76.7591C40.8479 79.1391 40.8479 81.5191 40.6779 83.9841C40.5079 86.3641 40.0829 88.7441 39.4879 91.0391C38.8929 93.3341 38.1279 95.6291 37.2779 97.8391C36.5129 100.049 35.4929 102.344 34.3029 104.384L34.2179 103.874L34.3029 103.959L33.7929 104.044C35.1529 102.174 36.2579 100.219 37.1079 98.0941C37.9579 95.9691 38.7229 93.7591 39.2329 91.5491C39.7429 89.3391 40.2529 87.0441 40.5929 84.7491C41.1029 82.5391 41.2729 80.1591 41.3579 77.8641ZM41.4429 77.8641C41.3579 80.1591 41.5279 82.5391 41.3579 84.8341C41.2729 87.2141 40.9329 89.5091 40.4229 91.8041C39.9129 94.0991 39.0629 96.3091 38.1279 98.5191C37.1929 100.644 35.9179 102.769 34.3879 104.469C34.3029 104.639 34.0479 104.639 33.8779 104.469L33.7929 104.384C33.6229 104.299 33.6229 104.044 33.7079 103.959C34.3879 103.024 34.9829 102.004 35.5779 100.899C36.0879 99.8791 36.5979 98.7741 37.0229 97.6691C37.8729 95.4591 38.3829 93.0791 38.8079 90.7841C39.2329 88.4041 39.5729 86.1091 39.9129 83.8141C40.0829 82.6241 40.2529 81.4341 40.4229 80.3291C40.5079 79.1391 40.7629 77.9491 40.6779 76.7591C40.6779 76.7591 40.6779 76.6741 40.7629 76.6741L41.4429 76.7591C41.4429 76.7591 41.5279 76.7591 41.5279 76.8441L41.4429 77.8641Z" fill="#A84AAF"/>
<path d="M35.2377 93.2491C33.5377 92.8241 31.9227 92.1441 30.3927 91.2091C28.8627 90.3591 27.4177 89.3391 26.1427 88.1491C25.8027 87.8091 25.4627 87.5541 25.2077 87.2141L24.3577 86.1941L23.9327 85.6841L23.5077 85.1741L22.6577 84.0691C22.1477 83.3041 21.6377 82.6241 21.1277 81.8591L19.7677 79.4791L19.5977 79.6491L20.7027 82.1141C21.1277 82.8791 21.5527 83.7291 21.9777 84.4941L22.7427 85.5991L23.1677 86.1941L23.5927 86.7041L24.4427 87.7241C24.7827 88.0641 25.0377 88.4041 25.3777 88.7441C26.6527 90.1041 28.0977 91.2941 29.7977 92.1441C30.6477 92.5691 31.4977 92.9091 32.4327 93.0791C33.3677 93.3341 34.3027 93.3341 35.2377 93.2491Z" fill="#A84AAF"/>
<path d="M35.1527 93.3341C34.0477 93.2491 32.8577 92.9091 31.7527 92.3991C30.6477 91.9741 29.6277 91.3791 28.6077 90.7841C27.5877 90.1891 26.6527 89.4241 25.8027 88.6591C24.9527 87.8091 24.1877 86.8741 23.5077 86.0241C23.1677 85.5141 22.8277 85.0041 22.4877 84.4941L21.4677 82.9641C21.1277 82.4541 20.7877 81.9441 20.4477 81.4341C20.1077 80.9241 19.7677 80.4141 19.4277 79.8191L19.7677 79.9041L19.6827 79.9891L19.7677 79.6491L21.0427 82.0291L22.3177 84.0691C22.7427 84.7491 23.2527 85.4291 23.6777 86.0241C24.6127 87.2141 25.7177 88.4891 26.8227 89.5941C27.9277 90.6141 29.2027 91.6341 30.6477 92.3141C32.0077 92.9091 33.6227 93.4191 35.1527 93.3341V93.4191C35.1527 93.3341 35.1527 93.3341 35.1527 93.3341ZM35.2377 93.2491C35.2377 93.3341 35.2377 93.3341 35.2377 93.4191C35.2377 93.4191 35.2377 93.5041 35.1527 93.5041C33.5377 93.9291 31.8377 93.5891 30.2227 93.0791C28.6077 92.4841 27.2477 91.5491 25.9727 90.4441C24.6977 89.2541 23.6777 88.0641 22.6577 86.7041C22.2327 86.0241 21.7227 85.3441 21.3827 84.5791L20.2777 82.3691L19.2577 79.8191C19.1727 79.6491 19.2577 79.5641 19.4277 79.4791L19.5127 79.3941C19.6827 79.3091 19.7677 79.3941 19.8527 79.4791C20.1077 79.9891 20.3627 80.5841 20.7027 81.0941C20.9577 81.6041 21.2977 82.1991 21.6377 82.7091C21.9777 83.2191 22.3177 83.7291 22.7427 84.2391C23.1677 84.7491 23.5077 85.1741 23.9327 85.6841L25.1227 86.8741C25.5477 87.2991 25.9727 87.6391 26.3977 87.9791C27.2477 88.6591 28.1827 89.4241 29.1177 90.0191C30.0527 90.6141 30.9877 91.2941 32.0077 91.8041C33.1127 92.3141 34.1327 92.8241 35.2377 93.2491Z" fill="#A84AAF"/>
<path d="M42.3777 93.5041C43.8227 92.9091 45.0977 91.9741 46.1177 90.8691C47.1377 89.7641 48.0727 88.4891 48.7527 87.1291C49.0927 86.4491 49.4327 85.7691 49.6877 85.0891C49.9427 84.4091 50.1977 83.6441 50.4527 82.9641C50.7077 82.2841 50.7927 81.5191 51.0477 80.7541C51.2177 79.9891 51.3027 79.2241 51.3877 78.5441H51.3027C51.1327 79.3091 50.9627 79.9891 50.7927 80.7541C50.6227 81.5191 50.3677 82.1991 50.1127 82.8791C49.8577 83.5591 49.6027 84.3241 49.2627 84.9191C48.9227 85.5991 48.5827 86.2791 48.2427 86.8741C47.4777 88.1491 46.5427 89.3391 45.6077 90.4441C44.6727 91.5491 43.5677 92.5691 42.3777 93.5041Z" fill="#A84AAF"/>
<path d="M42.3777 93.4191C43.5677 92.6541 44.8427 91.6341 45.7777 90.5291C46.7127 89.4241 47.5627 88.1491 48.3277 86.8741L49.4327 84.9191C49.7727 84.2391 50.0277 83.5591 50.2827 82.7941C50.4527 82.0291 50.7077 81.3491 50.8777 80.5841C51.0477 79.9041 51.0477 79.1391 51.1327 78.2891L51.3877 78.6291H51.3027L51.6427 78.3741C51.5577 79.1391 51.3877 79.9041 51.3027 80.5841C51.1327 81.3491 50.8777 82.0291 50.7077 82.7941L49.9427 84.9191C49.6027 85.5991 49.2627 86.2791 48.9227 86.9591C48.0727 88.2341 47.1377 89.4241 46.0327 90.5291C44.9277 91.8041 43.7377 92.7391 42.3777 93.4191ZM42.3777 93.5891C42.2927 93.5041 42.3777 93.5041 42.3777 93.5891C42.2927 93.5041 42.2927 93.4191 42.2927 93.4191C43.3977 92.3991 44.4177 91.3791 45.3527 90.1891C46.2877 89.0841 47.1377 87.8091 47.8177 86.6191L48.8377 84.6641L49.6877 82.6241C49.9427 81.9441 50.1977 81.2641 50.4527 80.5841C50.6227 79.9041 50.8777 79.1391 51.0477 78.4591C51.1327 78.2891 51.2177 78.2041 51.3877 78.2891H51.4727C51.6427 78.2891 51.7277 78.4591 51.7277 78.6291C51.5577 79.3941 51.4727 80.1591 51.2177 80.9241C50.9627 81.6891 50.7927 82.3691 50.6227 83.1341C50.3677 83.8991 50.1977 84.5791 49.9427 85.3441L49.0927 87.5541C48.4127 88.9991 47.4777 90.2741 46.3727 91.3791C45.2677 92.3141 43.9077 93.0791 42.3777 93.5891Z" fill="#A84AAF"/>
<path d="M49.6877 77.269C49.6027 77.524 49.5177 77.779 49.4327 77.949L49.0927 78.884L48.7527 79.819C48.6677 80.159 48.4977 80.414 48.4127 80.754C48.2427 81.009 48.1577 81.349 47.9877 81.604C47.3077 82.709 46.6277 83.814 45.8627 84.834C45.0977 85.939 44.2477 86.959 43.3977 87.894L43.4827 87.979C44.6727 87.384 45.7777 86.449 46.6277 85.429C47.4777 84.409 48.1577 83.219 48.6677 81.944C48.8377 81.604 48.9227 81.349 49.0927 81.009C49.2627 80.669 49.3477 80.414 49.4327 80.074L49.7727 79.139L50.0277 78.204C50.1127 77.949 50.1127 77.694 50.1977 77.439L49.6877 77.269Z" fill="#A84AAF"/>
<path d="M49.6876 77.2691L49.6026 78.0341C49.5176 78.2891 49.5176 78.5441 49.4326 78.7991C49.3476 79.3091 49.1776 79.8191 49.0076 80.3291C48.8376 80.8391 48.5826 81.3491 48.4126 81.8591C48.1576 82.2841 47.8176 82.7941 47.5626 83.2191C46.8826 84.0691 46.2876 84.9191 45.5226 85.6841C44.8426 86.4491 44.1626 87.2991 43.5676 88.1491L43.4826 87.7241H43.5676H43.3126C44.1626 87.1291 44.9276 86.4491 45.6076 85.6841C46.2876 84.9191 46.7976 83.9841 47.3076 83.1341C47.5626 82.7091 47.8176 82.1991 47.9876 81.6891C48.2426 81.1791 48.4976 80.6691 48.6676 80.2441C49.0926 79.3091 49.5176 78.2891 49.8576 77.2691L49.9426 77.4391L49.6876 77.2691ZM49.6026 77.1841C49.6876 77.1841 49.8576 77.0991 50.0276 77.0991C50.1126 77.0991 50.1126 77.0991 50.1126 77.1841C50.1126 78.2891 49.8576 79.3941 49.6026 80.4141C49.2626 81.5191 48.9226 82.4541 48.4126 83.5591C47.9026 84.5791 47.1376 85.4291 46.3726 86.2791C45.6076 87.1291 44.5876 87.7241 43.5676 88.1491C43.4826 88.1491 43.3976 88.1491 43.3126 88.1491L43.2276 88.0641C43.1426 87.9791 43.0576 87.8091 43.1426 87.7241C43.8226 86.9591 44.5026 86.1941 45.0976 85.3441C45.6926 84.4941 46.1176 83.5591 46.6276 82.6241C46.8826 82.1991 47.1376 81.7741 47.4776 81.3491C47.7326 80.9241 47.9876 80.4991 48.1576 79.9891L48.8376 78.6291C48.9226 78.3741 49.0926 78.1191 49.1776 77.9491C49.3476 77.6941 49.5176 77.4391 49.6026 77.1841Z" fill="#A84AAF"/>
<path d="M31.4977 76.1641C31.4977 76.4191 31.5827 76.6741 31.6677 76.9291L31.8377 77.8641L32.0927 78.7991C32.1777 79.1391 32.2627 79.4791 32.3477 79.7341C32.4327 80.0741 32.5177 80.3291 32.6877 80.6691C33.1977 81.8591 33.7927 83.0491 34.3877 84.1541C34.9827 85.3441 35.7477 86.4491 36.5127 87.4691H36.4277C35.3227 86.7041 34.3877 85.6841 33.6227 84.5791C32.8577 83.4741 32.3477 82.1991 32.0077 80.9241C31.9227 80.5841 31.8377 80.2441 31.7527 79.9891C31.6677 79.6491 31.5827 79.3091 31.4977 78.9691L31.3277 77.9491L31.2427 76.9291C31.2427 76.6741 31.1577 76.4191 31.1577 76.0791L31.4977 76.1641Z" fill="#A84AAF"/>
<path d="M31.5826 76.1641C31.6676 76.4191 31.7526 76.6741 31.8376 76.9291C31.9226 77.1841 32.0076 77.4391 32.0926 77.6941L32.6026 79.1391C32.7726 79.6491 32.9426 80.0741 33.1126 80.5841C33.3676 81.0091 33.6226 81.5191 33.7926 81.9441C34.2176 82.8791 34.4726 83.8991 34.9826 84.8341C35.4926 85.7691 36.0876 86.6191 36.6826 87.4691C36.7676 87.5541 36.7676 87.7241 36.5976 87.8091H36.5126C36.4276 87.8091 36.3426 87.8091 36.2576 87.8091C35.3226 87.2141 34.3876 86.5341 33.7076 85.6841C33.0276 84.7491 32.4326 83.8141 32.0076 82.7941C31.5826 81.6891 31.3276 80.6691 31.1576 79.5641C30.9876 78.4591 30.9026 77.3541 31.0726 76.2491C31.0726 76.1641 31.1576 76.1641 31.1576 76.1641C31.2426 76.0791 31.4126 76.0791 31.5826 76.1641ZM31.4976 76.2491L31.1576 76.3341L31.2426 76.2491C31.4126 77.2691 31.7526 78.3741 32.0076 79.3941C32.1776 79.9041 32.3476 80.4141 32.5176 80.9241C32.6876 81.4341 32.8576 81.9441 33.0276 82.3691C33.4526 83.3041 33.8776 84.3241 34.4726 85.0891C35.0676 85.9391 35.7476 86.7041 36.5126 87.3841H36.2576H36.3426L36.2576 87.8091C35.7476 86.8741 35.2376 85.9391 34.6426 85.0891C33.9626 84.2391 33.4526 83.3041 32.9426 82.4541C32.6876 82.0291 32.4326 81.5191 32.2626 81.0091C32.0926 80.4991 31.9226 79.9891 31.8376 79.4791C31.7526 78.9691 31.5826 78.4591 31.5826 77.9491C31.5826 77.6941 31.5826 77.4391 31.4976 77.1841V76.2491Z" fill="#A84AAF"/>
<path d="M47.3927 77.0991C46.9677 77.9491 46.5427 78.7141 46.0327 79.4791C45.1827 80.8391 44.0777 82.1141 42.8877 83.2191V83.3041C44.3327 82.3691 45.5227 81.2641 46.5427 79.8191C47.1377 78.9691 47.6477 78.0341 47.9877 77.0991H47.3927Z" fill="#A84AAF"/>
<path d="M47.3928 77.184C47.2228 77.949 46.9678 78.544 46.7128 79.054C46.5428 79.309 46.4578 79.564 46.2878 79.904C46.1178 80.159 45.9478 80.499 45.7778 80.754C45.3528 81.264 44.8428 81.689 44.3328 82.114C43.8228 82.539 43.3978 83.049 42.9728 83.474L43.0578 83.219V83.304L42.7178 83.219C43.2278 82.794 43.6528 82.284 44.1628 81.859C44.5878 81.434 45.0128 80.924 45.4378 80.414C45.8628 79.904 46.2028 79.394 46.6278 78.884L47.8178 77.269L47.9878 77.524L47.3928 77.184ZM47.3928 77.099C47.5628 77.014 47.8178 77.014 48.0728 77.014C48.1578 77.014 48.2428 77.099 48.2428 77.184C48.2428 77.184 48.2428 77.184 48.2428 77.269V77.354C48.0728 78.034 47.8178 78.714 47.5628 79.309C47.2228 79.904 46.8828 80.584 46.4578 81.094C46.0328 81.604 45.4378 82.114 44.9278 82.539C44.3328 82.964 43.7378 83.304 43.1428 83.559H43.0578C42.9728 83.644 42.8028 83.559 42.8028 83.474V83.389V83.304C42.8028 83.219 42.8028 83.134 42.8878 83.049C43.3978 82.709 43.8228 82.199 44.2478 81.689C44.5878 81.179 44.8428 80.584 45.1828 80.074L46.2878 78.459C46.5428 77.949 46.9678 77.439 47.3928 77.099Z" fill="#A84AAF"/>
<path d="M17.4728 56.0191H20.9578V57.5491H15.6028V47.4341H17.4728V56.0191Z" fill="#A84AAF"/>
<path d="M22.053 47.4684L22.0396 57.5834L23.9946 57.586L24.008 47.471L22.053 47.4684Z" fill="#A84AAF"/>
<path d="M31.7528 52.1941V57.6341H30.2228V56.5291C29.7978 57.3791 29.2878 57.8891 28.0978 57.8891C26.5678 57.8891 25.2078 56.7841 25.2078 54.2341V50.9191C25.2078 48.5391 26.3128 47.3491 28.5228 47.3491C30.9028 47.3491 31.6678 48.8791 31.6678 50.4941V50.7491H29.7128C29.7128 49.3891 29.2878 48.7941 28.4378 48.7941C27.4178 48.7941 27.0778 49.3891 27.0778 50.6641V53.8941C27.0778 55.5091 27.4178 56.1891 28.4378 56.1891C29.2878 56.1891 29.7128 55.5941 29.7128 54.2341V53.5541H28.4378V52.0241L31.7528 52.1941Z" fill="#A84AAF"/>
<path d="M34.9828 51.344H37.5328V47.519H39.4878L39.4028 57.549H37.5328V52.959L34.9828 52.874V57.549H33.1128V47.519H34.9828V51.344Z" fill="#A84AAF"/>
<path d="M44.6726 57.634H42.8026V49.049H40.4226V47.519H47.0526V49.049H44.6726V57.634Z" fill="#A84AAF"/>
<path d="M20.0228 64.0091V63.9241C20.0228 62.5641 19.5128 62.0541 18.7478 62.0541C18.1528 62.0541 17.6428 62.3941 17.6428 62.9891C17.6428 63.6691 17.8978 63.9241 18.3228 64.2641L20.4478 65.6241C21.5528 66.3891 22.3178 67.0691 22.3178 68.6841C22.3178 70.5541 21.1278 71.7441 19.0028 71.7441C16.7078 71.7441 15.5178 70.3841 15.5178 68.1741V67.7491H17.4728V68.1741C17.4728 69.7041 18.1528 70.0441 19.0028 70.0441C19.7678 70.0441 20.1928 69.5341 20.1928 68.8541C20.1928 68.1741 19.8528 67.7491 19.0878 67.2391L17.2178 66.0491C16.1128 65.3691 15.6028 64.4341 15.6028 63.2441C15.6028 61.4591 16.9628 60.4391 18.8328 60.4391C20.8728 60.4391 22.0628 61.5441 22.0628 63.7541V64.0941L20.0228 64.0091Z" fill="#A84AAF"/>
<path d="M26.9078 60.4391C29.0328 60.4391 30.3928 61.3741 30.3928 64.1791V68.0891C30.3928 70.8941 28.9478 71.7441 26.9078 71.7441C24.8678 71.7441 23.3378 70.8091 23.4228 68.0891V64.1791C23.4228 61.3741 24.8678 60.4391 26.9078 60.4391ZM25.5478 63.9241V68.3441C25.5478 69.4491 25.9728 70.1291 26.9928 70.1291C27.8428 70.1291 28.3528 69.5341 28.3528 68.4291V64.0091C28.3528 62.8191 27.8428 62.1391 26.9928 62.1391C25.9728 62.0541 25.5478 62.7341 25.5478 63.9241Z" fill="#A84AAF"/>
<path d="M37.5326 60.6091V62.3091H33.8776V64.7741H37.3626V66.4741H33.8776V71.4891H31.8376V60.6091H37.5326Z" fill="#A84AAF"/>
<path d="M42.7177 71.4891H40.6777V62.3091H38.1277V60.6091H45.2677V62.3091H42.7177V71.4891Z" fill="#A84AAF"/>
<path d="M64.4776 70.7241H61.4176L60.0576 68.6841C58.6126 70.4691 56.8276 71.2341 54.6176 71.2341C50.4526 71.2341 47.9026 68.6841 47.9026 64.5191C47.9026 61.0341 49.8576 59.3341 52.6626 57.5491C51.3876 56.0191 50.3676 54.4891 50.3676 52.3641C50.3676 49.8141 52.3226 47.6041 54.9576 47.6891C57.6776 47.6891 59.6326 49.3891 59.6326 52.2791C59.6326 54.7441 57.5926 56.7841 55.6376 58.0591L60.0576 64.5191C60.5676 63.0741 60.8226 61.6291 60.9926 60.1841H63.2876C63.1176 62.3941 62.7776 64.6041 61.5876 66.5591L64.4776 70.7241ZM53.6826 59.4191C51.7276 60.7791 50.5376 62.1391 50.5376 64.6041C50.5376 67.3241 52.3226 68.9391 54.9576 69.0241C56.4876 69.0241 57.7626 68.0891 58.6976 66.8991L53.6826 59.4191ZM54.8726 49.8141C53.5126 49.8141 52.7476 50.9191 52.7476 52.1941C52.7476 53.7241 53.6826 55.1691 54.5326 56.3591C55.8926 55.3391 57.0826 54.2341 57.0826 52.2791C57.0826 51.0041 56.3176 49.8141 54.8726 49.8141Z" fill="#A84AAF"/>
</g>
<defs>
<clipPath id="clip0_1_2645">
<rect width="74.715" height="104.465" fill="white" transform="translate(0.897705 0.174072)"/>
</clipPath>
</defs>
</svg>
