<svg xmlns="http://www.w3.org/2000/svg" width="14" height="56" viewBox="0 0 14 56" fill="none">
  <path d="M6.85859 0.173828C3.35859 0.173828 0.558594 2.97382 0.558594 6.47382C0.558594 7.87382 1.35859 9.97383 3.15859 13.1738C4.35859 15.3738 5.55859 17.1738 5.55859 17.1738L6.4586 18.4738C6.5586 18.5738 6.65859 18.6738 6.85859 18.6738C7.05859 18.6738 7.15859 18.5738 7.25859 18.4738L8.15859 17.1738C8.25859 17.0738 9.35859 15.2738 10.5586 13.1738C12.3586 9.97383 13.1586 7.87382 13.1586 6.47382C13.1586 2.97382 10.3586 0.173828 6.85859 0.173828ZM9.75859 12.5738C8.55859 14.6738 7.35859 16.4738 7.35859 16.5738L6.85859 17.2738L6.35859 16.5738C6.35859 16.4738 5.1586 14.6738 3.9586 12.5738C2.3586 9.67382 1.4586 7.57381 1.4586 6.37381C1.4586 3.47381 3.85859 1.07382 6.75859 1.07382C9.65859 1.07382 12.0586 3.47381 12.0586 6.37381C12.1586 7.57381 11.3586 9.67382 9.75859 12.5738Z" fill="#814624"/>
  <path d="M6.85889 2.87354C4.95889 2.87354 3.35889 4.47354 3.35889 6.37354C3.35889 8.27354 4.95889 9.87354 6.85889 9.87354C8.75889 9.87354 10.3589 8.27354 10.3589 6.37354C10.3589 4.47354 8.75889 2.87354 6.85889 2.87354ZM6.85889 8.87354C5.45889 8.87354 4.35889 7.77354 4.35889 6.37354C4.35889 4.97354 5.45889 3.87354 6.85889 3.87354C8.25889 3.87354 9.35889 4.97354 9.35889 6.37354C9.35889 7.77354 8.25889 8.87354 6.85889 8.87354Z" fill="#814624"/>
  <path d="M6.85889 21.1736C6.55889 21.1736 6.35889 20.9736 6.35889 20.6736V18.4736C6.35889 18.1736 6.55889 17.9736 6.85889 17.9736C7.15889 17.9736 7.35889 18.1736 7.35889 18.4736V20.6736C7.35889 20.8736 7.15889 21.1736 6.85889 21.1736Z" fill="#814624"/>
  <path d="M6.85889 45.3738C6.55889 45.3738 6.35889 45.1738 6.35889 44.8738V40.8738C6.35889 40.5738 6.55889 40.3738 6.85889 40.3738C7.15889 40.3738 7.35889 40.5738 7.35889 40.8738V44.8738C7.35889 45.1738 7.15889 45.3738 6.85889 45.3738ZM6.85889 37.2738C6.55889 37.2738 6.35889 37.0738 6.35889 36.7738V32.7738C6.35889 32.4738 6.55889 32.2738 6.85889 32.2738C7.15889 32.2738 7.35889 32.4738 7.35889 32.7738V36.7738C7.35889 37.0738 7.15889 37.2738 6.85889 37.2738ZM6.85889 29.1738C6.55889 29.1738 6.35889 28.9738 6.35889 28.6738V24.6738C6.35889 24.3738 6.55889 24.1738 6.85889 24.1738C7.15889 24.1738 7.35889 24.3738 7.35889 24.6738V28.6738C7.35889 28.9738 7.15889 29.1738 6.85889 29.1738Z" fill="#814624"/>
  <path d="M6.85889 51.5735C6.55889 51.5735 6.35889 51.3735 6.35889 51.0735V48.8735C6.35889 48.5735 6.55889 48.3735 6.85889 48.3735C7.15889 48.3735 7.35889 48.5735 7.35889 48.8735V51.0735C7.35889 51.3735 7.15889 51.5735 6.85889 51.5735Z" fill="#814624"/>
  <path d="M6.85869 55.8736C5.35869 55.8736 4.15869 54.6736 4.15869 53.1736C4.15869 51.6736 5.35869 50.4736 6.85869 50.4736C8.35869 50.4736 9.55869 51.6736 9.55869 53.1736C9.55869 54.6736 8.35869 55.8736 6.85869 55.8736ZM6.85869 51.5736C5.95869 51.5736 5.25869 52.2736 5.25869 53.1736C5.25869 54.0736 5.95869 54.7736 6.85869 54.7736C7.75869 54.7736 8.45869 54.0736 8.45869 53.1736C8.45869 52.3736 7.75869 51.5736 6.85869 51.5736Z" fill="#814624"/>
</svg>