<svg width="18" height="26" viewBox="0 0 18 26" fill="none" xmlns="http://www.w3.org/2000/svg">
<path fill-rule="evenodd" clip-rule="evenodd" d="M0.333252 8.85404C0.333252 3.93512 4.1851 0 8.99991 0C13.8147 0 17.6666 3.93512 17.6666 8.85404C17.6666 10.8216 16.5661 13.773 14.0899 18.2703C12.4391 21.2216 10.9258 23.7514 10.7883 23.8919L9.55018 25.7189L9.55015 25.7189C9.4126 25.8595 9.27503 26 8.99991 26C8.72481 26 8.58725 25.8595 8.4497 25.7189L8.44966 25.7189L7.21156 23.8919C7.21156 23.8919 5.56076 21.3622 3.90997 18.2703C1.43378 13.773 0.333252 10.8216 0.333252 8.85404ZM4.1851 8.66667C4.1851 11.363 6.30362 13.4815 8.99992 13.4815C11.6962 13.4815 13.8147 11.363 13.8147 8.66667C13.8147 5.97037 11.6962 3.85185 8.99992 3.85185C6.30362 3.85185 4.1851 5.97037 4.1851 8.66667Z" fill="#814624"/>
</svg>
