<svg xmlns="http://www.w3.org/2000/svg" width="164" height="113" viewBox="0 0 164 113" fill="none">
  <path d="M81.7179 7.76591C88.4305 7.76591 95.0907 8.8672 101.541 11.0173L143.548 25.2817C149.369 27.2745 153.302 32.7285 153.302 38.9167V66.921C153.302 73.1092 149.369 78.5632 143.548 80.556L101.541 94.8728C95.0907 97.0754 88.4305 98.1243 81.7179 98.1243C75.0052 98.1243 68.3451 97.023 61.8946 94.8728L19.8882 80.6085C14.0671 78.6157 10.1339 73.1617 10.1339 66.9734V38.9167C10.1339 32.7285 14.0671 27.2745 19.8882 25.2817L61.8946 11.0173C68.3451 8.81476 75.0052 7.76591 81.7179 7.76591ZM81.7179 3.25586C74.4808 3.25586 67.2962 4.46204 60.4787 6.7695L18.4198 21.0339C10.7632 23.656 5.62387 30.8406 5.62387 38.9167V66.921C5.62387 74.9971 10.7632 82.1818 18.4198 84.8039L60.4262 99.0682C67.2962 101.376 74.4284 102.582 81.6654 102.582C88.9025 102.582 96.0871 101.376 102.905 99.0682L144.911 84.8039C152.568 82.1818 157.707 74.9971 157.707 66.921V38.9167C157.707 30.8406 152.568 23.656 144.911 21.0339L102.957 6.7695C96.1396 4.40959 88.9549 3.25586 81.7179 3.25586Z" fill="white"/>
  <g filter="url(#filter0_dd_1_3118)">
    <path d="M81.7197 104.26C74.2729 104.26 66.9834 103.054 59.9561 100.641L17.9497 86.3769C9.61134 83.545 4 75.7311 4 66.9207V38.9165C4 30.1061 9.61134 22.2922 17.8972 19.5128L59.9036 5.24841C66.9834 2.83606 74.2729 1.62988 81.7197 1.62988C89.1665 1.62988 96.456 2.83606 103.483 5.24841L145.49 19.5128C153.828 22.3447 159.387 30.1586 159.387 38.9165V66.9207C159.387 75.7311 153.776 83.545 145.49 86.3244L103.483 100.589C96.456 103.054 89.1665 104.26 81.7197 104.26ZM81.7197 4.88131C74.64 4.88131 67.6651 6.03505 61.0049 8.29007L18.9461 22.5544C11.9713 24.9668 7.25143 31.5221 7.25143 38.9165V66.9207C7.25143 74.3151 11.9713 80.8704 18.9461 83.2828L60.9525 97.5471C67.6651 99.8022 74.64 100.956 81.6673 100.956C88.747 100.956 95.7218 99.8022 102.382 97.5471L144.388 83.2828C151.416 80.9229 156.083 74.3151 156.083 66.9207V38.9165C156.083 31.5221 151.363 24.9668 144.388 22.5544L102.382 8.29007C95.7743 6.03505 88.7994 4.88131 81.7197 4.88131ZM81.7197 99.7497C74.7973 99.7497 67.9273 98.596 61.372 96.3934L19.3656 82.1291C12.8628 79.9265 8.51005 73.8431 8.51005 66.9732V38.9165C8.51005 32.0465 12.8628 25.9632 19.3656 23.7606L61.372 9.49625C67.9273 7.24123 74.7973 6.13993 81.7197 6.13993C88.6421 6.13993 95.5121 7.29367 102.067 9.49625L144.074 23.7606C150.577 25.9632 154.929 32.0465 154.929 38.9165V66.9207C154.929 73.7907 150.577 79.874 144.074 82.0766L102.067 96.3934C95.5121 98.596 88.6421 99.7497 81.7197 99.7497ZM81.7197 9.33892C75.1644 9.33892 68.6615 10.3878 62.4209 12.5379L20.4145 26.8023C15.2227 28.5853 11.7615 33.41 11.7615 38.9165V66.9207C11.7615 72.3748 15.2227 77.2519 20.4145 79.035L62.4209 93.2993C68.6615 95.397 75.1644 96.4983 81.7197 96.4983C88.275 96.4983 94.7779 95.4494 101.019 93.2993L143.025 79.035C148.217 77.2519 151.678 72.4272 151.678 66.9207V38.9165C151.678 33.4625 148.217 28.5853 143.025 26.8023L101.019 12.5379C94.7779 10.4402 88.275 9.33892 81.7197 9.33892Z" fill="white"/>
  </g>
  <path fill-rule="evenodd" clip-rule="evenodd" d="M81.7189 100.379C74.744 100.379 67.8216 99.2256 61.1614 96.9706L19.155 82.7062C12.39 80.3988 7.87991 74.0532 7.87991 66.9211V38.9168C7.87991 31.7846 12.4424 25.4391 19.155 23.1316L61.1614 8.86726C67.7692 6.61223 74.6916 5.4585 81.7189 5.4585C88.6937 5.4585 95.6161 6.61223 102.276 8.86726L144.283 23.1316C151.048 25.4391 155.558 31.7846 155.558 38.9168V66.9211C155.558 74.0532 150.995 80.3988 144.283 82.7062L102.276 96.9706C95.6161 99.2256 88.7462 100.379 81.7189 100.379Z" fill="#EB0029"/>
  <path d="M81.7179 7.76591C88.4305 7.76591 95.0907 8.8672 101.541 11.0173L143.548 25.2817C149.369 27.2745 153.302 32.7285 153.302 38.9167V66.921C153.302 73.1092 149.369 78.5632 143.548 80.556L101.541 94.8728C95.0907 97.0754 88.4305 98.1243 81.7179 98.1243C75.0052 98.1243 68.3451 97.023 61.8946 94.8728L19.8882 80.6085C14.0671 78.6157 10.1339 73.1617 10.1339 66.9734V38.9167C10.1339 32.7285 14.0671 27.2745 19.8882 25.2817L61.8946 11.0173C68.3451 8.81476 75.0052 7.76591 81.7179 7.76591ZM81.7179 3.25586C74.4808 3.25586 67.2962 4.46204 60.4787 6.7695L18.4198 21.0339C10.7632 23.656 5.62387 30.8406 5.62387 38.9167V66.921C5.62387 74.9971 10.7632 82.1818 18.4198 84.8039L60.4262 99.0682C67.2962 101.376 74.4284 102.582 81.6654 102.582C88.9025 102.582 96.0871 101.376 102.905 99.0682L144.911 84.8039C152.568 82.1818 157.707 74.9971 157.707 66.921V38.9167C157.707 30.8406 152.568 23.656 144.911 21.0339L102.957 6.7695C96.1396 4.40959 88.9549 3.25586 81.7179 3.25586Z" fill="white"/>
  <path d="M78.7203 100.694C71.693 100.694 64.7182 99.54 58.058 97.285L16.0516 83.0206C9.1816 80.6607 4.51422 74.2103 4.51422 66.9208V38.9165C4.51422 31.627 9.12916 25.1766 16.0516 22.8167L58.058 8.55231C64.7182 6.29729 71.693 5.14355 78.7203 5.14355C85.7476 5.14355 92.7224 6.29729 99.3826 8.55231L141.389 22.8167C148.259 25.1766 152.926 31.627 152.926 38.9165V66.9208C152.926 74.2103 148.311 80.6607 141.389 83.0206L99.3826 97.285C92.7224 99.5924 85.7476 100.694 78.7203 100.694ZM78.7203 5.82531C71.7454 5.82531 64.8755 6.97904 58.2677 9.18162L16.2613 23.4984C9.65358 25.7534 5.19597 31.9417 5.19597 38.9165V66.9208C5.19597 73.8956 9.65358 80.1363 16.2613 82.3388L58.2677 96.6032C64.8755 98.8582 71.7454 99.9595 78.7203 99.9595C85.6951 99.9595 92.5651 98.8058 99.1728 96.6032L141.179 82.3388C147.787 80.0838 152.245 73.8956 152.245 66.9208V38.9165C152.245 31.9417 147.787 25.701 141.179 23.4984L99.1728 9.23407C92.5651 6.97904 85.6951 5.82531 78.7203 5.82531Z" fill="#F9E0A4"/>
  <path d="M53.0876 83.44L53.4547 83.0205C53.9266 83.4925 54.5559 83.7547 55.2377 83.7547C56.1292 83.7547 56.7061 83.3876 56.7061 82.8107C56.7061 82.3387 56.3914 82.0765 55.2901 81.7619C53.9791 81.3948 53.3498 81.0277 53.3498 80.1886C53.3498 79.2971 54.1364 78.7202 55.2901 78.7202C55.9719 78.7202 56.6536 78.93 57.1781 79.3495L56.811 79.8215C56.3914 79.4544 55.8146 79.2446 55.2377 79.2446C54.3986 79.2446 53.9266 79.6117 53.9266 80.1362C53.9266 80.6081 54.2937 80.8704 55.395 81.185C56.811 81.5521 57.283 82.0241 57.283 82.7583C57.283 83.7022 56.4439 84.3316 55.1853 84.3316C54.3986 84.2791 53.6644 83.9645 53.0876 83.44Z" fill="#F9E0A4"/>
  <path d="M60.6929 78.7202H60.116V84.1742H60.6929V78.7202Z" fill="#F9E0A4"/>
  <path d="M68.3486 78.7202V84.1742H67.7718L64.5728 79.6117V84.1742H63.9959V78.7202H64.6252L67.8242 83.2827V78.7202H68.3486Z" fill="#F9E0A4"/>
  <path d="M71.2289 81.4474C71.2289 79.8217 72.2777 78.668 73.7461 78.668C74.8474 78.668 75.634 79.2448 75.9487 80.2937L75.3718 80.5035C75.1096 79.6644 74.5328 79.1924 73.6937 79.1924C72.5399 79.1924 71.8058 80.0839 71.8058 81.4474C71.8058 82.8109 72.5924 83.7024 73.6937 83.7024C74.5328 83.7024 75.1096 83.2829 75.3718 82.3914L75.9487 82.6012C75.634 83.5976 74.8474 84.2269 73.7461 84.2269C72.2253 84.2793 71.2289 83.1256 71.2289 81.4474Z" fill="#F9E0A4"/>
  <path d="M82.294 83.6498V84.1742H78.623V78.7202H82.1891V79.2971H79.2523V81.1326H81.5598V81.657H79.2523V83.6498H82.294Z" fill="#F9E0A4"/>
  <path d="M91.7363 83.65V84.1744H88.0128V83.8073L89.8483 82.0767C90.635 81.395 91.0021 80.8181 91.0021 80.2412C91.0021 79.6119 90.5825 79.14 89.9008 79.14C89.1141 79.14 88.6422 79.6119 88.5897 80.451L88.0653 80.3461C88.1702 79.2973 88.9044 78.668 89.9532 78.668C90.9496 78.668 91.6314 79.2973 91.6314 80.2412C91.6314 80.923 91.2118 81.5523 90.2154 82.4438L88.9568 83.65H91.7363Z" fill="#F9E0A4"/>
  <path d="M93.8358 81.4474C93.8358 79.7693 94.6749 78.668 95.986 78.668C97.2446 78.668 98.1361 79.7693 98.1361 81.4474C98.1361 83.1256 97.297 84.2269 95.986 84.2269C94.6749 84.2793 93.8358 83.1256 93.8358 81.4474ZM97.5068 81.4474C97.5068 80.0315 96.8775 79.14 95.986 79.14C95.042 79.14 94.4651 80.0315 94.4651 81.4474C94.4651 82.8634 95.0944 83.7549 95.986 83.7549C96.8775 83.7549 97.5068 82.8634 97.5068 81.4474Z" fill="#F9E0A4"/>
  <path d="M101.546 80.0837H100.235V79.6117H100.445C101.441 79.6117 101.704 79.402 101.756 78.7202H102.123V84.1742H101.546V80.0837Z" fill="#F9E0A4"/>
  <path d="M109.04 82.4435C109.04 83.4924 108.201 84.2266 107.152 84.2266C105.788 84.2266 105.107 83.0204 105.107 81.4471C105.107 79.8739 105.841 78.6152 107.309 78.6152C107.991 78.6152 108.568 78.8774 108.935 79.4019L108.568 79.769C108.253 79.3494 107.834 79.1397 107.309 79.1397C106.208 79.1397 105.631 80.1885 105.631 81.4471V81.6569C105.946 81.0276 106.523 80.7129 107.257 80.7129C108.253 80.7129 109.04 81.3947 109.04 82.4435ZM108.463 82.496C108.463 81.7093 107.886 81.2374 107.152 81.2374C106.418 81.2374 105.841 81.7618 105.841 82.496C105.841 83.2302 106.418 83.7546 107.152 83.7546C107.886 83.7546 108.463 83.2302 108.463 82.496Z" fill="#F9E0A4"/>
  <path d="M88.6448 32.3609C88.435 32.3609 88.2253 32.3609 88.0679 32.3609H88.0155C86.9142 32.3085 84.7116 31.9414 83.8201 31.6792C82.981 31.4169 81.4077 31.3645 80.254 31.5218C78.1563 31.8365 76.0062 31.0498 75.1671 30.5254C75.0098 30.4205 75.0098 30.2632 75.0622 30.1059C75.1671 29.9486 75.3244 29.9486 75.4818 30.001C76.0062 30.3157 77.999 31.2072 80.2016 30.8925C81.4602 30.6828 83.0859 30.7876 84.0299 31.0498C84.869 31.3121 87.0191 31.6792 88.0679 31.6792H88.1204C88.8546 31.6792 90.323 31.7316 90.8998 31.1547C91.1096 30.945 91.2145 30.6828 91.2145 30.3681C91.2145 29.1619 89.7461 28.8473 87.8057 28.6375C87.596 28.6375 87.4386 28.5851 87.2813 28.5851C86.8618 28.5326 86.4947 28.4802 86.0227 28.4277C84.6067 28.3228 83.0335 28.1655 81.3553 27.2215C81.0407 27.0642 80.7784 26.9069 80.5162 26.7496C78.9954 25.858 78.0514 25.3336 75.5866 24.9665C72.8072 24.547 67.7727 27.3789 67.4581 27.5362C67.3007 27.6411 66.1994 28.3228 63.8395 28.4802C63.6822 28.4802 63.5249 28.3753 63.5249 28.218C63.5249 28.0606 63.6298 27.9033 63.7871 27.9033C66.0946 27.746 67.091 27.0642 67.091 27.0642C67.091 27.0642 67.091 27.0642 67.1434 27.0642C67.3532 26.9593 72.5974 23.9701 75.6391 24.4421C78.2612 24.8092 79.2052 25.3861 80.8309 26.2776C81.0931 26.4349 81.3553 26.5922 81.67 26.7496C83.2432 27.6411 84.7116 27.746 86.1276 27.9033C86.5471 27.9557 86.9667 28.0082 87.3862 28.0606C87.5435 28.0606 87.7533 28.1131 87.9106 28.1131C89.6412 28.3228 91.7914 28.6375 91.7914 30.4205C91.7914 30.8925 91.634 31.3121 91.3194 31.6267C90.6901 32.3085 89.5363 32.3609 88.6448 32.3609Z" fill="#F9E0A4"/>
  <path d="M81.9328 36.4519C81.1986 36.4519 80.2022 36.1373 79.0484 35.5604C78.1045 35.0884 75.8494 34.3542 72.5456 34.0396C69.399 33.7249 66.5147 34.3542 66.4622 34.3542C66.3049 34.4067 66.1476 34.3018 66.0952 34.1445C66.0427 33.9871 66.1476 33.8298 66.3049 33.7774C66.4098 33.7249 69.2941 33.0956 72.5456 33.4627C75.9543 33.8298 78.2618 34.564 79.2582 35.036C80.3595 35.6129 81.3035 35.9275 81.9328 35.8751C82.9292 35.8226 83.8207 35.6129 84.45 35.2982C85.2891 34.8787 87.3868 34.0396 88.4356 33.7774C89.065 33.62 91.0578 33.0956 91.792 31.6797C92.1066 31.1028 92.3164 30.5259 92.5262 29.9491C92.8408 29.0575 93.2079 28.1136 93.8897 27.1172C94.1519 26.6976 94.3616 26.383 94.5714 26.0683C95.1483 25.2292 95.4629 24.7573 95.3056 24.4951C95.2532 24.3902 95.0958 24.2853 94.9385 24.2853C94.5714 24.2328 94.0994 24.2853 93.6799 24.5999C93.3652 24.8622 92.8932 25.4915 92.4737 26.0683C91.8968 26.8025 91.32 27.5892 90.9004 27.9038C90.6907 28.0611 90.5333 28.166 90.4285 28.2709C89.9565 28.638 89.6943 28.8478 89.2747 28.9527C89.1174 29.0051 88.9601 28.8478 88.9601 28.6905C88.9076 28.5331 89.065 28.3758 89.2223 28.3758C89.4845 28.3234 89.6943 28.166 90.1138 27.8514C90.2711 27.7465 90.4285 27.5892 90.6382 27.4318C91.0053 27.1696 91.5822 26.383 92.1066 25.7012C92.5786 25.0195 93.0506 24.3902 93.4177 24.128C93.8897 23.7084 94.5714 23.5511 95.1483 23.656C95.5154 23.7084 95.83 23.9182 95.9349 24.1804C96.2496 24.7573 95.83 25.3341 95.1483 26.3305C94.9385 26.6452 94.7287 26.9599 94.4665 27.3794C93.8372 28.3758 93.5226 29.2673 93.1555 30.1064C92.9457 30.7357 92.6835 31.3126 92.3688 31.9419C91.4773 33.62 89.3272 34.1445 88.593 34.3542C87.5441 34.6165 85.4989 35.4031 84.7122 35.8226C83.978 36.1897 83.0341 36.3995 81.9328 36.4519C81.9852 36.4519 81.9852 36.4519 81.9328 36.4519Z" fill="#F9E0A4"/>
  <path d="M90.5856 28.1659C90.5332 28.1659 90.4808 28.1659 90.4283 28.1135C90.271 28.0086 90.2185 27.8513 90.3234 27.6939C90.3234 27.6939 90.743 27.0122 90.8479 25.806C91.0052 24.4949 91.7394 23.4461 92.1065 23.079C92.4211 22.8168 92.998 22.607 93.47 22.6595C93.7846 22.7119 94.0468 22.8692 94.2042 23.079C94.3091 23.2363 94.2566 23.3937 94.1517 23.4985C93.9944 23.6034 93.8371 23.551 93.7322 23.4461C93.6797 23.3412 93.5749 23.2888 93.4175 23.2888C93.1029 23.2363 92.6833 23.3937 92.526 23.551C92.2638 23.7607 91.582 24.6523 91.4772 25.8584C91.3198 27.1695 90.8479 27.9561 90.8479 27.9561C90.743 28.1135 90.6905 28.1659 90.5856 28.1659Z" fill="#F9E0A4"/>
  <path d="M90.5849 31.9942C90.3226 31.9942 90.008 31.9417 89.4311 31.8893C88.6445 31.7844 88.0676 31.4173 87.8578 31.1551C87.6481 30.8929 87.7005 30.4209 87.753 30.1062C87.753 30.0538 87.753 30.0014 87.753 30.0014C87.8054 29.372 88.2249 29.0049 88.9067 28.9525C89.6933 28.9001 90.8471 28.9525 90.8995 28.9525C91.0568 28.9525 91.1617 29.1098 91.1617 29.2672C91.1617 29.4245 91.0044 29.5294 90.8471 29.5294C90.8471 29.5294 89.6409 29.4769 88.9067 29.5294C88.4347 29.5818 88.3298 29.7916 88.3298 30.0538C88.3298 30.1062 88.3298 30.1587 88.3298 30.1587C88.3298 30.316 88.2774 30.6831 88.3298 30.788C88.4347 30.9453 88.8543 31.2075 89.536 31.3124C90.2178 31.4173 90.5849 31.4697 90.7946 31.4173C90.952 31.3649 91.1093 31.5222 91.1093 31.6795C91.1617 31.8368 91.0044 31.9942 90.8471 31.9942C90.7946 31.9942 90.6897 31.9942 90.5849 31.9942Z" fill="#F9E0A4"/>
  <path d="M84.9205 26.4878C84.9205 26.4878 86.8609 24.3901 85.0779 21.2436C83.2948 18.097 79.0994 16.314 79.0994 16.314C79.0994 16.314 78.5225 20.824 80.3056 23.9706C82.1411 27.1171 84.9205 26.4878 84.9205 26.4878Z" fill="#F9E0A4"/>
  <path d="M84.3434 26.855C83.347 26.855 81.4067 26.5403 80.0432 24.128C78.2077 20.929 78.7321 16.4714 78.7846 16.314C78.7846 16.2092 78.837 16.1567 78.9419 16.1043C79.0468 16.0518 79.0992 16.0518 79.2041 16.1043C79.3614 16.1567 83.5044 17.9922 85.3399 21.1387C87.2278 24.4426 85.1825 26.6976 85.1301 26.6976C85.0776 26.7501 85.0252 26.7501 84.9728 26.8025C84.9728 26.8025 84.763 26.855 84.3434 26.855ZM79.3614 16.786C79.2565 17.9398 79.1516 21.3485 80.5676 23.8658C82.0884 26.4879 84.291 26.3306 84.763 26.2781C85.0776 25.911 86.3363 24.0755 84.8154 21.4534C83.3995 18.9362 80.4103 17.3104 79.3614 16.786Z" fill="#EB0029"/>
  <path d="M83.5068 26.4878C83.5068 26.4878 81.5664 24.3901 83.3495 21.2436C85.1325 18.097 89.3279 16.314 89.3279 16.314C89.3279 16.314 89.9048 20.824 88.1218 23.9706C86.2863 27.1171 83.5068 26.4878 83.5068 26.4878Z" fill="#F9E0A4"/>
  <path d="M84.0827 26.855C83.7156 26.855 83.4534 26.8025 83.4534 26.8025C83.4009 26.8025 83.3485 26.7501 83.2961 26.6976C83.2961 26.6976 81.1984 24.3902 83.0863 21.1387C84.9218 17.9398 89.0123 16.1567 89.2221 16.1043C89.3269 16.0518 89.3794 16.0518 89.4843 16.1043C89.5891 16.1567 89.6416 16.2092 89.6416 16.314C89.6416 16.5238 90.2185 20.929 88.383 24.128C87.0195 26.5403 85.0791 26.855 84.0827 26.855ZM83.6631 26.2257C84.1351 26.2781 86.3377 26.4354 87.8585 23.8133C89.2745 21.3485 89.1696 17.9398 89.0647 16.7336C88.0159 17.258 85.0267 18.8837 83.6107 21.3485C82.0899 24.0755 83.3485 25.8586 83.6631 26.2257Z" fill="#EB0029"/>
  <path d="M92.7354 23.656C92.6829 23.656 92.578 23.6035 92.4207 23.5511C92.211 23.4986 92.0012 23.4462 91.6865 23.3938C91.3194 23.3413 90.8999 23.2364 90.4803 23.184C89.9035 23.1315 89.2742 23.0791 88.5924 23.0791C87.8582 23.0791 87.124 23.1315 86.3898 23.2889C86.1801 23.3413 86.0227 23.3938 85.813 23.4462C85.7081 23.4986 85.6032 23.4986 85.5508 23.5511C85.2885 23.656 85.0788 23.7084 84.869 23.8133C84.5543 23.9706 84.2921 24.128 84.0824 24.2853C83.8726 24.4426 83.6628 24.6524 83.5055 24.8097C83.2957 25.0719 83.1384 25.2817 82.9811 25.5439C82.9286 25.6488 82.8237 25.8061 82.7713 25.911C82.7189 26.0159 82.6664 26.0683 82.6664 26.1732C82.5615 26.4354 82.5091 26.6452 82.5091 26.855C82.614 26.9074 82.7189 26.9598 82.8238 26.9598C83.7677 27.3269 84.7117 27.4318 85.6032 27.5367C85.7605 27.5367 85.9703 27.5892 86.1276 27.5892C86.4423 27.6416 86.7569 27.6416 87.0716 27.694C87.1765 27.694 87.8058 27.7989 87.9107 27.7989C88.068 27.7989 88.1729 27.8514 88.3302 27.8514C88.9071 27.5367 89.4315 27.1696 89.9035 26.8025C90.2181 26.5403 90.4803 26.3305 90.7426 26.0683C91.0572 25.7537 91.3719 25.4915 91.5816 25.1768C91.6865 25.0719 91.7914 24.9146 91.8963 24.8097C92.4732 24.1804 92.7878 23.7084 92.7878 23.7084C92.7878 23.7084 92.7878 23.7084 92.7354 23.656Z" fill="#F9E0A4"/>
  <path d="M88.3303 28.1659L87.8583 28.1135C87.701 28.1135 87.1241 28.0086 87.0193 28.0086C86.7046 27.9562 86.3899 27.9562 86.0753 27.9037C85.918 27.9037 85.7082 27.8513 85.5509 27.8513H85.4984C84.6593 27.7464 83.7154 27.6415 82.6665 27.2744C82.5616 27.222 82.4568 27.222 82.3519 27.1695C82.247 27.1171 82.1421 26.9598 82.1946 26.8549C82.247 26.6451 82.2994 26.3829 82.4043 26.1207C82.4568 26.0158 82.4568 25.9633 82.5092 25.8585C82.5616 25.7536 82.6141 25.5962 82.719 25.4389C82.8763 25.1767 83.0861 24.9145 83.2958 24.6523L83.3483 24.5998C83.5581 24.3901 83.7678 24.2327 83.9776 24.0754C84.2398 23.8656 84.502 23.7083 84.8167 23.551C85.0264 23.4461 85.2362 23.3412 85.4984 23.2363C85.6033 23.1839 85.7082 23.1839 85.8131 23.1315C86.0228 23.079 86.2326 23.0266 86.3899 22.9741C87.0717 22.8168 87.8583 22.7119 88.645 22.7119C89.2218 22.7119 89.8511 22.7644 90.5329 22.8168C90.9524 22.8692 91.3195 22.9217 91.7391 23.0266C92.0537 23.079 92.2635 23.1315 92.4733 23.1839C92.4733 23.1839 92.4733 23.1839 92.5257 23.1839C92.6306 23.2363 92.7355 23.2363 92.7879 23.2363C92.8404 23.2363 92.8404 23.2363 92.8928 23.2363C92.9453 23.2363 92.9453 23.2363 92.9453 23.2363C93.0501 23.2888 93.1026 23.3412 93.1026 23.4461C93.155 23.551 93.1026 23.6034 93.0501 23.7083C93.0501 23.7083 92.7355 24.1803 92.1586 24.8621C92.1586 24.8621 92.1586 24.8621 92.1586 24.9145C92.1062 25.0194 92.0013 25.0718 91.9488 25.1767L91.844 25.2816C91.5293 25.5962 91.2671 25.9109 90.9524 26.1731C90.6902 26.4353 90.3756 26.6975 90.0609 26.9598C89.5365 27.3793 89.0121 27.7464 88.4876 28.0086C88.4352 28.1659 88.3828 28.1659 88.3303 28.1659ZM85.6033 27.2744C85.7606 27.2744 85.9704 27.3269 86.1277 27.3269C86.4424 27.3793 86.757 27.3793 87.0717 27.4317C87.1766 27.4317 87.8059 27.5366 87.9108 27.5366L88.2254 27.5891C88.6974 27.3269 89.1694 27.0122 89.6414 26.6451C89.9036 26.4353 90.2182 26.1731 90.4805 25.9109C90.7427 25.6487 91.0573 25.334 91.3195 25.0194L91.4244 24.9145C91.4769 24.8096 91.5818 24.7572 91.6342 24.7047C91.6342 24.7047 91.6342 24.6523 91.6866 24.6523C91.9488 24.3376 92.1586 24.0754 92.3159 23.9181C92.1062 23.8656 91.8964 23.8132 91.5817 23.7608C91.1622 23.6559 90.7427 23.6034 90.3756 23.551C89.6938 23.4461 89.117 23.4461 88.5401 23.4461C87.8059 23.4461 87.0717 23.4986 86.4424 23.6559C86.2851 23.7083 86.0753 23.7608 85.918 23.8132C85.8131 23.8656 85.7606 23.8656 85.6557 23.9181C85.446 24.023 85.2362 24.0754 85.0264 24.1803C84.7642 24.2852 84.502 24.4425 84.2923 24.6523C84.0825 24.8096 83.9252 24.9669 83.7154 25.1767C83.7154 25.1767 83.7154 25.1767 83.6629 25.2292C83.5056 25.4389 83.3483 25.6487 83.191 25.8585C83.1385 25.9633 83.0861 26.0682 83.0336 26.1731V26.2256C82.9812 26.3304 82.9812 26.3829 82.9287 26.4353C82.8763 26.5927 82.8239 26.6975 82.8239 26.8024H82.8763C83.8203 27.0646 84.7118 27.1695 85.6033 27.2744Z" fill="#EB0029"/>
  <path d="M85.7064 27.3794C85.7064 27.3794 85.654 27.4318 85.5491 27.5367C84.6576 27.4318 83.7136 27.3269 82.7697 26.9598C82.6648 26.9074 82.5599 26.9074 82.455 26.855C82.1928 26.7501 81.9306 26.5927 81.6684 26.4879C81.3537 26.3305 81.0915 26.1732 80.8293 26.0159C80.1475 25.5963 79.5707 25.2817 78.8889 24.967C78.0498 24.5999 77.1059 24.2853 75.6899 24.0755C75.4802 23.8133 75.3753 23.7084 75.3753 23.7084C75.3753 23.7084 76.529 23.3413 78.0498 23.184C78.6267 23.1315 79.256 23.0791 79.9378 23.0791C80.672 23.0791 81.4586 23.184 82.1928 23.3938C82.3501 23.4462 82.5074 23.4986 82.6648 23.5511C82.9794 23.656 83.2941 23.8133 83.5563 23.9706C83.7661 24.0755 83.9758 24.1804 84.1332 24.3377C84.3954 24.5475 84.6576 24.7573 84.8149 24.967C85.0771 25.2817 85.2869 25.5963 85.3918 25.8586C85.4442 26.0159 85.4967 26.1732 85.5491 26.2781C85.654 26.5403 85.654 26.7501 85.7064 26.9074C85.7064 27.2221 85.7064 27.3794 85.7064 27.3794Z" fill="#F9E0A4"/>
  <path d="M85.5506 27.8515C85.4981 27.8515 85.4981 27.8515 85.5506 27.8515C84.7115 27.7466 83.7151 27.6417 82.6662 27.2746C82.5613 27.2222 82.4564 27.2222 82.3516 27.1697C82.0893 27.0648 81.7747 26.9075 81.5125 26.7502C81.2503 26.5928 80.9356 26.4355 80.6734 26.2782L80.4636 26.1733C79.8343 25.8062 79.3099 25.4916 78.733 25.2818C77.9988 24.9671 77.0549 24.6525 75.5865 24.4427C75.534 24.4427 75.4292 24.3903 75.3767 24.3378C75.2194 24.1281 75.1145 24.0232 75.1145 24.0232C75.0621 23.9707 75.0096 23.8658 75.0096 23.761C75.0096 23.6561 75.1145 23.5512 75.2194 23.5512C75.2718 23.5512 76.3731 23.1841 77.9464 23.0268C78.6281 22.9743 79.2575 22.9219 79.8343 22.9219C80.6734 22.9219 81.46 23.0268 82.1418 23.2365C82.2991 23.289 82.4564 23.3414 82.6138 23.3939C82.6138 23.3939 82.6138 23.3939 82.6662 23.3939C83.0333 23.4987 83.2955 23.6561 83.6102 23.8134C83.82 23.9183 84.0297 24.0756 84.2395 24.1805C84.5017 24.3903 84.7639 24.6 84.9737 24.8622C85.2359 25.1769 85.4457 25.4916 85.603 25.8587C85.6554 26.016 85.7603 26.1733 85.8128 26.3306C85.8652 26.5404 85.9177 26.8026 85.9701 27.0124C86.0225 27.2746 86.0225 27.4844 86.0225 27.4844C86.0225 27.5368 86.0225 27.5893 85.9701 27.6417C85.9701 27.6417 85.9176 27.7466 85.7603 27.8515C85.6554 27.799 85.603 27.8515 85.5506 27.8515ZM76.006 23.8134C77.3695 24.0232 78.261 24.3903 78.9952 24.6525C79.6246 24.9147 80.149 25.2293 80.7783 25.5964L80.9881 25.7013C81.3027 25.8587 81.5649 26.016 81.8271 26.1733C82.0893 26.3306 82.3516 26.4355 82.6138 26.5404C82.7187 26.5928 82.8235 26.5928 82.876 26.6453C83.7675 26.9599 84.6066 27.1173 85.4457 27.1697C85.4457 27.1173 85.4457 27.0124 85.3932 26.9075C85.3408 26.6977 85.3408 26.488 85.2359 26.3306C85.1835 26.2257 85.131 26.0684 85.0786 25.9111C84.9212 25.5964 84.7639 25.3342 84.5541 25.072C84.3444 24.8622 84.1346 24.6525 83.8724 24.4427C83.7151 24.3378 83.5053 24.1805 83.348 24.0756C83.0858 23.9183 82.8235 23.8134 82.5613 23.7085C82.5613 23.7085 82.5613 23.7085 82.5089 23.7085C82.3516 23.6561 82.1942 23.6036 82.0369 23.5512C81.3552 23.3414 80.6734 23.289 79.8868 23.2365C79.3099 23.2365 78.733 23.2365 78.0513 23.3414C77.2122 23.5512 76.478 23.7085 76.006 23.8134Z" fill="#EB0029"/>
  <path d="M84.239 25.2293C84.239 25.2293 86.966 24.3903 86.966 20.7717C86.966 17.1532 84.239 13.5347 84.239 13.5347C84.239 13.5347 81.512 17.1532 81.512 20.7717C81.4595 24.3903 84.239 25.2293 84.239 25.2293Z" fill="#F9E0A4"/>
  <path d="M84.2399 25.4915C84.1875 25.4915 84.1875 25.4915 84.135 25.4915C84.0826 25.4915 81.1982 24.5475 81.1982 20.7192C81.1982 17.0482 83.8728 13.4297 83.9777 13.2724C84.0301 13.2199 84.135 13.1675 84.1875 13.1675C84.2923 13.1675 84.3448 13.2199 84.3972 13.2724C84.5021 13.4297 87.1767 16.9958 87.1767 20.7192C87.1767 24.4951 84.2923 25.439 84.2399 25.4915ZM84.2399 14.0066C83.6106 14.9505 81.8276 17.8873 81.8276 20.7192C81.8276 23.7084 83.8204 24.7048 84.2924 24.8621C84.7643 24.7048 86.7047 23.7084 86.7047 20.7192C86.6523 17.8873 84.8692 15.003 84.2399 14.0066Z" fill="#EB0029"/>
  <path d="M85.7083 26.2253C85.7083 25.9631 85.6558 25.6485 85.6034 25.3338C85.5509 25.0716 85.4461 24.8094 85.3412 24.5472C85.2363 24.285 85.079 24.0227 84.9216 23.813C84.7643 23.5508 84.5545 23.2885 84.2923 23.0263C84.2399 22.9739 84.2399 22.9739 84.1874 22.9215C83.8203 22.5544 83.4532 22.2397 83.0337 21.9775C82.5617 21.6628 82.0373 21.3482 81.5653 21.1384C80.7787 20.7189 79.9396 20.4567 79.2054 20.2469C77.9992 19.8798 77.1077 19.7749 77.1077 19.7749C77.1077 19.7749 77.3175 21.3482 78.0517 23.1837C78.2614 23.7605 78.5761 24.3898 78.8907 24.9667C79.5725 25.2289 80.1494 25.596 80.8311 26.0156C81.0933 26.1729 81.3555 26.3302 81.6702 26.4875C81.9324 26.6449 82.1946 26.7497 82.4568 26.8546C82.5617 26.9071 82.6666 26.9595 82.7715 26.9595C83.7154 27.3266 84.6594 27.4315 85.5509 27.5364C85.5509 27.5364 85.5509 27.5364 85.5509 27.4839C85.6034 27.3266 85.6558 27.1168 85.6558 26.9071C85.7083 26.7498 85.7083 26.4875 85.7083 26.2253Z" fill="#F9E0A4"/>
  <path d="M85.5492 27.851C85.4967 27.851 85.4967 27.851 85.4967 27.851C84.6576 27.7462 83.7137 27.6413 82.6648 27.2742C82.5599 27.2217 82.4551 27.2217 82.3502 27.1693C82.088 27.0644 81.7733 26.9071 81.5111 26.7498C81.2489 26.5924 80.9342 26.4351 80.672 26.2778L80.4622 26.1729C79.8329 25.8058 79.3085 25.4911 78.7316 25.2814C78.6792 25.2814 78.6268 25.2289 78.5743 25.1765C78.2597 24.6521 77.945 24.0227 77.6828 23.341C76.9486 21.5055 76.7388 19.9322 76.7388 19.8798C76.7388 19.7749 76.7388 19.67 76.8437 19.6176C76.8962 19.5651 77.001 19.5127 77.1059 19.5127C77.1584 19.5127 77.9975 19.67 79.2561 19.9847C80.1476 20.2469 80.9342 20.5615 81.6684 20.9286C82.2453 21.1909 82.7173 21.5055 83.1893 21.8202C83.6088 22.1348 84.0283 22.4495 84.343 22.7641L84.4479 22.869C84.7101 23.1837 84.9723 23.4459 85.1296 23.7081C85.287 23.9703 85.4443 24.2325 85.6016 24.4947C85.7065 24.8094 85.8114 25.0716 85.9163 25.3338C85.9687 25.6485 86.0211 25.9631 86.0736 26.2778C86.0736 26.54 86.0736 26.8022 86.0211 27.012C85.9687 27.2217 85.9687 27.4315 85.9163 27.6413C85.9163 27.6937 85.8638 27.7986 85.8114 27.851C85.7065 27.851 85.6016 27.851 85.5492 27.851ZM79.0987 24.7045C79.6756 24.9667 80.2 25.2814 80.8293 25.596L81.0391 25.7009C81.3013 25.8582 81.616 26.0156 81.8782 26.1729C82.1404 26.3302 82.4026 26.4351 82.6648 26.54C82.7697 26.5924 82.8746 26.5924 82.927 26.6449C83.8186 26.9595 84.6052 27.1169 85.3918 27.1693C85.3918 27.0644 85.4443 26.9595 85.4443 26.8546C85.4443 26.6449 85.4967 26.4351 85.4443 26.2253C85.4443 25.9631 85.3918 25.7009 85.3394 25.4387C85.287 25.2289 85.1821 24.9667 85.0772 24.7045C84.9723 24.4423 84.815 24.2325 84.6576 24.0227C84.5003 23.7605 84.2905 23.5508 84.0283 23.2886L83.9234 23.1837C83.6088 22.869 83.2417 22.5544 82.8222 22.2921C82.4026 21.9775 81.8782 21.7153 81.3538 21.4531C80.672 21.086 79.9378 20.8238 79.0463 20.5615C78.3646 20.3518 77.7877 20.2469 77.4206 20.142C77.5255 20.7189 77.7877 21.8202 78.2597 23.0788C78.5219 23.6557 78.7841 24.2325 79.0987 24.7045Z" fill="#EB0029"/>
  <path d="M91.3731 19.7749C91.3731 19.7749 91.1633 21.3482 90.4291 23.1837C89.9571 24.4423 89.2229 25.7533 88.1741 26.8022C87.807 27.1693 87.4399 27.4839 87.0728 27.6937C86.7581 27.6413 86.4435 27.6413 86.1288 27.5888C85.9715 27.5888 85.7617 27.5364 85.6044 27.5364C84.7129 27.4315 83.7689 27.3266 82.8249 26.9595C82.7725 26.7497 82.7725 26.4875 82.7725 26.2253C82.7725 26.1204 82.7725 26.0156 82.7725 25.9107C82.7725 25.7533 82.8249 25.5436 82.8774 25.3338C82.9298 25.0716 83.0347 24.8094 83.1396 24.5472C83.2445 24.3374 83.3494 24.1276 83.5067 23.9179C83.7165 23.6032 83.9262 23.341 84.2409 23.0263C84.2409 22.9739 84.2933 22.9739 84.3458 22.9214C84.7129 22.5544 85.08 22.2397 85.4995 21.9775C85.9715 21.6628 86.4959 21.3482 87.0203 21.086C87.8594 20.6664 88.646 20.4042 89.3802 20.1944C90.4815 19.8798 91.3731 19.7749 91.3731 19.7749Z" fill="#F9E0A4"/>
  <path d="M87.0712 28.0084C87.0188 28.0084 87.0188 28.0084 87.0712 28.0084C86.7041 27.9559 86.3895 27.9559 86.0748 27.9035C85.865 27.9035 85.7077 27.851 85.5504 27.851H85.4979C84.6589 27.7462 83.7149 27.6413 82.6661 27.2742C82.5612 27.2217 82.5087 27.1693 82.4563 27.0644C82.4038 26.8022 82.4038 26.54 82.4038 26.2778C82.4038 26.1729 82.4038 26.068 82.4038 25.9631C82.4038 25.7533 82.4563 25.5436 82.5087 25.3863C82.5612 25.124 82.666 24.8618 82.7709 24.5472C82.8758 24.285 83.0331 24.0752 83.138 23.8654C83.3478 23.5508 83.61 23.2361 83.8722 22.9215C83.9247 22.869 83.9247 22.869 83.9771 22.8166C84.3442 22.4495 84.7113 22.1348 85.1833 21.8202C85.6553 21.5055 86.1797 21.1909 86.7041 20.9286C87.4383 20.5615 88.2249 20.2469 89.064 19.9847C89.064 19.9847 89.064 19.9847 89.1165 19.9847C90.3227 19.6176 91.1617 19.5127 91.2142 19.5127C91.3191 19.5127 91.4239 19.5127 91.4764 19.6176C91.5288 19.67 91.5813 19.7749 91.5813 19.8798C91.5813 19.9322 91.3191 21.558 90.5849 23.3934C89.9556 24.9667 89.1689 26.1729 88.2774 27.1169C87.9103 27.4839 87.5432 27.7986 87.1237 28.0608C87.1761 28.0084 87.1237 28.0084 87.0712 28.0084ZM85.6028 27.2742C85.7602 27.2742 85.9175 27.3266 86.1273 27.3266C86.4419 27.3791 86.7041 27.3791 87.0188 27.4315C87.3334 27.2217 87.7005 26.9595 88.0152 26.6449C88.8543 25.8058 89.5885 24.5996 90.2178 23.1312C90.6897 21.8726 90.952 20.7713 91.1093 20.1944C90.7422 20.2469 90.1653 20.4042 89.4836 20.614C89.4836 20.614 89.4836 20.614 89.4311 20.614C88.592 20.8762 87.8579 21.1384 87.1761 21.5055C86.6517 21.7677 86.1797 22.0299 85.7077 22.3446C85.2882 22.6068 84.9211 22.9215 84.6064 23.2361L84.554 23.2886C84.2918 23.5508 84.082 23.8654 83.8722 24.1276C83.7673 24.3374 83.61 24.4947 83.5051 24.7569C83.4002 24.9667 83.3478 25.2289 83.2429 25.4387C83.2429 25.4387 83.2429 25.4387 83.2429 25.4911C83.1905 25.6485 83.1905 25.8058 83.138 26.0156V26.068C83.138 26.1204 83.138 26.2253 83.138 26.3302C83.138 26.3302 83.138 26.3302 83.138 26.3827C83.138 26.54 83.138 26.6973 83.138 26.9071C83.9247 27.0644 84.7638 27.1693 85.6028 27.2742Z" fill="#EB0029"/>
  <path d="M91.3203 27.4842C91.2679 27.4842 91.2154 27.4842 91.163 27.4318C91.0057 27.3269 91.0057 27.1696 91.1105 27.0123C91.2679 26.8025 91.3728 26.5403 91.5301 26.1207C91.635 25.8585 91.7399 25.5439 91.9496 25.1768C92.5265 23.8657 93.6802 23.184 93.9949 22.9742C94.5193 22.6595 95.3059 22.3449 96.0401 22.8169C96.3023 22.9742 96.3548 23.184 96.4072 23.3413C96.4597 23.8133 95.9353 24.2852 95.8304 24.3901C95.7255 24.495 95.5157 24.495 95.4108 24.3377C95.3059 24.2328 95.3059 24.023 95.4633 23.9181C95.6206 23.7608 95.8304 23.4986 95.8304 23.3413C95.8304 23.3413 95.8304 23.2888 95.7779 23.2364C95.4108 23.0266 94.9388 23.0791 94.3095 23.3937C94.0998 23.4986 92.9985 24.1279 92.474 25.2816C92.3167 25.6487 92.1594 25.9634 92.1069 26.2256C91.9496 26.6452 91.8447 26.9598 91.635 27.222C91.5301 27.4318 91.4252 27.4842 91.3203 27.4842Z" fill="#F9E0A4"/>
  <path d="M136.994 70.1719C136.418 69.595 135.736 69.1755 135.002 68.8084C133.743 68.1791 132.38 67.812 131.016 67.4449C130.964 67.4449 130.911 67.4449 130.806 67.3925C129.495 67.1303 126.716 66.7632 124.461 66.8156C123.989 66.8156 123.097 66.9205 121.996 67.0254C120.056 67.2351 117.381 67.5498 114.654 67.5498C112.976 67.5498 111.507 67.34 110.144 67.1827C108.885 67.0254 107.732 66.8156 106.525 66.868C105.267 66.868 104.533 66.9729 103.798 67.0778C103.012 67.1827 102.278 67.2876 101.071 67.2876C99.8652 67.2876 98.3444 67.1827 96.876 67.0778C95.4076 66.9729 93.9916 66.9205 93.1001 66.9205C91.6842 66.9205 90.7402 67.0254 89.7438 67.1303C88.695 67.2351 87.4888 67.3925 85.496 67.4449C83.3458 67.4973 81.7725 67.3925 80.409 67.2876C79.3078 67.1827 78.3638 67.1303 77.3674 67.1827C76.5283 67.1827 75.7941 67.34 75.0075 67.4449C73.644 67.6547 72.228 67.8644 70.1828 67.6022C64.5714 66.868 62.4213 67.1827 60.1138 67.4973C58.9601 67.6547 57.7015 67.812 56.0233 67.8644C53.611 67.9169 52.3523 67.7596 51.1462 67.6547C50.0449 67.5498 48.996 67.4449 47.213 67.4449C45.7446 67.4449 44.9055 67.5498 44.0664 67.6547C43.1225 67.7596 42.1261 67.9169 40.1857 67.9169C39.5039 67.9169 38.7697 67.9169 38.0355 67.8644C36.2001 67.812 34.1024 67.7071 31.7424 68.0742C31.0607 68.1791 30.3789 68.284 29.7496 68.3889C28.8581 68.5462 27.9666 68.7035 27.0226 68.8084C25.9738 69.4377 25.5542 70.6963 26.5506 71.6403C27.9666 72.0074 29.5399 72.1647 31.218 72.1647C36.672 72.1123 44.0664 71.7976 52.6145 71.4305C73.4342 70.539 102.015 69.3328 121.262 71.2208C121.314 71.2208 121.314 71.2208 121.367 71.2208C121.419 71.2208 121.419 71.2208 121.419 71.2208C127.555 71.7976 131.488 73.2136 131.54 73.2136C133.638 73.7904 135.579 73.738 136.68 73.0562C137.257 72.6892 137.571 72.2172 137.729 71.5354C137.624 71.0634 137.414 70.6439 136.994 70.1719Z" fill="white"/>
  <path d="M26.969 64.9804C29.8533 66.1866 33.367 65.7146 36.1464 64.5085C36.1989 64.5085 36.2513 64.456 36.3037 64.456C37.877 63.6169 39.2405 62.5681 40.4467 61.3095C42.7017 58.8971 43.5932 56.275 43.1737 53.4431C42.9639 51.9223 42.1249 50.4539 40.8138 49.0904C40.7614 49.0379 40.3943 48.7233 39.7125 48.1464C39.1356 47.622 38.2441 46.8878 37.1953 45.9438C35.8842 44.8425 35.15 43.7937 34.9927 42.9022C34.8354 41.9058 35.2549 41.0142 36.1989 40.3325C36.8806 39.8081 37.6148 39.4934 38.5063 39.2836C38.9259 39.1787 39.3979 39.1787 39.8174 39.1787C40.4991 39.1787 41.1285 39.1263 41.7053 38.8641C42.4395 38.497 42.5444 37.7628 42.5444 37.3957C42.5444 36.2944 42.02 35.1931 41.548 34.5114C40.4991 32.8857 38.2966 32.8857 37.405 32.9381C36.2513 33.043 35.0976 33.4101 34.0487 33.8296C32.9999 34.2492 32.0035 34.6687 31.1644 35.1931C30.2729 35.7175 29.4338 36.3469 28.6471 37.0286C26.3921 39.0739 25.4482 41.3813 25.8153 43.951C26.0775 45.6816 26.8641 47.2549 28.1752 48.5659C28.2801 48.6708 28.8569 49.1953 31.6364 51.3454C32.895 52.3418 33.5767 53.3382 33.7341 54.2822C33.9963 55.7506 33.3145 57.0092 31.7937 58.0056C31.1119 58.4251 29.696 59.0544 27.5459 59.8411C26.497 60.2606 25.8677 60.9424 25.6579 61.7814C25.4482 62.7778 25.9726 63.984 26.969 64.928C26.969 64.9804 26.969 64.9804 26.969 64.9804Z" fill="white"/>
  <path d="M46.5312 41.0667C46.6361 42.3254 46.6886 43.584 46.6886 44.7377V44.7902C46.6886 45.367 46.6885 47.5172 46.741 51.7126C46.741 52.3943 46.741 52.6565 46.741 53.1285C46.741 53.5481 46.741 54.1774 46.741 55.436C46.741 58.0581 46.741 60.0509 46.7934 61.362V62.3059C46.7934 63.4072 47.3179 64.1414 48.3143 64.6134C49.3107 64.6659 50.3071 64.8756 51.3035 64.8232C52.0901 64.7707 52.8243 64.6134 53.611 64.4561C54.5549 63.9841 55.0793 63.1975 55.0269 62.2535C55.0269 61.834 54.9745 61.2571 54.922 60.5229C54.8696 59.6838 54.8171 59.107 54.8171 58.7923V58.635C54.7647 56.5897 54.7122 55.5933 54.6598 51.6601C54.6074 47.5172 54.7122 44.1609 54.922 39.1264L54.9745 38.3397C55.0269 36.8714 54.6598 35.6652 53.8732 34.8261C53.139 34.0395 51.9852 33.6724 50.5168 33.6724C48.7862 33.6724 47.4227 34.459 46.741 35.7176C46.0068 37.0811 46.1641 38.5495 46.3215 40.0179C46.4788 40.385 46.4788 40.7521 46.5312 41.0667Z" fill="white"/>
  <path d="M74.6396 62.3058H74.692C74.7969 62.3058 74.7969 62.3583 74.9018 62.5156C75.0591 62.8827 75.5311 63.8267 76.8946 64.3511C76.9471 64.3511 76.9471 64.4035 76.9471 64.4035C77.8386 64.7182 78.835 64.5609 79.7789 64.5084C80.3034 64.456 80.8802 64.456 81.4047 64.3511C81.4047 64.3511 81.4047 64.3511 81.4571 64.3511C82.9255 63.6694 82.9255 62.3583 82.9255 62.1485C82.8731 61.0997 82.7682 59.9459 82.7157 58.7922C82.5584 56.5896 82.4535 54.9115 82.4535 53.7577C82.4011 51.5027 82.4011 49.1952 82.8206 46.9927C82.8731 46.6256 82.9255 45.9962 82.4535 45.3669C81.9291 44.6327 80.9851 44.1608 79.5692 43.951C77.3142 43.5839 75.9507 44.9998 75.4787 45.4718C75.3213 45.6291 75.2689 45.6816 75.2165 45.6816C75.1116 45.6816 75.0591 45.6291 74.9542 45.5243C73.5907 44.0034 71.7028 43.2168 69.3429 43.2168C69.2905 43.2168 69.238 43.2168 69.238 43.2168C65.7768 43.2692 63.0498 44.3705 61.1094 46.4682C59.2215 48.5135 58.2775 51.2405 58.33 54.5968C58.3824 57.4811 59.3264 59.9984 61.2143 62.0436C62.2632 63.1974 63.4169 64.0364 64.728 64.5609C67.0879 64.9804 69.9198 65.0853 72.2272 64.2462C72.8565 63.8791 73.5383 63.3547 74.1152 62.7778C74.3249 62.5156 74.5347 62.3583 74.6396 62.3058ZM70.6015 58.4251H70.5491C69.2905 58.4251 68.2416 58.0056 67.3501 57.1665C66.4586 56.3274 65.9866 55.2786 65.9866 54.0199C65.9866 52.7089 66.4061 51.66 67.1928 50.821C68.0318 49.9819 69.1331 49.5623 70.4966 49.5623C71.8601 49.5623 73.0139 49.9819 73.853 50.7685C74.692 51.6076 75.164 52.6564 75.164 53.9151C75.164 55.1737 74.7445 56.275 73.9054 57.114C73.0663 57.9531 71.965 58.4251 70.6015 58.4251Z" fill="white"/>
  <path d="M103.484 61.9912C103.536 61.9912 103.589 61.9912 103.641 62.0436C103.798 62.201 103.851 62.3583 103.851 62.4632C103.903 63.1974 104.323 63.7218 105.109 64.0365C105.109 64.0365 105.162 64.0365 105.162 64.0889C106.106 64.2987 107.155 64.2462 108.099 64.2462C108.833 64.2462 109.619 64.1413 110.354 63.984C111.403 63.4596 111.507 62.5681 111.455 62.0961C111.193 59.474 111.035 55.6457 110.931 50.7161C110.878 46.7829 110.878 43.2692 110.983 40.5947V39.8605C110.983 38.8641 111.035 38.0774 111.088 37.1859C111.14 36.7664 111.14 35.298 110.144 34.1967C109.41 33.4101 108.361 33.043 106.945 33.043C105.739 33.043 104.533 33.515 103.746 34.354C103.012 35.0882 102.645 36.0846 102.697 37.2384C102.697 37.553 102.697 37.9201 102.75 38.2872C102.75 38.497 102.75 38.7068 102.802 38.969C102.907 41.0142 102.959 43.1119 102.959 44.3705C102.959 44.5279 102.959 45.0523 102.645 45.0523C102.487 45.0523 102.33 44.9474 102.068 44.6852C100.757 43.3217 98.9737 42.6399 96.6662 42.6924C93.4148 42.7448 90.7926 43.8461 88.9047 46.0487C87.1217 48.094 86.2301 50.7161 86.2826 53.8626C86.335 56.9567 87.279 59.5264 89.1669 61.5717C90.3731 62.8827 91.789 63.7742 93.4672 64.2462C94.7258 64.2462 95.932 64.456 97.1906 64.4036C98.2395 64.4036 99.3408 64.2987 100.39 64.0889C101.438 63.6694 102.382 63.0925 103.169 62.3583C103.274 62.1485 103.379 62.0436 103.484 61.9912ZM98.7639 58.058H98.7115C97.4528 58.058 96.404 57.6385 95.6173 56.747C94.8307 55.9079 94.4112 54.859 94.4112 53.6529C94.4112 52.3942 94.7783 51.3454 95.5125 50.4539C96.2467 49.5623 97.2955 49.0904 98.6066 49.0904H98.659C99.8652 49.0904 100.914 49.5099 101.806 50.4014C102.697 51.2929 103.169 52.3418 103.169 53.4955C103.169 54.7017 102.75 55.803 101.91 56.6945C101.124 57.586 100.023 58.058 98.7639 58.058Z" fill="white"/>
  <path d="M134.266 45.3144C132.116 43.3216 129.337 42.3252 125.98 42.3252C125.928 42.3252 125.876 42.3252 125.771 42.3252C122.205 42.3776 119.373 43.4265 117.327 45.5766C115.282 47.6743 114.286 50.4538 114.286 53.8101C114.338 56.9566 115.44 59.5788 117.642 61.5716C118.901 62.7253 120.422 63.5644 122.047 64.0364H122.1C124.407 64.6657 127.344 64.6657 129.599 63.9839C129.756 63.9315 129.914 63.9315 130.019 63.9315C131.749 63.4071 133.218 62.568 134.424 61.3094C136.521 59.2641 137.57 56.5371 137.518 53.2332C137.57 50.0342 136.417 47.3597 134.266 45.3144ZM129.127 56.4847C128.34 57.4286 127.292 57.9006 126.033 57.9006H125.98C124.722 57.9006 123.725 57.4286 122.886 56.5371C122.1 55.698 121.733 54.6492 121.68 53.3906C121.68 52.1844 122.047 51.1355 122.782 50.244C123.568 49.3 124.617 48.8281 125.876 48.8281H125.928C127.134 48.8281 128.131 49.3 128.917 50.1391C129.704 51.0306 130.123 52.0795 130.123 53.2857C130.228 54.5443 129.861 55.5931 129.127 56.4847Z" fill="white"/>
  <path d="M26.969 64.9804C29.8533 66.1866 33.3669 65.7146 36.1464 64.5085C36.1988 64.5085 36.2513 64.456 36.3037 64.456C37.877 63.6169 39.2405 62.5681 40.4467 61.3095C42.7017 58.8971 43.5932 56.275 43.1737 53.4431C42.9639 51.9223 42.1248 50.4539 40.8138 49.0904C40.7613 49.0379 40.3942 48.7233 39.7125 48.1464C39.1356 47.622 38.2441 46.8878 37.1952 45.9438C35.8842 44.8425 35.15 43.7937 34.9927 42.9022C34.8353 41.9058 35.2549 41.0142 36.1988 40.3325C36.8806 39.8081 37.6148 39.4934 38.5063 39.2836C38.9258 39.1787 39.3978 39.1787 39.8174 39.1787C40.4991 39.1787 41.1284 39.1263 41.7053 38.8641C42.4395 38.497 42.5444 37.7628 42.5444 37.3957C42.5444 36.2944 42.0199 35.1931 41.548 34.5114C40.4991 32.8857 38.2965 32.8857 37.405 32.9381C36.2513 33.043 35.0975 33.4101 34.0487 33.8296C32.9998 34.2492 32.0034 34.6687 31.1644 35.1931C30.2728 35.7175 29.4338 36.3469 28.6471 37.0286C26.3921 39.0739 25.4481 41.3813 25.8152 43.951C26.0774 45.6816 26.8641 47.2549 28.1751 48.5659C28.28 48.6708 28.8569 49.1953 31.6363 51.3454C32.895 52.3418 33.5767 53.3382 33.734 54.2822C33.9962 55.7506 33.3145 57.0092 31.7937 58.0056C31.1119 58.4251 29.696 59.0544 27.5458 59.8411C26.497 60.2606 25.8677 60.9424 25.6579 61.7814C25.4481 62.7778 25.9726 63.984 26.969 64.928C26.969 64.9804 26.969 64.9804 26.969 64.9804Z" fill="white"/>
  <path d="M46.5312 41.0663C46.6361 42.3249 46.6886 43.5835 46.6886 44.7372V44.7897C46.6886 45.3665 46.6885 47.5167 46.741 51.7121C46.741 52.3938 46.741 52.656 46.741 53.128C46.741 53.5476 46.741 54.1769 46.741 55.4355C46.741 58.0576 46.741 60.0504 46.7934 61.3615V62.3055C46.7934 63.4067 47.3179 64.1409 48.3143 64.6129C49.3107 64.6654 50.3071 64.8751 51.3035 64.8227C52.0901 64.7703 52.8243 64.6129 53.611 64.4556C54.5549 63.9836 55.0793 63.197 55.0269 62.253C55.0269 61.8335 54.9745 61.2566 54.922 60.5224C54.8696 59.6833 54.8171 59.1065 54.8171 58.7918V58.6345C54.7647 56.5892 54.7122 55.5928 54.6598 51.6596C54.6074 47.5167 54.7122 44.1604 54.922 39.1259L54.9745 38.3393C55.0269 36.8709 54.6598 35.6647 53.8732 34.8256C53.139 34.039 51.9852 33.6719 50.5168 33.6719C48.7862 33.6719 47.4227 34.4585 46.741 35.7171C46.0068 37.0806 46.1641 38.549 46.3215 40.0174C46.4788 40.3845 46.4788 40.7516 46.5312 41.0663Z" fill="white"/>
  <path d="M74.6396 62.3054H74.692C74.7969 62.3054 74.7969 62.3578 74.9018 62.5151C75.0591 62.8822 75.5311 63.8262 76.8946 64.3506C76.947 64.3506 76.947 64.4031 76.947 64.4031C77.8386 64.7177 78.835 64.5604 79.7789 64.5079C80.3033 64.4555 80.8802 64.4555 81.4046 64.3506C81.4046 64.3506 81.4046 64.3506 81.4571 64.3506C82.9255 63.6689 82.9255 62.3578 82.9255 62.148C82.873 61.0992 82.7681 59.9454 82.7157 58.7917C82.5584 56.5891 82.4535 54.911 82.4535 53.7572C82.401 51.5022 82.401 49.1947 82.8206 46.9922C82.873 46.6251 82.9255 45.9958 82.4535 45.3664C81.9291 44.6323 80.9851 44.1603 79.5692 43.9505C77.3141 43.5834 75.9506 44.9993 75.4786 45.4713C75.3213 45.6287 75.2689 45.6811 75.2164 45.6811C75.1115 45.6811 75.0591 45.6287 74.9542 45.5238C73.5907 44.0029 71.7028 43.2163 69.3429 43.2163C69.2904 43.2163 69.238 43.2163 69.238 43.2163C65.7768 43.2688 63.0498 44.37 61.1094 46.4677C59.2215 48.513 58.2775 51.24 58.33 54.5963C58.3824 57.4807 59.3264 59.9979 61.2143 62.0431C62.2631 63.1969 63.4169 64.036 64.7279 64.5604C67.0878 64.9799 69.9197 65.0848 72.2272 64.2457C72.8565 63.8786 73.5383 63.3542 74.1151 62.7773C74.3249 62.5151 74.5347 62.3578 74.6396 62.3054ZM70.6015 58.4246H70.549C69.2904 58.4246 68.2416 58.0051 67.3501 57.166C66.4585 56.3269 65.9866 55.2781 65.9866 54.0195C65.9866 52.7084 66.4061 51.6595 67.1927 50.8205C68.0318 49.9814 69.1331 49.5618 70.4966 49.5618C71.8601 49.5618 73.0138 49.9814 73.8529 50.768C74.692 51.6071 75.164 52.6559 75.164 53.9146C75.164 55.1732 74.7444 56.2745 73.9054 57.1136C73.0663 57.9526 71.965 58.4246 70.6015 58.4246Z" fill="white"/>
  <path d="M103.481 61.9912C103.533 61.9912 103.586 61.9912 103.638 62.0436C103.795 62.201 103.848 62.3583 103.848 62.4632C103.9 63.1974 104.32 63.7218 105.106 64.0365C105.106 64.0365 105.159 64.0365 105.159 64.0889C106.103 64.2987 107.152 64.2462 108.096 64.2462C108.83 64.2462 109.616 64.1413 110.351 63.984C111.4 63.4596 111.504 62.5681 111.452 62.0961C111.19 59.474 111.032 55.6457 110.928 50.7161C110.875 46.7829 110.875 43.2692 110.98 40.5947V39.8605C110.98 38.8641 111.032 38.0774 111.085 37.1859C111.137 36.7664 111.137 35.298 110.141 34.1967C109.407 33.4101 108.358 33.043 106.942 33.043C105.736 33.043 104.53 33.515 103.743 34.354C103.009 35.0882 102.642 36.0846 102.694 37.2384C102.694 37.553 102.694 37.9201 102.747 38.2872C102.747 38.497 102.747 38.7068 102.799 38.969C102.904 41.0142 102.956 43.1119 102.956 44.3705C102.956 44.5279 102.956 45.0523 102.642 45.0523C102.484 45.0523 102.327 44.9474 102.065 44.6852C100.754 43.3217 98.9707 42.6399 96.6632 42.6924C93.4118 42.7448 90.7896 43.8461 88.9017 46.0487C87.1187 48.094 86.2271 50.7161 86.2796 53.8626C86.332 56.9567 87.276 59.5264 89.1639 61.5717C90.3701 62.8827 91.7861 63.7742 93.4642 64.2462C94.7228 64.2462 95.929 64.456 97.1876 64.4036C98.2365 64.4036 99.3378 64.2987 100.387 64.0889C101.435 63.6694 102.379 63.0925 103.166 62.3583C103.271 62.1485 103.376 62.0436 103.481 61.9912ZM98.7609 58.058H98.7085C97.4498 58.058 96.401 57.6385 95.6144 56.747C94.8277 55.9079 94.4082 54.859 94.4082 53.6529C94.4082 52.3942 94.7753 51.3454 95.5095 50.4539C96.2437 49.5623 97.2925 49.0904 98.6036 49.0904H98.656C99.8622 49.0904 100.911 49.5099 101.803 50.4014C102.694 51.2929 103.166 52.3418 103.166 53.4955C103.166 54.7017 102.747 55.803 101.907 56.6945C101.121 57.586 100.02 58.058 98.7609 58.058Z" fill="white"/>
  <path d="M134.266 45.3144C132.116 43.3216 129.337 42.3252 125.98 42.3252C125.928 42.3252 125.876 42.3252 125.771 42.3252C122.205 42.3776 119.373 43.4265 117.327 45.5766C115.282 47.6743 114.286 50.4538 114.286 53.8101C114.338 56.9566 115.44 59.5788 117.642 61.5716C118.901 62.7253 120.422 63.5644 122.047 64.0364H122.1C124.407 64.6657 127.344 64.6657 129.599 63.9839C129.756 63.9315 129.914 63.9315 130.019 63.9315C131.749 63.4071 133.218 62.568 134.424 61.3094C136.521 59.2641 137.57 56.5371 137.518 53.2332C137.57 50.0342 136.417 47.3597 134.266 45.3144ZM129.127 56.4847C128.34 57.4286 127.292 57.9006 126.033 57.9006H125.98C124.722 57.9006 123.725 57.4286 122.886 56.5371C122.1 55.698 121.733 54.6492 121.68 53.3906C121.68 52.1844 122.047 51.1355 122.782 50.244C123.568 49.3 124.617 48.8281 125.876 48.8281H125.928C127.134 48.8281 128.131 49.3 128.917 50.1391C129.704 51.0306 130.123 52.0795 130.123 53.2857C130.228 54.5443 129.861 55.5931 129.127 56.4847Z" fill="white"/>
  <defs>
    <filter id="filter0_dd_1_3118" x="0" y="0.629883" width="163.387" height="111.63" filterUnits="userSpaceOnUse" color-interpolation-filters="sRGB">
      <feFlood flood-opacity="0" result="BackgroundImageFix"/>
      <feColorMatrix in="SourceAlpha" type="matrix" values="0 0 0 0 0 0 0 0 0 0 0 0 0 0 0 0 0 0 127 0" result="hardAlpha"/>
      <feOffset dy="4"/>
      <feGaussianBlur stdDeviation="2"/>
      <feComposite in2="hardAlpha" operator="out"/>
      <feColorMatrix type="matrix" values="0 0 0 0 0.552941 0 0 0 0 0.215686 0 0 0 0 0 0 0 0 0.17 0"/>
      <feBlend mode="normal" in2="BackgroundImageFix" result="effect1_dropShadow_1_3118"/>
      <feColorMatrix in="SourceAlpha" type="matrix" values="0 0 0 0 0 0 0 0 0 0 0 0 0 0 0 0 0 0 127 0" result="hardAlpha"/>
      <feOffset dy="1"/>
      <feGaussianBlur stdDeviation="1"/>
      <feComposite in2="hardAlpha" operator="out"/>
      <feColorMatrix type="matrix" values="0 0 0 0 0.639216 0 0 0 0 0.34902 0 0 0 0 0.0941176 0 0 0 0.71 0"/>
      <feBlend mode="normal" in2="effect1_dropShadow_1_3118" result="effect2_dropShadow_1_3118"/>
      <feBlend mode="normal" in="SourceGraphic" in2="effect2_dropShadow_1_3118" result="shape"/>
    </filter>
  </defs>
</svg>