<svg xmlns="http://www.w3.org/2000/svg" width="113" height="76" viewBox="0 0 113 76" fill="none">
  <path d="M56.517 5.30407C61.2257 5.30407 65.8977 6.0766 70.4225 7.58487L99.8889 17.5909C103.972 18.9889 106.731 22.8147 106.731 27.1556V46.7999C106.731 51.1407 103.972 54.9666 99.8889 56.3645L70.4225 66.4074C65.8977 67.9524 61.2257 68.6882 56.517 68.6882C51.8082 68.6882 47.1363 67.9156 42.6114 66.4074L13.145 56.4013C9.06163 55.0034 6.3026 51.1775 6.3026 46.8367V27.1556C6.3026 22.8147 9.06163 18.9889 13.145 17.5909L42.6114 7.58487C47.1363 6.03981 51.8082 5.30407 56.517 5.30407ZM56.517 2.14038C51.4403 2.14038 46.4005 2.98648 41.6182 4.60511L12.115 14.6112C6.74405 16.4505 3.13892 21.4904 3.13892 27.1556V46.7999C3.13892 52.4651 6.74405 57.5049 12.115 59.3443L41.5814 69.3503C46.4005 70.969 51.4036 71.8151 56.4802 71.8151C61.5568 71.8151 66.5966 70.969 71.3789 69.3503L100.845 59.3443C106.216 57.5049 109.821 52.4651 109.821 46.7999V27.1556C109.821 21.4904 106.216 16.4505 100.845 14.6112L71.4157 4.60511C66.6334 2.9497 61.5936 2.14038 56.517 2.14038Z" fill="white"/>
  <g filter="url(#filter0_dd_1_4472)">
    <path d="M56.5184 72.9923C51.2946 72.9923 46.1812 72.1462 41.2518 70.454L11.7854 60.4479C5.93621 58.4614 2 52.9801 2 46.7999V27.1556C2 20.9754 5.93621 15.4941 11.7486 13.5444L41.215 3.53831C46.1812 1.8461 51.2946 1 56.5184 1C61.7422 1 66.8556 1.8461 71.785 3.53831L101.251 13.5444C107.101 15.5309 111 21.0122 111 27.1556V46.7999C111 52.9801 107.064 58.4614 101.251 60.4111L71.785 70.4172C66.8556 72.1462 61.7422 72.9923 56.5184 72.9923ZM56.5184 3.2808C51.5521 3.2808 46.6595 4.09011 41.9875 5.67196L12.4843 15.678C7.59163 17.3702 4.2808 21.9686 4.2808 27.1556V46.7999C4.2808 51.9869 7.59163 56.5852 12.4843 58.2774L41.9507 68.2835C46.6595 69.8654 51.5521 70.6747 56.4816 70.6747C61.4479 70.6747 66.3405 69.8654 71.0125 68.2835L100.479 58.2774C105.408 56.622 108.682 51.9869 108.682 46.7999V27.1556C108.682 21.9686 105.372 17.3702 100.479 15.678L71.0125 5.67196C66.3773 4.09011 61.4846 3.2808 56.5184 3.2808ZM56.5184 69.8286C51.6625 69.8286 46.8434 69.0193 42.245 67.4742L12.7786 57.4681C8.21701 55.9231 5.16369 51.6558 5.16369 46.8367V27.1556C5.16369 22.3365 8.21701 18.0692 12.7786 16.5241L42.245 6.51806C46.8434 4.93621 51.6625 4.16369 56.5184 4.16369C61.3743 4.16369 66.1934 4.973 70.7918 6.51806L100.258 16.5241C104.82 18.0692 107.873 22.3365 107.873 27.1556V46.7999C107.873 51.619 104.82 55.8863 100.258 57.4313L70.7918 67.4742C66.1934 69.0193 61.3743 69.8286 56.5184 69.8286ZM56.5184 6.4077C51.92 6.4077 47.3584 7.14344 42.9808 8.65171L13.5143 18.6578C9.87243 19.9085 7.44448 23.293 7.44448 27.1556V46.7999C7.44448 50.6257 9.87243 54.0469 13.5143 55.2977L42.9808 65.3038C47.3584 66.7752 51.92 67.5478 56.5184 67.5478C61.1168 67.5478 65.6784 66.812 70.056 65.3038L99.5225 55.2977C103.164 54.0469 105.592 50.6625 105.592 46.7999V27.1556C105.592 23.3297 103.164 19.9085 99.5225 18.6578L70.056 8.65171C65.6784 7.18022 61.1168 6.4077 56.5184 6.4077Z" fill="white"/>
  </g>
  <path fill-rule="evenodd" clip-rule="evenodd" d="M56.5179 70.2701C51.6252 70.2701 46.7693 69.4608 42.0973 67.879L12.6309 57.8729C7.88537 56.2542 4.72168 51.803 4.72168 46.8V27.1557C4.72168 22.1526 7.92215 17.7014 12.6309 16.0828L42.0973 6.07671C46.7325 4.49486 51.5884 3.68555 56.5179 3.68555C61.4105 3.68555 66.2664 4.49486 70.9384 6.07671L100.405 16.0828C105.15 17.7014 108.314 22.1526 108.314 27.1557V46.8C108.314 51.803 105.114 56.2542 100.405 57.8729L70.9384 67.879C66.2664 69.4608 61.4473 70.2701 56.5179 70.2701Z" fill="#EB0029"/>
  <path d="M56.517 5.30407C61.2257 5.30407 65.8977 6.0766 70.4225 7.58487L99.8889 17.5909C103.972 18.9889 106.731 22.8147 106.731 27.1556V46.7999C106.731 51.1407 103.972 54.9666 99.8889 56.3645L70.4225 66.4074C65.8977 67.9524 61.2257 68.6882 56.517 68.6882C51.8082 68.6882 47.1363 67.9156 42.6114 66.4074L13.145 56.4013C9.06163 55.0034 6.3026 51.1775 6.3026 46.8367V27.1556C6.3026 22.8147 9.06163 18.9889 13.145 17.5909L42.6114 7.58487C47.1363 6.03981 51.8082 5.30407 56.517 5.30407ZM56.517 2.14038C51.4403 2.14038 46.4005 2.98648 41.6182 4.60511L12.115 14.6112C6.74405 16.4505 3.13892 21.4904 3.13892 27.1556V46.7999C3.13892 52.4651 6.74405 57.5049 12.115 59.3443L41.5814 69.3503C46.4005 70.969 51.4036 71.8151 56.4802 71.8151C61.5568 71.8151 66.5966 70.969 71.3789 69.3503L100.845 59.3443C106.216 57.5049 109.821 52.4651 109.821 46.7999V27.1556C109.821 21.4904 106.216 16.4505 100.845 14.6112L71.4157 4.60511C66.6334 2.9497 61.5936 2.14038 56.517 2.14038Z" fill="white"/>
  <path d="M56.5188 70.4906C51.5893 70.4906 46.6966 69.6813 42.0247 68.0994L12.5582 58.0934C7.73914 56.4379 4.46509 51.9131 4.46509 46.7997V27.1555C4.46509 22.0421 7.70235 17.5172 12.5582 15.8618L42.0247 5.85576C46.6966 4.27391 51.5893 3.4646 56.5188 3.4646C61.4482 3.4646 66.3409 4.27391 71.0129 5.85576L100.479 15.8618C105.298 17.5172 108.572 22.0421 108.572 27.1555V46.7997C108.572 51.9131 105.335 56.4379 100.479 58.0934L71.0129 68.0994C66.3409 69.7181 61.4482 70.4906 56.5188 70.4906ZM56.5188 3.94283C51.6261 3.94283 46.807 4.75215 42.1718 6.2972L12.7054 16.3401C8.07022 17.9219 4.94332 22.2628 4.94332 27.1555V46.7997C4.94332 51.6924 8.07022 56.0701 12.7054 57.6151L42.1718 67.6212C46.807 69.203 51.6261 69.9756 56.5188 69.9756C61.4115 69.9756 66.2306 69.1663 70.8657 67.6212L100.332 57.6151C104.967 56.0333 108.094 51.6924 108.094 46.7997V27.1555C108.094 22.2628 104.967 17.8851 100.332 16.3401L70.8657 6.33399C66.2306 4.75215 61.4115 3.94283 56.5188 3.94283Z" fill="#F9E0A4"/>
  <path d="M36.4336 58.3877L36.6911 58.0934C37.0222 58.4245 37.4636 58.6085 37.9419 58.6085C38.5672 58.6085 38.9719 58.351 38.9719 57.9463C38.9719 57.6152 38.7512 57.4313 37.9787 57.2106C37.059 56.953 36.6175 56.6955 36.6175 56.1069C36.6175 55.4816 37.1693 55.0769 37.9787 55.0769C38.4569 55.0769 38.9351 55.2241 39.303 55.5183L39.0455 55.8494C38.7512 55.5919 38.3465 55.4448 37.9419 55.4448C37.3533 55.4448 37.0222 55.7023 37.0222 56.0702C37.0222 56.4012 37.2797 56.5852 38.0522 56.8059C39.0455 57.0634 39.3766 57.3945 39.3766 57.9095C39.3766 58.5717 38.788 59.0131 37.9051 59.0131C37.3533 58.9763 36.8383 58.7556 36.4336 58.3877Z" fill="#F9E0A4"/>
  <path d="M41.7684 55.0769H41.3638V58.9028H41.7684V55.0769Z" fill="#F9E0A4"/>
  <path d="M47.1388 55.0769V58.9028H46.7341L44.4901 55.7023V58.9028H44.0854V55.0769H44.5269L46.7709 58.2774V55.0769H47.1388Z" fill="#F9E0A4"/>
  <path d="M49.1592 56.9898C49.1592 55.8494 49.8949 55.04 50.925 55.04C51.6975 55.04 52.2493 55.4447 52.47 56.1804L52.0654 56.3276C51.8814 55.739 51.4768 55.4079 50.8882 55.4079C50.0789 55.4079 49.5638 56.0333 49.5638 56.9898C49.5638 57.9462 50.1156 58.5716 50.8882 58.5716C51.4768 58.5716 51.8814 58.2773 52.0654 57.6519L52.47 57.7991C52.2493 58.498 51.6975 58.9395 50.925 58.9395C49.8581 58.9763 49.1592 58.1669 49.1592 56.9898Z" fill="#F9E0A4"/>
  <path d="M56.9213 58.5349V58.9028H54.3462V55.0769H56.8477V55.4816H54.7876V56.7691H56.4063V57.137H54.7876V58.5349H56.9213Z" fill="#F9E0A4"/>
  <path d="M63.5447 58.5348V58.9027H60.9329V58.6452L62.2204 57.4312C62.7722 56.953 63.0297 56.5483 63.0297 56.1437C63.0297 55.7022 62.7354 55.3711 62.2572 55.3711C61.7054 55.3711 61.3743 55.7022 61.3375 56.2908L60.9697 56.2172C61.0432 55.4815 61.5582 55.04 62.294 55.04C62.9929 55.04 63.4712 55.4815 63.4712 56.1437C63.4712 56.6219 63.1769 57.0633 62.4779 57.6887L61.595 58.5348H63.5447Z" fill="#F9E0A4"/>
  <path d="M65.0176 56.9898C65.0176 55.8126 65.6062 55.04 66.5258 55.04C67.4087 55.04 68.0341 55.8126 68.0341 56.9898C68.0341 58.1669 67.4455 58.9395 66.5258 58.9395C65.6062 58.9763 65.0176 58.1669 65.0176 56.9898ZM67.5927 56.9898C67.5927 55.9965 67.1512 55.3711 66.5258 55.3711C65.8637 55.3711 65.459 55.9965 65.459 56.9898C65.459 57.983 65.9005 58.6084 66.5258 58.6084C67.1512 58.6084 67.5927 57.983 67.5927 56.9898Z" fill="#F9E0A4"/>
  <path d="M70.426 56.0334H69.5063V55.7023H69.6535C70.3524 55.7023 70.5364 55.5551 70.5732 55.0769H70.8307V58.9028H70.426V56.0334Z" fill="#F9E0A4"/>
  <path d="M75.6829 57.6886C75.6829 58.4244 75.0943 58.9394 74.3585 58.9394C73.4021 58.9394 72.9238 58.0933 72.9238 56.9897C72.9238 55.8861 73.4388 55.0032 74.4689 55.0032C74.9471 55.0032 75.3518 55.1871 75.6093 55.555L75.3518 55.8125C75.131 55.5182 74.8368 55.371 74.4689 55.371C73.6964 55.371 73.2917 56.1068 73.2917 56.9897V57.1368C73.5124 56.6954 73.9171 56.4747 74.4321 56.4747C75.131 56.4747 75.6829 56.9529 75.6829 57.6886ZM75.2782 57.7254C75.2782 57.1736 74.8735 56.8425 74.3585 56.8425C73.8435 56.8425 73.4388 57.2104 73.4388 57.7254C73.4388 58.2404 73.8435 58.6083 74.3585 58.6083C74.8735 58.6083 75.2782 58.2404 75.2782 57.7254Z" fill="#F9E0A4"/>
  <path d="M61.3761 22.5573C61.229 22.5573 61.0818 22.5573 60.9715 22.5573H60.9347C60.1622 22.5205 58.6171 22.263 57.9917 22.0791C57.4031 21.8951 56.2995 21.8584 55.4902 21.9687C54.0187 22.1894 52.5104 21.6376 51.9219 21.2698C51.8115 21.1962 51.8115 21.0858 51.8483 20.9755C51.9219 20.8651 52.0322 20.8651 52.1426 20.9019C52.5104 21.1226 53.9084 21.748 55.4534 21.5273C56.3363 21.3801 57.4767 21.4537 58.1389 21.6376C58.7275 21.8216 60.2357 22.0791 60.9715 22.0791H61.0083C61.5233 22.0791 62.5533 22.1159 62.958 21.7112C63.1051 21.5641 63.1787 21.3801 63.1787 21.1594C63.1787 20.3133 62.1487 20.0926 60.7875 19.9454C60.6404 19.9454 60.53 19.9086 60.4197 19.9086C60.1254 19.8719 59.8679 19.8351 59.5368 19.7983C58.5435 19.7247 57.4399 19.6143 56.2627 18.9522C56.042 18.8418 55.8581 18.7315 55.6741 18.6211C54.6073 17.9957 53.9451 17.6278 52.2162 17.3703C50.2664 17.076 46.7349 19.0625 46.5142 19.1729C46.4038 19.2465 45.6313 19.7247 43.9758 19.8351C43.8655 19.8351 43.7551 19.7615 43.7551 19.6511C43.7551 19.5408 43.8287 19.4304 43.9391 19.4304C45.5577 19.32 46.2566 18.8418 46.2566 18.8418C46.2566 18.8418 46.2566 18.8418 46.2934 18.8418C46.4406 18.7682 50.1193 16.6714 52.2529 17.0025C54.0923 17.26 54.7545 17.6646 55.8949 18.29C56.0788 18.4004 56.2627 18.5107 56.4835 18.6211C57.5871 19.2465 58.6171 19.32 59.6104 19.4304C59.9046 19.4672 60.1989 19.504 60.4932 19.5408C60.6036 19.5408 60.7507 19.5776 60.8611 19.5776C62.0751 19.7247 63.5833 19.9454 63.5833 21.1962C63.5833 21.5273 63.473 21.8216 63.2523 22.0423C62.8108 22.5205 62.0015 22.5573 61.3761 22.5573Z" fill="#F9E0A4"/>
  <path d="M56.6678 25.4268C56.1528 25.4268 55.4539 25.2061 54.6446 24.8014C53.9824 24.4704 52.4005 23.9553 50.083 23.7346C47.8757 23.5139 45.8524 23.9553 45.8157 23.9553C45.7053 23.9921 45.5949 23.9186 45.5582 23.8082C45.5214 23.6978 45.5949 23.5875 45.7053 23.5507C45.7789 23.5139 47.8022 23.0724 50.083 23.33C52.4741 23.5875 54.0927 24.1025 54.7917 24.4336C55.5642 24.8382 56.2264 25.0589 56.6678 25.0222C57.3668 24.9854 57.9922 24.8382 58.4336 24.6175C59.0222 24.3232 60.4937 23.7346 61.2294 23.5507C61.6709 23.4403 63.0688 23.0724 63.5838 22.0792C63.8045 21.6745 63.9517 21.2699 64.0988 20.8652C64.3195 20.2398 64.5771 19.5777 65.0553 18.8787C65.2392 18.5844 65.3864 18.3637 65.5335 18.143C65.9382 17.5544 66.1589 17.2233 66.0485 17.0394C66.0118 16.9658 65.9014 16.8922 65.791 16.8922C65.5335 16.8554 65.2024 16.8922 64.9081 17.1129C64.6874 17.2969 64.3563 17.7383 64.062 18.143C63.6574 18.658 63.2527 19.2098 62.9584 19.4305C62.8113 19.5409 62.7009 19.6145 62.6273 19.688C62.2963 19.9456 62.1123 20.0927 61.818 20.1663C61.7077 20.2031 61.5973 20.0927 61.5973 19.9823C61.5605 19.872 61.6709 19.7616 61.7812 19.7616C61.9652 19.7248 62.1123 19.6145 62.4066 19.3937C62.517 19.3202 62.6273 19.2098 62.7745 19.0994C63.032 18.9155 63.4367 18.3637 63.8045 17.8855C64.1356 17.4072 64.4667 16.9658 64.7242 16.7819C65.0553 16.4876 65.5335 16.3772 65.9382 16.4508C66.1957 16.4876 66.4164 16.6347 66.49 16.8187C66.7107 17.2233 66.4164 17.628 65.9382 18.3269C65.791 18.5476 65.6439 18.7684 65.4599 19.0627C65.0185 19.7616 64.7978 20.387 64.5403 20.9756C64.3931 21.417 64.2092 21.8217 63.9885 22.2631C63.3631 23.4403 61.8548 23.8082 61.3398 23.9553C60.6041 24.1393 59.1694 24.6911 58.6175 24.9854C58.1025 25.2429 57.4404 25.39 56.6678 25.4268C56.7046 25.4268 56.7046 25.4268 56.6678 25.4268Z" fill="#F9E0A4"/>
  <path d="M62.7376 19.6144C62.7008 19.6144 62.664 19.6144 62.6272 19.5776C62.5169 19.504 62.4801 19.3937 62.5537 19.2833C62.5537 19.2833 62.848 18.8051 62.9215 17.959C63.0319 17.0393 63.5469 16.3036 63.8044 16.0461C64.0251 15.8621 64.4298 15.715 64.7609 15.7518C64.9816 15.7886 65.1655 15.8989 65.2759 16.0461C65.3495 16.1564 65.3127 16.2668 65.2391 16.3404C65.1287 16.4139 65.0184 16.3771 64.9448 16.3036C64.908 16.23 64.8345 16.1932 64.7241 16.1932C64.5034 16.1564 64.2091 16.2668 64.0987 16.3771C63.9148 16.5243 63.4365 17.1497 63.363 17.9958C63.2526 18.9155 62.9215 19.4673 62.9215 19.4673C62.848 19.5776 62.8112 19.6144 62.7376 19.6144Z" fill="#F9E0A4"/>
  <path d="M62.7369 22.2997C62.553 22.2997 62.3323 22.2629 61.9276 22.2261C61.3758 22.1525 60.9712 21.895 60.824 21.7111C60.6769 21.5271 60.7136 21.196 60.7504 20.9753C60.7504 20.9385 60.7504 20.9017 60.7504 20.9017C60.7872 20.4603 61.0815 20.2028 61.5597 20.166C62.1116 20.1292 62.9209 20.166 62.9577 20.166C63.068 20.166 63.1416 20.2764 63.1416 20.3867C63.1416 20.4971 63.0312 20.5707 62.9209 20.5707C62.9209 20.5707 62.0748 20.5339 61.5597 20.5707C61.2287 20.6075 61.1551 20.7546 61.1551 20.9385C61.1551 20.9753 61.1551 21.0121 61.1551 21.0121C61.1551 21.1225 61.1183 21.38 61.1551 21.4536C61.2287 21.5639 61.523 21.7479 62.0012 21.8214C62.4794 21.895 62.7369 21.9318 62.8841 21.895C62.9944 21.8582 63.1048 21.9686 63.1048 22.0789C63.1416 22.1893 63.0312 22.2997 62.9209 22.2997C62.8841 22.2997 62.8105 22.2997 62.7369 22.2997Z" fill="#F9E0A4"/>
  <path d="M58.7637 18.4372C58.7637 18.4372 60.1249 16.9657 58.8741 14.7585C57.6233 12.5513 54.6804 11.3005 54.6804 11.3005C54.6804 11.3005 54.2757 14.4642 55.5265 16.6714C56.814 18.8787 58.7637 18.4372 58.7637 18.4372Z" fill="#F9E0A4"/>
  <path d="M58.3588 18.6947C57.6599 18.6947 56.2988 18.4739 55.3423 16.7817C54.0548 14.5377 54.4226 11.4108 54.4594 11.3005C54.4594 11.2269 54.4962 11.1901 54.5698 11.1533C54.6434 11.1165 54.6801 11.1165 54.7537 11.1533C54.8641 11.1901 57.7703 12.4777 59.0578 14.6849C60.3821 17.0025 58.9474 18.5843 58.9107 18.5843C58.8739 18.6211 58.8371 18.6211 58.8003 18.6579C58.8003 18.6579 58.6531 18.6947 58.3588 18.6947ZM54.8641 11.6316C54.7905 12.4409 54.7169 14.832 55.7102 16.5978C56.777 18.4372 58.3221 18.3268 58.6531 18.29C58.8739 18.0325 59.7568 16.745 58.6899 14.9056C57.6967 13.1398 55.5998 11.9994 54.8641 11.6316Z" fill="#EB0029"/>
  <path d="M57.7721 18.4372C57.7721 18.4372 56.411 16.9657 57.6617 14.7585C58.9125 12.5513 61.8554 11.3005 61.8554 11.3005C61.8554 11.3005 62.2601 14.4642 61.0093 16.6714C59.7218 18.8787 57.7721 18.4372 57.7721 18.4372Z" fill="#F9E0A4"/>
  <path d="M58.176 18.6947C57.9185 18.6947 57.7345 18.6579 57.7345 18.6579C57.6978 18.6579 57.661 18.6211 57.6242 18.5843C57.6242 18.5843 56.1527 16.9657 57.477 14.6849C58.7646 12.4409 61.634 11.1901 61.7811 11.1533C61.8547 11.1165 61.8915 11.1165 61.9651 11.1533C62.0386 11.1901 62.0754 11.2269 62.0754 11.3005C62.0754 11.4476 62.4801 14.5377 61.1925 16.7817C60.2361 18.4739 58.8749 18.6947 58.176 18.6947ZM57.8817 18.2532C58.2128 18.29 59.7578 18.4004 60.8247 16.561C61.8179 14.832 61.7443 12.4409 61.6708 11.5948C60.935 11.9626 58.8382 13.103 57.8449 14.832C56.7781 16.745 57.661 17.9957 57.8817 18.2532Z" fill="#EB0029"/>
  <path d="M64.2455 16.4506C64.2087 16.4506 64.1351 16.4138 64.0248 16.377C63.8776 16.3402 63.7305 16.3034 63.5098 16.2666C63.2522 16.2298 62.9579 16.1563 62.6637 16.1195C62.259 16.0827 61.8176 16.0459 61.3393 16.0459C60.8243 16.0459 60.3093 16.0827 59.7943 16.193C59.6471 16.2298 59.5368 16.2666 59.3896 16.3034C59.316 16.3402 59.2425 16.3402 59.2057 16.377C59.0217 16.4506 58.8746 16.4873 58.7274 16.5609C58.5067 16.6713 58.3228 16.7816 58.1756 16.892C58.0285 17.0024 57.8813 17.1495 57.771 17.2599C57.6238 17.4438 57.5135 17.591 57.4031 17.7749C57.3663 17.8485 57.2927 17.9588 57.256 18.0324C57.2192 18.106 57.1824 18.1428 57.1824 18.2163C57.1088 18.4003 57.072 18.5474 57.072 18.6946C57.1456 18.7314 57.2192 18.7681 57.2927 18.7681C57.9549 19.0256 58.6171 19.0992 59.2425 19.1728C59.3528 19.1728 59.5 19.2096 59.6103 19.2096C59.8311 19.2464 60.0518 19.2464 60.2725 19.2832C60.3461 19.2832 60.7875 19.3567 60.8611 19.3567C60.9715 19.3567 61.045 19.3935 61.1554 19.3935C61.56 19.1728 61.9279 18.9153 62.259 18.6578C62.4797 18.4738 62.6637 18.3267 62.8476 18.1428C63.0683 17.922 63.289 17.7381 63.4362 17.5174C63.5098 17.4438 63.5833 17.3334 63.6569 17.2599C64.0616 16.8184 64.2823 16.4873 64.2823 16.4873C64.2823 16.4873 64.2823 16.4873 64.2455 16.4506Z" fill="#F9E0A4"/>
  <path d="M61.1554 19.6142L60.8243 19.5774C60.714 19.5774 60.3093 19.5038 60.2357 19.5038C60.015 19.467 59.7943 19.467 59.5736 19.4302C59.4632 19.4302 59.3161 19.3935 59.2057 19.3935H59.1689C58.5803 19.3199 57.9182 19.2463 57.1824 18.9888C57.1088 18.952 57.0353 18.952 56.9617 18.9152C56.8881 18.8784 56.8146 18.7681 56.8513 18.6945C56.8881 18.5474 56.9249 18.3634 56.9985 18.1795C57.0353 18.1059 57.0353 18.0691 57.0721 17.9956C57.1088 17.922 57.1456 17.8116 57.2192 17.7013C57.3296 17.5173 57.4767 17.3334 57.6239 17.1495L57.6607 17.1127C57.8078 16.9655 57.9549 16.8552 58.1021 16.7448C58.286 16.5976 58.47 16.4873 58.6907 16.3769C58.8378 16.3033 58.985 16.2298 59.1689 16.1562C59.2425 16.1194 59.3161 16.1194 59.3896 16.0826C59.5368 16.0458 59.6839 16.0091 59.7943 15.9723C60.2725 15.8619 60.8243 15.7883 61.3761 15.7883C61.7808 15.7883 62.2222 15.8251 62.7005 15.8619C62.9948 15.8987 63.2523 15.9355 63.5466 16.0091C63.7673 16.0458 63.9144 16.0826 64.0616 16.1194C64.0616 16.1194 64.0616 16.1194 64.0984 16.1194C64.172 16.1562 64.2455 16.1562 64.2823 16.1562C64.3191 16.1562 64.3191 16.1562 64.3559 16.1562C64.3927 16.1562 64.3927 16.1562 64.3927 16.1562C64.4663 16.193 64.503 16.2298 64.503 16.3033C64.5398 16.3769 64.503 16.4137 64.4663 16.4873C64.4663 16.4873 64.2455 16.8184 63.8409 17.2966C63.8409 17.2966 63.8409 17.2966 63.8409 17.3334C63.8041 17.407 63.7305 17.4437 63.6937 17.5173L63.6202 17.5909C63.3994 17.8116 63.2155 18.0323 62.9948 18.2163C62.8108 18.4002 62.5901 18.5841 62.3694 18.7681C62.0015 19.0624 61.6337 19.3199 61.2658 19.5038C61.229 19.6142 61.1922 19.6142 61.1554 19.6142ZM59.2425 18.9888C59.3529 18.9888 59.5 19.0256 59.6104 19.0256C59.8311 19.0624 60.0518 19.0624 60.2725 19.0992C60.3461 19.0992 60.7876 19.1727 60.8611 19.1727L61.0818 19.2095C61.4129 19.0256 61.744 18.8049 62.0751 18.5474C62.259 18.4002 62.4798 18.2163 62.6637 18.0323C62.8476 17.8484 63.0683 17.6277 63.2523 17.407L63.3259 17.3334C63.3626 17.2598 63.4362 17.223 63.473 17.1862C63.473 17.1862 63.473 17.1495 63.5098 17.1495C63.6937 16.9287 63.8409 16.7448 63.9512 16.6344C63.8041 16.5976 63.6569 16.5609 63.4362 16.5241C63.1419 16.4505 62.8476 16.4137 62.5901 16.3769C62.1119 16.3033 61.7072 16.3033 61.3026 16.3033C60.7875 16.3033 60.2725 16.3401 59.8311 16.4505C59.7207 16.4873 59.5736 16.5241 59.4632 16.5609C59.3896 16.5976 59.3529 16.5976 59.2793 16.6344C59.1321 16.708 58.985 16.7448 58.8378 16.8184C58.6539 16.8919 58.47 17.0023 58.3228 17.1495C58.1757 17.2598 58.0653 17.3702 57.9182 17.5173C57.9182 17.5173 57.9182 17.5173 57.8814 17.5541C57.771 17.7013 57.6607 17.8484 57.5503 17.9956C57.5135 18.0691 57.4767 18.1427 57.4399 18.2163V18.2531C57.4031 18.3266 57.4031 18.3634 57.3664 18.4002C57.3296 18.5106 57.2928 18.5841 57.2928 18.6577H57.3296C57.9917 18.8417 58.6171 18.9152 59.2425 18.9888Z" fill="#EB0029"/>
  <path d="M59.3149 19.0624C59.3149 19.0624 59.2781 19.0992 59.2046 19.1728C58.5792 19.0992 57.917 19.0256 57.2548 18.7681C57.1813 18.7314 57.1077 18.7314 57.0341 18.6946C56.8502 18.621 56.6663 18.5106 56.4823 18.4371C56.2616 18.3267 56.0777 18.2163 55.8937 18.106C55.4155 17.8117 55.0108 17.591 54.5326 17.3702C53.944 17.1127 53.2818 16.892 52.2886 16.7449C52.1414 16.5609 52.0679 16.4873 52.0679 16.4873C52.0679 16.4873 52.8772 16.2298 53.944 16.1195C54.3487 16.0827 54.7901 16.0459 55.2683 16.0459C55.7834 16.0459 56.3352 16.1195 56.8502 16.2666C56.9605 16.3034 57.0709 16.3402 57.1813 16.377C57.402 16.4506 57.6227 16.5609 57.8066 16.6713C57.9538 16.7449 58.1009 16.8184 58.2113 16.9288C58.3952 17.0759 58.5792 17.2231 58.6895 17.3702C58.8735 17.591 59.0206 17.8117 59.0942 17.9956C59.131 18.106 59.1678 18.2163 59.2046 18.2899C59.2781 18.4738 59.2781 18.621 59.3149 18.7314C59.3149 18.9521 59.3149 19.0624 59.3149 19.0624Z" fill="#F9E0A4"/>
  <path d="M59.2055 19.3935C59.1687 19.3935 59.1687 19.3935 59.2055 19.3935C58.6169 19.32 57.9179 19.2464 57.1822 18.9889C57.1086 18.9521 57.035 18.9521 56.9615 18.9153C56.7775 18.8417 56.5568 18.7314 56.3729 18.621C56.1889 18.5106 55.9682 18.4003 55.7843 18.2899L55.6371 18.2163C55.1957 17.9588 54.8278 17.7381 54.4232 17.591C53.9081 17.3702 53.246 17.1495 52.2159 17.0024C52.1792 17.0024 52.1056 16.9656 52.0688 16.9288C51.9584 16.7816 51.8849 16.7081 51.8849 16.7081C51.8481 16.6713 51.8113 16.5977 51.8113 16.5241C51.8113 16.4506 51.8849 16.377 51.9584 16.377C51.9952 16.377 52.7677 16.1195 53.8714 16.0091C54.3496 15.9723 54.791 15.9355 55.1957 15.9355C55.7843 15.9355 56.3361 16.0091 56.8143 16.1563C56.9247 16.1931 57.035 16.2298 57.1454 16.2666C57.1454 16.2666 57.1454 16.2666 57.1822 16.2666C57.4397 16.3402 57.6236 16.4506 57.8444 16.5609C57.9915 16.6345 58.1387 16.7449 58.2858 16.8184C58.4697 16.9656 58.6537 17.1127 58.8008 17.2967C58.9848 17.5174 59.1319 17.7381 59.2423 17.9956C59.2791 18.106 59.3526 18.2163 59.3894 18.3267C59.4262 18.4739 59.463 18.6578 59.4998 18.8049C59.5366 18.9889 59.5366 19.136 59.5366 19.136C59.5366 19.1728 59.5366 19.2096 59.4998 19.2464C59.4998 19.2464 59.463 19.32 59.3526 19.3935C59.2791 19.3567 59.2423 19.3935 59.2055 19.3935ZM52.5102 16.5609C53.4667 16.7081 54.0921 16.9656 54.6071 17.1495C55.0485 17.3335 55.4164 17.5542 55.8579 17.8117L56.005 17.8853C56.2257 17.9956 56.4097 18.106 56.5936 18.2163C56.7775 18.3267 56.9615 18.4003 57.1454 18.4739C57.219 18.5106 57.2926 18.5106 57.3293 18.5474C57.9547 18.7682 58.5433 18.8785 59.1319 18.9153C59.1319 18.8785 59.1319 18.8049 59.0951 18.7314C59.0583 18.5842 59.0583 18.4371 58.9848 18.3267C58.948 18.2531 58.9112 18.1428 58.8744 18.0324C58.764 17.8117 58.6537 17.6278 58.5065 17.4438C58.3594 17.2967 58.2122 17.1495 58.0283 17.0024C57.9179 16.9288 57.7708 16.8184 57.6604 16.7449C57.4765 16.6345 57.2926 16.5609 57.1086 16.4874C57.1086 16.4874 57.1086 16.4874 57.0718 16.4874C56.9615 16.4506 56.8511 16.4138 56.7407 16.377C56.2625 16.2298 55.7843 16.1931 55.2325 16.1563C54.8278 16.1563 54.4232 16.1563 53.9449 16.2298C53.3563 16.377 52.8413 16.4874 52.5102 16.5609Z" fill="#EB0029"/>
  <path d="M58.2855 17.5543C58.2855 17.5543 60.1984 16.9658 60.1984 14.4274C60.1984 11.8891 58.2855 9.35083 58.2855 9.35083C58.2855 9.35083 56.3726 11.8891 56.3726 14.4274C56.3358 16.9658 58.2855 17.5543 58.2855 17.5543Z" fill="#F9E0A4"/>
  <path d="M58.2862 17.7382C58.2495 17.7382 58.2495 17.7382 58.2127 17.7382C58.1759 17.7382 56.1526 17.0761 56.1526 14.3906C56.1526 11.8155 58.0287 9.2772 58.1023 9.16684C58.1391 9.13005 58.2127 9.09326 58.2494 9.09326C58.323 9.09326 58.3598 9.13005 58.3966 9.16684C58.4702 9.2772 60.3463 11.7787 60.3463 14.3906C60.3463 17.0393 58.323 17.7014 58.2862 17.7382ZM58.2862 9.68185C57.8448 10.344 56.594 12.4041 56.594 14.3906C56.594 16.4875 57.9919 17.1864 58.323 17.2968C58.6541 17.1864 60.0152 16.4875 60.0152 14.3906C59.9784 12.4041 58.7277 10.3808 58.2862 9.68185Z" fill="#EB0029"/>
  <path d="M59.3163 18.2533C59.3163 18.0694 59.2795 17.8487 59.2427 17.6279C59.2059 17.444 59.1323 17.2601 59.0588 17.0761C58.9852 16.8922 58.8748 16.7083 58.7645 16.5611C58.6541 16.3772 58.507 16.1932 58.323 16.0093C58.2862 15.9725 58.2862 15.9725 58.2495 15.9357C57.9919 15.6782 57.7344 15.4575 57.4401 15.2736C57.1091 15.0528 56.7412 14.8321 56.4101 14.685C55.8583 14.3907 55.2697 14.2067 54.7547 14.0596C53.9086 13.8021 53.2832 13.7285 53.2832 13.7285C53.2832 13.7285 53.4304 14.8321 53.9454 16.1197C54.0925 16.5243 54.3132 16.9658 54.534 17.3704C55.0122 17.5544 55.4169 17.8119 55.8951 18.1062C56.079 18.2165 56.263 18.3269 56.4837 18.4373C56.6676 18.5476 56.8516 18.6212 57.0355 18.6948C57.1091 18.7316 57.1826 18.7683 57.2562 18.7683C57.9184 19.0259 58.5805 19.0994 59.2059 19.173C59.2059 19.173 59.2059 19.173 59.2059 19.1362C59.2427 19.0259 59.2795 18.8787 59.2795 18.7316C59.3163 18.6212 59.3163 18.4373 59.3163 18.2533Z" fill="#F9E0A4"/>
  <path d="M59.2046 19.3936C59.1679 19.3936 59.1679 19.3936 59.1679 19.3936C58.5793 19.32 57.9171 19.2464 57.1814 18.9889C57.1078 18.9521 57.0342 18.9521 56.9606 18.9153C56.7767 18.8418 56.556 18.7314 56.372 18.621C56.1881 18.5107 55.9674 18.4003 55.7834 18.29L55.6363 18.2164C55.1949 17.9589 54.827 17.7382 54.4223 17.591C54.3855 17.591 54.3487 17.5542 54.312 17.5174C54.0912 17.1496 53.8705 16.7081 53.6866 16.2299C53.1716 14.9423 53.0244 13.8387 53.0244 13.8019C53.0244 13.7284 53.0244 13.6548 53.098 13.618C53.1348 13.5812 53.2083 13.5444 53.2819 13.5444C53.3187 13.5444 53.9073 13.6548 54.7902 13.8755C55.4156 14.0595 55.9674 14.2802 56.4824 14.5377C56.8871 14.7216 57.2181 14.9423 57.5492 15.1631C57.8435 15.3838 58.1378 15.6045 58.3585 15.8252L58.4321 15.8988C58.616 16.1195 58.8 16.3035 58.9103 16.4874C59.0207 16.6713 59.1311 16.8553 59.2414 17.0392C59.315 17.2599 59.3886 17.4439 59.4621 17.6278C59.4989 17.8485 59.5357 18.0692 59.5725 18.29C59.5725 18.4739 59.5725 18.6578 59.5357 18.805C59.4989 18.9521 59.4989 19.0993 59.4621 19.2464C59.4621 19.2832 59.4254 19.3568 59.3886 19.3936C59.315 19.3936 59.2414 19.3936 59.2046 19.3936ZM54.6798 17.1864C55.0845 17.3703 55.4524 17.591 55.8938 17.8117L56.041 17.8853C56.2249 17.9957 56.4456 18.106 56.6295 18.2164C56.8135 18.3268 56.9974 18.4003 57.1814 18.4739C57.2549 18.5107 57.3285 18.5107 57.3653 18.5475C57.9907 18.7682 58.5425 18.8786 59.0943 18.9153C59.0943 18.8418 59.1311 18.7682 59.1311 18.6946C59.1311 18.5475 59.1679 18.4003 59.1311 18.2532C59.1311 18.0692 59.0943 17.8853 59.0575 17.7014C59.0207 17.5542 58.9471 17.3703 58.8736 17.1864C58.8 17.0024 58.6896 16.8553 58.5793 16.7081C58.4689 16.5242 58.3218 16.377 58.1378 16.1931L58.0642 16.1195C57.8435 15.8988 57.586 15.6781 57.2917 15.4941C56.9974 15.2734 56.6295 15.0895 56.2617 14.9056C55.7834 14.648 55.2684 14.4641 54.643 14.2802C54.1648 14.133 53.7602 14.0595 53.5026 13.9859C53.5762 14.3905 53.7602 15.1631 54.0912 16.046C54.2752 16.4506 54.4591 16.8553 54.6798 17.1864Z" fill="#EB0029"/>
  <path d="M63.2899 13.7285C63.2899 13.7285 63.1428 14.8321 62.6277 16.1197C62.2967 17.0026 61.7816 17.9222 61.0459 18.658C60.7884 18.9155 60.5309 19.1362 60.2734 19.2834C60.0527 19.2466 59.8319 19.2466 59.6112 19.2098C59.5008 19.2098 59.3537 19.173 59.2433 19.173C58.618 19.0994 57.9558 19.0258 57.2936 18.7683C57.2568 18.6212 57.2568 18.4373 57.2568 18.2533C57.2568 18.1797 57.2568 18.1062 57.2568 18.0326C57.2568 17.9222 57.2936 17.7751 57.3304 17.6279C57.3672 17.444 57.4408 17.2601 57.5143 17.0761C57.5879 16.929 57.6615 16.7818 57.7719 16.6347C57.919 16.414 58.0662 16.23 58.2869 16.0093C58.2869 15.9725 58.3237 15.9725 58.3604 15.9357C58.618 15.6782 58.8755 15.4575 59.1698 15.2736C59.5008 15.0528 59.8687 14.8321 60.2366 14.6482C60.8252 14.3539 61.377 14.17 61.892 14.0228C62.6645 13.8021 63.2899 13.7285 63.2899 13.7285Z" fill="#F9E0A4"/>
  <path d="M60.2723 19.5039C60.2355 19.5039 60.2355 19.5039 60.2723 19.5039C60.0148 19.4671 59.7941 19.4671 59.5734 19.4304C59.4262 19.4304 59.3159 19.3936 59.2055 19.3936H59.1687C58.5801 19.32 57.918 19.2464 57.1822 18.9889C57.1087 18.9521 57.0719 18.9153 57.0351 18.8418C56.9983 18.6578 56.9983 18.4739 56.9983 18.29C56.9983 18.2164 56.9983 18.1428 56.9983 18.0692C56.9983 17.9221 57.0351 17.7749 57.0719 17.6646C57.1087 17.4806 57.1822 17.2967 57.2558 17.076C57.3294 16.8921 57.4397 16.7449 57.5133 16.5978C57.6605 16.377 57.8444 16.1563 58.0283 15.9356C58.0651 15.8988 58.0651 15.8988 58.1019 15.862C58.3594 15.6045 58.6169 15.3838 58.948 15.1631C59.2791 14.9423 59.647 14.7216 60.0148 14.5377C60.5298 14.2802 61.0817 14.0595 61.6702 13.8755C61.6702 13.8755 61.6702 13.8755 61.707 13.8755C62.5531 13.618 63.1417 13.5444 63.1785 13.5444C63.2521 13.5444 63.3257 13.5444 63.3625 13.618C63.3992 13.6548 63.436 13.7284 63.436 13.8019C63.436 13.8387 63.2521 14.9791 62.7371 16.2667C62.2956 17.3703 61.7438 18.2164 61.1184 18.8786C60.8609 19.1361 60.6034 19.3568 60.3091 19.5407C60.3459 19.5039 60.3091 19.5039 60.2723 19.5039ZM59.2423 18.9889C59.3527 18.9889 59.463 19.0257 59.6102 19.0257C59.8309 19.0625 60.0148 19.0625 60.2356 19.0993C60.4563 18.9521 60.7138 18.7682 60.9345 18.5475C61.5231 17.9589 62.0381 17.1128 62.4796 16.0827C62.8106 15.1999 62.9946 14.4273 63.1049 14.0227C62.8474 14.0595 62.4428 14.1698 61.9645 14.317C61.9645 14.317 61.9645 14.317 61.9278 14.317C61.3392 14.5009 60.8241 14.6848 60.3459 14.9423C59.978 15.1263 59.647 15.3102 59.3159 15.5309C59.0216 15.7149 58.7641 15.9356 58.5433 16.1563L58.5066 16.1931C58.3226 16.377 58.1755 16.5978 58.0283 16.7817C57.9548 16.9288 57.8444 17.0392 57.7708 17.2231C57.6972 17.3703 57.6605 17.5542 57.5869 17.7014C57.5869 17.7014 57.5869 17.7014 57.5869 17.7382C57.5501 17.8485 57.5501 17.9589 57.5133 18.106V18.1428C57.5133 18.1796 57.5133 18.2532 57.5133 18.3268C57.5133 18.3268 57.5133 18.3268 57.5133 18.3635C57.5133 18.4739 57.5133 18.5843 57.5133 18.7314C58.0651 18.8418 58.6537 18.9153 59.2423 18.9889Z" fill="#EB0029"/>
  <path d="M63.2529 19.1362C63.2161 19.1362 63.1793 19.1362 63.1425 19.0995C63.0321 19.0259 63.0321 18.9155 63.1057 18.8052C63.2161 18.658 63.2897 18.4741 63.4 18.1798C63.4736 17.9958 63.5472 17.7751 63.6943 17.5176C64.099 16.5979 64.9083 16.1197 65.129 15.9726C65.4969 15.7518 66.0487 15.5311 66.5637 15.8622C66.7476 15.9726 66.7844 16.1197 66.8212 16.2301C66.858 16.5611 66.4901 16.8922 66.4166 16.9658C66.343 17.0394 66.1958 17.0394 66.1223 16.929C66.0487 16.8554 66.0487 16.7083 66.159 16.6347C66.2694 16.5244 66.4166 16.3404 66.4166 16.2301C66.4166 16.2301 66.4166 16.1933 66.3798 16.1565C66.1223 16.0093 65.7912 16.0461 65.3497 16.2668C65.2026 16.3404 64.4301 16.7819 64.0622 17.5912C63.9518 17.8487 63.8415 18.0694 63.8047 18.2534C63.6943 18.5476 63.6207 18.7684 63.4736 18.9523C63.4 19.0995 63.3264 19.1362 63.2529 19.1362Z" fill="#F9E0A4"/>
  <path d="M95.2923 49.0806C94.8876 48.6759 94.4094 48.3816 93.8944 48.1241C93.0115 47.6827 92.055 47.4252 91.0986 47.1676C91.0618 47.1676 91.025 47.1676 90.9514 47.1309C90.0317 46.9469 88.082 46.6894 86.5002 46.7262C86.1691 46.7262 85.5437 46.7998 84.7712 46.8733C83.4101 47.0205 81.5339 47.2412 79.621 47.2412C78.4438 47.2412 77.4138 47.0941 76.4573 46.9837C75.5744 46.8733 74.7651 46.7262 73.919 46.763C73.0361 46.763 72.5211 46.8366 72.0061 46.9101C71.4543 46.9837 70.9393 47.0573 70.0932 47.0573C69.2471 47.0573 68.1802 46.9837 67.1502 46.9101C66.1202 46.8366 65.1269 46.7998 64.5015 46.7998C63.5083 46.7998 62.8461 46.8733 62.1472 46.9469C61.4114 47.0205 60.5653 47.1309 59.1674 47.1676C57.6591 47.2044 56.5555 47.1309 55.5991 47.0573C54.8265 46.9837 54.1644 46.9469 53.4654 46.9837C52.8768 46.9837 52.3618 47.0941 51.81 47.1676C50.8535 47.3148 49.8603 47.4619 48.4256 47.278C44.4894 46.763 42.9811 46.9837 41.3625 47.2044C40.5531 47.3148 39.6703 47.4252 38.4931 47.4619C36.8009 47.4987 35.918 47.3884 35.0719 47.3148C34.2993 47.2412 33.5636 47.1676 32.3128 47.1676C31.2828 47.1676 30.6942 47.2412 30.1056 47.3148C29.4435 47.3884 28.7445 47.4987 27.3834 47.4987C26.9051 47.4987 26.3901 47.4987 25.8751 47.4619C24.5876 47.4252 23.1161 47.3516 21.4607 47.6091C20.9824 47.6827 20.5042 47.7562 20.0627 47.8298C19.4374 47.9402 18.812 48.0505 18.1498 48.1241C17.4141 48.5656 17.1198 49.4484 17.8187 50.1106C18.812 50.3681 19.9156 50.4785 21.0928 50.4785C24.9186 50.4417 30.1056 50.221 36.1019 49.9635C50.7064 49.3381 70.7553 48.492 84.2562 49.8163C84.293 49.8163 84.293 49.8163 84.3298 49.8163C84.3665 49.8163 84.3665 49.8163 84.3665 49.8163C88.6706 50.221 91.4297 51.2142 91.4664 51.2142C92.9379 51.6189 94.299 51.5821 95.0716 51.1039C95.4762 50.8463 95.697 50.5153 95.8073 50.037C95.7337 49.706 95.5866 49.4117 95.2923 49.0806Z" fill="white"/>
  <path d="M18.1122 45.4387C20.1355 46.2848 22.6002 45.9537 24.5499 45.1076C24.5867 45.1076 24.6235 45.0708 24.6603 45.0708C25.7639 44.4822 26.7203 43.7464 27.5664 42.8636C29.1483 41.1714 29.7737 39.332 29.4794 37.3455C29.3322 36.2787 28.7436 35.2486 27.8239 34.2922C27.7872 34.2554 27.5297 34.0347 27.0514 33.63C26.6468 33.2621 26.0214 32.7471 25.2856 32.085C24.366 31.3124 23.8509 30.5767 23.7406 29.9513C23.6302 29.2523 23.9245 28.627 24.5867 28.1487C25.0649 27.7809 25.5799 27.5601 26.2053 27.413C26.4996 27.3394 26.8307 27.3394 27.125 27.3394C27.6032 27.3394 28.0447 27.3026 28.4493 27.1187C28.9643 26.8612 29.0379 26.3462 29.0379 26.0887C29.0379 25.3161 28.6701 24.5436 28.339 24.0654C27.6032 22.925 26.0582 22.925 25.4328 22.9618C24.6235 23.0353 23.8142 23.2928 23.0784 23.5871C22.3427 23.8814 21.6437 24.1757 21.0551 24.5436C20.4298 24.9115 19.8412 25.3529 19.2894 25.8312C17.7075 27.2658 17.0453 28.8845 17.3029 30.687C17.4868 31.901 18.0386 33.0046 18.9583 33.9243C19.0318 33.9979 19.4365 34.3658 21.3862 35.874C22.2691 36.573 22.7473 37.2719 22.8577 37.9341C23.0416 38.9641 22.5634 39.847 21.4966 40.546C21.0183 40.8403 20.0251 41.2817 18.5168 41.8335C17.7811 42.1278 17.3396 42.606 17.1925 43.1946C17.0453 43.8936 17.4132 44.7397 18.1122 45.4019C18.1122 45.4386 18.1122 45.4387 18.1122 45.4387Z" fill="white"/>
  <path d="M31.8346 28.6638C31.9082 29.5467 31.945 30.4296 31.945 31.2389V31.2757C31.945 31.6803 31.945 33.1886 31.9817 36.1315C31.9817 36.6098 31.9817 36.7937 31.9817 37.1248C31.9817 37.4191 31.9817 37.8605 31.9817 38.7434C31.9817 40.5828 31.9817 41.9807 32.0185 42.9004V43.5625C32.0185 44.3351 32.3864 44.8501 33.0854 45.1812C33.7843 45.2179 34.4833 45.3651 35.1822 45.3283C35.734 45.2915 36.249 45.1812 36.8009 45.0708C37.463 44.7397 37.8309 44.1879 37.7941 43.5257C37.7941 43.2314 37.7573 42.8268 37.7205 42.3118C37.6837 41.7232 37.647 41.3185 37.647 41.0978V40.9874C37.6102 39.5527 37.5734 38.8538 37.5366 36.0948C37.4998 33.1886 37.5734 30.8342 37.7205 27.3027L37.7573 26.7509C37.7941 25.7208 37.5366 24.8747 36.9848 24.2861C36.4698 23.7343 35.6605 23.4768 34.6304 23.4768C33.4164 23.4768 32.46 24.0286 31.9817 24.9115C31.4667 25.868 31.5771 26.898 31.6874 27.928C31.7978 28.1855 31.7978 28.4431 31.8346 28.6638Z" fill="white"/>
  <path d="M51.5518 43.5626H51.5886C51.6622 43.5626 51.6622 43.5994 51.7358 43.7098C51.8461 43.9673 52.1772 44.6294 53.1337 44.9973C53.1705 44.9973 53.1705 45.0341 53.1705 45.0341C53.7959 45.2548 54.4948 45.1444 55.157 45.1077C55.5249 45.0709 55.9295 45.0709 56.2974 44.9973C56.2974 44.9973 56.2974 44.9973 56.3342 44.9973C57.3642 44.5191 57.3642 43.5994 57.3642 43.4522C57.3274 42.7165 57.2538 41.9072 57.2171 41.0979C57.1067 39.5528 57.0331 38.3756 57.0331 37.5663C56.9963 35.9845 56.9963 34.3658 57.2906 32.8208C57.3274 32.5633 57.3642 32.1218 57.0331 31.6804C56.6653 31.1654 56.0031 30.8343 55.0098 30.6871C53.428 30.4296 52.4715 31.4229 52.1404 31.754C52.0301 31.8643 51.9933 31.9011 51.9565 31.9011C51.8829 31.9011 51.8461 31.8643 51.7726 31.7907C50.8161 30.7239 49.4918 30.1721 47.8364 30.1721C47.7996 30.1721 47.7628 30.1721 47.7628 30.1721C45.3348 30.2089 43.4219 30.9814 42.0608 32.4529C40.7365 33.8876 40.0743 35.8005 40.1111 38.1549C40.1479 40.1782 40.81 41.944 42.1344 43.3787C42.8701 44.188 43.6794 44.7766 44.5991 45.1444C46.2545 45.4387 48.241 45.5123 49.8596 44.9237C50.3011 44.6662 50.7793 44.2983 51.184 43.8937C51.3311 43.7098 51.4783 43.5994 51.5518 43.5626ZM48.7192 40.8404H48.6825C47.7996 40.8404 47.0638 40.5461 46.4384 39.9575C45.8131 39.3689 45.482 38.6331 45.482 37.7502C45.482 36.8306 45.7763 36.0948 46.3281 35.5062C46.9167 34.9176 47.6892 34.6234 48.6457 34.6234C49.6021 34.6234 50.4114 34.9176 51 35.4695C51.5886 36.058 51.9197 36.7938 51.9197 37.6767C51.9197 38.5596 51.6254 39.3321 51.0368 39.9207C50.4482 40.5093 49.6757 40.8404 48.7192 40.8404Z" fill="white"/>
  <path d="M71.7852 43.3419C71.822 43.3419 71.8588 43.3419 71.8956 43.3786C72.0059 43.489 72.0427 43.5994 72.0427 43.6729C72.0795 44.188 72.3738 44.5558 72.9256 44.7765C72.9256 44.7765 72.9624 44.7765 72.9624 44.8133C73.6246 44.9605 74.3603 44.9237 75.0225 44.9237C75.5375 44.9237 76.0893 44.8501 76.6043 44.7398C77.3401 44.3719 77.4136 43.7465 77.3768 43.4154C77.1929 41.5761 77.0825 38.8906 77.009 35.4326C76.9722 32.6736 76.9722 30.2089 77.0458 28.3327V27.8177C77.0458 27.1188 77.0826 26.567 77.1193 25.9416C77.1561 25.6473 77.1561 24.6172 76.4572 23.8447C75.9422 23.2929 75.2064 23.0354 74.2132 23.0354C73.3671 23.0354 72.521 23.3665 71.9692 23.9551C71.4541 24.4701 71.1966 25.169 71.2334 25.9784C71.2334 26.1991 71.2334 26.4566 71.2702 26.7141C71.2702 26.8613 71.2702 27.0084 71.307 27.1923C71.3806 28.627 71.4173 30.0985 71.4173 30.9814C71.4173 31.0918 71.4173 31.4596 71.1966 31.4596C71.0863 31.4596 70.9759 31.3861 70.792 31.2021C69.8723 30.2457 68.6215 29.7674 67.0029 29.8042C64.7221 29.841 62.8827 30.6135 61.5584 32.1586C60.3077 33.5933 59.6823 35.4326 59.7191 37.6399C59.7558 39.8103 60.418 41.6129 61.7424 43.0476C62.5885 43.9672 63.5817 44.5926 64.7589 44.9237C65.6418 44.9237 66.4879 45.0708 67.3708 45.0341C68.1065 45.0341 68.879 44.9605 69.6148 44.8133C70.3505 44.519 71.0127 44.1144 71.5645 43.5994C71.6381 43.4522 71.7116 43.3786 71.7852 43.3419ZM68.4744 40.5828H68.4376C67.5547 40.5828 66.819 40.2885 66.2672 39.6631C65.7154 39.0746 65.4211 38.3388 65.4211 37.4927C65.4211 36.6098 65.6786 35.8741 66.1936 35.2487C66.7086 34.6233 67.4443 34.2922 68.364 34.2922H68.4008C69.2469 34.2922 69.9827 34.5865 70.608 35.2119C71.2334 35.8373 71.5645 36.573 71.5645 37.3824C71.5645 38.2285 71.2702 39.001 70.6816 39.6264C70.1298 40.2517 69.3573 40.5828 68.4744 40.5828Z" fill="white"/>
  <path d="M93.3784 31.6433C91.8701 30.2453 89.9204 29.5464 87.5661 29.5464C87.5293 29.5464 87.4925 29.5464 87.4189 29.5464C84.9174 29.5832 82.9309 30.3189 81.4962 31.8272C80.0615 33.2987 79.3625 35.2484 79.3625 37.6028C79.3993 39.81 80.1719 41.6493 81.7169 43.0472C82.5998 43.8566 83.6666 44.4451 84.807 44.7762H84.8438C86.4624 45.2177 88.5225 45.2177 90.1044 44.7394C90.2147 44.7027 90.3251 44.7027 90.3987 44.7027C91.6126 44.3348 92.6427 43.7462 93.4888 42.8633C94.9603 41.4286 95.696 39.5157 95.6592 37.1981C95.696 34.9541 94.8867 33.0779 93.3784 31.6433ZM89.7733 39.4789C89.2215 40.1411 88.4857 40.4721 87.6028 40.4721H87.5661C86.6832 40.4721 85.9842 40.1411 85.3956 39.5157C84.8438 38.9271 84.5863 38.1913 84.5495 37.3085C84.5495 36.4624 84.807 35.7266 85.3221 35.1012C85.8739 34.4391 86.6096 34.108 87.4925 34.108H87.5293C88.3754 34.108 89.0743 34.4391 89.6261 35.0277C90.1779 35.653 90.4722 36.3888 90.4722 37.2349C90.5458 38.1178 90.2883 38.8535 89.7733 39.4789Z" fill="white"/>
  <path d="M18.1122 45.4387C20.1355 46.2848 22.6002 45.9537 24.5499 45.1076C24.5867 45.1076 24.6235 45.0708 24.6603 45.0708C25.7639 44.4822 26.7203 43.7464 27.5664 42.8636C29.1483 41.1714 29.7737 39.332 29.4794 37.3455C29.3322 36.2787 28.7436 35.2486 27.8239 34.2922C27.7872 34.2554 27.5297 34.0347 27.0514 33.63C26.6468 33.2621 26.0214 32.7471 25.2856 32.085C24.366 31.3124 23.8509 30.5767 23.7406 29.9513C23.6302 29.2523 23.9245 28.627 24.5867 28.1487C25.0649 27.7809 25.5799 27.5601 26.2053 27.413C26.4996 27.3394 26.8307 27.3394 27.125 27.3394C27.6032 27.3394 28.0447 27.3026 28.4493 27.1187C28.9643 26.8612 29.0379 26.3462 29.0379 26.0887C29.0379 25.3161 28.6701 24.5436 28.339 24.0654C27.6032 22.925 26.0582 22.925 25.4328 22.9618C24.6235 23.0353 23.8142 23.2928 23.0784 23.5871C22.3427 23.8814 21.6437 24.1757 21.0551 24.5436C20.4298 24.9115 19.8412 25.3529 19.2894 25.8312C17.7075 27.2658 17.0453 28.8845 17.3029 30.687C17.4868 31.901 18.0386 33.0046 18.9583 33.9243C19.0318 33.9979 19.4365 34.3658 21.3862 35.874C22.2691 36.573 22.7473 37.2719 22.8577 37.9341C23.0416 38.9641 22.5634 39.847 21.4966 40.546C21.0183 40.8403 20.0251 41.2817 18.5168 41.8335C17.7811 42.1278 17.3396 42.606 17.1925 43.1946C17.0453 43.8936 17.4132 44.7397 18.1122 45.4019C18.1122 45.4386 18.1122 45.4387 18.1122 45.4387Z" fill="white"/>
  <path d="M31.8346 28.6638C31.9082 29.5467 31.945 30.4296 31.945 31.2389V31.2757C31.945 31.6803 31.945 33.1886 31.9817 36.1315C31.9817 36.6098 31.9817 36.7937 31.9817 37.1248C31.9817 37.4191 31.9817 37.8605 31.9817 38.7434C31.9817 40.5828 31.9817 41.9807 32.0185 42.9004V43.5625C32.0185 44.3351 32.3864 44.8501 33.0854 45.1812C33.7843 45.2179 34.4833 45.3651 35.1822 45.3283C35.734 45.2915 36.249 45.1812 36.8009 45.0708C37.463 44.7397 37.8309 44.1879 37.7941 43.5257C37.7941 43.2314 37.7573 42.8268 37.7205 42.3118C37.6837 41.7232 37.647 41.3185 37.647 41.0978V40.9874C37.6102 39.5527 37.5734 38.8538 37.5366 36.0948C37.4998 33.1886 37.5734 30.8342 37.7205 27.3027L37.7573 26.7509C37.7941 25.7208 37.5366 24.8747 36.9848 24.2861C36.4698 23.7343 35.6605 23.4768 34.6304 23.4768C33.4164 23.4768 32.46 24.0286 31.9817 24.9115C31.4667 25.868 31.5771 26.898 31.6874 27.928C31.7978 28.1855 31.7978 28.4431 31.8346 28.6638Z" fill="white"/>
  <path d="M51.5518 43.5624H51.5886C51.6622 43.5624 51.6622 43.5991 51.7358 43.7095C51.8461 43.967 52.1772 44.6292 53.1337 44.9971C53.1705 44.9971 53.1705 45.0338 53.1705 45.0338C53.7959 45.2546 54.4948 45.1442 55.157 45.1074C55.5249 45.0706 55.9295 45.0706 56.2974 44.9971C56.2974 44.9971 56.2974 44.9971 56.3342 44.9971C57.3642 44.5188 57.3642 43.5991 57.3642 43.452C57.3274 42.7163 57.2538 41.9069 57.2171 41.0976C57.1067 39.5526 57.0331 38.3754 57.0331 37.5661C56.9963 35.9842 56.9963 34.3656 57.2906 32.8205C57.3274 32.563 57.3642 32.1216 57.0331 31.6801C56.6653 31.1651 56.0031 30.834 55.0098 30.6869C53.428 30.4294 52.4715 31.4226 52.1404 31.7537C52.0301 31.8641 51.9933 31.9009 51.9565 31.9009C51.8829 31.9009 51.8461 31.8641 51.7726 31.7905C50.8161 30.7237 49.4918 30.1719 47.8364 30.1719C47.7996 30.1719 47.7628 30.1719 47.7628 30.1719C45.3348 30.2087 43.4219 30.9812 42.0608 32.4527C40.7365 33.8874 40.0743 35.8003 40.1111 38.1547C40.1479 40.1779 40.81 41.9437 42.1344 43.3784C42.8701 44.1877 43.6794 44.7763 44.5991 45.1442C46.2545 45.4385 48.241 45.5121 49.8596 44.9235C50.3011 44.666 50.7793 44.2981 51.184 43.8934C51.3311 43.7095 51.4783 43.5991 51.5518 43.5624ZM48.7192 40.8401H48.6825C47.7996 40.8401 47.0638 40.5458 46.4384 39.9572C45.8131 39.3686 45.482 38.6329 45.482 37.75C45.482 36.8303 45.7763 36.0946 46.3281 35.506C46.9167 34.9174 47.6892 34.6231 48.6457 34.6231C49.6021 34.6231 50.4114 34.9174 51 35.4692C51.5886 36.0578 51.9197 36.7935 51.9197 37.6764C51.9197 38.5593 51.6254 39.3318 51.0368 39.9204C50.4482 40.509 49.6757 40.8401 48.7192 40.8401Z" fill="white"/>
  <path d="M71.783 43.3419C71.8198 43.3419 71.8566 43.3419 71.8934 43.3786C72.0037 43.489 72.0405 43.5994 72.0405 43.6729C72.0773 44.188 72.3716 44.5558 72.9234 44.7765C72.9234 44.7765 72.9602 44.7765 72.9602 44.8133C73.6224 44.9605 74.3581 44.9237 75.0203 44.9237C75.5353 44.9237 76.0871 44.8501 76.6021 44.7398C77.3379 44.3719 77.4114 43.7465 77.3746 43.4154C77.1907 41.5761 77.0804 38.8906 77.0068 35.4326C76.97 32.6736 76.97 30.2089 77.0436 28.3327V27.8177C77.0436 27.1188 77.0804 26.567 77.1171 25.9416C77.1539 25.6473 77.1539 24.6172 76.455 23.8447C75.94 23.2929 75.2042 23.0354 74.211 23.0354C73.3649 23.0354 72.5188 23.3665 71.967 23.9551C71.4519 24.4701 71.1944 25.169 71.2312 25.9784C71.2312 26.1991 71.2312 26.4566 71.268 26.7141C71.268 26.8613 71.268 27.0084 71.3048 27.1923C71.3784 28.627 71.4151 30.0985 71.4151 30.9814C71.4151 31.0918 71.4152 31.4596 71.1944 31.4596C71.0841 31.4596 70.9737 31.3861 70.7898 31.2021C69.8701 30.2457 68.6193 29.7674 67.0007 29.8042C64.7199 29.841 62.8806 30.6135 61.5562 32.1586C60.3055 33.5933 59.6801 35.4326 59.7169 37.6399C59.7537 39.8103 60.4158 41.6129 61.7402 43.0476C62.5863 43.9672 63.5795 44.5926 64.7567 44.9237C65.6396 44.9237 66.4857 45.0708 67.3686 45.0341C68.1043 45.0341 68.8768 44.9605 69.6126 44.8133C70.3483 44.519 71.0105 44.1144 71.5623 43.5994C71.6359 43.4522 71.7094 43.3786 71.783 43.3419ZM68.4722 40.5828H68.4354C67.5525 40.5828 66.8168 40.2885 66.265 39.6631C65.7132 39.0746 65.4189 38.3388 65.4189 37.4927C65.4189 36.6098 65.6764 35.8741 66.1914 35.2487C66.7064 34.6233 67.4421 34.2922 68.3618 34.2922H68.3986C69.2447 34.2922 69.9805 34.5865 70.6058 35.2119C71.2312 35.8373 71.5623 36.573 71.5623 37.3824C71.5623 38.2285 71.268 39.001 70.6794 39.6264C70.1276 40.2517 69.3551 40.5828 68.4722 40.5828Z" fill="white"/>
  <path d="M93.3784 31.6433C91.8701 30.2453 89.9204 29.5464 87.5661 29.5464C87.5293 29.5464 87.4925 29.5464 87.4189 29.5464C84.9174 29.5832 82.9309 30.3189 81.4962 31.8272C80.0615 33.2987 79.3625 35.2484 79.3625 37.6028C79.3993 39.81 80.1719 41.6493 81.7169 43.0472C82.5998 43.8566 83.6666 44.4451 84.807 44.7762H84.8438C86.4624 45.2177 88.5225 45.2177 90.1044 44.7394C90.2147 44.7027 90.3251 44.7027 90.3987 44.7027C91.6126 44.3348 92.6427 43.7462 93.4888 42.8633C94.9603 41.4286 95.696 39.5157 95.6592 37.1981C95.696 34.9541 94.8867 33.0779 93.3784 31.6433ZM89.7733 39.4789C89.2215 40.1411 88.4857 40.4721 87.6028 40.4721H87.5661C86.6832 40.4721 85.9842 40.1411 85.3956 39.5157C84.8438 38.9271 84.5863 38.1913 84.5495 37.3085C84.5495 36.4624 84.807 35.7266 85.3221 35.1012C85.8739 34.4391 86.6096 34.108 87.4925 34.108H87.5293C88.3754 34.108 89.0743 34.4391 89.6261 35.0277C90.1779 35.653 90.4722 36.3888 90.4722 37.2349C90.5458 38.1178 90.2883 38.8535 89.7733 39.4789Z" fill="white"/>
  <defs>
    <filter id="filter0_dd_1_4472" x="0.52864" y="0.63216" width="111.943" height="75.3027" filterUnits="userSpaceOnUse" color-interpolation-filters="sRGB">
      <feFlood flood-opacity="0" result="BackgroundImageFix"/>
      <feColorMatrix in="SourceAlpha" type="matrix" values="0 0 0 0 0 0 0 0 0 0 0 0 0 0 0 0 0 0 127 0" result="hardAlpha"/>
      <feOffset dy="1.47136"/>
      <feGaussianBlur stdDeviation="0.73568"/>
      <feComposite in2="hardAlpha" operator="out"/>
      <feColorMatrix type="matrix" values="0 0 0 0 0.552941 0 0 0 0 0.215686 0 0 0 0 0 0 0 0 0.17 0"/>
      <feBlend mode="normal" in2="BackgroundImageFix" result="effect1_dropShadow_1_4472"/>
      <feColorMatrix in="SourceAlpha" type="matrix" values="0 0 0 0 0 0 0 0 0 0 0 0 0 0 0 0 0 0 127 0" result="hardAlpha"/>
      <feOffset dy="0.36784"/>
      <feGaussianBlur stdDeviation="0.36784"/>
      <feComposite in2="hardAlpha" operator="out"/>
      <feColorMatrix type="matrix" values="0 0 0 0 0.639216 0 0 0 0 0.34902 0 0 0 0 0.0941176 0 0 0 0.71 0"/>
      <feBlend mode="normal" in2="effect1_dropShadow_1_4472" result="effect2_dropShadow_1_4472"/>
      <feBlend mode="normal" in="SourceGraphic" in2="effect2_dropShadow_1_4472" result="shape"/>
    </filter>
  </defs>
</svg>