<svg width="56" height="70" viewBox="0 0 56 70" fill="none" xmlns="http://www.w3.org/2000/svg">
<g clip-path="url(#clip0_1_2576)">
<path d="M34.0892 39.2093C34.0892 39.5065 34.2897 39.8037 34.6908 39.8037C34.9916 39.8037 35.2924 39.6055 35.2924 39.2093V18.6038C35.2924 13.4525 33.287 7.11231 32.8859 5.82447V5.7254V2.75346C32.8859 1.56468 31.8832 0.574036 30.6799 0.574036H5.01023C3.80696 0.574036 2.80424 1.56468 2.80424 2.75346V5.92353C2.40315 7.01324 0.397705 13.4525 0.397705 18.6038V45.5494C0.397705 46.7382 1.40043 47.7289 2.60369 47.7289H33.0865C34.2897 47.7289 35.2924 46.7382 35.2924 45.5494V42.3794C35.2924 42.0822 35.0919 41.785 34.6908 41.785C34.39 41.785 34.0892 41.9831 34.0892 42.3794V45.5494C34.0892 46.1438 33.5878 46.5401 33.0865 46.5401H2.60369C2.00206 46.5401 1.60097 46.0448 1.60097 45.5494V18.6038C1.60097 14.245 3.10506 8.79641 3.80696 6.61699L3.90723 6.41886H8.31921C8.62003 6.41886 8.92085 6.22073 8.92085 5.82447C8.92085 5.52727 8.7203 5.23008 8.31921 5.23008H3.90723V2.75346C3.90723 2.15907 4.4086 1.76281 4.90996 1.76281H30.5797C31.1813 1.76281 31.5824 2.25814 31.5824 2.75346V5.42821H11.4277C11.1268 5.42821 10.826 5.62634 10.826 6.0226C10.826 6.31979 11.0266 6.61699 11.4277 6.61699H31.8832L31.9835 6.81511C32.6854 8.99454 34.1895 14.4431 34.1895 18.8019V39.2093H34.0892Z" fill="#814624"/>
<path d="M11.3276 19.0002L15.539 20.3871C16.9428 20.8824 18.5472 20.8824 19.951 20.3871L24.1624 19.0002C25.0649 18.703 25.6665 17.9105 25.6665 16.9198V14.146C25.6665 13.2544 25.0649 12.3628 24.1624 12.0656L19.951 10.6787C19.2491 10.4806 18.4469 10.2825 17.745 10.2825C17.0431 10.2825 16.2409 10.3815 15.539 10.6787L11.3276 12.0656C10.4251 12.3628 9.82349 13.1553 9.82349 14.146V16.9198C9.92376 17.8114 10.4251 18.703 11.3276 19.0002ZM10.8262 14.146C10.8262 13.6507 11.127 13.1553 11.6284 13.0563L15.8398 11.6694C17.0431 11.2731 18.4469 11.2731 19.6502 11.6694L23.8616 13.0563C24.363 13.2544 24.6638 13.6507 24.6638 14.146V16.9198C24.6638 17.4151 24.363 17.9105 23.8616 18.0095L19.6502 19.3964C19.0485 19.5946 18.3466 19.6936 17.745 19.6936C17.1434 19.6936 16.4415 19.5946 15.8398 19.3964L11.6284 18.0095C11.127 17.8114 10.8262 17.4151 10.8262 16.9198V14.146Z" fill="#814624"/>
<path d="M8.21889 24.2505H27.4712C27.772 24.2505 27.9725 24.0524 27.9725 23.7552C27.9725 23.458 27.772 23.2599 27.4712 23.2599H8.21889C7.91807 23.2599 7.71753 23.458 7.71753 23.7552C7.71753 24.0524 7.91807 24.2505 8.21889 24.2505Z" fill="#814624"/>
<path d="M15.5388 27.5197H8.21889C7.91807 27.5197 7.71753 27.7178 7.71753 28.015C7.71753 28.3122 7.91807 28.5104 8.21889 28.5104H15.5388C15.8396 28.5104 16.0401 28.3122 16.0401 28.015C16.0401 27.7178 15.8396 27.5197 15.5388 27.5197Z" fill="#814624"/>
<path d="M28.8754 42.1813H24.9647C24.6639 42.1813 24.4634 42.3795 24.4634 42.6767C24.4634 42.9739 24.6639 43.172 24.9647 43.172H28.8754C29.1762 43.172 29.3767 42.9739 29.3767 42.6767C29.3767 42.3795 29.1762 42.1813 28.8754 42.1813Z" fill="#814624"/>
<path d="M48.2273 34.4543C48.3275 34.4543 48.3275 34.4543 48.4278 34.4543C48.5281 34.4543 48.5281 34.4543 48.5281 34.4543C48.5281 34.4543 48.6284 34.4543 48.6284 34.5533V34.6524V38.4169C48.6284 38.5159 48.6284 38.5159 48.6284 38.5159C48.6284 38.5159 48.6284 38.615 48.5281 38.615C48.5281 38.615 48.4278 38.615 48.4278 38.7141C48.3275 38.7141 48.3275 38.7141 48.2273 38.7141C48.127 38.7141 48.127 38.7141 48.0267 38.7141C47.9265 38.7141 47.9265 38.7141 47.9265 38.7141C47.9265 38.7141 47.8262 38.7141 47.8262 38.615L47.7259 38.5159L46.2218 37.2281C45.921 36.9309 45.6202 36.6337 45.3194 36.4356C45.0186 36.2375 44.818 36.1384 44.6175 36.0393C44.4169 35.9403 44.2164 35.8412 44.0158 35.8412C43.8153 35.8412 43.715 35.8412 43.5145 35.8412C43.3139 35.8412 43.2137 35.8412 43.1134 35.9403C43.0131 36.0393 42.8126 36.0393 42.7123 36.1384C42.612 36.2375 42.5118 36.3365 42.5118 36.5346C42.4115 36.6337 42.4115 36.8318 42.4115 37.03C42.4115 37.2281 42.4115 37.4262 42.5118 37.6244C42.612 37.8225 42.612 37.9216 42.7123 38.1197C42.8126 38.2187 42.8126 38.3178 42.9128 38.4169C43.0131 38.5159 43.0131 38.615 43.0131 38.615C43.0131 38.615 43.0131 38.615 43.0131 38.7141C43.0131 38.7141 43.0131 38.7141 42.9128 38.7141H42.8126C42.8126 38.7141 42.7123 38.7141 42.612 38.7141C42.5118 38.7141 42.5118 38.7141 42.5118 38.7141H42.4115H42.3112C42.3112 38.7141 42.2109 38.7141 42.2109 38.615C42.2109 38.615 42.1107 38.5159 42.0104 38.4169C41.9101 38.3178 41.9101 38.2187 41.8098 38.0206C41.7096 37.8225 41.7096 37.7234 41.6093 37.5253C41.6093 37.3272 41.509 37.129 41.509 36.9309C41.509 36.6337 41.509 36.3365 41.6093 36.0393C41.7096 35.7421 41.8098 35.544 42.0104 35.4449C42.2109 35.2468 42.4115 35.1477 42.612 35.0487C42.8126 34.9496 43.1134 34.9496 43.3139 34.9496C43.5145 34.9496 43.715 34.9496 44.0158 35.0487C44.2164 35.0487 44.5172 35.1477 44.7177 35.3459C45.0186 35.4449 45.2191 35.6431 45.6202 35.9403C45.921 36.1384 46.3221 36.5346 46.7232 36.9309L47.8262 38.0206V35.0487V34.9496C47.8262 34.9496 47.8262 34.9496 47.9265 34.8505H48.0267C48.127 34.5533 48.127 34.4543 48.2273 34.4543Z" fill="#814624"/>
<path d="M46.6229 28.7086C46.7232 28.7086 46.8235 28.7086 46.9238 28.8076C47.024 28.9067 47.024 28.9067 47.024 29.0058V29.7983H48.5281H48.6284C48.6284 29.7983 48.6284 29.7983 48.7287 29.8973C48.8289 29.9964 48.7287 29.9964 48.7287 29.9964C48.7287 30.0955 48.7287 30.0955 48.7287 30.1945C48.7287 30.2936 48.7287 30.3927 48.7287 30.3927V30.4917C48.7287 30.4917 48.7287 30.5908 48.6284 30.5908C48.6284 30.5908 48.6284 30.5908 48.5281 30.5908H47.024V33.3646V33.4637C47.024 33.4637 47.024 33.5627 46.9238 33.5627H46.8235C46.8235 33.5627 46.7232 33.5627 46.6229 33.5627C46.5227 33.5627 46.5227 33.5627 46.4224 33.5627C46.3221 33.5627 46.3221 33.5627 46.3221 33.5627H46.2219C46.2219 33.5627 46.1216 33.5627 46.1216 33.4637L41.9101 30.987C41.9101 30.987 41.8099 30.987 41.8099 30.888C41.8099 30.888 41.8099 30.7889 41.7096 30.7889C41.6093 30.7889 41.7096 30.6899 41.7096 30.5908C41.7096 30.4917 41.7096 30.3927 41.7096 30.2936C41.7096 30.1945 41.7096 30.0955 41.7096 29.9964C41.7096 29.8973 41.7096 29.7983 41.7096 29.7983C41.7096 29.7983 41.7096 29.6992 41.8099 29.6992H41.9101H46.3221V28.9067C46.3221 28.8076 46.3221 28.8076 46.4224 28.8076C46.4224 28.7086 46.5227 28.7086 46.6229 28.7086ZM42.4115 30.5908L46.2219 32.7702V30.5908H42.4115Z" fill="#814624"/>
<path d="M45.1188 23.26C45.6202 23.26 46.1216 23.26 46.6229 23.3591C47.024 23.4581 47.4251 23.5572 47.7259 23.7553C48.0267 23.9535 48.3275 24.2507 48.4278 24.5479C48.6284 24.845 48.7286 25.2413 48.7286 25.7366C48.7286 26.1329 48.6284 26.5291 48.5281 26.8263C48.3275 27.1235 48.127 27.3217 47.8262 27.5198C47.5254 27.7179 47.1243 27.817 46.7232 27.9161C46.3221 28.0151 45.8207 28.0151 45.2191 28.0151C44.7177 28.0151 44.2164 28.0151 43.715 27.9161C43.3139 27.817 42.9128 27.7179 42.612 27.5198C42.3112 27.3217 42.0104 27.1235 41.9101 26.7273C41.6093 26.331 41.509 26.0338 41.509 25.5385C41.509 25.1422 41.6093 24.746 41.7096 24.4488C41.9101 24.1516 42.1107 23.9535 42.4115 23.7553C42.7123 23.5572 43.1134 23.4581 43.5145 23.3591C44.0158 23.26 44.5172 23.26 45.1188 23.26ZM45.1188 24.1516C44.818 24.1516 44.4169 24.1516 44.2164 24.1516C44.0158 24.1516 43.715 24.2507 43.5145 24.3497C43.3139 24.3497 43.1134 24.4488 43.0131 24.5479C42.8126 24.6469 42.7123 24.746 42.612 24.845C42.5118 24.9441 42.4115 25.0432 42.4115 25.2413C42.4115 25.3404 42.3112 25.5385 42.3112 25.7366C42.3112 26.0338 42.4115 26.331 42.5118 26.4301C42.612 26.5291 42.8126 26.7273 43.1134 26.8263C43.4142 26.9254 43.6148 27.0245 44.0158 27.0245C44.4169 27.0245 44.7177 27.1235 45.1188 27.1235C45.6202 27.1235 46.1216 27.1235 46.4224 27.0245C46.8235 26.9254 47.1243 26.9254 47.3248 26.7273C47.5254 26.6282 47.7259 26.4301 47.8262 26.331C47.9265 26.1329 48.0267 25.9348 48.0267 25.6376C48.0267 25.4394 48.0267 25.2413 47.9265 25.1422C47.8262 24.9441 47.7259 24.845 47.6256 24.746C47.5254 24.6469 47.3248 24.5479 47.2246 24.4488C47.1243 24.3497 46.8235 24.3497 46.5226 24.2507C46.2218 24.1516 46.1216 24.1516 45.8207 24.1516C45.6202 24.1516 45.4196 24.1516 45.1188 24.1516Z" fill="#814624"/>
<path d="M48.5279 17.1181C48.6282 17.2172 48.6282 17.2172 48.6282 17.3162C48.6282 17.4153 48.6282 17.4153 48.6282 17.5144C48.6282 17.6134 48.6282 17.6134 48.6282 17.7125C48.6282 17.8116 48.6282 17.8116 48.6282 17.8116C48.6282 17.8116 48.6282 17.8116 48.6282 17.9106C48.6282 18.0097 48.6282 17.9106 48.5279 17.9106H46.4222C46.322 17.9106 46.1214 17.9106 46.0211 17.9106C45.9209 17.9106 45.8206 18.0097 45.7203 18.0097C45.6201 18.0097 45.5198 18.1087 45.5198 18.2078C45.5198 18.3069 45.4195 18.4059 45.4195 18.505C45.4195 18.6041 45.5198 18.8022 45.62 18.9013C45.7203 19.0003 45.9209 19.1985 46.1214 19.3966H48.5279C48.5279 19.3966 48.5279 19.3966 48.6282 19.3966C48.7285 19.3966 48.6282 19.3966 48.6282 19.4957C48.6282 19.5947 48.6282 19.5947 48.6282 19.5947C48.6282 19.5947 48.6282 19.6938 48.6282 19.7929C48.6282 19.8919 48.6282 19.8919 48.6282 19.991C48.6282 20.09 48.6282 20.09 48.6282 20.09C48.6282 20.09 48.6282 20.09 48.6282 20.1891C48.6282 20.2882 48.6282 20.1891 48.5279 20.1891H46.4222C46.322 20.1891 46.1214 20.1891 46.0211 20.1891C45.9209 20.1891 45.8206 20.2882 45.7203 20.2882C45.6201 20.2882 45.5198 20.2882 45.4195 20.3872C45.3192 20.4863 45.3192 20.5854 45.3192 20.6844C45.3192 20.7835 45.4195 20.9816 45.5198 21.0807C45.62 21.1798 45.8206 21.3779 46.0211 21.576H48.5279C48.5279 21.576 48.5279 21.576 48.6282 21.576C48.7285 21.576 48.6282 21.576 48.6282 21.6751C48.6282 21.7741 48.6282 21.7741 48.6282 21.7741C48.6282 21.7741 48.6282 21.8732 48.6282 21.9723C48.6282 22.0713 48.6282 22.0713 48.6282 22.1704C48.6282 22.2695 48.6282 22.2695 48.6282 22.2695C48.6282 22.2695 48.6282 22.2695 48.6282 22.3685C48.6282 22.4676 48.6282 22.3685 48.5279 22.3685H45.0184C45.0184 22.3685 45.0184 22.3685 44.9181 22.3685V22.2695V22.1704C44.9181 22.0713 44.9181 22.0713 44.9181 22.0713V21.9723C44.9181 21.9723 44.9181 21.9723 45.0184 21.9723H45.5198C45.3192 21.7741 45.1187 21.576 45.0184 21.3779C44.9181 21.1798 44.8179 20.9816 44.8179 20.7835C44.8179 20.6844 44.8179 20.4863 44.9181 20.3872C45.0184 20.2882 45.0184 20.1891 45.0184 20.09C45.0184 19.991 45.1187 19.8919 45.219 19.8919C45.3192 19.8919 45.4195 19.7928 45.5198 19.6938C45.4195 19.5947 45.3192 19.4957 45.219 19.3966C45.1187 19.2975 45.0184 19.1985 45.0184 19.0994C45.0184 19.0003 44.9181 18.9013 44.9181 18.8022C44.9181 18.7031 44.9181 18.6041 44.9181 18.505C44.9181 18.3069 44.9181 18.1087 45.0184 17.9106C45.1187 17.7125 45.219 17.6134 45.3192 17.5144C45.4195 17.4153 45.62 17.3162 45.8206 17.3162C46.0211 17.3162 46.2217 17.2172 46.4222 17.2172H48.5279V17.1181Z" fill="#814624"/>
<path d="M48.5279 10.778C48.6282 10.877 48.6282 10.877 48.6282 10.9761C48.6282 11.0751 48.6282 11.0751 48.6282 11.1742C48.6282 11.2733 48.6282 11.2733 48.6282 11.3723C48.6282 11.4714 48.6282 11.4714 48.6282 11.4714C48.6282 11.4714 48.6282 11.4714 48.6282 11.5705C48.6282 11.6695 48.6282 11.5705 48.5279 11.5705H46.4222C46.322 11.5705 46.1214 11.5705 46.0211 11.5705C45.9209 11.5705 45.8206 11.6695 45.7203 11.6695C45.6201 11.6695 45.5198 11.7686 45.5198 11.8677C45.5198 11.9667 45.4195 12.0658 45.4195 12.1649C45.4195 12.2639 45.5198 12.4621 45.62 12.5611C45.7203 12.6602 45.9209 12.8583 46.1214 13.0564H48.5279C48.5279 13.0564 48.5279 13.0564 48.6282 13.0564C48.7285 13.0564 48.6282 13.0564 48.6282 13.1555C48.6282 13.2546 48.6282 13.2546 48.6282 13.2546C48.6282 13.2546 48.6282 13.3536 48.6282 13.4527C48.6282 13.5518 48.6282 13.5518 48.6282 13.6508C48.6282 13.7499 48.6282 13.7499 48.6282 13.7499C48.6282 13.7499 48.6282 13.7499 48.6282 13.849C48.6282 13.948 48.6282 13.849 48.5279 13.849H46.4222C46.322 13.849 46.1214 13.849 46.0211 13.849C45.9209 13.849 45.8206 13.948 45.7203 13.948C45.6201 13.948 45.5198 14.0471 45.5198 14.1462C45.5198 14.2452 45.4195 14.3443 45.4195 14.4433C45.4195 14.5424 45.5198 14.7405 45.62 14.8396C45.7203 14.9387 45.9209 15.1368 46.1214 15.3349H48.5279C48.5279 15.3349 48.5279 15.3349 48.6282 15.3349C48.7285 15.3349 48.6282 15.3349 48.6282 15.434C48.6282 15.5331 48.6282 15.5331 48.6282 15.5331C48.6282 15.5331 48.6282 15.6321 48.6282 15.7312C48.6282 15.8303 48.6282 15.8303 48.6282 15.9293C48.6282 16.0284 48.6282 16.0284 48.6282 16.0284C48.6282 16.0284 48.6282 16.0284 48.6282 16.1274C48.6282 16.2265 48.6282 16.1274 48.5279 16.1274H45.0184C45.0184 16.1274 45.0184 16.1274 44.9181 16.1274V16.0284V15.9293C44.9181 15.8303 44.9181 15.8303 44.9181 15.8303V15.7312C44.9181 15.7312 44.9181 15.7312 45.0184 15.7312H45.5198C45.3192 15.5331 45.1187 15.3349 45.0184 15.1368C44.9181 14.9387 44.8179 14.7405 44.8179 14.5424C44.8179 14.4434 44.8179 14.2452 44.9181 14.1462C45.0184 14.0471 45.0184 13.948 45.0184 13.849C45.0184 13.7499 45.1187 13.6508 45.219 13.6508C45.3192 13.6508 45.4195 13.5518 45.5198 13.4527C45.4195 13.3536 45.3192 13.2546 45.219 13.1555C45.1187 13.0564 45.0184 12.9574 45.0184 12.8583C45.0184 12.7592 44.9181 12.6602 44.9181 12.5611C44.9181 12.4621 44.9181 12.363 44.9181 12.2639C44.9181 12.0658 44.9181 11.8677 45.0184 11.6695C45.1187 11.4714 45.219 11.3723 45.3192 11.2733C45.4195 11.1742 45.62 11.0751 45.8206 11.0751C46.0211 11.0751 46.2217 10.9761 46.4222 10.9761H48.5279V10.778Z" fill="#814624"/>
<path d="M9.92324 60.1119C9.92324 60.2109 9.92324 60.2109 9.92324 60.31C9.92324 60.4091 9.92324 60.4091 9.92324 60.4091C9.92324 60.4091 9.92324 60.4091 9.82297 60.5081C9.82297 60.5081 9.82297 60.5081 9.7227 60.5081H6.1129C6.1129 60.5081 6.1129 60.5081 6.01263 60.5081C6.01263 60.5081 6.01263 60.5081 5.91235 60.4091V60.31C5.91235 60.31 5.91235 60.2109 5.91235 60.1119C5.91235 60.0128 5.91235 60.0128 5.91235 59.9138C5.91235 59.8147 5.91235 59.8147 5.91235 59.8147C5.91235 59.8147 5.91235 59.7156 6.01263 59.7156C6.01263 59.7156 6.01263 59.7156 6.1129 59.7156H7.61698V54.4652L6.31344 55.2577C6.21317 55.2577 6.21317 55.3568 6.1129 55.3568H6.01263C6.01263 55.3568 6.01263 55.2577 5.91235 55.2577C5.91235 55.1586 5.91235 55.1586 5.91235 55.0596C5.91235 54.9605 5.91235 54.9605 5.91235 54.8614V54.7624V54.6633C5.91235 54.6633 5.91235 54.6633 6.01263 54.5643L7.61698 53.5736C7.61698 53.5736 7.61698 53.5736 7.71725 53.5736C7.81753 53.5736 7.71725 53.5736 7.81753 53.5736C7.9178 53.5736 7.9178 53.5736 7.9178 53.5736C7.9178 53.5736 8.01807 53.5736 8.11834 53.5736C8.21862 53.5736 8.31889 53.5736 8.31889 53.5736H8.41916H8.51943C8.51943 53.5736 8.51943 53.5736 8.51943 53.6727V59.7156H9.82297H9.92324C9.92324 59.7156 9.92324 59.7156 10.0235 59.8147V59.9138C9.92324 60.0128 9.92324 60.0128 9.92324 60.1119Z" fill="#814624"/>
<path d="M15.8396 58.5269C15.8396 58.626 15.8396 58.7251 15.7393 58.8241C15.6391 58.9232 15.6391 58.9232 15.5388 58.9232H14.7366V60.4092V60.5082C14.7366 60.5082 14.7366 60.5082 14.6363 60.6073C14.5361 60.7063 14.5361 60.6073 14.5361 60.6073C14.4358 60.6073 14.4358 60.6073 14.3355 60.6073C14.2353 60.6073 14.135 60.6073 14.135 60.6073H14.0347C14.0347 60.6073 13.9344 60.6073 13.9344 60.5082C13.9344 60.5082 13.9344 60.5082 13.9344 60.4092V58.9232H11.1268H11.0265C11.0265 58.9232 10.9263 58.9232 10.9263 58.8241V58.7251C10.9263 58.7251 10.9263 58.626 10.9263 58.5269C10.9263 58.4279 10.9263 58.4279 10.9263 58.3288C10.9263 58.2297 10.9263 58.2297 10.9263 58.2297V58.1307C10.9263 58.1307 10.9263 58.0316 11.0265 58.0316L13.5333 53.8709C13.5333 53.8709 13.5333 53.7718 13.6336 53.7718C13.6336 53.7718 13.7339 53.7718 13.7339 53.6728C13.7339 53.5737 13.8342 53.6728 13.9344 53.6728C14.0347 53.6728 14.135 53.6728 14.2353 53.6728C14.3355 53.6728 14.4358 53.6728 14.5361 53.6728C14.6363 53.6728 14.7366 53.6728 14.7366 53.6728C14.7366 53.6728 14.8369 53.6728 14.8369 53.7718V53.8709V58.2297H15.6391C15.7393 58.2297 15.7393 58.2297 15.7393 58.3288C15.8396 58.3288 15.8396 58.4279 15.8396 58.5269ZM13.9344 54.3662L11.7284 58.1307H13.9344V54.3662Z" fill="#814624"/>
<path d="M21.3543 57.0409C21.3543 57.5362 21.3543 58.0315 21.2541 58.5268C21.1538 58.9231 21.0535 59.3194 20.853 59.6166C20.6524 59.9138 20.3516 60.2109 20.0508 60.31C19.75 60.5081 19.3489 60.6072 18.8475 60.6072C18.4464 60.6072 18.0453 60.5081 17.7445 60.4091C17.4437 60.2109 17.2432 60.0128 17.0426 59.7156C16.8421 59.4184 16.7418 59.0222 16.6415 58.6259C16.5413 58.2297 16.5413 57.7343 16.5413 57.1399C16.5413 56.6446 16.5413 56.1493 16.6415 55.654C16.7418 55.2577 16.8421 54.8615 17.0426 54.5643C17.2432 54.2671 17.4437 53.9699 17.8448 53.8708C18.1456 53.6727 18.5467 53.5736 19.0481 53.5736C19.4492 53.5736 19.8502 53.6727 20.1511 53.7717C20.4519 53.9699 20.6524 54.168 20.853 54.4652C21.0535 54.7624 21.1538 55.1586 21.2541 55.5549C21.3543 55.9512 21.3543 56.4465 21.3543 57.0409ZM20.4519 57.0409C20.4519 56.7437 20.4519 56.3474 20.4519 56.1493C20.4519 55.9512 20.3516 55.654 20.3516 55.4558C20.3516 55.2577 20.2513 55.0596 20.1511 54.9605C20.0508 54.7624 19.9505 54.6633 19.8502 54.5643C19.75 54.4652 19.6497 54.3661 19.4492 54.3661C19.3489 54.3661 19.1483 54.2671 18.9478 54.2671C18.647 54.2671 18.3462 54.3661 18.2459 54.4652C18.1456 54.5643 17.9451 54.7624 17.8448 55.0596C17.7445 55.3568 17.6443 55.5549 17.6443 55.9512C17.6443 56.3474 17.4437 56.6446 17.4437 56.9418C17.4437 57.4371 17.4437 57.9325 17.544 58.2297C17.6443 58.6259 17.6443 58.9231 17.8448 59.1212C17.9451 59.3194 18.1456 59.5175 18.2459 59.6166C18.4464 59.7156 18.647 59.8147 18.9478 59.8147C19.1483 59.8147 19.3489 59.8147 19.4492 59.7156C19.6497 59.6166 19.75 59.5175 19.8502 59.4184C19.9505 59.3194 20.0508 59.1212 20.1511 59.0222C20.2513 58.9231 20.2513 58.6259 20.3516 58.4278C20.4519 58.2297 20.4519 58.0315 20.4519 57.7343C20.4519 57.5362 20.4519 57.3381 20.4519 57.0409Z" fill="#814624"/>
<path d="M27.5711 60.4091C27.4708 60.5082 27.4708 60.5082 27.3705 60.5082C27.2703 60.5082 27.2703 60.5082 27.17 60.5082C27.0697 60.5082 27.0697 60.5082 26.9694 60.5082C26.8692 60.5082 26.8692 60.5082 26.8692 60.5082C26.8692 60.5082 26.8692 60.5082 26.7689 60.5082C26.6686 60.5082 26.7689 60.5082 26.7689 60.4091V58.3287C26.7689 58.2297 26.7689 58.0315 26.7689 57.9325C26.7689 57.8334 26.6686 57.7343 26.6686 57.6353C26.6686 57.5362 26.5684 57.4372 26.4681 57.4372C26.3678 57.4372 26.2675 57.3381 26.1673 57.3381C26.067 57.3381 25.8665 57.4372 25.7662 57.5362C25.6659 57.6353 25.4654 57.8334 25.2648 58.0315V60.5082C25.2648 60.5082 25.2648 60.5082 25.2648 60.6072C25.2648 60.7063 25.2648 60.6072 25.1645 60.6072C25.0643 60.6072 25.0643 60.6072 25.0643 60.6072C25.0643 60.6072 24.964 60.6072 24.8637 60.6072C24.7635 60.6072 24.7635 60.6072 24.6632 60.6072C24.5629 60.6072 24.5629 60.6072 24.5629 60.6072C24.5629 60.6072 24.5629 60.6072 24.4626 60.6072C24.3624 60.6072 24.4626 60.6072 24.4626 60.5082V58.4278C24.4626 58.3287 24.4626 58.1306 24.4626 58.0315C24.4626 57.9325 24.3624 57.8334 24.3624 57.7344C24.3624 57.6353 24.2621 57.5362 24.1618 57.5362C24.0616 57.5362 23.9613 57.4372 23.861 57.4372C23.7607 57.4372 23.5602 57.5362 23.4599 57.6353C23.3596 57.7343 23.1591 57.9325 22.9586 58.1306V60.6072C22.9586 60.6072 22.9586 60.6072 22.9586 60.7063C22.9586 60.8054 22.9586 60.7063 22.8583 60.7063C22.758 60.7063 22.758 60.7063 22.758 60.7063C22.758 60.7063 22.6577 60.7063 22.5575 60.7063C22.4572 60.7063 22.4572 60.7063 22.3569 60.7063C22.2567 60.7063 22.2567 60.7063 22.2567 60.7063C22.2567 60.7063 22.2567 60.7063 22.1564 60.7063C22.0561 60.7063 22.1564 60.7063 22.1564 60.6072V57.14C22.1564 57.14 22.1564 57.14 22.1564 57.0409H22.2567H22.3569C22.4572 57.0409 22.4572 57.0409 22.4572 57.0409H22.5575C22.5575 57.0409 22.5575 57.0409 22.5575 57.14V57.6353C22.758 57.4372 22.9586 57.239 23.1591 57.14C23.3596 57.0409 23.5602 56.9418 23.7607 56.9418C23.861 56.9418 24.0616 56.9418 24.1618 57.0409C24.2621 57.14 24.3624 57.14 24.4626 57.14C24.5629 57.14 24.6632 57.239 24.6632 57.3381C24.6632 57.4372 24.7635 57.5362 24.8637 57.6353C24.964 57.5362 25.0643 57.4372 25.1645 57.3381C25.2648 57.239 25.3651 57.14 25.4654 57.14C25.5656 57.14 25.6659 57.0409 25.7662 57.0409C25.8665 57.0409 25.9667 57.0409 26.067 57.0409C26.2675 57.0409 26.4681 57.0409 26.6686 57.14C26.8692 57.239 26.9694 57.3381 27.0697 57.4372C27.17 57.5362 27.2703 57.7344 27.2703 57.9325C27.2703 58.1306 27.3705 58.3287 27.3705 58.5269V60.4091H27.5711Z" fill="#814624"/>
<path d="M33.9891 60.4092C33.8888 60.5083 33.8888 60.5083 33.7885 60.5083C33.6882 60.5083 33.6882 60.5083 33.588 60.5083C33.4877 60.5083 33.4877 60.5083 33.3874 60.5083C33.2871 60.5083 33.2871 60.5083 33.2871 60.5083C33.2871 60.5083 33.2871 60.5083 33.1869 60.5083C33.0866 60.5083 33.1869 60.5083 33.1869 60.4092V58.3289C33.1869 58.2298 33.1869 58.0317 33.1869 57.9326C33.1869 57.8335 33.0866 57.7345 33.0866 57.6354C33.0866 57.5363 32.9863 57.4373 32.8861 57.4373C32.7858 57.4373 32.6855 57.3382 32.5852 57.3382C32.485 57.3382 32.2844 57.4373 32.1842 57.5363C32.0839 57.6354 31.8833 57.8335 31.6828 58.0317V60.5083C31.6828 60.5083 31.6828 60.5083 31.6828 60.6073C31.6828 60.7064 31.6828 60.6073 31.5825 60.6073C31.4822 60.6073 31.4822 60.6073 31.4822 60.6073C31.4822 60.6073 31.382 60.6073 31.2817 60.6073C31.1814 60.6073 31.1814 60.6073 31.0812 60.6073C30.9809 60.6073 30.9809 60.6073 30.9809 60.6073C30.9809 60.6073 30.9809 60.6073 30.8806 60.6073C30.7803 60.6073 30.8806 60.6073 30.8806 60.5083V58.4279C30.8806 58.3289 30.8806 58.1307 30.8806 58.0317C30.8806 57.9326 30.7803 57.8335 30.7803 57.7345C30.7803 57.6354 30.6801 57.5363 30.5798 57.5363C30.4795 57.5363 30.3792 57.4373 30.279 57.4373C30.1787 57.4373 29.9782 57.5363 29.8779 57.6354C29.7776 57.7345 29.5771 57.9326 29.3765 58.1307V60.6073C29.3765 60.6073 29.3765 60.6074 29.3765 60.7064C29.3765 60.8055 29.3765 60.7064 29.2763 60.7064C29.176 60.7064 29.176 60.7064 29.176 60.7064C29.176 60.7064 29.0757 60.7064 28.9754 60.7064C28.8752 60.7064 28.8752 60.7064 28.7749 60.7064C28.6746 60.7064 28.6746 60.7064 28.6746 60.7064C28.6746 60.7064 28.6746 60.7064 28.5744 60.7064C28.4741 60.7064 28.5744 60.7064 28.5744 60.6073V57.1401C28.5744 57.1401 28.5744 57.1401 28.5744 57.041H28.6746H28.7749C28.8752 57.041 28.8752 57.041 28.8752 57.041H28.9754C28.9754 57.041 28.9754 57.041 28.9754 57.1401V57.6354C29.176 57.4373 29.3765 57.2391 29.5771 57.1401C29.7776 57.041 29.9782 56.942 30.1787 56.942C30.279 56.942 30.4795 56.942 30.5798 57.041C30.6801 57.1401 30.7803 57.1401 30.8806 57.1401C30.9809 57.1401 31.0812 57.2391 31.0812 57.3382C31.0812 57.4373 31.1814 57.5363 31.2817 57.6354C31.382 57.5363 31.4822 57.4373 31.5825 57.3382C31.6828 57.2391 31.7831 57.1401 31.8833 57.1401C31.9836 57.1401 32.0839 57.041 32.1842 57.041C32.2844 57.041 32.3847 57.041 32.485 57.041C32.6855 57.041 32.8861 57.041 33.0866 57.1401C33.2871 57.2391 33.3874 57.3382 33.4877 57.4373C33.588 57.5363 33.6882 57.7345 33.6882 57.9326C33.6882 58.1307 33.7885 58.3289 33.7885 58.527V60.4092H33.9891Z" fill="#814624"/>
<path d="M4.20825 67.938H33.4878" stroke="#814624" stroke-width="0.34" stroke-linecap="round" stroke-linejoin="round"/>
<path d="M4.91006 67.9381L5.81251 66.5511L3.40598 67.4427C2.6038 67.6409 1.80162 67.839 0.89917 67.9381C1.70135 68.1362 2.50353 68.3343 3.40598 68.4334L5.71224 69.325L4.91006 67.9381Z" fill="#814624"/>
<path d="M32.786 67.9381L31.8835 66.5511L34.1898 67.4427C34.992 67.6409 35.7942 67.839 36.6966 67.9381C35.8944 68.1362 35.0923 68.3343 34.1898 68.4334L31.8835 69.325L32.786 67.9381Z" fill="#814624"/>
<path d="M54.1436 44.4597V3.84314" stroke="#814624" stroke-width="0.34" stroke-miterlimit="10"/>
<path d="M54.1436 43.7663L52.7397 42.8747L53.6422 45.1532C53.8427 45.9457 54.0433 46.7382 54.1436 47.6298C54.3441 46.8373 54.5446 46.0448 54.6449 45.1532L55.5474 42.8747L54.1436 43.7663Z" fill="#814624"/>
<path d="M54.1436 4.53662L52.7397 5.4282L53.6422 3.14971C53.8427 2.3572 54.0433 1.56468 54.1436 0.673096C54.3441 1.46561 54.5446 2.25813 54.6449 3.14971L55.5474 5.4282L54.1436 4.53662Z" fill="#814624"/>
</g>
<defs>
<clipPath id="clip0_1_2576">
<rect width="55.25" height="68.85" fill="white" transform="translate(0.397705 0.574036)"/>
</clipPath>
</defs>
</svg>
