<svg width="50" height="60" viewBox="0 0 50 60" fill="none" xmlns="http://www.w3.org/2000/svg">
<g clip-path="url(#clip0_1_2611)">
<path d="M26.5067 57.247C26.5067 57.3459 26.5067 57.4448 26.4089 57.4448C26.3111 57.5437 26.3111 57.5437 26.2133 57.5437H20.3442C20.2464 57.5437 20.1486 57.5437 20.1486 57.4448C20.1486 57.3459 20.0508 57.3459 20.0508 57.247V52.4996V52.4007C20.0508 52.4007 20.0508 52.4007 20.1486 52.3018H20.2464C20.2464 52.3018 20.3442 52.3018 20.4421 52.3018C20.5399 52.3018 20.6377 52.3018 20.6377 52.3018H20.7355C20.7355 52.3018 20.8333 52.3018 20.8333 52.4007C20.8333 52.4007 20.8333 52.4007 20.8333 52.4996V56.7525H22.6919V52.4996V52.4007C22.6919 52.4007 22.6919 52.4007 22.7897 52.3018C22.8875 52.2029 22.8875 52.3018 22.8875 52.3018C22.9853 52.3018 22.9853 52.3018 23.0831 52.3018C23.1809 52.3018 23.2788 52.3018 23.2788 52.3018H23.3766C23.3766 52.3018 23.4744 52.3018 23.4744 52.4007C23.4744 52.4007 23.4744 52.4007 23.4744 52.4996V56.7525H25.3329V52.4996V52.4007C25.3329 52.4007 25.3329 52.4007 25.4307 52.3018C25.5286 52.2029 25.5286 52.3018 25.5286 52.3018C25.5286 52.3018 25.6264 52.3018 25.7242 52.3018C25.822 52.3018 25.9198 52.3018 25.9198 52.3018H26.0176C26.0176 52.3018 26.1155 52.3018 26.1155 52.4007C26.1155 52.4007 26.1155 52.4007 26.1155 52.4996V57.247H26.5067Z" fill="#814624"/>
<path d="M31.5932 52.6974C31.5932 52.7963 31.5932 52.7963 31.5932 52.8952C31.5932 52.9941 31.5932 52.9941 31.5932 52.9941C31.5932 52.9941 31.5932 53.093 31.4954 53.093C31.3976 53.093 31.4954 53.093 31.3976 53.093H29.9303V57.3459V57.4448C29.9303 57.4448 29.9303 57.4448 29.8325 57.5437C29.7347 57.6426 29.7347 57.5437 29.7347 57.5437C29.7347 57.5437 29.6368 57.5437 29.539 57.5437C29.4412 57.5437 29.3434 57.5437 29.3434 57.5437C29.2456 57.5437 29.2456 57.5437 29.2456 57.5437C29.2456 57.5437 29.1478 57.5437 29.1478 57.4448C29.1478 57.4448 29.1478 57.4448 29.1478 57.3459V53.093H27.6805H27.5827C27.5827 53.093 27.5827 53.0931 27.4849 52.9941V52.8952C27.4849 52.7963 27.4849 52.7963 27.4849 52.6974C27.4849 52.5985 27.4849 52.5985 27.4849 52.4996C27.4849 52.4007 27.4849 52.4007 27.4849 52.4007C27.4849 52.4007 27.4849 52.3018 27.5827 52.3018C27.5827 52.3018 27.5827 52.3018 27.6805 52.3018H31.4954H31.5932C31.5932 52.3018 31.5932 52.3018 31.691 52.4007V52.4996C31.5932 52.5985 31.5932 52.6974 31.5932 52.6974Z" fill="#814624"/>
<path d="M32.5715 58.8295C32.5715 58.8295 32.5715 58.9284 32.4737 58.9284C32.4737 58.9284 32.3759 58.9284 32.3759 59.0273H32.2781C32.1802 59.0273 32.1802 59.0273 32.0824 59.0273C31.9846 59.0273 31.8868 59.0273 31.8868 59.0273C31.789 59.0273 31.789 59.0273 31.789 58.9284L31.6912 58.8295V58.7306L35.017 49.6314C35.017 49.6314 35.017 49.5325 35.1148 49.5325C35.2126 49.5325 35.2126 49.5325 35.2126 49.4336C35.2126 49.3347 35.3104 49.4336 35.3104 49.4336C35.4082 49.4336 35.4082 49.4336 35.506 49.4336C35.6039 49.4336 35.7017 49.4336 35.7017 49.4336C35.7995 49.4336 35.7995 49.4336 35.7995 49.5325L35.8973 49.6314V49.7303L32.5715 58.8295Z" fill="#814624"/>
<path d="M40.3968 57.3459C40.3968 57.4448 40.3968 57.4448 40.3968 57.3459C40.3968 57.4448 40.299 57.4448 40.299 57.4448H40.2012C40.2012 57.4448 40.1034 57.4448 40.0056 57.4448C39.9077 57.4448 39.8099 57.4448 39.8099 57.4448H39.7121C39.7121 57.4448 39.6143 57.4448 39.6143 57.3459C39.6143 57.3459 39.6143 57.3459 39.6143 57.247V55.17H39.1252C38.9296 55.17 38.7339 55.17 38.6361 55.2689C38.5383 55.2689 38.4405 55.3678 38.3427 55.4667C38.2448 55.5656 38.147 55.6645 38.0492 55.7634C37.9514 55.8623 37.8536 56.0601 37.8536 56.2579L37.4623 57.247C37.4623 57.247 37.4623 57.3459 37.3645 57.3459L37.2667 57.4448C37.2667 57.4448 37.1689 57.4448 37.071 57.4448C36.9732 57.4448 36.9732 57.4448 36.8754 57.4448C36.7776 57.4448 36.7776 57.4448 36.6798 57.4448C36.5819 57.4448 36.582 57.4448 36.582 57.4448H36.4841C36.4841 57.4448 36.4841 57.4448 36.4841 57.3459V57.247C36.4841 57.1481 36.582 57.0492 36.582 56.9503L36.9732 56.0601C37.071 55.8623 37.1689 55.6645 37.3645 55.4667C37.5601 55.2689 37.6579 55.17 37.8536 55.0711C37.4623 54.9722 37.2667 54.8733 36.9732 54.6755C36.6798 54.4777 36.6798 54.181 36.6798 53.7853C36.6798 53.5875 36.6798 53.2908 36.7776 53.093C36.8754 52.8952 36.9732 52.6974 37.1689 52.5985C37.3645 52.4996 37.5601 52.4007 37.8536 52.3018C38.147 52.2029 38.4405 52.2029 38.8318 52.2029C38.9296 52.2029 39.0274 52.2029 39.1252 52.2029C39.223 52.2029 39.3208 52.2029 39.5165 52.2029C39.6143 52.2029 39.7121 52.2029 39.9077 52.2029C40.0056 52.2029 40.1034 52.2029 40.2012 52.2029C40.299 52.2029 40.3968 52.3018 40.3968 52.3018C40.4946 52.4007 40.4946 52.4996 40.4946 52.5985V57.3459H40.3968ZM39.5165 52.9941C39.4187 52.9941 39.223 52.9941 39.1252 52.9941C39.0274 52.9941 38.8317 52.9941 38.7339 52.9941C38.4405 52.9941 38.2448 52.9941 38.147 53.093C37.9514 53.093 37.8536 53.1919 37.7558 53.2908C37.6579 53.3897 37.5601 53.4886 37.5601 53.5875C37.5601 53.6864 37.4623 53.7853 37.4623 53.9832C37.4623 54.0821 37.4623 54.2799 37.5601 54.3788C37.5601 54.4777 37.6579 54.5766 37.7558 54.6755C37.8536 54.7744 37.9514 54.7744 38.147 54.8733C38.3427 54.8733 38.5383 54.9722 38.8318 54.9722H39.6143V52.9941H39.5165Z" fill="#814624"/>
<path d="M49.2982 59.2251C49.2004 59.324 49.1026 59.324 49.1026 59.324C49.1026 59.324 49.0048 59.324 48.907 59.324C48.8091 59.324 48.8091 59.324 48.7113 59.324C48.6135 59.324 48.6135 59.324 48.6135 59.324H48.5157V57.6426H42.2554C42.1575 57.6426 42.0597 57.6426 42.0597 57.5437C42.0597 57.4448 41.9619 57.4448 41.9619 57.3459V52.5985V52.4996C41.9619 52.4996 41.9619 52.4996 42.0597 52.4007H42.1575C42.1575 52.4007 42.2554 52.4007 42.3532 52.4007C42.451 52.4007 42.5488 52.4007 42.5488 52.4007H42.6466C42.6466 52.4007 42.7445 52.4007 42.7445 52.4996C42.7445 52.4996 42.7445 52.4996 42.7445 52.5985V56.8514H44.603V52.5985V52.4996C44.603 52.4996 44.603 52.4996 44.7008 52.4007C44.7986 52.3018 44.7986 52.4007 44.7986 52.4007C44.8964 52.4007 44.8964 52.4007 44.9943 52.4007C45.0921 52.4007 45.1899 52.4007 45.1899 52.4007C45.2877 52.4007 45.2877 52.4007 45.2877 52.4007C45.2877 52.4007 45.3855 52.4007 45.3855 52.4996C45.3855 52.4996 45.3855 52.4996 45.3855 52.5985V56.8514H47.2441V52.5985V52.4996C47.2441 52.4996 47.2441 52.4996 47.3419 52.4007C47.4397 52.3018 47.4397 52.4007 47.4397 52.4007C47.4397 52.4007 47.5375 52.4007 47.6353 52.4007C47.7331 52.4007 47.831 52.4007 47.831 52.4007H47.9288C47.9288 52.4007 48.0266 52.4007 48.0266 52.4996C48.0266 52.4996 48.0266 52.4996 48.0266 52.5985V56.8514H48.7113C48.8091 56.8514 48.8091 56.8514 48.907 56.8514C48.907 56.8514 49.0048 56.9503 48.907 57.0492V59.2251H49.2982Z" fill="#814624"/>
<path d="M43.4292 10.3665C39.5165 8.38845 35.506 6.41038 31.5933 4.4323L26.9959 2.0586C26.1155 1.66299 25.4308 1.26737 24.6483 0.871758C24.4526 0.772854 24.257 0.67395 24.0614 0.67395C23.8657 0.67395 23.6701 0.772854 23.3766 0.871758C20.6378 2.25641 17.8011 3.73997 15.0622 5.12462L4.40006 10.4654C4.10661 10.5643 4.00879 10.7621 4.00879 11.0589C4.00879 17.3887 4.00879 23.8175 4.00879 30.1473C4.00879 30.444 4.10661 30.6418 4.49788 30.8396C7.13895 32.2243 9.87784 33.6089 12.5189 35.0925L13.9862 35.8837C17.2141 37.5651 20.4421 39.3454 23.7679 41.0267C24.0614 41.1256 24.257 41.1256 24.5505 41.0267L42.5489 31.3342C42.9401 31.1363 43.2336 30.9385 43.6249 30.7407C43.9183 30.6418 44.0161 30.444 44.0161 30.0484C44.0161 27.6747 44.0161 25.301 44.0161 22.9273V20.5536V18.081C44.0161 15.8062 44.0161 13.5315 44.0161 11.3556C44.114 10.861 43.9183 10.5643 43.4292 10.3665ZM6.45423 10.6632C6.64986 10.5643 6.74768 10.4654 6.74768 10.4654L10.5626 8.48736C14.8665 6.31147 19.1705 4.13559 23.4745 1.9597C23.8657 1.76189 24.1592 1.76189 24.5505 1.9597C26.0177 2.75093 27.485 3.44326 28.9522 4.23449L31.1042 5.32243L31.0064 5.61914L31.202 5.32243C31.2999 5.32243 31.4955 5.42134 31.5933 5.71805C31.6911 5.91586 31.5933 6.11366 31.4955 6.21257L31.3977 6.31147C31.2999 6.31147 31.202 6.41038 31.202 6.41038L26.7024 8.58626C22.5941 10.6632 18.4858 12.7402 14.4753 14.8172C14.2796 14.9161 14.084 15.015 13.8884 15.015C13.6927 15.015 13.4971 14.9161 13.3014 14.8172C11.932 14.1249 10.4647 13.4326 9.0953 12.6413L6.8455 11.5534C6.64986 11.4545 6.45423 11.3556 6.35641 11.0589C6.25859 10.861 6.35641 10.7621 6.45423 10.6632ZM23.4745 38.4552V38.5541C23.4745 38.653 23.4745 38.653 23.4745 38.7519C23.4745 39.0487 23.3766 39.2465 23.2788 39.2465C23.181 39.2465 23.0832 39.3454 23.0832 39.3454C22.9854 39.3454 22.8876 39.3454 22.6919 39.2465C22.5941 39.2465 22.5941 39.1476 22.4963 39.1476L22.3985 39.0487L19.464 37.4662C14.8665 34.9936 10.2691 32.6199 5.67169 30.1473C5.1826 29.8506 5.08478 29.455 5.08478 29.1583C5.08478 24.9054 5.08478 20.6525 5.08478 16.3997V12.8391C5.08478 12.5424 5.08478 12.2457 5.28042 12.1468C5.47605 12.0479 5.7695 12.1468 6.06296 12.2457L7.82367 13.1358C9.48657 13.9271 11.0516 14.8172 12.7145 15.6084C13.1058 15.8062 13.3014 16.103 13.3014 16.5975C13.3014 18.081 13.3014 19.5646 13.3014 20.9492V22.235V23.0262C13.3014 23.6196 13.3014 24.312 13.3014 24.9054C13.3014 25.1032 13.3993 25.301 13.4971 25.3999C13.5949 25.4988 13.7905 25.4988 13.8884 25.4988C14.2796 25.4988 14.3774 25.0043 14.3774 24.8065V17.4876C14.3774 17.1909 14.3774 16.8942 14.5731 16.7953C14.7687 16.6964 14.9643 16.7953 15.2578 16.8942L17.2141 17.8832C19.0727 18.8723 21.029 19.7624 22.8876 20.7514C23.2788 20.9492 23.4745 21.246 23.4745 21.7405C23.4745 23.8175 23.4745 25.9933 23.4745 28.0703V38.4552ZM24.0614 20.158C23.8657 20.158 23.6701 20.0591 23.4745 19.9602C21.8116 19.169 20.2465 18.2788 18.5836 17.4876L16.1382 16.3008C15.9425 16.2019 15.6491 16.103 15.6491 15.7073C15.6491 15.3117 15.9425 15.2128 16.1382 15.2128L21.3225 12.6413C25.1374 10.6632 29.0501 8.78407 32.8649 6.80599C33.2562 6.60818 33.5497 6.60818 33.9409 6.80599C35.6038 7.69613 37.2667 8.48736 38.9296 9.37749L41.2773 10.5643C41.3751 10.5643 41.5707 10.6632 41.6685 10.96C41.6685 11.0589 41.6685 11.1578 41.6685 11.2567C41.5707 11.4545 41.3751 11.5534 41.2773 11.6523L36.9733 13.8282C32.8649 15.9051 28.7566 17.9821 24.5505 20.0591C24.4526 20.0591 24.257 20.158 24.0614 20.158ZM42.4511 30.2462C38.1471 32.521 33.8431 34.7958 29.5392 37.0706L25.5286 39.1476C25.333 39.2465 25.2352 39.3454 25.0395 39.3454C24.9417 39.3454 24.9417 39.3454 24.8439 39.2465C24.6483 39.1476 24.6483 38.8508 24.6483 38.5541V28.2681C24.6483 26.0922 24.6483 23.9164 24.6483 21.7405C24.6483 21.4438 24.7461 21.0481 25.2352 20.7514C29.637 18.5756 33.9409 16.3008 38.3427 14.1249L42.1576 12.2457C42.3532 12.1468 42.6467 12.0479 42.8423 12.1468C43.038 12.3446 43.038 12.5424 43.038 12.8391V17.6854C43.038 21.5427 43.038 25.3999 43.038 29.2572C43.038 29.7517 42.8423 30.0484 42.4511 30.2462Z" fill="#814624"/>
<path d="M7.52999 57.0492C7.52999 57.1481 7.52999 57.247 7.52999 57.3459C7.52999 57.4448 7.52999 57.5437 7.43218 57.5437C7.43218 57.6426 7.33436 57.6426 7.33436 57.6426C7.33436 57.6426 7.23654 57.6426 7.13872 57.6426H0.487134C0.389317 57.6426 0.291499 57.6426 0.291499 57.6426C0.193682 57.6426 0.193682 57.5437 0.0958644 57.5437C0.0958644 57.4448 -0.00195312 57.4448 -0.00195312 57.3459C-0.00195312 57.247 -0.00195312 57.1481 -0.00195312 56.9503C-0.00195312 56.8514 -0.00195312 56.7525 -0.00195312 56.6536C-0.00195312 56.5547 -0.00195312 56.4558 0.0958644 56.3568C0.0958644 56.2579 0.193682 56.2579 0.193682 56.159C0.193682 56.0601 0.291499 55.9612 0.389317 55.9612L2.83475 53.4886C3.42166 52.8952 3.81293 52.4007 4.2042 51.9062C4.49765 51.5106 4.69329 51.1149 4.88892 50.7193C5.08456 50.3237 5.18237 50.027 5.28019 49.7303C5.37801 49.4336 5.37801 49.1369 5.37801 48.8402C5.37801 48.5434 5.37801 48.3456 5.28019 48.0489C5.18237 47.7522 5.08456 47.5544 4.88892 47.4555C4.69329 47.2577 4.49765 47.1588 4.2042 47.0599C3.91075 46.961 3.61729 46.8621 3.32384 46.8621C2.93257 46.8621 2.5413 46.961 2.24785 47.0599C1.9544 47.1588 1.66094 47.2577 1.46531 47.3566C1.26967 47.4555 0.976222 47.6533 0.878404 47.7522C0.682769 47.8511 0.584952 47.95 0.487134 47.95H0.389317L0.291499 47.8511C0.291499 47.7522 0.291499 47.7522 0.193682 47.6533C0.193682 47.5544 0.193682 47.4555 0.193682 47.3566C0.193682 47.2577 0.193682 47.1588 0.193682 47.1588C0.193682 47.0599 0.193682 47.0599 0.193682 46.961C0.193682 46.8621 0.193682 46.8621 0.291499 46.8621C0.291499 46.8621 0.389317 46.7632 0.487134 46.6643C0.584952 46.5654 0.682769 46.4665 0.878404 46.3676C1.07404 46.2687 1.26967 46.1698 1.56313 46.0708C1.85658 45.9719 2.15003 45.873 2.44348 45.7741C2.73694 45.6752 3.12821 45.6752 3.51948 45.6752C4.10638 45.6752 4.59547 45.7741 5.08456 45.9719C5.47583 46.1698 5.8671 46.3676 6.16055 46.6643C6.454 46.961 6.64964 47.2577 6.84527 47.6533C7.04091 48.0489 7.04091 48.4445 7.04091 48.8402C7.04091 49.2358 7.04091 49.6314 6.94309 50.027C6.84527 50.1259 6.64964 50.5215 6.454 51.016C6.25837 51.5106 5.96491 52.0051 5.47583 52.4996C5.08456 53.093 4.49765 53.6864 3.81293 54.3788L1.9544 56.3568H7.13872C7.23654 56.3568 7.23654 56.3568 7.23654 56.3568L7.33436 56.4558C7.33436 56.5547 7.43218 56.5547 7.43218 56.6536C7.52999 56.8514 7.52999 56.9503 7.52999 57.0492Z" fill="#814624"/>
<path d="M17.1162 57.0492C17.1162 57.1481 17.1162 57.247 17.1162 57.3459C17.1162 57.4448 17.1162 57.5437 17.0184 57.5437C17.0184 57.6426 16.9205 57.6426 16.9205 57.6426C16.9205 57.6426 16.8227 57.6426 16.7249 57.6426H10.0733C9.9755 57.6426 9.87768 57.6426 9.87768 57.6426C9.77986 57.6426 9.77986 57.5437 9.68205 57.5437C9.68205 57.4448 9.58423 57.4448 9.58423 57.3459C9.58423 57.247 9.58423 57.1481 9.58423 56.9503C9.58423 56.8514 9.58423 56.7525 9.58423 56.6536C9.58423 56.5547 9.58423 56.4558 9.68205 56.3568C9.68205 56.2579 9.77986 56.2579 9.77986 56.159C9.77986 56.0601 9.87768 55.9612 9.9755 55.9612L12.4209 53.4886C13.0078 52.8952 13.3991 52.4007 13.7904 51.9062C14.0838 51.4117 14.3773 51.016 14.5729 50.6204C14.7686 50.2248 14.8664 49.9281 14.9642 49.6314C15.062 49.3347 15.062 49.038 15.062 48.7413C15.062 48.4445 15.062 48.2467 14.9642 47.95C14.8664 47.6533 14.7686 47.4555 14.5729 47.3566C14.3773 47.1588 14.1816 47.0599 13.8882 46.961C13.5947 46.8621 13.3013 46.7632 13.0078 46.7632C12.6166 46.7632 12.2253 46.8621 11.9318 46.961C11.6384 47.0599 11.3449 47.1588 11.1493 47.3566C10.9537 47.5544 10.758 47.5544 10.5624 47.7522C10.3668 47.8511 10.269 47.95 10.1711 47.95H10.0733L9.9755 47.8511C9.9755 47.7522 9.9755 47.7522 9.87768 47.6533C9.87768 47.5544 9.87768 47.4555 9.87768 47.3566C9.87768 47.2577 9.87768 47.1588 9.87768 47.1588C9.87768 47.0599 9.87768 47.0599 9.87768 46.961C9.87768 46.8621 9.87768 46.8621 9.9755 46.8621C9.9755 46.8621 10.0733 46.7632 10.1711 46.6643C10.269 46.5654 10.3668 46.4665 10.5624 46.3676C10.758 46.2687 10.9537 46.1698 11.2471 46.0708C11.5406 45.9719 11.834 45.873 12.1275 45.7741C12.4209 45.6752 12.8122 45.6752 13.2035 45.6752C13.7904 45.6752 14.2795 45.7741 14.7686 45.9719C15.1598 46.1698 15.5511 46.3676 15.8445 46.6643C16.138 46.961 16.3336 47.2577 16.5293 47.6533C16.7249 48.0489 16.6271 48.1478 16.6271 48.5434C16.6271 48.9391 16.6271 49.3347 16.5293 49.7303C16.4315 50.1259 16.3336 50.5215 16.138 51.016C15.9424 51.5106 15.6489 52.0051 15.1598 52.4996C14.7686 53.093 14.1817 53.6864 13.4969 54.3788L11.6384 56.3568H16.8227C16.9205 56.3568 16.9205 56.3568 16.9205 56.3568L17.0184 56.4558C17.0184 56.5547 17.1162 56.5547 17.1162 56.6536C17.1162 56.8514 17.1162 56.9503 17.1162 57.0492Z" fill="#814624"/>
</g>
<defs>
<clipPath id="clip0_1_2611">
<rect width="49.3" height="58.65" fill="white" transform="translate(-0.00219727 0.674011)"/>
</clipPath>
</defs>
</svg>
