<svg xmlns="http://www.w3.org/2000/svg" width="20" height="20" viewBox="0 0 20 20" fill="none">
  <path d="M10.0586 0.523926C4.65858 0.523926 0.358582 4.92388 0.358582 10.2239C0.358582 15.6239 4.75858 19.9239 10.0586 19.9239C15.4586 19.9239 19.7586 15.5239 19.7586 10.2239C19.7586 4.92388 15.3586 0.523926 10.0586 0.523926ZM13.2586 2.22388C15.1586 3.02388 16.7586 4.42391 17.7586 6.32391L17.8586 6.52393H14.8586V6.42389C14.5586 5.02389 13.9586 3.62393 13.1586 2.52393L12.8586 2.1239L13.2586 2.22388ZM13.9586 12.9239V13.0239H6.25858V12.9239C6.15858 12.0239 6.05858 11.1239 6.05858 10.3239C6.05858 9.42391 6.15858 8.52388 6.25858 7.72388V7.6239H13.8586V7.72388C14.1586 9.42388 14.1586 11.2239 13.9586 12.9239ZM10.0586 1.6239C11.5586 1.6239 12.9586 3.52391 13.6586 6.32391V6.52393H6.35858V6.32391C7.15858 3.52391 8.55858 1.6239 10.0586 1.6239ZM2.35858 6.32391C3.35858 4.52391 4.95858 3.02388 6.85858 2.22388L7.25858 2.02393L7.05858 2.32391C6.25858 3.52391 5.65858 4.82388 5.35858 6.22388V6.32391H2.35858ZM1.75858 12.9239C1.15858 11.2239 1.15858 9.3239 1.75858 7.6239V7.52393H5.05858V7.6239C4.95858 8.5239 4.85858 9.32388 4.85858 10.2239C4.85858 11.1239 4.95858 11.9239 5.05858 12.8239V12.9239H1.75858ZM6.85858 18.3239C4.95858 17.5239 3.35858 16.1239 2.35858 14.2239L2.25858 14.0239H5.25858V14.1239C5.55858 15.5239 6.15858 16.9239 6.95858 18.1239L7.15858 18.4239L6.85858 18.3239ZM10.0586 18.9239C8.55858 18.9239 7.15858 17.0239 6.45858 14.2239V14.0239H13.7586V14.2239C12.9586 17.1239 11.4586 18.9239 10.0586 18.9239ZM17.7586 14.3239C16.7586 16.1239 15.1586 17.6239 13.2586 18.4239L12.8586 18.6239L13.0586 18.3239C13.8586 17.1239 14.4586 15.8239 14.7586 14.3239V14.2239H17.7586V14.3239ZM18.2586 13.0239H14.9586V12.9239C15.1586 11.2239 15.1586 9.42388 14.9586 7.72388V7.6239H18.2586V7.72388C18.5586 8.62388 18.6586 9.52389 18.6586 10.4239C18.6586 11.2239 18.5586 12.1239 18.2586 13.0239Z" fill="#814624"/>
</svg>