<svg width="45" height="58" viewBox="0 0 45 58" fill="none" xmlns="http://www.w3.org/2000/svg">
<g clip-path="url(#clip0_1_2564)">
<path d="M6.80605 53.8902C6.80605 53.9884 6.80605 54.0866 6.80605 54.1848C6.80605 54.283 6.80605 54.283 6.70753 54.3811L6.60901 54.4793H6.51048H0.993211H0.894688L0.796165 54.3811C0.796165 54.3811 0.697642 54.283 0.697642 54.1848C0.697642 54.0866 0.697642 53.9884 0.697642 53.8902C0.697642 53.792 0.697642 53.6938 0.697642 53.5956C0.697642 53.4974 0.697642 53.4974 0.796165 53.3992L0.894688 53.3011H0.993211H3.16071V45.3477L1.09173 46.526C0.993211 46.6242 0.894688 46.6242 0.796165 46.6242C0.697642 46.6242 0.697642 46.6242 0.59912 46.6242C0.500597 46.6242 0.697642 46.526 0.697642 46.526C0.697642 46.4278 0.697642 46.3296 0.697642 46.2314C0.697642 46.1332 0.697642 46.035 0.697642 46.035C0.697642 46.035 0.697642 45.9368 0.697642 45.8386C0.697642 45.7405 0.697642 45.7405 0.796165 45.7405L0.894688 45.6423L3.35776 44.0712C3.35776 44.0712 3.35776 44.0712 3.45628 44.0712H3.5548C3.5548 44.0712 3.65332 44.0712 3.75185 44.0712C3.85037 44.0712 3.85037 44.0712 3.94889 44.0712C4.04742 44.0712 4.14594 44.0712 4.24446 44.0712C4.34298 44.0712 4.44151 44.0712 4.44151 44.0712C4.44151 44.0712 4.54003 44.0712 4.54003 44.1694V44.2676V53.4974H6.41196H6.51048L6.60901 53.5956C6.60901 53.5956 6.60901 53.6938 6.70753 53.792C6.80605 53.8902 6.80605 53.792 6.80605 53.8902Z" fill="#814624"/>
<path d="M15.1804 51.1409C15.1804 51.73 15.0818 52.221 14.8848 52.6137C14.6878 53.0065 14.3922 53.3992 14.0966 53.6938C13.7025 53.9884 13.3084 54.1848 12.8158 54.3811C12.3232 54.5775 11.8306 54.5775 11.2395 54.5775C10.9439 54.5775 10.6483 54.5775 10.3528 54.4793C10.0572 54.4793 9.76162 54.3811 9.56457 54.283C9.36753 54.1848 9.17048 54.1848 8.97344 54.0866C8.77639 54.0866 8.67787 54.0866 8.67787 53.9884L8.57935 53.8902V53.792C8.57935 53.792 8.57935 53.6938 8.57935 53.5956C8.57935 53.4974 8.57935 53.3992 8.57935 53.3011C8.57935 53.2029 8.57935 53.1047 8.57935 53.0065C8.57935 52.9083 8.57935 52.9083 8.57935 52.8101C8.57935 52.8101 8.57935 52.7119 8.67787 52.7119H8.77639C8.87491 52.7119 8.87491 52.7119 9.07196 52.8101C9.07196 53.0065 9.269 53.1047 9.46605 53.1047C9.6631 53.1047 9.86014 53.3011 10.1557 53.3011C10.4513 53.3992 10.7468 53.3992 11.1409 53.3992C11.535 53.3992 11.8306 53.3992 12.1262 53.3011C12.4217 53.2029 12.7173 53.1047 12.9143 52.9083C13.1114 52.7119 13.3084 52.5155 13.407 52.221C13.5055 51.9264 13.604 51.6318 13.604 51.2391C13.604 50.9445 13.5055 50.6499 13.407 50.3554C13.3084 50.0608 13.1114 49.8644 12.9143 49.7662C12.7173 49.668 12.4217 49.4717 12.1262 49.3735C11.8306 49.2753 11.4365 49.2753 10.9439 49.2753C10.6483 49.2753 10.3528 49.2753 10.0572 49.2753C9.86014 49.2753 9.56457 49.2753 9.36753 49.2753C9.17048 49.2753 9.07196 49.2753 9.07196 49.1771C9.07196 49.0789 8.97344 48.9807 8.97344 48.7843V44.5622C8.97344 44.3658 8.97344 44.2676 9.07196 44.1694C9.17048 44.0712 9.269 44.0712 9.46605 44.0712H14.0966H14.1951L14.2937 44.1694C14.2937 44.1694 14.2937 44.2676 14.3922 44.3658C14.4907 44.464 14.3922 44.5622 14.3922 44.6604C14.3922 44.8567 14.3922 45.0531 14.2937 45.1513C14.1951 45.2495 14.1951 45.3477 14.0966 45.3477H10.4513V48.2934C10.6483 48.2934 10.8454 48.2934 11.0424 48.2934C11.2395 48.2934 11.4365 48.2934 11.7321 48.2934C12.3232 48.2934 12.8158 48.3916 13.2099 48.4898C13.604 48.588 13.9981 48.8825 14.2937 49.0789C14.5892 49.3735 14.7863 49.668 14.9833 50.0608C15.0818 50.2572 15.1804 50.6499 15.1804 51.1409Z" fill="#814624"/>
<path d="M23.9491 49.1771C23.9491 49.9626 23.8506 50.7481 23.7521 51.3373C23.6536 52.0246 23.4565 52.6137 23.1609 53.0065C22.8654 53.4974 22.4713 53.8902 21.9787 54.0866C21.4861 54.3812 20.8949 54.4793 20.2053 54.4793C19.5156 54.4793 19.023 54.3812 18.5304 54.0866C18.0378 53.8902 17.7422 53.4974 17.4466 53.0065C17.1511 52.5156 16.954 52.0246 16.8555 51.3373C16.757 50.6499 16.6584 49.8644 16.6584 49.0789C16.6584 48.2934 16.757 47.5079 16.8555 46.9187C16.954 46.2314 17.1511 45.6423 17.4466 45.2495C17.7422 44.7586 18.1363 44.3658 18.6289 44.1694C19.1215 43.8749 19.7127 43.7767 20.4023 43.7767C21.092 43.7767 21.5846 43.8749 22.0772 44.1694C22.5698 44.3658 22.8654 44.7586 23.1609 45.2495C23.4565 45.7405 23.6536 46.2314 23.7521 46.9187C23.8506 47.6061 23.9491 48.3916 23.9491 49.1771ZM22.5698 49.2753C22.5698 48.7843 22.5698 48.2934 22.4713 47.9006C22.4713 47.5079 22.3728 47.1151 22.2742 46.8206C22.1757 46.526 22.0772 46.2314 21.9787 46.035C21.8802 45.8387 21.6831 45.6423 21.5846 45.4459C21.3875 45.2495 21.1905 45.1513 20.9934 45.1513C20.7964 45.0531 20.5994 45.0531 20.3038 45.0531C19.8112 45.0531 19.5156 45.1513 19.22 45.3477C18.9245 45.5441 18.7274 45.8387 18.5304 46.2314C18.3333 46.6242 18.2348 47.0169 18.2348 47.5079C18.2348 47.9988 18.1363 48.588 18.1363 49.1771C18.1363 49.9626 18.1363 50.6499 18.2348 51.1409C18.3333 51.73 18.4319 52.1228 18.6289 52.5156C18.8259 52.9083 19.023 53.1047 19.3186 53.3011C19.6141 53.4974 19.9097 53.4974 20.3038 53.4974C20.5994 53.4974 20.8949 53.4974 21.092 53.3993C21.289 53.3011 21.4861 53.2029 21.6831 53.0065C21.8802 52.8101 21.9787 52.6137 22.0772 52.3192C22.1757 52.0246 22.2742 51.8282 22.3728 51.4355C22.4713 51.1409 22.4713 50.7481 22.4713 50.4536C22.4713 50.0608 22.5698 49.6681 22.5698 49.2753Z" fill="#814624"/>
<path d="M31.8309 47.3115C31.8309 47.5079 31.8309 47.6061 31.7324 47.7043C31.6339 47.8025 31.6339 47.8025 31.5353 47.8025H30.4516C30.6486 47.9988 30.7472 48.1952 30.8457 48.4898C30.9442 48.6862 30.9442 48.9807 30.9442 49.1771C30.9442 49.5699 30.8457 49.9626 30.7472 50.2572C30.6486 50.5518 30.5501 50.9445 30.2546 51.1409C29.959 51.3373 29.6634 51.5337 29.3678 51.6319C29.0723 51.7301 28.6782 51.8282 28.1856 51.8282C27.89 51.8282 27.5944 51.8282 27.2989 51.7301C27.0033 51.6319 26.8063 51.5337 26.7077 51.4355C26.6092 51.5337 26.5107 51.6319 26.5107 51.7301C26.4122 51.8282 26.4122 52.0246 26.4122 52.1228C26.4122 52.3192 26.5107 52.5156 26.7077 52.6138C26.9048 52.712 27.1018 52.8101 27.3974 52.8101L29.2693 52.9083C29.6634 52.9083 29.959 53.0065 30.2546 53.1047C30.5501 53.2029 30.8457 53.3011 31.0427 53.4975C31.2398 53.6938 31.4368 53.8902 31.5353 54.0866C31.6339 54.283 31.7324 54.5776 31.7324 54.9703C31.7324 55.2649 31.6339 55.6576 31.5353 55.9522C31.4368 56.2468 31.1413 56.5413 30.8457 56.7377C30.5501 56.9341 30.156 57.1305 29.7619 57.3269C29.2693 57.4251 28.7767 57.5232 28.1856 57.5232C27.5944 57.5232 27.1018 57.4251 26.7077 57.3269C26.3136 57.2287 25.9196 57.1305 25.7225 56.9341C25.4269 56.7377 25.2299 56.5413 25.1314 56.345C25.0328 56.1486 24.9343 55.854 24.9343 55.5595C24.9343 55.3631 24.9343 55.1667 25.0328 55.0685C25.1314 54.9703 25.1314 54.7739 25.2299 54.5776C25.3284 54.3812 25.4269 54.283 25.5255 54.1848C25.624 54.0866 25.821 53.8902 26.0181 53.792C25.7225 53.6938 25.5255 53.4975 25.4269 53.3011C25.3284 53.1047 25.2299 52.9083 25.2299 52.6138C25.2299 52.3192 25.3284 52.0246 25.4269 51.7301C25.5255 51.4355 25.7225 51.2391 25.9196 51.0427C25.7225 50.8463 25.624 50.65 25.5255 50.3554C25.4269 50.0608 25.4269 49.7663 25.4269 49.4717C25.4269 49.0789 25.5255 48.6862 25.624 48.3916C25.7225 48.097 25.9196 47.8025 26.2151 47.6061C26.5107 47.4097 26.8063 47.2133 27.1018 47.1151C27.4959 47.017 27.7915 46.9188 28.2841 46.9188C28.4811 46.9188 28.6782 46.9188 28.8752 46.9188C29.0723 46.9188 29.2693 47.017 29.3678 47.017H31.5353C31.6339 47.017 31.7324 47.017 31.7324 47.1151C31.8309 47.017 31.8309 47.1151 31.8309 47.3115ZM30.4516 54.9703C30.4516 54.6757 30.3531 54.3812 30.0575 54.283C29.7619 54.0866 29.4664 53.9884 28.9738 53.9884L27.1018 53.8902C26.9048 53.9884 26.8063 54.1848 26.7077 54.283C26.6092 54.3812 26.5107 54.4794 26.4122 54.6757C26.3136 54.7739 26.3136 54.8721 26.3136 54.9703C26.3136 55.0685 26.3136 55.1667 26.3136 55.2649C26.3136 55.6576 26.5107 55.854 26.8063 56.0504C27.2003 56.2468 27.693 56.345 28.2841 56.345C28.6782 56.345 29.0723 56.345 29.2693 56.2468C29.4664 56.1486 29.7619 56.0504 29.959 55.9522C30.156 55.854 30.2546 55.6576 30.3531 55.4613C30.4516 55.2649 30.4516 55.1667 30.4516 54.9703ZM29.7619 49.2753C29.7619 48.7844 29.6634 48.3916 29.3678 48.097C29.0723 47.8025 28.6782 47.7043 28.1856 47.7043C27.89 47.7043 27.693 47.7043 27.4959 47.8025C27.2989 47.9007 27.1018 47.9988 27.0033 48.1952C26.9048 48.3916 26.8063 48.4898 26.7077 48.6862C26.6092 48.8826 26.6092 49.0789 26.6092 49.2753C26.6092 49.7663 26.7077 50.159 27.0033 50.4536C27.2989 50.7482 27.693 50.8463 28.1856 50.8463C28.4811 50.8463 28.6782 50.8463 28.8752 50.7482C29.0723 50.65 29.2693 50.5518 29.3678 50.3554C29.4664 50.159 29.5649 50.0608 29.6634 49.8645C29.7619 49.6681 29.7619 49.4717 29.7619 49.2753Z" fill="#814624"/>
<path d="M35.0821 52.1228C35.0821 52.6137 35.3776 53.0065 36.0673 53.3992C36.757 53.792 37.5451 53.9884 38.5304 53.9884C39.1215 53.9884 39.6141 53.8902 40.1067 53.792C40.5993 53.5956 40.9934 53.3992 41.289 53.2029C41.5846 52.9083 41.7816 52.7119 41.8801 52.6137C41.9787 52.5155 42.0772 52.4173 42.3728 52.4173C42.5698 52.4173 42.8654 52.4173 43.0624 52.4173C43.2595 52.4173 43.358 52.5155 43.358 52.6137C43.358 52.7119 43.1609 52.9083 42.7669 53.3011C42.3728 53.6938 41.7816 53.9884 40.9934 54.283C40.2053 54.5775 39.4171 54.6757 38.4318 54.6757C36.8555 54.6757 35.4762 54.1848 34.3924 53.3011C33.3087 52.3192 32.7175 51.1409 32.7175 49.5699C32.7175 47.9988 33.3087 46.8205 34.3924 45.8386C35.4762 44.8567 36.954 44.464 38.5304 44.464C40.2053 44.464 41.4861 44.9549 42.5698 45.8386C43.6536 46.8205 44.1462 47.9006 44.1462 49.2753C44.1462 49.668 43.9491 49.7662 43.6536 49.7662H35.0821V52.1228ZM41.8801 47.0169C41.8801 46.6242 41.5846 46.1332 40.8949 45.7405C40.2053 45.3477 39.4171 45.1513 38.5304 45.1513C37.5451 45.1513 36.757 45.3477 36.1658 45.8386C35.4762 46.2314 35.1806 46.7224 35.1806 47.1151V49.1771H41.8801V47.0169Z" fill="#814624"/>
<path d="M35.3165 36.6817C35.688 36.6817 36.0595 36.5583 36.431 36.3115C37.5454 35.6945 37.9169 34.7072 37.6692 33.3498C37.5454 32.7327 37.4216 32.1157 37.1739 31.4987L36.8024 30.1412C35.5642 24.5879 34.3259 19.158 33.0877 13.6047C32.84 12.6174 32.3447 11.877 31.3541 11.6302C30.9827 11.5068 30.4874 11.5068 30.1159 11.5068C29.0014 11.5068 28.0108 11.5068 26.8964 11.5068H24.6676C24.6676 11.5068 24.6676 11.5068 24.5437 11.5068C24.4199 11.5068 24.2961 11.5068 24.0484 11.3834L23.9246 11.2599V11.1365C23.9246 11.0131 24.0484 10.8897 24.0484 10.7663C25.2867 9.28544 25.9058 7.68115 25.6582 5.83005C25.5343 4.22576 24.6676 2.74488 23.4293 1.75763C22.0672 0.770374 20.4575 0.276747 18.8478 0.646967C16.4951 1.01719 14.8854 2.25125 14.0186 4.47258C13.1518 6.6939 13.5233 8.79181 15.133 10.6429C15.2568 10.7663 15.3807 10.8897 15.2568 11.1365C15.133 11.3834 14.8854 11.3834 14.7615 11.3834C14.7615 11.3834 14.7615 11.3834 14.6377 11.3834H13.5233C12.1612 11.3834 10.6753 11.3834 9.31321 11.3834C7.57965 11.3834 6.71288 12.1238 6.3414 13.7281C5.8461 15.9494 5.3508 18.1707 4.8555 20.2686C4.60785 21.2559 4.36019 22.1197 4.23637 23.107L3.61724 25.2049C2.99812 28.0433 2.37899 30.7582 1.75986 33.5966C1.63604 34.0902 1.63604 34.5838 1.75986 34.954C2.13134 36.0647 3.12194 36.8051 4.36019 36.8051H34.9451C35.0689 36.6817 35.1927 36.6817 35.3165 36.6817ZM14.8854 6.6939C14.8854 5.45983 15.3807 4.22576 16.2474 3.36192C17.1142 2.49807 18.3525 2.00444 19.5907 2.00444C22.191 2.00444 24.2961 4.10236 24.4199 6.6939C24.4199 9.28544 22.3149 11.3834 19.7145 11.3834C18.4763 11.3834 17.238 10.8897 16.3713 10.0259C15.3807 9.16203 14.8854 7.92797 14.8854 6.6939ZM24.6676 35.3243H19.5907H15.7521H4.36019H4.23637H4.11254C3.86489 35.3243 3.74107 35.3243 3.49342 35.2009C2.99811 34.954 2.87429 34.4604 2.99812 33.9668C3.24577 32.9795 3.49342 31.9923 3.61724 30.8816V30.6348C4.8555 25.0815 6.09375 19.5282 7.45583 13.8515C7.8273 13.111 8.19878 12.8642 9.06556 12.8642C16.1236 12.8642 23.1817 12.8642 30.2397 12.8642C31.1065 12.8642 31.478 13.111 31.6018 14.0983L36.0595 33.72C36.1833 34.2136 36.1833 34.7072 35.9357 34.954C35.688 35.2009 35.3165 35.3243 34.8212 35.3243H24.6676Z" fill="#814624"/>
<path d="M26.1533 20.639C26.1533 20.639 26.1533 20.639 26.0295 20.639C25.7818 20.639 25.5342 20.639 25.4103 20.639H25.2865C25.1627 20.639 25.0389 20.639 24.915 20.639C24.915 20.639 24.915 20.639 24.915 20.8858L25.0389 21.256L24.6674 21.1326C24.6674 21.1326 24.5436 21.1326 24.5436 21.0092C23.9244 20.5156 23.1815 20.3922 22.3147 20.5156C21.4479 20.639 20.705 21.1326 20.2097 21.8731C19.4667 22.9837 19.3429 24.2178 19.8382 25.6987C20.2097 26.9327 21.3241 27.7966 22.5624 27.7966C23.1815 27.7966 23.8006 27.5498 24.4197 27.1795L24.7912 26.9327V27.5498C24.7912 27.6732 24.7912 27.7966 24.7912 27.92C24.6674 29.0306 24.0483 29.6477 22.81 29.7711C21.9432 29.7711 21.2003 29.6477 20.5811 29.2775C20.5811 29.2775 20.5811 29.2775 20.4573 29.2775C20.4573 29.2775 20.4573 29.2775 20.4573 29.4009C20.3335 29.7711 20.3335 30.0179 20.2097 30.2647C20.0858 30.3881 20.0858 30.5115 20.3335 30.6349C21.5718 31.252 22.81 31.3754 24.1721 30.8817C25.1627 30.5115 25.7818 29.8945 26.1533 28.7838C26.2771 28.2902 26.2771 27.7966 26.4009 27.303C26.4009 26.9327 26.4009 26.4391 26.4009 26.0689C26.4009 25.6987 26.4009 25.205 26.4009 24.8348C26.4009 24.4646 26.4009 24.0944 26.4009 23.6007C26.4009 22.7369 26.4009 21.8731 26.5248 21.0092C26.1533 20.639 26.1533 20.639 26.1533 20.639ZM24.6674 24.3412C24.6674 24.4646 24.6674 24.7114 24.6674 24.8348C24.6674 25.6987 24.0483 26.3157 23.3053 26.5625C23.1815 26.5625 23.0577 26.5625 22.81 26.5625C22.1909 26.5625 21.5718 26.1923 21.2003 25.6987C20.5811 24.588 20.705 23.4773 21.3241 22.3667C21.6956 21.6262 22.5624 21.3794 23.4291 21.6262C24.1721 21.8731 24.6674 22.4901 24.6674 23.3539C24.6674 23.4773 24.6674 23.7242 24.6674 23.8476V24.3412Z" fill="#814624"/>
<path d="M19.2191 27.7964L18.8476 27.3028C17.9808 26.1921 17.2379 25.0815 16.3711 24.0942C16.1235 23.8474 16.1235 23.4772 16.3711 23.2304C16.9902 22.4899 17.7332 21.8729 18.3523 21.1324L18.8476 20.6388C18.7238 20.6388 18.4762 20.6388 18.3523 20.6388C17.9808 20.6388 17.7332 20.6388 17.3617 20.6388C17.1141 20.6388 16.9902 20.6388 16.8664 20.8856C16.3711 21.5027 15.8758 21.9963 15.3805 22.6133L14.7614 23.3538L14.3899 23.2304V23.1069V21.3793C14.3899 20.1452 14.3899 18.9111 14.3899 17.6771C14.3899 17.5536 14.3899 17.4302 14.3899 17.4302C14.3899 17.4302 14.3899 17.4302 14.2661 17.4302C14.0184 17.4302 13.8946 17.4302 13.647 17.4302C13.3993 17.4302 13.1517 17.4302 13.0278 17.4302C13.0278 17.4302 13.0278 17.5536 13.0278 17.8005V27.9198C13.0278 27.9198 13.0278 27.9198 13.0278 28.0432C13.0278 28.0432 13.0278 28.0432 13.1517 28.0432H14.3899H14.5137C14.5137 28.0432 14.5137 28.0432 14.5137 27.9198C14.5137 27.673 14.5137 27.3028 14.5137 27.056V25.6985C14.5137 25.4517 14.6376 25.0815 14.8852 25.0815H15.009C15.2567 25.0815 15.3805 25.3283 15.3805 25.3283C15.3805 25.3283 15.3805 25.3283 15.3805 25.4517C15.9996 26.3155 16.6188 27.1794 17.2379 28.0432C17.3617 28.1666 17.4855 28.29 17.6094 28.29C17.857 28.29 18.2285 28.29 18.4761 28.29C18.8476 27.7964 19.0953 27.7964 19.2191 27.7964Z" fill="#814624"/>
</g>
<defs>
<clipPath id="clip0_1_2564">
<rect width="43.35" height="56.95" fill="white" transform="translate(0.697754 0.524048)"/>
</clipPath>
</defs>
</svg>
