<svg width="294" height="187" viewBox="0 0 294 187" fill="none" xmlns="http://www.w3.org/2000/svg">
<path d="M87.866 136.267C88.1498 138.209 86.941 139.553 84.2395 140.299C83.7222 140.442 82.9607 140.551 81.9217 140.602C82.4315 142.044 82.9074 143.663 83.3829 145.484C83.825 147.281 84.1671 148.802 84.3421 149.999C84.73 152.652 84.6544 154.794 84.0819 156.4C83.5093 158.005 82.6076 158.995 81.3718 159.336C79.7911 159.773 78.4857 158.821 77.4605 156.512C76.4352 154.203 75.5368 150.512 74.7941 145.432C74.1034 140.708 73.8631 135.793 74.0445 130.693C74.2545 125.586 74.9038 121.232 76.0208 117.624C77.1379 114.017 78.6544 111.915 80.5512 111.391C81.5858 111.105 82.4663 111.401 83.1925 112.277C83.9187 113.154 84.4094 114.466 84.6649 116.213C85.5069 121.972 83.3543 129.131 78.2262 137.617C78.3463 140.075 78.5724 142.234 78.8373 144.046C79.2063 146.57 79.6709 149.135 80.2073 151.781C80.7389 154.394 81.1962 155.682 81.5411 155.587C82.2021 155.404 82.3338 154.055 81.96 151.499C81.6809 149.59 81.2916 147.745 80.8015 146.029C80.3114 144.312 79.7161 142.491 79.054 140.62C78.9779 140.305 79.0074 139.892 79.1616 139.311C79.2918 138.77 79.4889 138.278 79.7483 137.803C80.0124 137.359 80.2427 137.094 80.4726 137.03C80.9037 136.911 81.4258 136.801 82.0628 136.658C82.2687 136.635 82.4986 136.572 82.7572 136.5C83.6194 136.262 84.5824 135.895 85.6221 135.44C85.7898 135.36 85.9575 135.28 86.1587 135.224C86.3551 135.136 86.5563 135.081 86.7575 135.025C87.3228 134.802 87.7146 135.232 87.866 136.267ZM79.2567 117.875C78.8996 119.522 78.6181 121.687 78.4029 124.305C78.1876 126.923 78.0822 129.679 78.082 132.54C79.5086 129.823 80.49 127.129 81.0836 124.44C81.6772 121.751 81.8059 119.359 81.5272 117.248C81.3096 115.76 80.9421 115.087 80.3673 115.246C79.9889 115.316 79.6092 116.196 79.2567 117.875Z" fill="#FFF6E3"/>
<path d="M86.5031 144.696C86.0365 143.844 85.6491 142.348 85.3453 140.238C84.8964 137.121 84.8603 134.085 85.2281 131.067C85.3212 130.32 85.5516 129.731 85.947 129.293C86.3424 128.854 86.8982 128.535 87.6695 128.318C88.0828 128.203 88.3949 128.181 88.5783 128.26C88.7617 128.34 88.8761 128.537 88.926 128.883C88.9804 129.261 88.942 130.189 88.8294 131.596C88.7451 132.603 88.7023 133.499 88.6964 134.254C88.6629 135.017 88.7073 135.922 88.7743 136.984C89.1682 134.744 89.6992 132.859 90.3673 131.329C91.0353 129.799 91.7577 128.646 92.5025 127.848C93.2518 127.081 93.9824 126.581 94.6711 126.388C96.0209 126.009 96.8229 126.603 97.0451 128.146C97.0904 128.461 97.1166 129.24 97.0961 130.49C97.0668 131.481 97.0704 132.103 97.1066 132.354C97.2291 133.205 97.5635 133.537 98.0869 133.39C98.6654 133.228 99.3596 132.476 100.119 131.182C100.349 130.79 100.602 130.555 100.905 130.47C101.18 130.393 101.419 130.457 101.597 130.702C101.804 130.939 101.909 131.27 101.977 131.742C102.104 132.624 101.983 133.378 101.642 133.998C101.164 134.853 100.561 135.644 99.8302 136.34C99.1038 137.068 98.3092 137.52 97.4277 137.767C96.3258 138.076 95.4265 138.001 94.7528 137.502C94.0791 137.003 93.6812 136.23 93.5225 135.128C93.4726 134.782 93.4457 134.396 93.451 134.035C93.438 133.547 93.3927 133.232 93.3655 133.043C93.311 132.665 93.1736 132.507 92.9533 132.569C92.6503 132.654 92.296 133.179 91.8859 134.113C91.4759 135.047 91.1343 136.257 90.8289 137.718C90.5235 139.179 90.3098 140.681 90.2153 142.214C90.1582 143.409 89.9915 144.242 89.7429 144.705C89.4943 145.168 89.0578 145.519 88.3967 145.705C87.5933 145.897 86.9697 145.548 86.5031 144.696Z" fill="#FFF6E3"/>
<path d="M115.155 127.471C115.338 127.747 115.475 128.102 115.548 128.605C115.711 129.738 115.508 130.516 114.934 130.906C113.74 131.765 112.403 132.434 110.925 132.914C110.83 135.037 110.262 136.866 109.278 138.386C108.293 139.907 107.034 140.914 105.547 141.331C104.28 141.687 103.184 141.634 102.175 141.196C101.194 140.751 100.374 140.031 99.7384 138.998C99.107 137.996 98.7053 136.799 98.5149 135.477C98.252 133.651 98.3237 131.961 98.7256 130.375C99.1275 128.789 99.795 127.455 100.751 126.336C101.712 125.248 102.837 124.507 104.132 124.144C105.729 123.696 107.087 123.97 108.26 124.951C109.405 125.94 110.205 127.32 110.638 129.131C111.62 128.79 112.741 128.214 114.059 127.418C114.215 127.309 114.353 127.27 114.491 127.232C114.729 127.099 114.972 127.195 115.155 127.471ZM106.846 136.023C107.251 135.254 107.454 134.28 107.452 133.069C106.718 132.751 106.127 132.229 105.679 131.503C105.231 130.778 104.915 129.982 104.784 129.069C104.729 128.692 104.703 128.306 104.703 127.913L104.538 127.959C103.712 128.191 103.064 128.864 102.644 129.931C102.225 130.998 102.136 132.366 102.38 134.066C102.571 135.388 102.936 136.333 103.504 136.894C104.045 137.463 104.618 137.663 105.224 137.493C105.908 137.268 106.441 136.791 106.846 136.023Z" fill="#FFF6E3"/>
<path d="M114.171 137.921C113.706 137.074 113.32 135.587 113.017 133.491C112.57 130.394 112.534 127.377 112.901 124.378C112.993 123.636 113.223 123.051 113.617 122.616C114.011 122.18 114.564 121.862 115.332 121.647C115.744 121.532 116.055 121.51 116.238 121.589C116.42 121.669 116.534 121.865 116.584 122.209C116.638 122.584 116.6 123.506 116.488 124.904C116.404 125.904 116.361 126.795 116.351 127.514C116.313 128.241 116.357 129.14 116.428 130.226C116.738 128.219 117.171 126.471 117.754 124.973C118.364 123.468 119.02 122.276 119.753 121.42C120.486 120.564 121.209 120.036 121.949 119.829C122.69 119.622 123.211 119.671 123.567 119.962C123.923 120.253 124.174 120.802 124.287 121.584C124.395 122.334 124.402 123.765 124.279 125.882C124.236 126.773 124.222 127.46 124.23 127.914C124.627 125.72 125.16 123.878 125.83 122.389C126.5 120.899 127.192 119.762 127.939 119C128.685 118.238 129.385 117.749 130.071 117.557C130.73 117.373 131.278 117.415 131.666 117.729C132.054 118.044 132.327 118.553 132.436 119.304C132.526 119.93 132.583 121.118 132.612 122.9C132.6 124.4 132.635 125.823 132.715 127.168C132.79 128.481 132.92 129.974 133.146 131.539C133.277 132.446 133.207 133.149 132.932 133.616C132.657 134.084 132.167 134.449 131.426 134.656C130.74 134.848 130.219 134.798 129.831 134.484C129.471 134.161 129.22 133.613 129.103 132.8C128.968 131.861 128.879 130.259 128.865 127.984C128.836 126.007 128.802 124.78 128.725 124.248C128.671 123.872 128.534 123.715 128.314 123.777C128.04 123.854 127.714 124.368 127.333 125.288C126.952 126.208 126.612 127.41 126.281 128.87C125.976 130.322 125.764 131.814 125.669 133.337C125.613 134.525 125.451 135.384 125.203 135.843C124.956 136.303 124.489 136.629 123.831 136.813C123.145 137.005 122.569 136.776 122.131 136.117C121.694 135.458 121.371 134.605 121.217 133.541C121.086 132.634 121.006 131.289 120.955 129.546C120.898 127.967 120.836 126.943 120.768 126.474C120.714 126.098 120.577 125.941 120.357 126.003C120.056 126.087 119.707 126.64 119.363 127.615C119.018 128.591 118.71 129.816 118.438 131.292C118.193 132.76 118.021 134.142 117.932 135.502C117.875 136.689 117.709 137.517 117.461 137.977C117.214 138.436 116.779 138.786 116.121 138.97C115.256 139.114 114.635 138.767 114.171 137.921Z" fill="#FFF6E3"/>
<path d="M145.849 129.709C143.976 128.975 142.87 127.33 142.508 124.813C142.315 123.475 142.363 122.4 142.68 121.582C142.969 120.772 143.532 120.249 144.311 120.03C144.868 119.874 145.365 119.9 145.777 120.149C146.19 120.398 146.417 120.765 146.495 121.307C146.563 121.785 146.595 122.207 146.594 122.605C146.608 122.701 146.603 122.868 146.612 123.13C146.621 123.393 146.63 123.656 146.666 123.911C146.822 124.994 147.415 125.69 148.463 125.926C149.516 126.194 150.89 126.074 152.616 125.589C154.427 125.081 155.764 124.308 156.69 123.285C157.587 122.271 157.965 121.071 157.777 119.765C157.658 118.936 157.334 118.298 156.773 117.825C156.213 117.353 155.559 117.039 154.803 116.82C154.052 116.633 153.004 116.397 151.64 116.183C149.919 115.904 148.486 115.61 147.359 115.23C146.232 114.85 145.245 114.232 144.328 113.296C143.443 112.384 142.879 111.084 142.636 109.395C142.384 107.643 142.582 105.996 143.192 104.399C143.803 102.802 144.821 101.422 146.248 100.259C147.67 99.0648 149.43 98.2061 151.491 97.6276C153.023 97.1977 154.48 97.0539 155.867 97.2282C157.222 97.3784 158.367 97.8857 159.302 98.7502C160.234 99.5828 160.784 100.788 161.008 102.349C161.228 103.878 161.198 105.08 160.891 105.962C160.611 106.836 160.053 107.391 159.273 107.61C158.716 107.766 158.243 107.7 157.798 107.427C157.381 107.146 157.117 106.723 157.044 106.213C156.98 105.767 156.943 105.313 156.944 104.915C156.894 104.167 156.858 103.713 156.83 103.522C156.684 102.502 156.128 101.862 155.187 101.563C154.245 101.264 153.122 101.314 151.841 101.673C150.031 102.181 148.693 102.955 147.828 103.993C146.963 105.031 146.646 106.247 146.843 107.618C146.976 108.542 147.341 109.268 147.934 109.764C148.532 110.293 149.223 110.663 150.034 110.866C150.85 111.101 151.954 111.321 153.378 111.551C155.104 111.863 156.481 112.172 157.543 112.504C158.605 112.836 159.56 113.43 160.375 114.262C161.223 115.118 161.741 116.299 161.961 117.828C162.373 120.696 161.738 123.128 160.069 125.221C158.395 127.282 155.97 128.758 152.795 129.649C150.038 130.423 147.722 130.443 145.849 129.709Z" fill="#FFF6E3"/>
<path d="M176.959 115.322C177.172 115.564 177.318 115.96 177.393 116.476C177.534 117.443 177.447 118.273 177.1 118.94C176.348 120.491 175.506 121.832 174.547 122.971C173.587 124.111 172.396 124.878 171.03 125.258C169.123 125.788 167.588 125.208 166.363 123.502C165.166 121.788 164.346 119.399 163.891 116.27C163.456 113.271 163.305 109.79 163.431 105.762C163.561 101.766 164.079 98.1999 165.019 95.0867C165.958 91.9735 167.322 90.1515 169.172 89.6372C170.196 89.3524 171.101 89.6712 171.858 90.6015C172.615 91.5319 173.125 93.0008 173.42 95.0326C173.841 97.9352 173.622 101.519 172.756 105.753C171.891 109.986 170.508 114.33 168.609 118.784C168.896 119.744 169.256 120.382 169.663 120.739C170.065 121.063 170.553 121.162 171.122 121.004C172.005 120.759 172.731 120.255 173.33 119.485C173.928 118.714 174.642 117.509 175.46 115.805C175.665 115.379 175.926 115.139 176.267 115.044C176.495 114.981 176.746 115.079 176.959 115.322ZM167.694 96.9936C167.363 99.1995 167.188 101.865 167.144 105.032C167.096 108.165 167.262 111.139 167.636 113.921C168.756 110.623 169.563 107.413 170.056 104.289C170.55 101.165 170.621 98.3943 170.279 96.0399C170.008 94.1694 169.559 93.3211 168.961 93.4873C168.444 93.5974 168.025 94.7877 167.694 96.9936Z" fill="#FFF6E3"/>
<path d="M175.641 122.612C174.716 121.759 174.127 120.451 173.877 118.721C173.601 116.802 173.728 114.901 174.25 112.954C174.776 111.039 175.595 109.369 176.74 107.969C177.884 106.568 179.156 105.655 180.615 105.246C181.083 105.114 181.4 105.124 181.596 105.298C181.789 105.44 181.953 105.787 182.141 106.291C182.568 106.073 183.026 105.879 183.495 105.748C184.513 105.462 185.095 105.724 185.218 106.574C185.29 107.077 185.297 108.319 185.266 110.291C185.192 113.159 185.221 115.148 185.375 116.217C185.425 116.563 185.553 116.855 185.718 117.005C185.915 117.179 186.121 117.219 186.369 117.15C186.754 117.042 187.209 116.62 187.674 115.868C188.166 115.108 188.773 113.956 189.546 112.364C189.744 111.949 189.997 111.714 190.327 111.622C190.603 111.545 190.845 111.64 191.024 111.885C191.23 112.121 191.344 112.515 191.416 113.018C191.552 113.962 191.468 114.771 191.132 115.422C190.456 116.888 189.692 118.149 188.851 119.269C188.01 120.388 187.133 121.06 186.252 121.307C185.563 121.5 184.889 121.394 184.234 121.021C183.579 120.649 183.034 120.049 182.623 119.182C181.839 121.496 180.608 122.889 178.956 123.352C177.694 123.739 176.571 123.497 175.641 122.612ZM180.781 118.127C181.103 117.382 181.288 116.479 181.331 115.387L181.536 108.457C180.66 108.735 179.915 109.337 179.276 110.268C178.637 111.2 178.2 112.338 177.931 113.657C177.663 114.976 177.624 116.296 177.819 117.648C177.928 118.403 178.142 118.9 178.44 119.176C178.738 119.453 179.15 119.534 179.591 119.41C180.031 119.287 180.431 118.88 180.781 118.127Z" fill="#FFF6E3"/>
<path d="M206.753 107.806C206.963 108.047 207.106 108.44 207.18 108.952C207.319 109.912 207.233 110.734 206.891 111.396C206.198 112.855 205.393 114.146 204.482 115.3C203.57 116.455 202.593 117.161 201.557 117.452C199.932 117.907 198.543 117.164 197.394 115.256C196.682 116.787 196.022 117.871 195.414 118.507C194.806 119.144 194.054 119.587 193.158 119.839C191.87 120.2 190.727 119.954 189.725 119.07C188.723 118.185 188.096 116.863 187.842 115.104C187.561 113.152 187.667 111.258 188.155 109.39C188.644 107.522 189.426 105.872 190.534 104.462C191.643 103.053 192.979 102.013 194.52 101.382C194.234 96.5682 194.438 92.3169 195.102 88.6355C195.771 84.9861 197.011 82.8742 198.86 82.3561C199.784 82.097 200.61 82.365 201.331 83.1281C202.086 83.9153 202.597 85.2367 202.874 87.1565C203.266 89.8761 203.138 93.2406 202.483 97.1859C201.832 101.163 200.803 105.346 199.424 109.727C199.711 111.112 200.054 112.081 200.422 112.61C200.79 113.139 201.195 113.325 201.643 113.2C202.232 113.035 202.75 112.59 203.284 111.841C203.789 111.101 204.458 109.881 205.245 108.262C205.446 107.84 205.703 107.601 206.039 107.507C206.324 107.461 206.571 107.558 206.753 107.806ZM194.893 114.892C195.23 114.398 195.661 113.545 196.134 112.38C195.721 111.131 195.425 109.683 195.19 108.051C195.107 107.475 194.996 106.508 194.835 105.188C193.719 105.933 192.896 107.096 192.309 108.692C191.723 110.288 191.553 111.933 191.792 113.597C192.046 115.357 192.707 116.104 193.772 115.805C194.164 115.695 194.528 115.393 194.893 114.892ZM198.163 88.8429C198.006 90.5846 197.95 92.8304 198.053 95.5646C198.156 98.2988 198.328 101.113 198.636 104.056C200.163 97.4697 200.681 92.3648 200.164 88.7812C200.031 87.8534 199.845 87.173 199.659 86.6925C199.446 86.2198 199.241 86.0109 199.045 86.0659C198.62 86.1516 198.348 87.0934 198.163 88.8429Z" fill="#FFF6E3"/>
<path d="M207.264 115.385C206.275 114.935 205.499 114.161 204.89 113.142C204.281 112.122 203.876 110.913 203.689 109.61C203.424 107.767 203.496 106.061 203.874 104.467C204.279 102.865 204.924 101.527 205.833 100.412C206.746 99.329 207.853 98.5884 209.13 98.2298C210.38 97.8789 211.485 97.9322 212.479 98.4136C213.468 98.8632 214.272 99.6295 214.881 100.649C215.49 101.668 215.895 102.877 216.082 104.18C216.347 106.023 216.275 107.73 215.87 109.331C215.464 110.933 214.791 112.279 213.883 113.394C212.942 114.485 211.863 115.218 210.585 115.576C209.336 115.927 208.225 115.842 207.264 115.385ZM211.992 109.693C212.364 108.662 212.427 107.289 212.18 105.573C211.988 104.238 211.624 103.316 211.107 102.733C210.595 102.183 210.044 101.974 209.433 102.145C208.684 102.356 208.109 102.98 207.737 104.01C207.365 105.04 207.303 106.414 207.554 108.161C207.751 109.528 208.119 110.483 208.632 111.033C209.14 111.552 209.718 111.753 210.356 111.574C211.078 111.371 211.625 110.755 211.992 109.693Z" fill="#FFF6E3"/>
<path d="M218.983 112.707C218.413 112.26 218.043 111.557 217.902 110.588C217.743 109.49 217.901 108.539 218.345 107.711C218.789 106.882 219.512 106.345 220.512 106.068C221.454 105.807 222.234 105.859 222.794 106.241C223.355 106.623 223.724 107.327 223.875 108.36C224.039 109.49 223.885 110.473 223.413 111.31C222.941 112.146 222.217 112.683 221.246 112.952C220.314 113.278 219.558 113.186 218.983 112.707ZM220.097 103.832C219.779 103.685 219.589 103.402 219.518 102.917L219.505 102.619C219.476 99.7714 219.506 96.5049 219.626 92.8435C219.742 89.1499 219.876 85.9887 220.076 83.2795C220.188 81.6023 221.018 80.566 222.559 80.1383C223.958 79.7501 224.718 80.0766 224.864 81.0775C224.897 81.3035 224.901 81.5375 224.887 81.8439C224.696 84.6177 224.41 87.9555 224.003 91.8978C223.597 95.84 223.182 99.3143 222.749 102.256C222.633 103.094 222.119 103.64 221.234 103.886C220.801 103.972 220.415 103.979 220.097 103.832Z" fill="#FFF6E3"/>
<path d="M70.6521 88.6757C69.5931 90.5233 67.9163 92.0822 65.6033 93.4235C66.9641 93.4709 68.0569 93.8575 68.854 94.5909C69.651 95.3243 70.1386 96.3095 70.3122 97.5146C70.5864 99.4175 70.2979 101.214 69.4744 102.897C68.6232 104.587 67.2833 106.085 65.3716 107.412C63.4876 108.732 61.1335 109.788 58.3091 110.58C57.2569 110.875 56.4216 111.076 55.7756 111.191C55.8439 111.865 55.6677 112.442 55.2473 112.923C54.8268 113.404 54.2128 113.741 53.4652 113.95C52.7176 114.16 52.1641 114.117 51.8324 113.814C51.5006 113.511 51.2799 112.979 51.2256 112.203C50.9351 108.787 50.7834 105.134 50.8071 101.3C50.8263 97.4338 51.0068 93.6878 51.3395 89.9981C51.3911 89.3567 51.6364 88.859 52.0428 88.4811C52.4493 88.1032 53.0171 87.8451 53.7371 87.6432C55.0108 87.2862 55.7347 87.5122 55.8535 88.3368C55.9037 88.6856 55.9033 89.0817 55.8242 89.5328C55.54 91.5592 55.3562 94.2833 55.2916 97.6339C55.1993 100.992 55.2549 104.177 55.4537 107.157C56.4642 106.973 57.304 106.803 57.9409 106.625C60.876 105.802 62.9674 104.721 64.2102 103.35C65.4531 101.978 65.9671 100.547 65.7478 99.0251C65.597 97.9786 65.0768 97.1675 64.1733 96.6949C63.2652 96.1906 61.9089 96.1748 60.04 96.5997C59.6201 96.6845 59.2972 96.643 59.1037 96.4993C58.9055 96.3239 58.7722 95.9983 58.7037 95.5226C58.6032 94.8249 58.6594 94.2152 58.8446 93.7013C59.0299 93.1875 59.4686 92.8335 60.1286 92.6155C61.6147 92.1329 62.9395 91.5306 64.0616 90.7211C65.216 89.9356 66.0615 89.0057 66.635 87.9871C67.2084 86.9684 67.4268 85.8844 67.2668 84.7744C67.0658 83.379 66.2967 82.4397 64.9918 81.9806C63.6869 81.5216 61.7723 81.6294 59.3079 82.3202C57.065 82.9489 54.9232 83.8792 52.9148 85.1352C50.9063 86.3911 49.2529 87.7124 47.9039 89.1464C47.3033 89.7767 46.7584 90.1934 46.2877 90.3254C45.9 90.434 45.6003 90.3531 45.3653 90.122C45.1304 89.8909 44.9647 89.5414 44.8962 89.0657C44.8094 88.4631 44.847 87.9247 45.0046 87.4186C45.1621 86.9125 45.6197 86.2893 46.3959 85.4778C48.0035 83.8393 49.9477 82.3374 52.21 81.0434C54.4954 79.7098 56.8864 78.7096 59.3508 78.0188C63.172 76.9477 66.1014 76.8854 68.1945 77.8164C70.2599 78.7552 71.4801 80.4258 71.8273 82.8361C72.0644 84.8813 71.6834 86.8358 70.6521 88.6757Z" fill="#FFF6E3"/>
<path d="M74.1615 105.626C73.2364 104.771 72.6466 103.463 72.3969 101.731C72.1198 99.8113 72.2463 97.9093 72.7672 95.9624C73.2926 94.047 74.1111 92.377 75.2548 90.9762C76.3986 89.5754 77.67 88.6628 79.1287 88.2545C79.5966 88.1235 79.9131 88.1332 80.11 88.3073C80.3024 88.45 80.4669 88.7968 80.6542 89.3011C81.081 89.0834 81.5398 88.8895 82.0077 88.7585C83.0261 88.4735 83.608 88.7363 83.7307 89.5862C83.8033 90.0898 83.8108 91.3321 83.7806 93.3055C83.7078 96.1749 83.7371 98.1642 83.8915 99.2344C83.9415 99.5807 84.0694 99.8723 84.2343 100.023C84.4312 100.197 84.6375 100.237 84.8852 100.168C85.2705 100.06 85.7251 99.6382 86.1893 98.886C86.681 98.1262 87.2879 96.9739 88.0604 95.3823C88.2582 94.9667 88.5107 94.7323 88.841 94.6398C89.1162 94.5628 89.3591 94.6585 89.5376 94.9033C89.7436 95.1404 89.8577 95.5342 89.9304 96.0378C90.0666 96.9821 89.9829 97.7914 89.6473 98.4421C88.9712 99.9085 88.2083 101.17 87.3676 102.289C86.5269 103.409 85.6501 104.08 84.7694 104.327C84.0813 104.519 83.4074 104.413 82.7522 104.04C82.097 103.666 81.5521 103.066 81.1406 102.198C80.3579 104.513 79.1271 105.906 77.4757 106.368C76.1866 106.762 75.0911 106.512 74.1615 105.626ZM79.2713 101.15C79.5933 100.405 79.778 99.5017 79.8208 98.409L80.023 91.4754C79.1468 91.7534 78.4031 92.3545 77.7645 93.2865C77.1258 94.2184 76.6885 95.356 76.4208 96.6754C76.153 97.9947 76.1145 99.3154 76.3098 100.669C76.4188 101.424 76.6335 101.921 76.9312 102.198C77.2289 102.475 77.6415 102.556 78.0819 102.432C78.5543 102.333 78.9493 101.895 79.2713 101.15Z" fill="#FFF6E3"/>
<path d="M105.564 90.7663C105.773 91.0074 105.917 91.4001 105.991 91.9124C106.13 92.8729 106.045 93.6962 105.703 94.358C104.945 95.9691 104.117 97.3 103.252 98.3747C102.388 99.4494 101.299 100.187 99.9547 100.563C98.33 101.017 96.9349 100.842 95.774 100.067C94.613 99.2926 93.9008 97.9929 93.6466 96.2319C93.5079 95.2714 93.831 94.4815 94.6393 93.8224C95.4989 93.1156 96.0972 92.4152 96.4435 91.7854C96.7617 91.1634 96.8933 90.4604 96.7824 89.692C96.7177 89.2438 96.5874 88.9471 96.387 88.77C96.1866 88.5929 95.9767 88.5517 95.7526 88.6144C95.1643 88.7789 94.6175 89.4316 94.0512 90.556C93.4896 91.7124 93.021 93.1093 92.6454 94.7466C92.2744 96.416 92.02 98.086 91.9104 99.7489C91.8527 100.964 91.6835 101.811 91.4308 102.281C91.1782 102.752 90.7344 103.109 90.0621 103.297C89.3898 103.485 88.872 103.33 88.4853 102.872C88.0986 102.414 87.7823 101.637 87.5039 100.515C87.2255 99.394 86.9291 97.7448 86.6102 95.5356C86.0694 91.7896 85.8417 87.7895 85.9269 83.5352C86.0122 79.281 86.5026 75.6129 87.4216 72.4912C88.3407 69.3694 89.7105 67.5539 91.5312 67.0445C92.5116 66.7703 93.3653 67.0311 94.1202 67.8192C94.8751 68.6073 95.3355 69.7776 95.5574 71.3144C95.9133 73.7797 95.6621 76.4815 94.7853 79.4915C93.9038 82.4696 92.3073 86.1472 89.9866 90.4606C90.1155 91.7569 90.2723 93.0454 90.4665 94.3901C91.0358 91.0664 91.8933 88.5282 93.0111 86.7831C94.1289 85.0381 95.2643 84.021 96.4128 83.6997C97.4772 83.4019 98.3776 83.583 99.17 84.2274C99.9344 84.8796 100.418 85.8101 100.594 87.0268C100.788 88.3715 100.656 89.6743 100.229 90.9595C99.8028 92.2447 98.9097 93.5271 97.606 94.7912C97.787 95.44 98.1131 95.8818 98.6214 96.1726C99.125 96.4315 99.6616 96.5145 100.278 96.3421C100.95 96.1541 101.525 95.6935 102.058 94.9448C102.591 94.1961 103.26 92.9764 104.074 91.3495C104.275 90.9268 104.532 90.6884 104.869 90.5943C105.135 90.4199 105.377 90.4853 105.564 90.7663ZM90.3889 73.0602C90.0929 74.442 89.8897 76.2643 89.7746 78.495C89.6315 80.7335 89.6328 83.1647 89.7132 85.7404C90.7755 83.6112 91.586 81.3525 92.1539 79.0285C92.7218 76.7045 92.8646 74.6659 92.6196 72.969C92.5087 72.2006 92.3369 71.6158 92.1367 71.2388C91.9366 70.8617 91.6847 70.7323 91.4046 70.8107C91.0125 70.9204 90.6848 71.6783 90.3889 73.0602Z" fill="#FFF6E3"/>
<path d="M117.601 88.13C117.808 88.3681 117.923 88.7635 117.995 89.2693C118.132 90.2176 118.048 91.0304 117.712 91.6839C117.093 92.9753 116.135 94.2963 114.859 95.6076C113.583 96.9189 112.128 97.787 110.499 98.2435C108.29 98.8624 106.478 98.6466 105.067 97.6277C103.656 96.6089 102.78 94.9141 102.434 92.5116C102.197 90.8679 102.277 89.2338 102.68 87.6411C103.082 86.0484 103.774 84.6706 104.728 83.5154C105.682 82.3602 106.837 81.6088 108.218 81.2219C109.433 80.8815 110.458 81.0217 111.322 81.6346C112.186 82.2476 112.709 83.2851 112.914 84.7076C113.151 86.3513 112.832 87.9208 111.983 89.4083C111.107 90.9035 109.5 92.3077 107.115 93.6994C107.799 94.6588 108.87 94.9176 110.334 94.5076C111.272 94.2445 112.295 93.5635 113.4 92.4644C114.506 91.3653 115.386 90.0991 116.092 88.6187C116.29 88.2013 116.544 87.9659 116.875 87.8731C117.151 87.7957 117.39 87.8603 117.601 88.13ZM106.462 86.976C106.088 88.1662 105.989 89.4763 106.199 90.9304L106.208 90.9937C107.4 90.2978 108.294 89.5212 108.916 88.6563C109.538 87.7913 109.783 86.9004 109.656 86.0153C109.592 85.5728 109.427 85.2244 109.165 85.0018C108.903 84.7792 108.581 84.7378 108.194 84.8461C107.426 85.0944 106.864 85.7781 106.462 86.976Z" fill="#FFF6E3"/>
<path d="M127.827 91.1473C127.958 91.4443 128.06 91.7491 128.111 92.1017C128.268 93.1914 127.758 93.901 126.579 94.2304C125.906 94.4187 125.373 94.3676 124.976 94.0451C124.551 93.7304 124.132 93.0474 123.656 91.9799L123.605 91.8275C122.958 93.2089 122.34 94.182 121.75 94.747C121.16 95.312 120.43 95.7162 119.589 95.9515C118.298 96.3123 117.153 96.0656 116.149 95.1791C115.145 94.2927 114.516 92.9681 114.261 91.2053C113.979 89.2502 114.084 87.3534 114.573 85.4828C115.062 83.6122 115.849 81.9915 116.959 80.5808C118.069 79.1701 119.38 78.1369 120.89 77.4811C120.621 72.788 120.828 68.562 121.483 64.8109C122.143 61.0919 123.412 58.9696 125.292 58.4441C126.218 58.1852 127.045 58.4542 127.769 59.2189C128.525 60.0078 129.037 61.3318 129.315 63.2548C129.7 65.9151 129.564 69.2208 128.932 73.1321C128.3 77.0434 127.318 81.1528 125.956 85.4683C126.477 87.4568 127.101 89.3498 127.827 91.1473ZM121.334 91.0618C121.676 90.5995 122.079 89.7532 122.544 88.5229C122.065 86.8229 121.712 84.9875 121.439 83.0965C121.328 82.3273 121.244 81.7503 121.212 81.3258C120.089 82.0399 119.265 83.204 118.678 84.8019C118.12 86.3919 117.949 88.0401 118.195 89.7388C118.449 91.5016 119.112 92.25 120.178 91.9519C120.604 91.8663 120.997 91.5563 121.334 91.0618ZM124.489 68.0386C124.474 71.7774 124.651 75.8295 125.094 80.1073C126.608 73.6151 127.101 68.5421 126.574 64.8883C126.439 63.9588 126.253 63.2773 126.067 62.7958C125.853 62.3222 125.647 62.1129 125.451 62.1678C124.834 62.3404 124.504 64.2999 124.489 68.0386Z" fill="#FFF6E3"/>
<path d="M160.968 73.9208C161.269 73.8371 161.533 73.893 161.728 74.065C161.929 74.2681 162.056 74.5562 162.114 74.9604C162.223 75.7066 162.167 76.3044 161.98 76.7771C161.792 77.2498 161.455 77.6673 160.99 77.9908C160.082 78.5992 159.098 79.0673 158.004 79.3717C157.102 79.6229 156.205 79.7109 155.344 79.6594C154.905 80.9461 154.415 82.2792 153.844 83.6351C153.218 85.2004 152.642 86.3311 152.113 86.996C151.584 87.6609 150.964 88.0923 150.226 88.2978C149.405 88.5261 148.722 88.328 148.181 87.7346C147.636 87.1101 147.218 85.9971 146.865 84.3485L146.327 81.8134C145.959 83.986 145.602 85.6383 145.263 86.8324C144.892 88.0031 144.509 88.8863 144.043 89.404C143.582 89.9528 143.035 90.2992 142.324 90.4971C141.477 90.733 140.739 90.5501 140.166 89.9333C139.566 89.324 139.089 88.1951 138.718 86.6163C137.994 83.3889 137.437 80.5352 137.076 78.0478L136.896 76.8041C136.811 76.0191 136.921 75.4061 137.236 75.0274C137.546 74.6175 138.043 74.3175 138.754 74.1196C139.3 73.9674 139.701 73.9852 140.015 74.189C140.329 74.3927 140.502 74.7976 140.597 75.4505C140.989 78.1556 141.64 81.6623 142.572 85.9316C143.502 82.1467 144.277 78.2755 144.925 74.3104C145.04 73.5343 145.246 72.9918 145.538 72.6518C145.83 72.3117 146.195 72.0808 146.659 71.9514C147.233 71.7916 147.634 71.8094 147.889 71.9973C148.144 72.1851 148.321 72.6211 148.416 73.2741C148.808 75.9792 149.459 79.4858 150.391 83.7551C151.342 81.2907 152.033 79.3841 152.477 77.9342C152.077 77.3339 151.795 76.5711 151.655 75.6072C151.538 74.7988 151.589 73.9758 151.782 73.1458C151.974 72.3159 152.322 71.5723 152.801 70.9537C153.28 70.3351 153.845 69.9189 154.529 69.7286C155.13 69.5612 155.658 69.673 156.109 70.0328C156.564 70.4238 156.827 71.0622 156.962 71.995C157.116 73.0521 157.046 74.3333 156.752 75.8384C157.536 75.5555 158.552 75.1108 159.819 74.4346L160.64 74.0121C160.722 73.9893 160.804 73.9665 160.968 73.9208Z" fill="#FFF6E3"/>
<path d="M160.967 84.2463C160.181 83.2927 159.626 81.9062 159.355 80.0387C159.197 78.944 159.104 77.4957 159.107 75.6861C159.109 73.8765 159.192 72.2121 159.369 70.5884C159.455 69.7605 159.63 69.1422 159.899 68.7658C160.169 68.3893 160.683 68.0786 161.391 67.8816C162.495 67.5742 163.094 67.8431 163.215 68.6802C163.304 69.292 163.312 70.7639 163.209 73.1037C163.092 75.9502 163.099 77.8242 163.239 78.7902C163.346 79.5308 163.511 80.0545 163.737 80.3936C163.963 80.7327 164.274 80.8471 164.698 80.7289C165.095 80.6186 165.529 80.1626 166.012 79.4254C166.517 78.6482 167.142 77.4694 167.913 75.8814C168.116 75.4563 168.376 75.2165 168.715 75.1219C168.999 75.0431 169.248 75.1411 169.432 75.3914C169.644 75.6339 169.79 76.0289 169.864 76.5441C170.004 77.51 169.918 78.338 169.573 79.0035C167.88 82.5568 166.113 84.5895 164.244 85.1096C162.885 85.4879 161.782 85.192 160.967 84.2463ZM159.527 65.1845C159.004 64.8276 158.684 64.2468 158.558 63.3774C158.432 62.5081 158.612 61.7209 159.123 60.9758C159.633 60.2308 160.327 59.7361 161.205 59.4918C161.998 59.2711 162.681 59.3152 163.228 59.632C163.775 59.9489 164.118 60.4897 164.235 61.2947C164.375 62.2606 164.204 63.1122 163.722 63.8494C163.24 64.5865 162.546 65.0812 161.612 65.3413C160.762 65.5777 160.05 65.5414 159.527 65.1845Z" fill="#FFF6E3"/>
<path d="M181.464 72.2448C181.674 72.4863 181.818 72.8795 181.892 73.3925C182.031 74.3544 181.946 75.1789 181.604 75.8417C180.862 77.3831 180.032 78.7159 179.058 79.8556C178.083 80.9953 176.908 81.7573 175.504 82.1497C171.153 83.3661 168.486 80.4754 167.476 73.4857C167.323 72.4277 167.193 71.3297 167.092 70.2239L165.857 70.5691C165.211 70.7496 164.771 70.7391 164.505 70.5133C164.243 70.3196 164.066 69.9021 163.983 69.325C163.783 67.9463 164.163 67.1395 165.118 66.8727L166.943 66.3626C166.919 63.5673 167.128 60.9736 167.539 58.5572C167.977 56.133 168.621 54.1185 169.47 52.5135C170.346 50.9007 171.372 49.9135 172.58 49.5761C173.478 49.325 174.245 49.5776 174.88 50.3342C175.515 51.0907 175.93 52.1423 176.129 53.521C176.676 57.3044 175.773 60.9593 173.401 64.5577L176.994 63.5532C177.331 63.4591 177.598 63.4846 177.762 63.6057C177.925 63.7268 178.056 64.0239 178.125 64.5048C178.366 66.1721 177.284 67.3753 174.869 68.0502L170.967 69.1409C171.115 70.3672 171.225 71.3369 171.323 72.0102C171.689 74.5432 172.196 76.236 172.878 77.1129C173.56 77.9898 174.448 78.2753 175.571 77.9614C176.498 77.7024 177.237 77.162 177.875 76.3167C178.484 75.4793 179.192 74.3141 179.961 72.7648C180.163 72.3414 180.421 72.1026 180.758 72.0085C181.034 71.8979 181.277 71.9634 181.464 72.2448ZM171.375 54.9833C171.116 56.0229 170.932 57.3754 170.798 59.0806C170.669 60.8178 170.644 62.6597 170.706 64.7104C171.789 63.1068 172.516 61.4692 172.94 59.7496C173.335 58.038 173.468 56.5331 173.283 55.2505C173.074 53.8077 172.748 53.1651 172.27 53.2985C171.905 53.4005 171.633 53.9436 171.375 54.9833Z" fill="#FFF6E3"/>
<path d="M190.215 61.1132C190.617 61.4377 190.9 61.9628 191.012 62.7366C191.106 63.3814 191.166 64.6059 191.168 66.4502C191.156 67.9964 191.192 69.4623 191.275 70.848C191.325 72.2094 191.489 73.7405 191.723 75.3526C191.859 76.2876 191.787 77.012 191.502 77.4936C191.218 77.9751 190.711 78.3508 189.944 78.5638C189.234 78.7611 188.695 78.7097 188.293 78.3852C187.92 78.0529 187.66 77.4877 187.538 76.6494C187.398 75.6822 187.306 74.0307 187.29 71.687C187.26 69.6493 187.224 68.3846 187.144 67.8365C187.088 67.4496 186.946 67.2877 186.719 67.3508C186.435 67.4297 186.098 67.9594 185.704 68.9074C185.31 69.8555 184.93 71.1016 184.615 72.5978C184.301 74.094 184.081 75.631 183.984 77.2009C183.926 78.4247 183.754 79.2774 183.498 79.7511C183.242 80.2248 182.792 80.5846 182.11 80.774C181.428 80.9634 180.903 80.8073 180.511 80.346C180.119 79.8847 179.799 79.1017 179.516 77.9726C179.234 76.8435 178.933 75.1827 178.61 72.958C178.062 69.1858 177.831 65.1577 177.917 60.8737C178.004 56.5896 178.501 52.8959 179.433 49.7523C180.365 46.6086 181.754 44.7803 183.6 44.2674C184.594 43.9912 185.459 44.2539 186.225 45.0476C186.99 45.8412 187.457 47.0197 187.682 48.5673C188.043 51.0499 187.788 53.7705 186.899 56.8017C186.005 59.8005 184.387 63.504 182.034 67.8475C182.164 69.153 182.323 70.4505 182.52 71.8046C182.926 69.5117 183.477 67.6142 184.165 66.0477C184.854 64.4812 185.57 63.3094 186.342 62.5246C187.115 61.7397 187.868 61.2286 188.578 61.0314C189.245 60.7453 189.813 60.7888 190.215 61.1132ZM182.437 50.293C182.137 51.6845 181.931 53.5195 181.814 55.7658C181.669 58.02 181.67 60.4683 181.752 63.0621C182.829 60.9179 183.651 58.6434 184.226 56.3031C184.802 53.9628 184.947 51.91 184.699 50.2012C184.586 49.4274 184.412 48.8385 184.209 48.4588C184.006 48.0791 183.751 47.9488 183.467 48.0277C183.069 48.1382 182.737 48.9014 182.437 50.293Z" fill="#FFF6E3"/>
<path d="M214.489 64.2456C214.702 64.4886 214.848 64.8842 214.923 65.4004C215.064 66.3681 214.978 67.1976 214.631 67.8644C213.88 69.4153 213.039 70.7562 212.081 71.8949C211.122 73.0336 209.932 73.8004 208.566 74.1794C206.661 74.7083 205.127 74.1274 203.902 72.4202C202.705 70.7051 201.884 68.3153 201.429 65.1862C200.993 62.1862 200.841 58.7043 200.965 54.6761C201.094 50.6801 201.611 47.1134 202.549 44.0004C203.487 40.8873 204.849 39.066 206.698 38.5528C207.721 38.2686 208.626 38.588 209.383 39.519C210.14 40.45 210.649 41.9195 210.945 43.9518C211.367 46.855 211.149 50.4395 210.285 54.673C209.422 58.9065 208.042 63.2499 206.145 67.7031C206.433 68.6636 206.792 69.3022 207.199 69.6591C207.601 69.9837 208.089 70.0832 208.658 69.9253C209.539 69.6805 210.265 69.1771 210.863 68.407C211.461 67.6368 212.174 66.4322 212.991 64.7286C213.195 64.3027 213.456 64.0625 213.798 63.9677C214.025 63.9046 214.271 63.9704 214.489 64.2456ZM205.223 45.9093C204.893 48.1152 204.719 50.7814 204.676 53.9479C204.629 57.0821 204.796 60.0565 205.171 62.8386C206.289 59.5413 207.094 56.3308 207.587 53.2071C208.079 50.0835 208.149 47.312 207.807 44.9571C207.535 43.0861 207.086 42.2375 206.488 42.4033C205.972 42.5132 205.553 43.7033 205.223 45.9093Z" fill="#FFF6E3"/>
<path d="M228.051 57.9072C228.234 58.1836 228.372 58.5383 228.444 59.0422C228.608 60.1759 228.405 60.9536 227.831 61.3436C226.637 62.202 225.301 62.8708 223.824 63.35C223.729 65.4734 223.162 67.303 222.178 68.8234C221.195 70.3438 219.937 71.3513 218.45 71.7675C217.183 72.1221 216.087 72.0686 215.078 71.6301C214.097 71.1839 213.277 70.4634 212.641 69.4292C212.01 68.4265 211.608 67.2285 211.417 65.9058C211.153 64.0793 211.224 62.3884 211.626 60.8017C212.027 59.215 212.694 57.8816 213.65 56.7622C214.61 55.6743 215.735 54.9335 217.029 54.5712C218.626 54.1242 219.983 54.3995 221.156 55.3817C222.301 56.3716 223.102 57.7528 223.535 59.5646C224.517 59.2241 225.637 58.6485 226.955 57.8537C227.111 57.7445 227.249 57.7059 227.386 57.6674C227.625 57.535 227.841 57.6386 228.051 57.9072ZM219.719 66.465C220.123 65.6964 220.326 64.7222 220.324 63.5107C219.59 63.1918 218.999 62.6693 218.551 61.943C218.102 61.2167 217.787 60.4203 217.655 59.5071C217.6 59.1292 217.573 58.7435 217.574 58.3502L217.409 58.3965C216.583 58.6277 215.935 59.3005 215.516 60.3679C215.097 61.4353 215.008 62.8036 215.254 64.5041C215.444 65.8268 215.81 66.7729 216.378 67.3346C216.918 67.9041 217.492 68.1041 218.097 67.9345C218.781 67.7104 219.341 67.2259 219.719 66.465Z" fill="#FFF6E3"/>
<path d="M241.275 54.3017C241.578 54.2168 241.844 54.2735 242.041 54.4479C242.243 54.6538 242.371 54.9459 242.43 55.3557C242.539 56.1122 242.511 56.7105 242.295 57.1974C242.106 57.6767 241.765 58.1 241.297 58.428C240.382 59.0448 239.39 59.5194 238.288 59.828C237.379 60.0826 236.475 60.1719 235.607 60.1196C235.165 61.4242 234.672 62.7757 234.096 64.1503C233.465 65.7373 232.857 66.8913 232.324 67.5654C231.791 68.2395 231.138 68.6846 230.367 68.9006C229.512 69.1398 228.769 68.9544 228.192 68.329C227.587 67.7113 227.106 66.5668 226.732 64.9662C226.002 61.6942 225.442 58.8011 225.078 56.2792L224.896 55.0183C224.81 54.2225 224.921 53.6011 225.238 53.2171C225.551 52.8015 226.052 52.4974 226.768 52.2968C227.319 52.1425 227.723 52.1605 228.039 52.3671C228.328 52.5813 228.53 52.9841 228.625 53.6461C229.021 56.3886 229.677 59.9436 230.616 64.272C231.575 61.7735 232.27 59.8405 232.718 58.3706C232.315 57.762 232.031 56.9886 231.89 56.0114C231.772 55.1918 231.824 54.3574 232.018 53.516C232.212 52.6746 232.561 51.9207 233.044 51.2935C233.527 50.6664 234.097 50.2445 234.786 50.0516C235.392 49.8819 235.924 49.9952 236.378 50.36C236.837 50.7563 237.129 51.3958 237.266 52.3415C237.42 53.4133 237.35 54.7122 237.054 56.2381C237.844 55.9513 238.868 55.5005 240.145 54.8149L240.972 54.3866C241.027 54.3712 241.137 54.3403 241.275 54.3017Z" fill="#FFF6E3"/>
<path d="M251.799 56.3852C252.007 56.6247 252.15 57.0146 252.223 57.5233C252.347 58.3816 252.29 59.1913 252.021 59.9283C251.589 61.1408 250.926 62.1535 250.037 62.998C249.148 63.8426 248.051 64.4477 246.719 64.8212C244.693 65.3892 243.038 65.1256 241.698 64.0458C240.386 62.9582 239.561 61.2381 239.222 58.8856C238.984 57.2324 239.065 55.589 239.469 53.9872C239.874 52.3855 240.569 50.9998 241.528 49.838C242.487 48.6761 243.649 47.9205 245.037 47.5314C246.258 47.1891 247.289 47.33 248.157 47.9465C249.026 48.563 249.552 49.6064 249.758 51.037C249.996 52.6901 249.675 54.2685 248.822 55.7645C247.941 57.2682 246.297 58.6882 243.9 60.0879C244.56 61.0605 245.498 61.3597 246.692 61.0252C247.552 60.784 248.242 60.3591 248.728 59.7266C249.219 59.1259 249.743 58.1522 250.337 56.8612C250.536 56.4415 250.787 56.1729 251.12 56.0796C251.346 56.0491 251.591 56.1458 251.799 56.3852ZM243.22 53.3657C242.844 54.5626 242.745 55.8803 242.956 57.3427L242.965 57.4063C244.164 56.7064 245.062 55.9255 245.687 55.0555C246.313 54.1856 246.559 53.2897 246.431 52.3995C246.367 51.9544 246.201 51.6041 245.938 51.3802C245.674 51.1563 245.351 51.1148 244.962 51.2237C244.189 51.4734 243.624 52.161 243.22 53.3657Z" fill="#FFF6E3"/>
<path d="M255.168 68.5343C254.849 68.3559 254.652 68.0097 254.578 67.4957C254.545 67.2708 254.536 67.0059 254.551 66.701C254.614 65.5137 254.662 64.4305 254.635 63.4353C254.608 62.44 254.511 61.364 254.344 60.2074C254.167 58.9866 254.286 57.9842 254.696 57.1679C255.105 56.3517 255.707 55.8496 256.496 55.6294C257.257 55.4171 257.881 55.4769 258.345 55.8487C258.81 56.2206 259.1 56.8081 259.216 57.6112C259.342 58.4787 259.279 59.666 259.033 61.2054C258.786 62.7449 258.451 64.2758 257.998 65.806C257.706 66.8235 257.456 67.5283 257.244 67.8882C257.032 68.2481 256.746 68.4952 256.323 68.6132C255.872 68.739 255.487 68.7127 255.168 68.5343Z" fill="#FFF6E3"/>
</svg>
