<svg width="299" height="198" viewBox="0 0 299 198" fill="none" xmlns="http://www.w3.org/2000/svg">
<g filter="url(#filter0_d_1222_294)">
<path fill-rule="evenodd" clip-rule="evenodd" d="M108.485 172.24C86.0372 181.556 63.5452 190.89 40.1299 190.815C40.1254 190.669 36.0248 188.463 31.2207 185.879C24.4266 182.224 16.2255 177.812 16.2128 177.401C16.8087 176.763 17.3397 175.739 17.8851 174.687C18.6094 173.291 19.3591 171.846 20.3197 171.19C19.7314 170.938 19.0402 170.404 18.3112 169.84C17.2408 169.013 16.0888 168.122 15.0612 167.971C24.4017 159.161 19.21 152.428 13.2449 144.691C10.8514 141.587 8.33325 138.321 6.57957 134.694C7.33396 133.83 8.13336 133.017 8.94209 132.194C10.2105 130.903 11.5019 129.589 12.6784 128.019C11.5359 127.805 9.62668 126.088 8.29783 124.893C7.95015 124.58 7.64221 124.303 7.39812 124.099C7.90972 123.749 8.35064 123.039 8.81236 122.294C9.36388 121.406 9.94509 120.469 10.7119 120.043C10.4277 118.591 10.4022 117.431 10.3779 116.321C10.3439 114.773 10.312 113.323 9.58203 111.316C10.4462 110.587 11.266 109.808 12.0764 109.038C13.3613 107.817 14.6226 106.618 15.9996 105.678C12.8548 104.68 10.0491 101.699 7.13834 98.6058C6.5662 97.9978 5.99001 97.3856 5.40639 96.7832C9.62565 84.9401 16.1772 74.3713 22.8374 67.3129C19.4367 68.5605 15.7173 68.7711 11.9979 68.9818C15.2365 67.8644 18.4519 66.6491 21.6685 65.4334C30.5631 62.0717 39.4671 58.7063 48.8986 57.3974C58.0886 56.1908 67.1011 53.6554 76.0772 51.1303C85.5024 48.4788 94.8876 45.8387 104.396 44.7598C106.553 44.4766 108.653 44.3072 110.718 44.1407C117.669 43.5801 124.213 43.0524 131.138 38.3221C144.325 29.1359 216.558 13.2634 231.381 10.6656C235.508 9.72859 239.392 10.2119 243.276 10.6952C247.16 11.1785 251.044 11.6618 255.171 10.7247C262.396 8.90495 269.778 8.01932 277.203 7.12861C280.883 6.68704 284.575 6.24423 288.262 5.68573C289.332 5.5236 290.414 5.34618 291.505 5.16737C297.969 4.1072 304.731 2.99832 311.161 4.74038C320.512 7.45908 321.608 12.1456 325.098 27.0669C325.386 28.2985 325.69 29.5998 326.017 30.9754C327.385 36.884 329.04 42.7762 330.7 48.6834C335.865 67.0671 341.07 85.5954 337.772 105.209C335.703 116.546 330.527 117.221 322.586 118.256C322.065 118.324 321.531 118.394 320.986 118.468C299.023 121.631 277.131 127.096 245.812 134.915C219.76 141.418 187.186 149.55 142.622 159.34C131.178 162.823 119.838 167.529 108.485 172.24Z" fill="#B97ACD"/>
</g>
<defs>
<filter id="filter0_d_1222_294" x="0.406372" y="0.830322" width="343.399" height="196.985" filterUnits="userSpaceOnUse" color-interpolation-filters="sRGB">
<feFlood flood-opacity="0" result="BackgroundImageFix"/>
<feColorMatrix in="SourceAlpha" type="matrix" values="0 0 0 0 0 0 0 0 0 0 0 0 0 0 0 0 0 0 127 0" result="hardAlpha"/>
<feOffset dy="2"/>
<feGaussianBlur stdDeviation="2.5"/>
<feComposite in2="hardAlpha" operator="out"/>
<feColorMatrix type="matrix" values="0 0 0 0 0 0 0 0 0 0 0 0 0 0 0 0 0 0 0.15 0"/>
<feBlend mode="multiply" in2="BackgroundImageFix" result="effect1_dropShadow_1222_294"/>
<feBlend mode="normal" in="SourceGraphic" in2="effect1_dropShadow_1222_294" result="shape"/>
</filter>
</defs>
</svg>
