<svg width="307" height="112" viewBox="0 0 307 112" fill="none" xmlns="http://www.w3.org/2000/svg">
<g clip-path="url(#clip0_1_2702)">
<path d="M211.055 61.024C224.915 61.6925 238.212 55.5645 251.734 52.8906C267.397 49.7709 283.285 46.2056 299.173 45.0914C302.666 44.8686 304.92 44.98 305.934 41.1918C307.963 33.0584 304.131 25.2593 302.216 17.4601C300.751 11.6665 300.638 9.99521 296.694 8.88104C293.764 8.10113 290.609 8.54679 287.68 8.76963C283.285 9.10388 278.89 9.10388 274.608 9.77238C271.341 10.218 268.524 8.88104 265.256 9.32671C259.396 9.88379 253.987 11.6665 248.691 14.3405C245.086 16.1231 241.818 15.6774 238.099 15.9003C230.775 16.2345 223.563 18.4629 216.126 18.9085C211.055 19.2428 206.323 20.8026 201.477 21.9168C202.942 21.9168 204.407 21.9168 205.759 21.5825C203.055 23.6994 200.351 26.9305 198.548 30.6073C199.9 31.8328 201.139 33.1698 202.604 33.6155C201.703 34.0612 200.914 34.7297 200.012 35.2868C200.463 36.4009 200.125 36.958 200.351 38.0722C199.787 38.295 199.449 39.0749 198.998 39.2977C199.449 39.632 200.463 40.5233 201.027 40.6347C200.238 41.4147 199.336 41.9717 198.548 42.6402C200.801 46.7626 206.773 49.6595 201.477 53.3362C202.153 53.4476 202.942 54.2276 203.506 54.4504C202.83 54.7846 202.379 55.8988 201.815 56.3445C201.815 56.5673 211.055 60.9125 211.055 61.024Z" fill="#E6AAF6"/>
<path d="M231.396 41.7964L231.279 43.5467C230.229 44.3636 228.945 44.8303 227.428 45.0637C226.377 45.2971 225.327 45.2971 224.393 45.0637C223.46 44.947 222.526 44.5969 221.709 44.1302C220.892 43.6634 220.308 43.08 219.725 42.2631C219.258 41.4463 218.908 40.6295 218.675 39.5793C218.441 38.2957 218.441 37.1288 218.675 36.0786C218.908 35.0284 219.375 34.2116 219.958 33.3948C220.542 32.6946 221.359 31.9945 222.292 31.5277C223.226 31.061 224.16 30.7109 225.327 30.5942C226.027 30.4775 226.727 30.4775 227.544 30.4775C228.361 30.4775 228.945 30.7109 229.645 30.8276C229.645 31.1777 229.645 31.5277 229.528 31.9945C229.528 32.4613 229.528 32.8113 229.528 33.0447H229.295C228.945 32.6946 228.595 32.4613 228.245 32.2279C227.894 31.9945 227.428 31.8778 226.961 31.7611C226.494 31.6444 226.027 31.6444 225.677 31.7611C224.86 31.8778 224.277 32.2279 223.693 32.5779C223.109 33.0447 222.759 33.6281 222.526 34.2116C222.292 34.9117 222.059 35.6119 222.059 36.312C222.059 37.0121 222.059 37.829 222.176 38.5291C222.409 39.696 222.759 40.6295 223.226 41.4463C223.693 42.2631 224.393 42.8466 225.21 43.1967C226.027 43.5467 226.961 43.6634 227.894 43.5467C228.478 43.43 229.062 43.1967 229.762 42.8466C230.345 42.4965 230.929 42.0298 231.279 41.4463L231.396 41.7964Z" fill="white"/>
<path d="M232.796 29.7775L236.997 29.0774C238.631 28.844 239.681 28.7273 240.265 28.9607C241.549 29.3108 242.249 30.2443 242.482 31.5279C242.599 32.4614 242.482 33.2782 242.016 33.9783C241.549 34.6785 240.848 35.2619 239.915 35.612C240.382 36.0787 240.732 36.6622 241.199 37.129C241.665 37.5957 242.249 38.2958 242.832 38.996C243.533 39.6961 244 40.2796 244.35 40.6296L245.283 41.6798C244.233 41.7965 243.649 41.7965 243.416 41.9132C243.183 41.9132 242.599 42.0299 241.665 42.2633L238.864 38.5292C238.631 38.2958 238.398 37.9458 238.047 37.479C237.697 37.0123 237.347 36.6622 237.231 36.5455H237.114L238.164 42.9634C237.347 43.0801 236.764 43.0801 236.647 43.0801C236.53 43.0801 235.947 43.1968 235.13 43.4302L232.796 29.7775ZM236.88 35.7287C236.997 35.7287 237.114 35.7287 237.347 35.612C239.098 35.2619 239.798 34.2117 239.448 32.3447C239.448 31.9946 239.331 31.6446 239.215 31.4112C238.981 30.8277 238.631 30.4777 238.164 30.361C237.697 30.2443 237.114 30.2443 236.414 30.361L235.83 30.4777L236.88 35.7287Z" fill="white"/>
<path d="M246.333 27.5604C247.15 27.4437 247.734 27.4437 247.851 27.4437C247.967 27.4437 248.551 27.327 249.368 27.0936L251.702 40.7463C250.885 40.863 250.302 40.863 250.185 40.863C250.068 40.863 249.485 40.9796 248.668 41.213L246.333 27.5604Z" fill="white"/>
<path d="M260.338 27.7937C259.755 26.7435 258.821 26.2767 257.771 26.3934C256.253 26.6268 255.67 27.4436 255.903 28.7272C256.02 29.3107 256.253 29.6607 256.72 29.8941C257.187 30.1275 258.004 30.3609 259.171 30.8276C260.338 31.1777 261.272 31.6445 261.972 32.2279C262.556 32.6947 263.022 33.5115 263.139 34.5617C263.256 35.3785 263.139 36.1953 262.789 36.8955C262.439 37.5956 261.855 38.2957 261.155 38.7625C260.455 39.2292 259.521 39.5793 258.471 39.8127C257.187 40.0461 256.137 39.9294 255.086 39.4626C255.203 38.4124 255.203 37.4789 255.203 36.7788L255.553 36.6621C255.787 37.3622 256.253 37.829 256.837 38.0624C257.421 38.4124 258.004 38.4124 258.704 38.2957C259.405 38.179 259.871 37.9457 260.222 37.4789C260.572 37.0122 260.805 36.5454 260.688 35.8453C260.572 35.1451 260.222 34.6784 259.755 34.445C259.288 34.2116 258.471 33.8615 257.304 33.6282C256.253 33.2781 255.32 32.928 254.736 32.4613C254.153 31.9945 253.686 31.1777 253.569 30.1275C253.453 29.544 253.453 28.9606 253.569 28.4938C253.686 27.9104 253.919 27.4436 254.269 26.9769C254.62 26.5101 255.086 26.1601 255.553 25.81C256.137 25.4599 256.72 25.2265 257.421 25.1099C258.121 24.9932 258.704 24.9932 259.405 25.1099C259.988 25.2265 260.455 25.3432 260.805 25.5766C260.688 26.0434 260.572 26.7435 260.455 27.677L260.338 27.7937Z" fill="white"/>
<path d="M269.909 37.5958C269.092 37.7125 268.508 37.7125 268.391 37.7125C268.275 37.7125 267.691 37.8292 266.874 38.0626L264.54 24.41L269.442 23.5931C270.842 23.3598 272.009 23.4764 272.826 23.9432C273.643 24.41 274.11 25.1101 274.343 26.277C274.46 27.0938 274.46 27.9106 274.227 28.4941C273.993 29.0775 273.643 29.661 273.176 30.011C272.71 30.3611 272.126 30.7112 271.309 30.9445C270.609 31.1779 269.792 31.4113 268.742 31.528L269.909 37.5958ZM268.742 30.4778C269.325 30.3611 269.792 30.2444 270.025 30.1277C270.609 29.8943 270.959 29.4276 271.192 28.9608C271.426 28.3774 271.426 27.7939 271.309 27.2105C271.192 26.3937 270.842 25.8102 270.492 25.3435C270.142 24.8767 269.558 24.76 269.092 24.8767L267.808 25.1101L268.742 30.4778Z" fill="white"/>
<path d="M281.229 29.7774C280.645 29.0773 280.178 28.4938 279.828 28.0271C279.478 27.5603 279.011 26.9769 278.544 26.3934C278.078 25.81 277.611 25.1099 277.144 24.5264C276.677 23.8263 276.094 23.2428 275.627 22.6594C276.677 22.5427 277.261 22.5427 277.377 22.426C277.611 22.426 278.194 22.3093 279.128 22.0759C279.361 22.3093 280.062 23.4762 281.462 25.3432C282.396 26.6268 282.979 27.327 283.096 27.5603C283.446 26.8602 284.146 24.7598 285.08 21.1424C285.43 21.1424 285.78 21.1424 286.014 21.0257C286.364 21.0257 286.597 20.909 286.947 20.7924C286.831 21.0257 286.597 21.6092 286.247 22.6594C285.897 23.5929 285.547 24.4097 285.313 25.1099C285.08 25.81 284.847 26.3934 284.613 27.0936C284.38 27.7937 284.146 28.3772 284.03 29.0773L285.08 35.2618C284.263 35.3785 283.679 35.3785 283.563 35.3785C283.446 35.3785 282.863 35.4952 282.046 35.7286L281.229 29.7774Z" fill="white"/>
</g>
<path d="M102.074 28.52C102.074 35.3115 99.6775 41.1842 94.8835 46.138C90.0895 51.0119 83.0982 54.5275 73.9097 56.6848C78.8635 58.0431 82.6188 60.2803 85.1756 63.3964C87.7324 66.4326 89.0108 69.9482 89.0108 73.9432C89.0108 80.2553 87.0133 85.7284 83.0183 90.3626C79.1032 94.9968 73.3504 98.5923 65.7599 101.149C58.1694 103.626 49.0209 104.864 38.3143 104.864C34.3193 104.864 31.1233 104.745 28.7263 104.505C28.6464 106.742 27.6876 108.42 25.8499 109.539C24.0122 110.657 21.6551 111.217 18.7787 111.217C15.9023 111.217 13.9048 110.577 12.7862 109.299C11.7475 108.021 11.3081 106.143 11.4679 103.666C12.187 92.48 13.5852 80.7746 15.6626 68.5499C17.74 56.2453 20.3767 44.3802 23.5727 32.9545C24.132 30.957 25.2506 29.5587 26.9285 28.7597C28.6064 27.9607 30.8037 27.5612 33.5203 27.5612C38.3942 27.5612 40.8311 28.9195 40.8311 31.6361C40.8311 32.7547 40.5914 34.0331 40.112 35.4713C38.0346 41.7035 35.9572 50.1729 33.8798 60.8795C31.8024 71.5062 30.3243 81.6535 29.4454 91.3214C33.2806 91.641 36.3967 91.8008 38.7937 91.8008C49.9797 91.8008 58.1694 90.2028 63.3629 87.0068C68.6363 83.7309 71.273 79.5761 71.273 74.5424C71.273 71.0268 69.7549 68.0705 66.7187 65.6735C63.7624 63.2765 58.7687 61.9582 51.7375 61.7185C50.1395 61.6386 49.0209 61.2391 48.3817 60.52C47.7425 59.8009 47.4229 58.6423 47.4229 57.0443C47.4229 54.7272 47.9023 52.8496 48.8611 51.4114C49.8199 49.9732 51.5777 49.2141 54.1345 49.1342C59.8074 48.9744 64.921 48.1355 69.4753 46.6174C74.1095 45.0993 77.7449 42.9819 80.3816 40.2653C83.0183 37.4688 84.3367 34.2329 84.3367 30.5575C84.3367 25.9233 82.0595 22.2878 77.5052 19.6511C72.9509 16.9345 65.9597 15.5762 56.5315 15.5762C47.9822 15.5762 39.7125 16.6948 31.7225 18.932C23.7325 21.0893 16.941 23.8459 11.348 27.2017C8.7912 28.7198 6.6339 29.4788 4.8761 29.4788C3.4379 29.4788 2.3193 28.9994 1.5203 28.0406C0.801201 27.0019 0.44165 25.7235 0.44165 24.2054C0.44165 22.2079 0.84115 20.4901 1.64015 19.0519C2.51905 17.6137 4.5565 15.9757 7.7525 14.138C14.4641 10.3028 22.3343 7.30657 31.363 5.14927C40.3917 2.99196 49.6201 1.91332 59.0483 1.91332C73.5102 1.91332 84.2967 4.35027 91.4078 9.22416C98.5189 14.0981 102.074 20.53 102.074 28.52Z" fill="#814624"/>
<path d="M116.291 41.4638C112.935 41.4638 110.418 40.7048 108.74 39.1867C107.062 37.5887 106.223 35.3914 106.223 32.5949C106.223 29.7984 107.302 27.4813 109.459 25.6436C111.696 23.726 114.453 22.7672 117.729 22.7672C120.685 22.7672 123.082 23.4863 124.92 24.9245C126.758 26.3627 127.676 28.4002 127.676 31.0369C127.676 34.2329 126.638 36.7897 124.56 38.7073C122.483 40.545 119.726 41.4638 116.291 41.4638ZM115.332 105.823C110.138 105.823 106.343 103.986 103.946 100.31C101.629 96.6348 100.471 91.7609 100.471 85.6885C100.471 82.093 100.91 77.4987 101.789 71.9057C102.748 66.2328 103.946 60.9594 105.384 56.0855C106.103 53.5287 107.062 51.7709 108.261 50.8121C109.459 49.8533 111.377 49.3739 114.014 49.3739C118.088 49.3739 120.126 50.7322 120.126 53.4488C120.126 55.4463 119.367 60.0805 117.849 67.3514C115.931 76.1404 114.972 82.093 114.972 85.2091C114.972 87.6061 115.292 89.4438 115.931 90.7222C116.57 92.0006 117.649 92.6398 119.167 92.6398C120.605 92.6398 122.403 91.641 124.56 89.6435C126.718 87.646 129.594 84.49 133.19 80.1754C134.148 79.0568 135.227 78.4975 136.426 78.4975C137.464 78.4975 138.263 78.9769 138.823 79.9357C139.462 80.8945 139.781 82.2128 139.781 83.8907C139.781 87.0867 139.022 89.5636 137.504 91.3214C129.594 100.989 122.203 105.823 115.332 105.823Z" fill="#814624"/>
<path d="M183.538 78.4975C184.577 78.4975 185.376 78.9769 185.935 79.9357C186.574 80.8945 186.894 82.2128 186.894 83.8907C186.894 87.0867 186.135 89.5636 184.616 91.3214C181.181 95.5561 177.425 99.0318 173.351 101.748C169.276 104.465 164.602 105.823 159.328 105.823C143.029 105.823 134.879 94.3576 134.879 71.4263C134.879 67.9107 134.999 64.3552 135.238 60.7597H130.564C128.167 60.7597 126.529 60.3202 125.65 59.4413C124.851 58.5624 124.452 57.1642 124.452 55.2466C124.452 50.7722 126.25 48.535 129.845 48.535H136.676C138.035 39.746 140.112 31.716 142.909 24.4451C145.705 17.1742 149.061 11.3815 152.976 7.06686C156.971 2.75227 161.246 0.594971 165.8 0.594971C169.156 0.594971 171.793 2.07312 173.71 5.02942C175.628 7.98572 176.587 11.7011 176.587 16.1755C176.587 28.56 171.393 39.3465 161.006 48.535H174.429C175.708 48.535 176.626 48.8146 177.186 49.3739C177.745 49.9332 178.025 50.9719 178.025 52.49C178.025 58.0031 173.51 60.7597 164.482 60.7597H149.86C149.7 64.7547 149.62 67.8708 149.62 70.108C149.62 78.4176 150.579 84.2503 152.497 87.6061C154.494 90.9619 157.61 92.6398 161.845 92.6398C165.281 92.6398 168.317 91.6011 170.954 89.5237C173.59 87.4463 176.706 84.3302 180.302 80.1754C181.261 79.0568 182.339 78.4975 183.538 78.4975ZM162.564 12.1006C161.366 12.1006 160.007 13.6187 158.489 16.6549C157.051 19.6112 155.653 23.766 154.294 29.1193C153.016 34.3927 151.937 40.2653 151.058 46.7372C155.773 42.6623 159.288 38.108 161.605 33.0743C164.002 27.9607 165.201 23.3265 165.201 19.1717C165.201 14.4576 164.322 12.1006 162.564 12.1006Z" fill="#814624"/>
<path d="M230.588 78.4975C231.627 78.4975 232.426 78.9769 232.985 79.9357C233.625 80.8945 233.944 82.2128 233.944 83.8907C233.944 87.0867 233.185 89.5636 231.667 91.3214C228.711 94.9169 224.516 98.2328 219.083 101.269C213.729 104.305 207.977 105.823 201.824 105.823C193.435 105.823 186.923 103.546 182.289 98.9918C177.655 94.4375 175.337 88.2053 175.337 80.2952C175.337 74.7821 176.496 69.6685 178.813 64.9544C181.13 60.1604 184.326 56.3652 188.401 53.5687C192.556 50.7722 197.23 49.3739 202.424 49.3739C207.058 49.3739 210.773 50.7722 213.57 53.5687C216.366 56.2853 217.764 60.0006 217.764 64.7147C217.764 70.2278 215.767 74.9819 211.772 78.9769C207.857 82.892 201.185 86.0081 191.757 88.3252C193.754 92.0006 197.55 93.8383 203.143 93.8383C206.738 93.8383 210.813 92.5998 215.367 90.1229C220.002 87.5661 223.997 84.2503 227.352 80.1754C228.311 79.0568 229.39 78.4975 230.588 78.4975ZM200.386 61.1192C197.43 61.1192 194.913 62.8371 192.836 66.2728C190.838 69.7085 189.839 73.8633 189.839 78.7372V78.9769C194.553 77.8583 198.269 76.1804 200.985 73.9432C203.702 71.706 205.06 69.1092 205.06 66.1529C205.06 64.6348 204.621 63.4363 203.742 62.5574C202.943 61.5986 201.824 61.1192 200.386 61.1192Z" fill="#814624"/>
<path d="M246.478 108.46C242.323 108.46 239.127 107.501 236.89 105.584C234.733 103.666 233.654 101.509 233.654 99.1117C233.654 97.0343 234.413 95.2365 235.931 93.7184C237.449 92.2003 239.686 91.4413 242.643 91.4413C243.681 91.4413 244.88 91.5611 246.238 91.8008C247.676 91.9606 248.755 92.0805 249.474 92.1604C249.394 90.083 248.915 88.1254 248.036 86.2877C247.237 84.45 246.198 82.6922 244.92 81.0143C243.641 79.2565 242.443 77.7384 241.324 76.46C238.847 81.1741 236.37 85.0892 233.894 88.2053C231.497 91.3214 228.86 94.2777 225.983 97.0742C224.545 98.5124 223.027 99.2315 221.429 99.2315C220.151 99.2315 219.112 98.7921 218.313 97.9132C217.514 96.9544 217.115 95.7958 217.115 94.4375C217.115 92.8395 217.674 91.3614 218.792 90.0031L220.351 88.0855C224.745 82.6523 228.061 78.1779 230.298 74.6623C231.736 72.3452 233.174 69.5886 234.613 66.3926C236.131 63.1966 238.088 58.8421 240.485 53.329C242.003 49.8134 245.159 48.0556 249.953 48.0556C252.191 48.0556 253.749 48.2553 254.628 48.6548C255.507 49.0543 255.946 49.6935 255.946 50.5724C255.946 51.0518 255.786 51.8109 255.467 52.8496C255.147 53.8883 254.708 54.927 254.148 55.9657C252.71 58.8421 251.991 61.279 251.991 63.2765C251.991 64.475 252.39 65.7934 253.189 67.2316C254.068 68.6698 255.387 70.4675 257.144 72.6248C259.701 75.9806 261.619 78.857 262.897 81.254C264.256 83.5711 264.935 86.1279 264.935 88.9244C264.935 92.2802 264.136 95.4762 262.538 98.5124C261.02 101.469 258.862 103.866 256.066 105.703C253.269 107.541 250.073 108.46 246.478 108.46Z" fill="#814624"/>
<defs>
<clipPath id="clip0_1_2702">
<rect width="107.95" height="52.7" fill="white" transform="translate(198.548 8.32397)"/>
</clipPath>
</defs>
</svg>
