<svg width="52" height="70" viewBox="0 0 52 70" fill="none" xmlns="http://www.w3.org/2000/svg">
<path d="M49.3342 56.4547V26.4977C49.0359 20.6271 47.981 14.8194 46.1959 9.2188H17.0769C16.7965 9.18382 16.5385 9.04771 16.3515 8.83591C16.1645 8.62411 16.0613 8.35118 16.0613 8.06862C16.0613 7.78607 16.1645 7.51335 16.3515 7.30155C16.5385 7.08975 16.7965 6.95365 17.0769 6.91867H45.8927V3.45923C45.8927 3.30785 45.8626 3.15808 45.8042 3.01844C45.7457 2.87881 45.66 2.75222 45.5522 2.64601C45.4443 2.5398 45.3164 2.45611 45.1759 2.39982C45.0353 2.34353 44.885 2.31561 44.7337 2.31798H7.87575C7.72439 2.31561 7.57407 2.34353 7.43355 2.39982C7.29303 2.45611 7.16509 2.5398 7.05722 2.64601C6.94936 2.75222 6.86371 2.87881 6.80524 3.01844C6.74678 3.15808 6.71667 3.30785 6.71669 3.45923V6.91867H12.4763C12.6394 6.89833 12.8049 6.91283 12.9619 6.96133C13.1189 7.00983 13.2638 7.09114 13.387 7.1999C13.5101 7.30866 13.6088 7.44235 13.6763 7.59214C13.7439 7.74193 13.7788 7.9043 13.7788 8.06862C13.7788 8.23295 13.7439 8.39553 13.6763 8.54532C13.6088 8.69511 13.5101 8.8288 13.387 8.93757C13.2638 9.04633 13.1189 9.12763 12.9619 9.17613C12.8049 9.22463 12.6394 9.23914 12.4763 9.2188H6.41356C4.61194 14.816 3.55086 20.6251 3.25737 26.4977V65.7272C3.26205 66.0315 3.38623 66.3217 3.60309 66.5352C3.81995 66.7488 4.11208 66.8685 4.41641 66.8685H48.193C48.4957 66.8685 48.7859 66.7482 49 66.5342C49.214 66.3201 49.3342 66.0299 49.3342 65.7272V61.1087C49.3342 60.8013 49.4563 60.5065 49.6737 60.2892C49.8911 60.0718 50.1859 59.9498 50.4933 59.9498C50.8007 59.9498 51.0955 60.0718 51.3128 60.2892C51.5302 60.5065 51.6523 60.8013 51.6523 61.1087V65.7272C51.6523 66.1815 51.5628 66.6314 51.389 67.0511C51.2152 67.4708 50.9603 67.852 50.6391 68.1732C50.3179 68.4944 49.9365 68.7492 49.5168 68.9231C49.0971 69.0969 48.6473 69.1865 48.193 69.1865H4.41641C3.96213 69.1865 3.5123 69.0969 3.09259 68.9231C2.67289 68.7492 2.29152 68.4944 1.9703 68.1732C1.64907 67.852 1.39427 67.4708 1.22042 67.0511C1.04657 66.6314 0.957092 66.1815 0.957092 65.7272V26.4977C1.2677 20.165 2.4313 13.903 4.41641 7.88143V3.45923C4.41641 2.54175 4.78088 1.66179 5.42963 1.01304C6.07838 0.36429 6.95828 0 7.87575 0H44.7337C45.6511 0 46.531 0.36429 47.1798 1.01304C47.8285 1.66179 48.193 2.54175 48.193 3.45923V7.88143C50.1683 13.9055 51.3317 20.1662 51.6523 26.4977V56.4547C51.6523 56.7621 51.5302 57.0571 51.3128 57.2744C51.0955 57.4918 50.8007 57.6138 50.4933 57.6138C50.1859 57.6138 49.8911 57.4918 49.6737 57.2744C49.4563 57.0571 49.3342 56.7621 49.3342 56.4547Z" fill="#EB0029"/>
<path d="M26.2927 30.3671C25.1273 30.3735 23.9694 30.1807 22.8691 29.7966L16.7885 27.7816C16.0412 27.5258 15.3907 27.0465 14.925 26.4085C14.4593 25.7706 14.201 25.0049 14.1851 24.2153V20.1675C14.201 19.3778 14.4593 18.6122 14.925 17.9742C15.3907 17.3363 16.0412 16.857 16.7885 16.6012L22.8691 14.5326C25.0953 13.7785 27.508 13.7785 29.7342 14.5326L35.797 16.6012C36.5456 16.8547 37.1976 17.3334 37.6636 17.9718C38.1297 18.6102 38.387 19.3772 38.4004 20.1675V24.2153C38.387 25.0056 38.1297 25.7725 37.6636 26.4109C37.1976 27.0493 36.5456 27.5281 35.797 27.7816L29.7342 29.8323C28.626 30.2056 27.462 30.3864 26.2927 30.3671ZM26.2927 16.6547C25.4382 16.6576 24.5896 16.796 23.7785 17.0648L17.7157 19.1333C17.5215 19.1977 17.3528 19.3223 17.2342 19.489C17.1156 19.6557 17.0531 19.856 17.0559 20.0606V24.1082C17.0584 24.3115 17.1229 24.5093 17.2408 24.675C17.3587 24.8407 17.5244 24.9665 17.7157 25.0355L23.7963 27.104C25.4237 27.6389 27.1796 27.6389 28.807 27.104L34.8875 25.0355C35.0789 24.9665 35.2445 24.8407 35.3624 24.675C35.4803 24.5093 35.5448 24.3115 35.5473 24.1082V20.0606C35.5501 19.856 35.4877 19.6557 35.3691 19.489C35.2504 19.3223 35.0818 19.1977 34.8875 19.1333L28.807 17.0648C27.9962 16.7945 27.1473 16.656 26.2927 16.6547Z" fill="#EB0029"/>
<path d="M40.1142 35.3957H12.493C12.1147 35.3957 11.7519 35.2453 11.4843 34.9778C11.2168 34.7103 11.0665 34.3475 11.0665 33.9691C11.0665 33.5908 11.2168 33.228 11.4843 32.9604C11.7519 32.6929 12.1147 32.5427 12.493 32.5427H40.1142C40.4925 32.5427 40.8554 32.6929 41.1229 32.9604C41.3904 33.228 41.5407 33.5908 41.5407 33.9691C41.5407 34.3475 41.3904 34.7103 41.1229 34.9778C40.8554 35.2453 40.4925 35.3957 40.1142 35.3957Z" fill="#EB0029"/>
<path d="M23.0315 41.5832H12.493C12.1147 41.5832 11.7519 41.4331 11.4843 41.1655C11.2168 40.898 11.0665 40.535 11.0665 40.1566C11.0665 39.7783 11.2168 39.4155 11.4843 39.1479C11.7519 38.8804 12.1147 38.7302 12.493 38.7302H23.0315C23.4099 38.7302 23.7727 38.8804 24.0402 39.1479C24.3078 39.4155 24.4581 39.7783 24.4581 40.1566C24.4581 40.535 24.3078 40.898 24.0402 41.1655C23.7727 41.4331 23.4099 41.5832 23.0315 41.5832Z" fill="#EB0029"/>
<path d="M42.2163 62.8743H36.5815C36.2284 62.8348 35.9021 62.6665 35.6652 62.4017C35.4283 62.1369 35.2974 61.794 35.2974 61.4387C35.2974 61.0834 35.4283 60.7406 35.6652 60.4757C35.9021 60.2109 36.2284 60.0426 36.5815 60.0032H42.2163C42.5694 60.0426 42.8956 60.2109 43.1325 60.4757C43.3694 60.7406 43.5004 61.0834 43.5004 61.4387C43.5004 61.794 43.3694 62.1369 43.1325 62.4017C42.8956 62.6665 42.5694 62.8348 42.2163 62.8743Z" fill="#EB0029"/>
</svg>
