<svg width="76" height="70" viewBox="0 0 76 70" fill="none" xmlns="http://www.w3.org/2000/svg">
<path fill-rule="evenodd" clip-rule="evenodd" d="M35.4651 0L36.736 3.91868H40.8514L37.5228 6.33943L38.7937 10.243L35.4651 7.83727L32.1366 10.243L33.4075 6.33943L30.0789 3.91868H34.1942L35.4651 0Z" fill="#EB0029"/>
<path fill-rule="evenodd" clip-rule="evenodd" d="M51.0187 4.13037L52.2896 8.03382H56.405L53.0764 10.4547L54.3473 14.3732L51.0187 11.9525L47.6902 14.3732L48.9611 10.4547L45.6325 8.03382H49.7478L51.0187 4.13037Z" fill="#EB0029"/>
<path fill-rule="evenodd" clip-rule="evenodd" d="M60.8992 13.7983L62.1701 17.7019H66.2855L62.9569 20.1227L64.2278 24.0413L60.8992 21.6206L57.5707 24.0413L58.8416 20.1227L55.513 17.7019H59.6283L60.8992 13.7983Z" fill="#EB0029"/>
<path fill-rule="evenodd" clip-rule="evenodd" d="M5.53887 28.4897L6.80977 32.3933H10.9251L7.59652 34.814L8.86744 38.7327L5.53887 36.3119L2.21028 38.7327L3.4812 34.814L0.152618 32.3933H4.26795L5.53887 28.4897Z" fill="#EB0029"/>
<path fill-rule="evenodd" clip-rule="evenodd" d="M35.4651 59.657L36.736 63.5757H40.8514L37.5228 65.9964L38.7937 69.8999L35.4651 67.4943L32.1366 69.8999L33.4075 65.9964L30.0789 63.5757H34.1942L35.4651 59.657Z" fill="#EB0029"/>
<path fill-rule="evenodd" clip-rule="evenodd" d="M4.49402 19.3663L8.41265 18.0954V13.98L10.8334 17.3086L14.7369 16.0377L12.3162 19.3663L14.7369 22.6948L10.8334 21.424L8.41265 24.7525V20.6372L4.49402 19.3663Z" fill="#EB0029"/>
<path fill-rule="evenodd" clip-rule="evenodd" d="M14.1623 9.4712L18.081 8.20034V4.08496L20.5017 7.41355L24.4052 6.1426L21.9845 9.4712L24.4052 12.7998L20.5017 11.5288L18.081 14.8574V10.7421L14.1623 9.4712Z" fill="#EB0029"/>
<path fill-rule="evenodd" clip-rule="evenodd" d="M19.7775 65.8453L18.5066 61.9266H14.3913L17.7198 59.521L16.4489 55.6023L19.7775 58.0231L23.1061 55.6023L21.8352 59.521L25.1637 61.9266H21.0484L19.7775 65.8453Z" fill="#EB0029"/>
<path fill-rule="evenodd" clip-rule="evenodd" d="M9.88025 56.177L8.60935 52.2584H4.49402L7.82259 49.8375L6.55168 45.9341L9.88025 48.3548L13.2088 45.9341L11.9379 49.8375L15.2665 52.2584H11.1512L9.88025 56.177Z" fill="#EB0029"/>
<path d="M55.9377 65.452C66.1655 65.452 74.4567 57.1608 74.4567 46.933C74.4567 36.7053 66.1655 28.4141 55.9377 28.4141C45.71 28.4141 37.4188 36.7053 37.4188 46.933C37.4188 57.1608 45.71 65.452 55.9377 65.452Z" stroke="#EB0029" stroke-width="2" stroke-miterlimit="10"/>
<path d="M49.0003 47.0811L53.9748 53L63.0003 41" stroke="#EB0029" stroke-width="2" stroke-linecap="round" stroke-linejoin="round"/>
</svg>
