<svg width="71" height="70" viewBox="0 0 71 70" fill="none" xmlns="http://www.w3.org/2000/svg">
<path d="M70.1281 27.4318C70.0408 27.2677 69.9101 27.1308 69.7503 27.036C69.5905 26.9412 69.4077 26.8922 69.2219 26.8942H48.7788L52.2653 23.3923C52.361 23.298 52.437 23.1857 52.4888 23.0618C52.5407 22.9378 52.5674 22.8048 52.5674 22.6705C52.5674 22.5361 52.5407 22.4031 52.4888 22.2792C52.437 22.1552 52.361 22.0429 52.2653 21.9486C52.1731 21.8499 52.0613 21.7715 51.9369 21.7186C51.8126 21.6657 51.6786 21.6393 51.5435 21.6413H40.1009L36.2764 10.1681C36.2348 10.0405 36.1682 9.92246 36.0806 9.82082C35.993 9.71918 35.8861 9.63596 35.7661 9.57596C35.6461 9.51595 35.5154 9.48043 35.3815 9.47134C35.2476 9.46224 35.1133 9.47968 34.9863 9.5229C34.8335 9.57156 34.6943 9.6552 34.5796 9.7672C34.465 9.87919 34.378 10.0165 34.3258 10.1681L30.5014 21.6413H19.0741C18.871 21.6406 18.6721 21.7001 18.5026 21.8121C18.3332 21.9242 18.2007 22.0839 18.1218 22.2711C18.043 22.4584 18.0213 22.6648 18.0596 22.8643C18.0979 23.0639 18.1944 23.2475 18.3369 23.3923L21.8388 26.8942H1.38032C1.24518 26.8942 1.11137 26.9209 0.986521 26.9726C0.861669 27.0243 0.748217 27.1 0.65266 27.1955C0.557102 27.2911 0.481308 27.4046 0.429593 27.5295C0.377878 27.6543 0.351257 27.788 0.351257 27.9232C0.352705 28.12 0.411411 28.3123 0.520209 28.4763L7.89263 40.0111V68.8709C7.89263 69.1438 8.00104 69.4055 8.19403 69.5985C8.38702 69.7915 8.64877 69.9 8.92169 69.9H61.6805C61.9535 69.9 62.2152 69.7915 62.4082 69.5985C62.6012 69.4055 62.7096 69.1438 62.7096 68.8709V40.0111L70.0974 28.4763C70.1968 28.3214 70.2522 28.1422 70.2577 27.9582C70.2631 27.7742 70.2183 27.5922 70.1281 27.4318ZM21.547 23.6994H31.254C31.4694 23.6997 31.6793 23.6315 31.8533 23.5044C32.0273 23.3774 32.1563 23.1982 32.2216 22.9929L35.2934 13.7774L38.3653 22.9929C38.4355 23.1982 38.5678 23.3765 38.744 23.5031C38.9201 23.6297 39.1313 23.6983 39.3483 23.6994H49.0399L45.8452 26.8942H42.7734C42.5996 26.8957 42.4288 26.9398 42.2762 27.0229C42.1235 27.1059 41.9936 27.2252 41.8979 27.3703L35.232 37.7992L28.5507 27.3703C28.4575 27.2264 28.3302 27.1078 28.1802 27.0247C28.0302 26.9417 27.8621 26.8969 27.6906 26.8942H24.6188L21.547 23.6994ZM27.1991 28.9523L33.3428 38.6746H9.48997L3.3463 28.9523H27.1991ZM9.95076 40.7329H34.2797V67.8419H9.95076V40.7329ZM60.6361 67.8419H36.3379V40.7329H60.6361V67.8419ZM61.1122 38.6594H37.1826L43.3263 28.9369H67.2713L61.1122 38.6594Z" fill="#EB0029"/>
<path d="M35.3074 6.49691C35.5803 6.49691 35.8421 6.38841 36.0351 6.19543C36.228 6.00244 36.3365 5.7407 36.3365 5.46778V1.02913C36.3365 0.756208 36.228 0.494472 36.0351 0.301484C35.8421 0.108497 35.5803 0 35.3074 0C35.0345 0 34.7727 0.108497 34.5797 0.301484C34.3867 0.494472 34.2783 0.756208 34.2783 1.02913V5.46778C34.2783 5.7407 34.3867 6.00244 34.5797 6.19543C34.7727 6.38841 35.0345 6.49691 35.3074 6.49691Z" fill="#EB0029"/>
<path d="M23.451 8.90837C23.5854 9.14667 23.809 9.32164 24.0725 9.39509C24.3361 9.46854 24.618 9.43427 24.8563 9.29985C25.0946 9.16542 25.2698 8.94187 25.3432 8.67832C25.4167 8.41476 25.3824 8.13291 25.248 7.89461L23.0363 4.05481C22.9697 3.93681 22.8806 3.83312 22.7739 3.74957C22.6673 3.66603 22.5452 3.60427 22.4147 3.5679C22.1511 3.49445 21.8692 3.52872 21.6309 3.66314C21.3926 3.79757 21.2175 4.02111 21.144 4.28467C21.0706 4.54823 21.1048 4.83027 21.2392 5.06857L23.451 8.90837Z" fill="#EB0029"/>
<path d="M11.9654 15.0981L15.8206 17.3099C15.9363 17.3786 16.0645 17.4235 16.1977 17.4421C16.331 17.4607 16.4666 17.4528 16.5967 17.4185C16.7268 17.3842 16.8487 17.3243 16.9555 17.2424C17.0622 17.1605 17.1515 17.0581 17.2183 16.9413C17.355 16.7062 17.3946 16.4269 17.3286 16.163C17.2626 15.8991 17.0963 15.6713 16.865 15.5282L13.0252 13.3166C12.9086 13.2485 12.7796 13.2043 12.6457 13.1868C12.5118 13.1693 12.3758 13.1786 12.2456 13.2144C12.1154 13.2501 11.9937 13.3117 11.8875 13.3951C11.7814 13.4786 11.693 13.5824 11.6275 13.7005C11.4969 13.9361 11.4623 14.2129 11.531 14.4734C11.5997 14.7338 11.7663 14.9576 11.9962 15.0981H11.9654Z" fill="#EB0029"/>
<path d="M45.7526 9.29261C45.9891 9.42593 46.2687 9.46034 46.5305 9.38842C46.7923 9.3165 47.015 9.14407 47.1502 8.90863L49.3773 5.06883C49.5158 4.83257 49.5548 4.55087 49.4857 4.28587C49.4165 4.02088 49.245 3.79422 49.0087 3.65572C48.7724 3.51722 48.4908 3.47822 48.2258 3.54735C47.9608 3.61648 47.7342 3.78806 47.5957 4.02433L45.3686 7.86412C45.2977 7.98254 45.2514 8.11405 45.2324 8.25073C45.2133 8.38741 45.222 8.52638 45.2578 8.65965C45.2936 8.79291 45.3559 8.91766 45.4409 9.02638C45.5259 9.13509 45.6319 9.22569 45.7526 9.29261Z" fill="#EB0029"/>
<path d="M54.2784 17.4481C54.4617 17.4493 54.6419 17.4017 54.8006 17.3099L58.6404 15.0827C58.7572 15.016 58.8596 14.9268 58.9415 14.82C59.0234 14.7133 59.0833 14.5913 59.1176 14.4612C59.1519 14.3311 59.16 14.1954 59.1413 14.0622C59.1227 13.929 59.0777 13.8008 59.009 13.6852C58.8738 13.4497 58.651 13.2771 58.3892 13.2052C58.1274 13.1333 57.8478 13.1679 57.6113 13.3012L53.7715 15.5282C53.5761 15.6412 53.4232 15.8153 53.3365 16.0237C53.2498 16.2322 53.234 16.4635 53.2917 16.6818C53.3493 16.9001 53.4771 17.0932 53.6554 17.2317C53.8337 17.3702 54.0526 17.4463 54.2784 17.4481Z" fill="#EB0029"/>
</svg>
