<svg width="98" height="70" viewBox="0 0 98 70" fill="none" xmlns="http://www.w3.org/2000/svg">
<g clip-path="url(#clip0_1_3016)">
<path d="M51.5811 25.297C51.3592 25.297 51.1373 25.0751 51.1373 25.0751C50.9153 25.297 50.9153 25.297 50.6934 25.297C50.4715 25.5189 50.4715 25.5189 50.2496 25.7408C48.2525 27.5161 47.5868 28.6256 46.9211 29.957C46.4773 30.6227 46.0334 31.5103 45.3677 32.6199C44.0363 34.3951 42.0392 35.0608 40.2639 35.5046C38.9325 35.9484 37.6011 36.3923 36.9353 37.058C36.4915 37.5018 36.9353 38.3894 37.823 40.1646C38.7106 41.718 39.5982 43.2713 39.3763 45.0465C39.1544 47.0437 38.2668 48.1532 37.6011 49.4846C36.9354 50.3722 36.4915 51.2599 35.8258 52.8132C35.6039 53.257 35.6039 53.7008 35.8258 54.1446C36.7134 56.5856 41.3734 59.4703 44.2582 60.8018C47.5868 62.3551 48.2525 64.5742 47.8087 68.1246C47.8087 68.7904 47.143 69.2342 46.6992 69.2342H46.4773C46.2554 69.2342 45.8115 69.0123 45.5896 68.7903C45.3677 68.5684 45.3677 68.1246 45.3677 67.9027C45.5896 64.5742 45.1458 63.6865 43.1487 62.7989C43.1487 62.7989 35.1601 59.2484 33.3849 54.8103C32.9411 53.7008 32.9411 52.5913 33.3849 51.7037C34.0506 50.1503 34.9382 49.0408 35.382 48.1532C36.2696 47.0437 36.7134 46.1561 36.9353 44.8246C37.1573 43.937 36.2696 42.6056 35.6039 41.4961C34.4944 39.7208 33.3849 37.5018 34.9382 35.7265C36.0477 34.3951 37.6011 33.9513 39.3763 33.5075C40.9296 33.0637 42.483 32.6199 43.3706 31.2884C44.0363 30.4008 44.4801 29.7351 44.702 29.0694C45.5896 27.5161 46.2554 26.1846 48.6963 23.9656C48.9182 23.7437 48.9182 23.7437 49.1401 23.5218C49.362 23.5218 49.362 23.2999 49.5839 23.2999C49.5839 23.078 49.362 23.078 49.362 22.8561C50.0277 22.1903 51.1373 22.4122 51.803 23.078C52.4687 23.7437 52.2468 24.8532 51.5811 25.297Z" fill="#EB0029"/>
<path d="M51.3584 23.2999C51.1365 23.078 50.6927 22.8561 50.4708 22.8561C50.2489 22.8561 50.027 22.8561 49.8051 23.078C49.8051 23.078 49.8051 23.078 49.5832 23.2999C49.3613 23.5218 49.3613 23.5218 49.1394 23.5218C48.9175 23.7437 48.9175 23.7437 48.6956 23.9656C46.2546 25.9628 45.367 27.5161 44.7013 29.0694C44.2575 29.7352 44.0356 30.4009 43.3698 31.2885C42.4822 32.398 40.9289 32.8418 39.3756 33.5075C37.8222 33.9513 36.047 34.6171 34.9375 35.7266C33.3841 37.5018 34.4936 39.7209 35.6032 41.4961C36.2689 42.6056 36.9346 43.9371 36.9346 44.8247C36.7127 46.378 36.2689 47.0437 35.3813 48.1532C34.7156 49.0409 34.0498 50.1504 33.3841 51.7037C32.9403 52.5913 32.9403 53.7009 33.3841 54.8104C34.9375 59.0266 42.926 62.799 43.1479 62.799C45.1451 63.6866 45.5889 64.5742 45.367 67.9028C45.367 68.1247 45.367 68.5685 45.5889 68.7904C45.8108 69.0123 46.0327 69.2342 46.4765 69.2342H46.6984C47.3641 69.2342 47.8079 68.7904 47.8079 68.1247C48.0298 64.5742 47.586 62.1332 44.2575 60.8018C41.3727 59.4704 36.7127 56.5856 35.8251 54.1447C35.6032 53.7009 35.6032 53.2571 35.8251 52.8132C36.4908 51.4818 37.1565 50.3723 37.6003 49.4847C38.4879 48.1532 39.1536 47.0437 39.3756 45.0466C39.5975 43.2713 38.7098 41.718 37.8222 40.1647C36.7127 38.3894 36.4908 37.5018 36.9346 37.058C37.6003 36.3923 38.9317 35.9485 40.2632 35.5047C42.0384 34.839 44.0356 34.3952 45.367 32.6199C46.0327 31.7323 46.4765 30.8447 46.9203 29.9571C47.586 28.6256 48.2517 27.5161 50.2489 25.7409C50.2489 25.7409 50.4708 25.519 50.6927 25.2971C50.9146 25.2971 50.9146 25.0752 51.1365 25.0752C51.1365 25.0752 51.1365 25.0752 51.3584 24.8532C51.8022 24.6313 51.8022 23.7437 51.3584 23.2999ZM52.6898 23.2999L51.5803 21.9685C50.9146 21.5247 49.8051 21.5247 48.9175 22.1904C48.9175 22.4123 49.1394 22.6342 49.1394 22.6342C49.1394 22.8561 49.3613 22.8561 49.3613 23.078C49.1394 23.2999 49.1394 23.2999 48.9175 23.2999C48.6955 23.5218 48.6956 23.5218 48.4736 23.7437C46.0327 25.7409 45.1451 27.2942 44.4794 28.8475C44.0356 29.5132 43.8136 30.179 43.1479 31.0666C42.2603 32.1761 40.707 32.6199 39.1536 33.2856C37.6003 33.7294 35.8251 34.3952 34.7156 35.5047C33.1622 37.2799 34.2717 39.499 35.3813 41.2742C36.047 42.3837 36.7127 43.7152 36.7127 44.6028C36.4908 46.1561 36.047 46.8218 35.1594 47.9313C34.4936 48.819 33.8279 49.9285 33.1622 51.4818C32.7184 52.3694 32.7184 53.479 33.1622 54.5885C34.7156 58.8047 42.7041 62.5771 42.926 62.5771C44.9232 63.4647 45.367 64.3523 45.1451 67.6809C45.1451 67.9028 45.1451 68.3466 45.367 68.5685C45.5889 68.7904 45.8108 69.0123 46.2546 69.0123H46.4765C47.1422 69.0123 47.586 68.5685 47.586 67.9028C47.8079 64.3523 47.3641 61.9113 44.0356 60.5799C41.1508 59.2485 36.4908 56.3637 35.6032 53.9228C35.3813 53.479 35.3813 53.0352 35.6032 52.5913C36.2689 51.2599 36.9346 50.1504 37.3784 49.2628C38.266 47.9313 38.9317 46.8218 39.1536 44.8247C39.3756 43.0494 38.4879 41.4961 37.6003 39.9428C36.4908 38.1675 36.2689 37.2799 36.7127 36.8361C37.3784 36.1704 38.7098 35.7266 40.0413 35.2828C41.8165 34.6171 43.8136 34.1733 45.1451 32.398C45.8108 31.5104 46.2546 30.6228 46.6984 29.7352C47.3641 28.4037 48.0298 27.2942 50.027 25.519C50.027 25.519 50.2489 25.2971 50.4708 25.0752C50.6927 25.0752 50.6927 24.8532 50.9146 24.8532C51.1365 25.0752 51.1365 25.0752 51.3584 25.2971C51.3584 25.519 51.5803 25.519 51.8022 25.7409C52.6898 25.2971 52.9117 24.1875 52.6898 23.2999Z" fill="#EB0029"/>
<path d="M89.3032 51.7038C89.0813 51.9257 88.8594 52.3695 88.6375 52.5914C88.6375 52.5914 88.6375 52.8133 88.4156 52.8133C88.1937 52.8133 87.9718 53.2571 87.7499 53.7009C87.5279 53.9228 87.5279 53.9228 87.306 54.3666C86.8622 55.0323 86.4184 55.92 85.7527 57.2514C85.5308 57.9171 84.6432 58.139 84.1994 57.6952C83.5337 57.4733 83.3118 56.5857 83.7556 56.1419C84.4213 54.8104 85.087 53.9228 85.5308 53.0352C85.7527 52.8133 85.7527 52.5914 85.9746 52.3695C86.1965 51.9257 86.6403 51.7038 86.6403 51.4819C86.8622 51.26 87.0841 50.8161 87.306 50.5942C87.7499 50.5942 88.1937 50.8161 88.6375 51.038C89.0813 51.038 89.3032 51.4819 89.3032 51.7038Z" fill="#EB0029"/>
<path d="M89.3016 50.3723C88.8578 50.1504 88.6358 49.9284 87.9701 49.7065C87.7482 49.9284 87.7482 50.1504 87.5263 50.1504C87.3044 50.5942 87.0825 50.8161 86.8606 51.038C87.0825 50.8161 87.3044 50.5942 87.7482 50.5942C88.192 50.5942 88.4139 50.8161 88.6358 51.038C88.8578 51.2599 89.0797 51.4818 89.0797 51.9256C89.0797 52.1475 89.0797 52.3694 88.8577 52.5913C89.0797 52.3694 89.3016 52.1475 89.5235 51.7037C89.7454 51.4818 89.7454 51.2599 89.9673 51.038C89.7454 50.8161 89.5235 50.5942 89.3016 50.3723Z" fill="#EB0029"/>
<path d="M83.0882 62.7992C81.7568 65.6839 81.313 66.7935 80.6472 69.2344C80.4253 69.9001 79.7596 70.122 79.0939 69.9001C78.4282 69.6782 78.2063 69.0125 78.4282 68.3468C79.3158 65.6839 79.7596 64.5744 81.0911 61.6896C81.313 61.4677 81.5349 61.2458 81.7568 61.0239C81.7568 61.0239 81.9787 61.0239 82.2006 61.0239C82.4225 61.0239 82.6444 61.0239 82.6444 61.2458C82.8663 61.4677 83.0882 61.6896 83.3101 61.9115C83.3101 62.1334 83.3101 62.5773 83.0882 62.7992Z" fill="#EB0029"/>
<path d="M8.74896 44.159L7.19562 44.6028C6.52991 44.8247 5.8642 44.3809 5.64229 43.7152C5.42039 43.0495 5.8642 42.3838 6.308 42.3838L7.86134 41.9399C7.86134 41.9399 8.08324 41.9399 8.30515 41.9399C8.74896 41.9399 9.19277 42.1618 9.41467 42.8276C9.85848 43.2714 9.41467 43.9371 8.74896 44.159Z" fill="#EB0029"/>
<path d="M27.1683 43.4933C26.9464 43.4933 26.5026 43.2714 25.615 43.0495C25.393 43.0495 25.1711 42.8276 25.1711 42.3838C25.1711 39.2771 23.3959 38.8333 20.9549 38.3895H20.2892C18.0702 37.9457 16.2949 37.7238 13.6321 39.0552C13.4102 39.0552 13.1883 39.2771 12.7445 39.499C12.0788 39.7209 11.413 39.9428 11.413 39.9428C10.9692 40.1647 10.7473 40.6086 10.7473 41.2743V41.4962V41.7181C10.7473 41.7181 10.7473 41.7181 10.9692 41.94C10.9692 41.94 10.9692 41.94 11.1911 42.1619L11.413 42.3838C11.6349 42.6057 12.0788 42.6057 12.3007 42.3838C12.3007 42.3838 13.1883 42.1619 13.854 41.7181C16.2949 40.3866 18.2921 40.3867 20.5111 40.8305C22.0645 41.0524 22.5083 41.2743 22.7302 41.4962C22.7302 41.4962 22.7302 41.4962 22.7302 41.7181C22.7302 41.94 22.9521 42.1619 22.9521 42.6057C22.9521 42.8276 22.7302 43.0495 22.5083 43.0495C21.6207 43.2714 20.0673 43.2714 17.6264 43.2714C17.1826 43.2714 16.7388 43.2714 16.5169 43.2714C15.6292 43.2714 13.4102 44.159 12.3007 45.4905C11.6349 46.1562 11.6349 47.0438 11.6349 47.7095C11.8569 49.7067 14.7416 51.9257 17.1826 51.9257C19.1797 52.1476 20.733 50.8162 21.6207 48.5971C22.0645 47.0438 22.7302 46.1562 23.8397 45.7124C24.0616 45.4905 24.5054 45.4905 24.7273 45.4905C24.9492 45.4905 24.9492 45.4905 25.1711 45.7124C25.393 45.9343 25.393 46.1562 25.393 46.1562C25.1711 46.8219 24.7273 48.1533 24.7273 49.4847C24.7273 51.7038 21.8426 55.4762 18.0702 58.139C17.6264 58.5828 17.4045 59.2486 17.8483 59.6924C18.2921 60.1362 18.9578 60.3581 19.4016 59.9143C23.174 57.2514 26.9464 53.0352 27.1683 49.4847C27.1683 48.1533 27.6121 47.0438 27.834 46.1562C28.0559 44.8247 28.2778 43.9371 27.1683 43.4933ZM20.0673 46.3781C19.8454 46.8219 19.6235 47.4876 19.4016 47.9314C18.9578 49.4847 18.2921 49.7066 17.6264 49.7066C17.6264 49.7066 17.6264 49.7066 17.4045 49.7066C15.8511 49.7066 14.0759 48.1533 13.854 47.7095C13.854 47.4876 13.854 47.4876 13.854 47.2657C14.0759 46.3781 15.8511 45.4905 16.5169 45.4905H16.7388C16.7388 45.4905 16.9607 45.4905 17.4045 45.4905H17.6264C18.2921 45.4905 18.9578 45.7124 19.6235 45.7124C19.8454 45.7124 20.0673 45.9343 20.0673 45.9343C20.0673 45.9343 20.0673 46.1562 20.0673 46.3781Z" fill="#EB0029"/>
<path d="M14.0757 38.6114C13.8538 38.8333 13.6319 39.0552 13.41 39.2772C12.9662 39.9429 12.9662 40.1648 12.9662 40.8305C12.9662 41.0524 12.9662 41.4962 12.7442 41.7181C12.7442 41.94 12.3004 42.1619 12.0785 42.1619C11.4128 42.3838 10.7471 41.94 10.7471 41.2743C10.5252 40.6086 10.3033 39.2771 11.6347 37.7238C11.8566 37.5019 12.0785 37.0581 12.5223 36.8362C13.1881 36.1705 14.0757 35.2829 14.2976 34.8391C14.2976 34.6171 14.2976 34.3952 14.0757 34.1733C13.8538 34.1733 13.8538 33.9514 13.6319 33.9514H13.41C12.9662 34.1733 12.3004 34.1733 12.0785 33.7295C11.6347 33.2857 11.6347 32.62 12.0785 32.1762C12.0785 31.9543 13.1881 31.2886 14.5195 31.5105C15.1852 31.7324 15.8509 31.9543 16.2947 33.0638C17.1823 35.2829 15.4071 37.28 14.0757 38.6114Z" fill="#EB0029"/>
<path d="M14.2985 32.3981C13.8547 33.7295 12.9671 35.2828 11.8575 36.6142C11.1918 37.7238 10.5261 38.6114 10.0823 39.499C9.8604 40.1647 9.19469 40.3866 8.52897 40.1647C7.86326 39.9428 7.64135 39.2771 7.86326 38.6114C8.52897 37.7238 9.41659 36.6142 10.0823 35.5047C10.9699 34.1733 11.8575 33.0638 12.0794 31.9542C12.0794 31.7323 12.0794 31.5104 11.8575 31.2885C11.6356 31.0666 11.4137 31.2885 11.1918 31.5104C9.6385 33.2857 6.97564 36.6142 6.30992 37.7238C5.42231 39.2771 2.53754 45.7123 2.98135 48.5971C3.42516 51.9257 5.64421 57.0295 5.64421 57.0295C5.64421 57.2514 5.86612 57.6952 5.64421 57.9171C5.64421 58.139 5.42231 58.3609 4.9785 58.5828C4.31278 58.8047 3.64707 58.5828 3.42516 57.9171C3.42516 57.9171 0.984211 52.3695 0.540401 48.819C0.0965919 45.0466 3.20326 38.1676 4.31278 36.3923C6.08802 33.5076 10.5261 27.96 11.6356 27.96C12.3014 27.96 13.189 28.4038 13.8547 29.2914C14.5204 30.179 14.7423 31.2885 14.2985 32.3981Z" fill="#EB0029"/>
<path d="M37.8191 26.6287L34.7125 29.9573C34.2687 30.4011 33.6029 30.4011 32.9372 29.9573C32.7153 29.7354 32.4934 29.5135 32.4934 29.0697C32.4934 28.8478 32.4934 28.404 32.7153 28.182L35.822 24.8535C36.0439 24.6316 36.4877 24.4097 36.7096 24.4097C36.9315 24.4097 37.3753 24.6316 37.5972 24.8535C38.2629 25.5192 38.2629 26.1849 37.8191 26.6287Z" fill="#EB0029"/>
<path d="M24.5066 29.7354C24.0628 30.1792 23.3971 30.1792 22.7314 29.7354L19.6247 26.6287C19.4028 26.4068 19.1809 26.1849 19.1809 25.7411C19.1809 25.5192 19.1809 25.0754 19.4028 24.8535C19.6247 24.6316 19.8466 24.4097 20.2904 24.4097C20.5124 24.4097 20.9562 24.4097 21.1781 24.6316L24.5066 27.7382C24.9504 28.404 24.9504 29.2916 24.5066 29.7354Z" fill="#EB0029"/>
<path d="M30.0523 26.8506C30.0523 27.0725 30.0523 27.5163 29.8304 27.7382C29.6085 27.9601 29.3866 28.182 28.9428 28.182C28.2771 28.182 27.8333 27.7382 27.8333 27.0725V22.6344C27.8333 22.4125 27.8333 21.9687 28.0552 21.7468C28.2771 21.5249 28.499 21.303 28.9428 21.303C29.1647 21.303 29.3866 21.5249 29.6085 21.5249C29.8304 21.7468 30.0523 21.9687 30.0523 22.4125V26.8506Z" fill="#EB0029"/>
<path d="M96.8485 36.3924C96.1827 40.8305 92.8542 47.2657 89.7475 51.26C89.5256 51.4819 89.5256 51.7038 89.3037 51.9257C89.0818 52.1476 88.8599 52.5914 88.638 52.8133C88.638 52.8133 88.638 53.0352 88.4161 53.0352C88.1942 53.0352 87.9723 53.479 87.7504 53.9229H87.5285C87.0847 53.9229 86.6408 53.701 86.4189 53.479C86.197 53.2571 85.9751 52.8133 85.9751 52.3695C86.197 51.9257 86.6408 51.7038 86.6408 51.4819C86.8627 51.26 87.0846 50.8162 87.3065 50.5943C87.5285 50.3724 87.5285 50.3724 87.7504 50.1505C90.6351 46.3781 93.7418 40.3867 94.4075 36.3924C95.2951 30.401 91.5227 21.5248 82.8685 16.199H82.6466H82.4247C82.2027 16.199 82.2027 16.421 82.2027 16.6429C81.9808 17.5305 81.537 18.1962 81.0932 18.8619C80.8713 19.3057 80.2056 19.5276 79.5399 19.3057C74.4361 17.0867 69.998 12.6486 67.557 7.54476C67.557 7.32286 67.3351 7.32286 67.1132 7.32286C66.8913 7.32286 66.6694 7.32286 66.6694 7.54476C65.7818 9.09809 65.338 11.0952 64.8942 13.0924C64.8942 13.5362 64.4504 13.7581 64.2285 13.98C64.0066 14.2019 63.5627 14.2019 63.1189 13.98C58.9027 11.761 56.6837 8.87619 54.4646 5.76952C54.2427 5.32571 53.7989 4.8819 53.3551 4.4381C53.1332 4.21619 53.1332 4.21619 52.9113 4.21619C52.6894 4.21619 52.4675 4.4381 52.4675 4.4381C51.1361 6.43524 49.8046 11.0952 49.8046 15.5333C49.8046 18.1962 50.4704 20.1933 51.5799 21.9686L52.6894 23.3C52.9113 23.5219 53.3551 23.9657 53.577 24.1876C54.0208 24.6314 54.2427 25.2971 53.7989 25.741C53.3551 26.1848 52.6894 26.4067 52.0237 25.9629L51.8018 25.741C51.5799 25.519 51.5799 25.519 51.358 25.2971C51.1361 25.0752 51.1361 25.0752 50.9142 24.8533C50.6923 25.0752 50.6923 25.0752 50.4704 25.0752C49.8046 24.4095 49.3608 23.9657 49.1389 23.3C49.3608 23.3 49.3608 23.0781 49.5827 23.0781C49.5827 22.8562 49.3608 22.8562 49.3608 22.6343C49.3608 22.4124 49.1389 22.1905 49.1389 22.1905C48.2513 20.4152 47.5856 18.1962 47.5856 15.7552C47.3637 9.5419 49.8046 2.66286 52.4675 0.44381C52.4675 0 52.9113 0 53.1332 0C53.577 0 53.7989 0.221905 54.0208 0.44381C54.9085 1.55333 55.7961 2.66286 56.4618 3.77238C58.237 6.21333 59.7904 8.43238 62.2313 10.2076C62.4532 10.4295 62.4532 10.4295 62.6751 10.2076C62.897 10.2076 62.897 9.98571 63.1189 9.76381C63.5627 7.76667 64.6723 4.8819 66.8913 3.10667C67.1132 2.88476 67.557 2.88476 68.0008 2.88476C68.4446 2.88476 68.6666 3.32857 68.6666 3.55048C70.4418 8.87619 74.2142 13.3143 79.0961 15.9771C79.318 15.9771 79.318 15.9771 79.5399 15.9771C79.7618 15.9771 79.7618 15.7552 79.7618 15.5333C79.9837 14.8676 79.9837 14.2019 79.9837 13.5362C79.9837 13.0924 80.2056 12.6486 80.4275 12.4267C80.8713 12.2048 81.3151 12.2048 81.537 12.2048C91.5227 17.3086 97.958 27.5162 96.8485 36.3924Z" fill="#EB0029"/>
</g>
<defs>
<clipPath id="clip0_1_3016">
<rect width="96.5286" height="69.9" fill="white" transform="translate(0.540401)"/>
</clipPath>
</defs>
</svg>
