<svg width="768" height="653" viewBox="0 0 768 653" fill="none" xmlns="http://www.w3.org/2000/svg">
<path fill-rule="evenodd" clip-rule="evenodd" d="M73.9312 96.4919C27.4452 154.378 -1.86749e-05 225.768 -1.5299e-05 303C-6.84959e-06 496.3 171.923 653 384 653C596.077 653 768 496.3 768 303C768 202.256 721.301 111.454 646.557 47.5953C612.723 64.3763 574.037 80.0205 544.058 82.1888C518.18 84.0603 477.217 79.0929 423.16 47.8035C222.43 -68.3814 92.4599 52.2802 63.4685 144.385L73.9312 96.4919ZM57.9803 169.507C58.8909 161.538 60.7288 153.089 63.4685 144.385L57.9803 169.507Z" fill="#B97ACD"/>
</svg>
